<svg width="320" height="295" viewBox="0 0 320 295" fill="none" xmlns="http://www.w3.org/2000/svg">
<path d="M0 19.9045V97.7438H77.9381V19.9045H0ZM5.92986 91.9325V25.7751H72.0478V91.9325H5.92986Z" fill="#EBEBEB"/>
<path d="M319.797 0H55.385V243.5H319.797V0Z" fill="#37474F"/>
<path d="M234.822 120.752C267.041 153.405 307.562 222.093 300.051 236.028C291.63 251.544 246.781 205.766 246.939 203.078C247.077 201.101 231.304 159.335 219.266 128.994C207.229 98.653 226.857 112.667 234.822 120.752Z" fill="#F7A9A0"/>
<path d="M246.603 203.137C245.239 198.67 223.753 143.661 217.626 126.247C211.498 108.833 217.171 103.476 234.704 119.408C252.236 135.339 290.662 188.589 299.438 216.835C307.878 244.014 293.864 244.014 275.442 231.502C260.242 221.243 246.603 203.137 246.603 203.137Z" fill="#FFC017"/>
<path opacity="0.1" d="M231.66 121.206C231.241 123.648 230.192 125.937 228.616 127.848C228.815 126.631 229.181 125.447 229.703 124.329C230.215 123.207 230.873 122.157 231.66 121.206ZM284.791 196.871C284.255 197.983 283.889 199.169 283.704 200.39C284.509 199.449 285.175 198.397 285.681 197.267C286.203 196.149 286.568 194.965 286.768 193.748C285.956 194.684 285.29 195.737 284.791 196.871ZM265.796 167.953C265.263 169.073 264.896 170.265 264.709 171.491C265.51 170.54 266.175 169.483 266.685 168.349C267.213 167.233 267.579 166.049 267.773 164.83C266.972 165.774 266.307 166.826 265.796 167.953ZM246.03 160.699C244.918 160.163 243.732 159.797 242.511 159.612C244.422 161.188 246.712 162.237 249.153 162.656C248.223 161.861 247.185 161.202 246.069 160.699H246.03ZM263.819 189.933C262.699 189.4 261.507 189.034 260.281 188.846C261.232 189.647 262.29 190.312 263.424 190.823C264.539 191.35 265.724 191.716 266.942 191.91C266.01 191.112 264.973 190.447 263.859 189.933H263.819ZM249.35 139.866C248.239 139.329 247.053 138.963 245.832 138.778C246.773 139.583 247.825 140.249 248.955 140.755C250.068 141.288 251.254 141.655 252.474 141.842C251.545 141.04 250.506 140.375 249.39 139.866H249.35ZM238.321 178.904C238.74 180.066 239.318 181.163 240.041 182.165C239.799 179.697 238.921 177.333 237.491 175.306C237.618 176.539 237.911 177.749 238.36 178.904H238.321ZM275.541 213.732C275.955 214.896 276.534 215.994 277.26 216.993C277.019 214.525 276.141 212.161 274.711 210.134C274.826 211.369 275.119 212.581 275.58 213.732H275.541ZM250.477 207.802L251.129 208.573C252.208 208.175 253.225 207.629 254.154 206.952C252.903 207.076 251.678 207.382 250.517 207.861L250.477 207.802ZM294.576 228.596C295.739 228.182 296.838 227.602 297.837 226.876C296.604 226.979 295.393 227.259 294.24 227.707C293.072 228.113 291.973 228.693 290.978 229.426C292.22 229.336 293.444 229.077 294.615 228.655L294.576 228.596ZM228.418 147.97C227.612 148.268 226.832 148.631 226.086 149.057L226.264 149.551C227.108 149.402 227.935 149.17 228.734 148.859C229.908 148.453 231.014 147.873 232.016 147.14C230.795 147.272 229.597 147.572 228.458 148.029L228.418 147.97Z" fill="black"/>
<path d="M242.749 243.559H120.198C120.198 243.559 139.668 147.495 186.632 105.907C192.444 100.768 205.529 101.954 214.088 106.184C217.132 107.706 228.082 123.025 231.205 137.513C234.328 152.002 243.104 243.124 242.749 243.559Z" fill="#FFC017"/>
<path d="M232.351 143.503C233.32 146.744 234.111 150.085 234.763 153.386C234.753 153.254 234.753 153.122 234.763 152.99C234.763 151.014 234.763 149.175 235.02 147.278C235.02 147.278 235.198 147.159 235.198 147.278C235.448 149.185 235.501 151.112 235.356 153.03C235.356 153.919 235.257 154.829 235.178 155.738C235.435 157.24 235.672 158.762 235.85 160.264C236.226 163.111 237.174 173.765 237.253 175.88C237.253 176.314 236.759 176.393 236.641 175.88C236.067 173.745 234.545 162.755 234.051 159.928C233.096 154.453 232.436 148.93 232.075 143.384C232.134 143.384 232.312 143.384 232.351 143.503Z" fill="#263238"/>
<path opacity="0.1" d="M194.4 130.991C194.2 132.21 193.827 133.394 193.294 134.509C192.795 135.643 192.129 136.696 191.317 137.632C191.521 136.413 191.893 135.229 192.424 134.114C192.927 132.982 193.593 131.93 194.4 130.991ZM177.797 179.773C177.261 180.885 176.894 182.071 176.71 183.292C178.286 181.381 179.335 179.092 179.754 176.65C178.956 177.593 178.297 178.644 177.797 179.773ZM138.008 197.227C137.474 198.347 137.108 199.539 136.92 200.765C137.721 199.821 138.386 198.77 138.897 197.642C139.43 196.522 139.797 195.33 139.984 194.104C139.183 195.048 138.518 196.099 138.008 197.227ZM167.261 228.517C166.725 229.629 166.359 230.815 166.174 232.035C166.968 231.086 167.633 230.036 168.151 228.912C168.667 227.786 169.032 226.596 169.238 225.374C168.43 226.32 167.764 227.379 167.261 228.517ZM218.318 168.072C217.793 169.195 217.427 170.386 217.23 171.61C218.038 170.664 218.704 169.605 219.207 168.467C219.743 167.355 220.11 166.169 220.294 164.949C219.5 165.898 218.835 166.948 218.318 168.072ZM234.407 201.259C233.874 202.379 233.508 203.571 233.32 204.797C234.121 203.853 234.786 202.802 235.297 201.674C235.83 200.555 236.196 199.362 236.384 198.136C235.588 199.084 234.923 200.135 234.407 201.259ZM195.468 225.176C194.952 226.303 194.587 227.493 194.381 228.715C195.189 227.769 195.855 226.71 196.357 225.572C196.891 224.457 197.264 223.273 197.464 222.053C196.657 222.997 195.985 224.048 195.468 225.176ZM158.169 160.482C157.638 161.597 157.266 162.782 157.062 164C157.874 163.064 158.54 162.011 159.039 160.877C159.572 159.763 159.945 158.578 160.146 157.359C159.338 158.298 158.672 159.35 158.169 160.482ZM204.461 149.571C203.35 149.035 202.164 148.668 200.943 148.484C201.884 149.289 202.936 149.954 204.066 150.46C205.183 150.985 206.367 151.351 207.585 151.547C206.644 150.742 205.592 150.077 204.461 149.571ZM212.19 188.985C211.078 188.448 209.892 188.082 208.672 187.897C209.618 188.696 210.668 189.361 211.795 189.874C212.91 190.401 214.095 190.767 215.313 190.961C214.377 190.149 213.324 189.483 212.19 188.985ZM140.162 230.75C139.048 230.217 137.863 229.844 136.644 229.644C137.58 230.455 138.632 231.122 139.767 231.62C140.883 232.148 142.067 232.521 143.285 232.727C142.349 231.915 141.296 231.249 140.162 230.75ZM213.455 238.657C212.339 238.132 211.154 237.767 209.937 237.57C210.878 238.375 211.929 239.041 213.06 239.546L213.811 239.882C214.463 239.882 215.096 239.882 215.788 240.001C215.052 239.501 214.271 239.071 213.455 238.716V238.657ZM167.696 198.769C166.581 198.242 165.396 197.876 164.178 197.682C165.114 198.493 166.167 199.16 167.301 199.658C168.415 200.189 169.6 200.555 170.819 200.745C169.87 199.968 168.819 199.323 167.696 198.828V198.769ZM204.461 114.624C203.347 114.09 202.162 113.718 200.943 113.517C201.885 114.321 202.936 114.987 204.066 115.494C205.186 116.009 206.369 116.375 207.585 116.581C206.643 115.797 205.591 115.158 204.461 114.683V114.624ZM212.368 132.908C212.779 134.073 213.358 135.172 214.088 136.169C213.977 134.938 213.698 133.727 213.257 132.572C212.839 131.41 212.261 130.312 211.538 129.31C211.65 130.565 211.943 131.797 212.407 132.967L212.368 132.908ZM231.956 224.129C232.363 225.296 232.942 226.396 233.676 227.39C233.435 224.922 232.556 222.558 231.126 220.531C231.229 221.764 231.508 222.976 231.956 224.129ZM179.398 155.876C179.82 157.036 180.399 158.134 181.118 159.138C181.022 157.906 180.749 156.694 180.307 155.54C179.885 154.38 179.306 153.283 178.588 152.279C178.661 153.504 178.901 154.715 179.299 155.876H179.398ZM194.539 196.002C194.949 197.167 195.528 198.266 196.259 199.263C196.153 198.031 195.874 196.819 195.428 195.665C195.01 194.504 194.431 193.406 193.709 192.404C193.765 193.63 193.998 194.842 194.4 196.002H194.539ZM124.349 243.065C124.339 243.229 124.339 243.394 124.349 243.559H124.665L124.349 243.065ZM158.821 242.907C158.407 241.737 157.828 240.632 157.102 239.625C157.202 240.859 157.482 242.071 157.932 243.223L158.05 243.559H159.039C158.821 243.342 158.821 243.124 158.821 242.907ZM151.785 214.621C152.203 215.783 152.782 216.881 153.504 217.883C153.404 216.65 153.124 215.438 152.674 214.285C152.264 213.12 151.685 212.021 150.954 211.024C151.028 212.251 151.274 213.463 151.686 214.621H151.785ZM181.434 120.178C181.836 121.348 182.416 122.448 183.154 123.44C183.048 122.207 182.769 120.996 182.323 119.842C181.905 118.68 181.326 117.583 180.604 116.581C180.679 117.81 180.932 119.022 181.355 120.178H181.434ZM214.167 212.743C215.329 212.325 216.427 211.747 217.428 211.024C216.196 211.12 214.985 211.393 213.831 211.834C212.67 212.257 211.573 212.835 210.569 213.554C211.801 213.458 213.013 213.185 214.167 212.743ZM182.066 242.235C183.23 241.82 184.328 241.241 185.328 240.515C182.859 240.756 180.496 241.635 178.469 243.065C179.702 242.962 180.913 242.683 182.066 242.235ZM127.532 215.531C127.532 215.807 127.354 216.084 127.275 216.361C127.865 216.071 128.428 215.727 128.955 215.333C128.476 215.367 128.001 215.433 127.532 215.531ZM155.481 181.552C156.651 181.138 157.756 180.559 158.762 179.833C157.529 179.933 156.317 180.213 155.165 180.663C153.995 181.077 152.89 181.656 151.883 182.383C153.115 182.272 154.326 181.993 155.481 181.552ZM181.177 214.009C182.363 213.632 183.488 213.086 184.517 212.388C182.049 212.629 179.685 213.508 177.659 214.938C178.876 214.798 180.067 214.485 181.197 214.009H181.177ZM196.377 167.459C197.544 167.037 198.647 166.458 199.658 165.739C198.426 165.833 197.214 166.106 196.061 166.55C194.899 166.968 193.801 167.547 192.799 168.27C194.025 168.174 195.23 167.901 196.377 167.459ZM228.695 148.918C229.868 148.512 230.974 147.933 231.976 147.199C230.743 147.299 229.531 147.579 228.379 148.029C227.213 148.439 226.114 149.018 225.117 149.749C226.37 149.653 227.602 149.374 228.774 148.918H228.695ZM170.918 138.087C172.082 137.672 173.18 137.093 174.18 136.367C171.711 136.608 169.347 137.487 167.321 138.917C168.58 138.822 169.819 138.542 170.997 138.087H170.918Z" fill="black"/>
<path d="M80.6461 68.0945C80.3891 62.1646 81.5751 35.1442 83.5912 27.6924C85.6074 20.2405 92.9604 -0.81047 98.8309 0.158073C104.702 1.12662 103.041 7.4518 103.041 7.4518C103.041 7.4518 107.548 -0.948824 113.379 0.553406C119.21 2.05564 116.285 11.8399 116.285 11.8399C116.285 11.8399 121.542 3.55786 127.255 5.47518C132.967 7.3925 128.381 16.7221 128.381 16.7221C128.381 16.7221 132.829 8.93427 136.861 12.4922C141.704 16.7617 131.86 30.2817 130.259 38.6033C129.884 40.5799 125.594 77.7997 125.594 77.7997L80.6461 68.0945Z" fill="#F7A9A0"/>
<path d="M128.757 15.971C121.522 25.8541 120.08 31.4677 119.289 43.5053C119.289 43.7425 118.913 43.7623 118.913 43.5053C118.617 31.6456 119.427 24.3716 128.282 15.5757C128.717 15.1804 129.172 15.5164 128.757 15.971Z" fill="#263238"/>
<path d="M116.878 11.1284C110.276 22.0591 108.655 28.1075 106.876 40.6393C106.876 40.8172 106.56 40.7974 106.56 40.6393C107.271 28.1866 108.24 20.8731 116.265 10.99C116.64 10.4168 117.174 10.6144 116.878 11.1284Z" fill="#263238"/>
<path d="M102.962 8.1436C97.3483 19.1929 95.2927 25.7553 95.0555 38.1487C95.0409 38.1976 95.0109 38.2406 94.9699 38.2711C94.929 38.3016 94.8793 38.3181 94.8282 38.3181C94.7771 38.3181 94.7274 38.3016 94.6864 38.2711C94.6455 38.2406 94.6155 38.1976 94.6009 38.1487C93.5335 25.4983 96.0438 17.2953 102.507 7.98547C103.061 7.37272 103.318 7.45179 102.962 8.1436Z" fill="#263238"/>
<path d="M125.219 85.5678C125.219 85.5678 136.387 75.0325 140.281 69.3398C144.174 63.6471 150.855 37.0221 145.183 35.2431C137.869 32.97 130.99 47.5574 128.559 55.1477C128.559 55.1477 111.639 49.8503 104.444 59.259C97.2495 68.6677 125.219 85.5678 125.219 85.5678Z" fill="#F7A9A0"/>
<path d="M143.008 35.2827C134.845 38.0104 132.295 48.1702 129.37 55.3651C129.332 55.4739 129.269 55.5719 129.185 55.6509C129.101 55.7298 129 55.7873 128.889 55.8184C128.778 55.8495 128.662 55.8533 128.549 55.8294C128.437 55.8055 128.332 55.7547 128.243 55.6814C121.008 53.9222 110.295 53.5664 104.523 58.7846C104.492 58.8213 104.447 58.8441 104.399 58.8478C104.351 58.8515 104.303 58.8359 104.267 58.8044C104.23 58.773 104.207 58.7282 104.203 58.68C104.2 58.6318 104.215 58.5841 104.247 58.5474C109.801 52.0839 120.356 51.5897 128.164 54.0012C131.03 46.5889 134.094 36.4884 143.087 35.2036C143.008 35.1838 143.008 35.2629 143.008 35.2827Z" fill="#263238"/>
<path d="M193.471 120.238C186.118 132.967 143.621 172.203 106.5 179.003C101.479 179.912 82.3458 175.879 78.3333 163.19C71.1977 140.577 76.9101 93.8893 80.5471 65.7818C81.2587 60.3066 132.216 71.5733 130.892 79.9542C129.429 89.2443 123.973 123.341 124.823 123.736C127.867 125.14 160.402 111.066 181.809 106.461C197.029 103.179 199.144 110.434 193.471 120.238Z" fill="#F7A9A0"/>
<path d="M73.4116 79.6577L131.485 92.229C131.485 92.229 126.207 121.878 127.235 121.74C128.263 121.602 169.021 106.698 184.735 105.136C200.449 103.575 200.429 110.493 192.463 123.46C184.497 136.426 132.315 179.833 106.599 179.833C93.5137 179.833 81.3378 171.452 78.9263 167.439C71.593 155.066 73.4116 79.6577 73.4116 79.6577Z" fill="#455A64"/>
<path d="M73.4116 79.6577L131.485 92.229C131.485 92.229 126.207 121.878 127.235 121.74C128.263 121.602 169.021 106.698 184.735 105.136C200.449 103.575 200.429 110.493 192.463 123.46C184.497 136.426 132.315 179.833 106.599 179.833C93.5137 179.833 81.3378 171.452 78.9263 167.439C71.593 155.066 73.4116 79.6577 73.4116 79.6577Z" fill="#FFC017"/>
<path opacity="0.1" d="M156.627 121.009C156.1 122.124 155.734 123.309 155.54 124.527C156.352 123.591 157.018 122.538 157.517 121.404C158.05 120.291 158.417 119.105 158.604 117.886C157.806 118.831 157.141 119.882 156.627 121.009ZM110.493 172.855C109.957 173.967 109.591 175.153 109.406 176.374C110.982 174.463 112.031 172.173 112.45 169.732C111.656 170.678 110.998 171.729 110.493 172.855ZM76.2976 137.276C75.7552 138.387 75.3821 139.573 75.1907 140.795C75.9949 139.853 76.6604 138.801 77.1673 137.671C77.6848 136.552 78.0504 135.369 78.2544 134.153C77.4539 135.093 76.7947 136.146 76.2976 137.276ZM126.84 137.415C126.315 138.538 125.949 139.729 125.753 140.953C126.565 140.01 127.231 138.95 127.729 137.81C128.263 136.695 128.636 135.511 128.836 134.291C128.025 135.239 127.353 136.297 126.84 137.434V137.415ZM101.499 152.081C100.978 153.198 100.612 154.382 100.412 155.599C101.224 154.663 101.89 153.611 102.389 152.476C102.923 151.362 103.295 150.177 103.496 148.958C102.685 149.898 102.012 150.95 101.499 152.081ZM103.753 116.383C103.222 117.497 102.856 118.683 102.666 119.902C104.242 117.991 105.291 115.701 105.71 113.26C104.877 114.196 104.184 115.248 103.654 116.383H103.753ZM77.78 89.8373C77.2463 90.9517 76.8736 92.1364 76.6731 93.3557C77.4912 92.4243 78.1581 91.3705 78.6498 90.2326C79.1806 89.117 79.5531 87.9328 79.7567 86.7142C78.9516 87.6552 78.2859 88.707 77.78 89.8373ZM182.205 119.823C181.79 118.659 181.211 117.561 180.485 116.561C180.586 117.794 180.865 119.006 181.315 120.159C181.718 121.323 182.291 122.422 183.015 123.42C182.93 122.197 182.67 120.992 182.244 119.842L182.205 119.823ZM147.812 143.542C147.394 142.38 146.815 141.282 146.092 140.281C146.195 141.513 146.474 142.725 146.922 143.878C147.328 145.045 147.908 146.145 148.642 147.139C148.541 145.923 148.275 144.726 147.851 143.582L147.812 143.542ZM121.977 116.798C121.563 115.635 120.984 114.536 120.258 113.537C120.499 116.006 121.377 118.369 122.807 120.396C122.714 119.178 122.448 117.98 122.017 116.838L121.977 116.798ZM118.637 155.501C118.222 154.337 117.643 153.239 116.917 152.239C117.02 153.472 117.299 154.684 117.747 155.837C118.157 157.002 118.737 158.101 119.467 159.098C119.373 157.881 119.107 156.683 118.676 155.54L118.637 155.501ZM85.5086 151.33C85.0985 150.164 84.5191 149.065 83.789 148.068C83.9038 149.299 84.1829 150.509 84.6191 151.666C85.0336 152.83 85.6127 153.928 86.3388 154.927C86.2473 153.71 85.981 152.511 85.5481 151.369L85.5086 151.33ZM95.965 96.6171C95.551 95.447 94.9719 94.3421 94.2452 93.3359C94.3413 94.5742 94.6142 95.7923 95.0557 96.9531C95.4823 98.1115 96.0606 99.2081 96.7753 100.215C96.6904 98.9977 96.4308 97.7995 96.0045 96.6566L95.965 96.6171ZM92.0117 127.65C91.5936 126.488 91.0147 125.39 90.292 124.389C90.3946 125.621 90.6743 126.833 91.1222 127.986C91.5323 129.152 92.1117 130.251 92.8419 131.247C92.7631 130.032 92.5101 128.833 92.0907 127.69L92.0117 127.65ZM170.681 137.276C169.517 137.691 168.419 138.27 167.42 138.996C168.652 138.891 169.863 138.611 171.017 138.166C172.181 137.751 173.279 137.172 174.279 136.446C173.046 136.549 171.834 136.828 170.681 137.276ZM109.248 135.853C108.09 136.28 106.993 136.858 105.986 137.573C107.219 137.472 108.431 137.193 109.584 136.742C110.749 136.332 111.848 135.753 112.845 135.023C111.61 135.098 110.391 135.351 109.228 135.774L109.248 135.853ZM115.059 99.3646C113.897 99.7827 112.799 100.362 111.798 101.084C113.024 100.981 114.229 100.702 115.375 100.254C116.544 99.852 117.645 99.272 118.637 98.5344C117.408 98.61 116.196 98.863 115.039 99.2855L115.059 99.3646ZM82.0891 110.809C80.9269 111.227 79.8291 111.806 78.8276 112.529C81.2973 112.306 83.6639 111.433 85.6865 109.999C84.4529 110.075 83.2357 110.321 82.0693 110.73L82.0891 110.809ZM136.901 160.225C135.74 160.647 134.643 161.226 133.639 161.944C136.109 161.722 138.476 160.849 140.498 159.414C139.26 159.508 138.041 159.781 136.881 160.225H136.901ZM92.7628 169.89C91.5991 170.305 90.5008 170.884 89.5014 171.61C90.7345 171.51 91.9464 171.23 93.0988 170.78C94.2645 170.37 95.3634 169.79 96.3602 169.06C95.1208 169.161 93.9024 169.441 92.7431 169.89H92.7628ZM140.34 120.752C139.178 121.17 138.08 121.749 137.079 122.471C138.309 122.363 139.518 122.09 140.676 121.661C141.834 121.234 142.931 120.656 143.937 119.941C142.699 120.033 141.48 120.306 140.32 120.752H140.34Z" fill="black"/>
<path d="M127.69 121.997C127.248 126.423 126.475 130.811 125.377 135.122C124.408 139.51 123.025 143.759 121.74 148.049H121.582C122.708 143.74 123.558 139.332 124.468 134.963C125.377 130.595 126.069 126.227 127.195 121.918C127.195 121.602 127.709 121.7 127.69 121.997Z" fill="#263238"/>
<path d="M128.065 103.18C121.345 101.519 114.545 100.195 107.726 98.91C100.906 97.6252 94.0871 96.3009 87.248 95.1742C83.2948 94.5417 79.4996 93.8894 75.6057 93.3755C75.6057 93.3755 75.4673 93.5336 75.6057 93.5534C82.3064 95.2335 89.1258 96.5776 95.9253 97.9217C102.725 99.2658 109.564 100.531 116.383 101.737C120.337 102.409 124.132 103.021 128.026 103.516C128.164 103.555 128.263 103.239 128.065 103.18Z" fill="#263238"/>
<path d="M147.238 162.498C148.306 161.549 149.492 160.739 150.618 159.869C151.745 158.999 152.793 158.149 153.9 157.319L160.62 152.16C165.087 148.701 169.475 145.123 173.903 141.605C176.433 139.628 178.924 137.652 181.414 135.517C181.424 135.508 181.437 135.501 181.45 135.497C181.463 135.492 181.476 135.49 181.49 135.491C181.504 135.492 181.517 135.496 181.53 135.502C181.542 135.508 181.553 135.516 181.562 135.527C181.571 135.537 181.578 135.549 181.583 135.562C181.587 135.575 181.589 135.589 181.588 135.603C181.587 135.617 181.584 135.63 181.577 135.643C181.571 135.655 181.563 135.666 181.552 135.675C178.508 138.541 175.425 141.368 172.262 144.095L173.448 143.522C174.674 142.91 175.86 142.257 177.046 141.546C177.046 141.546 177.224 141.644 177.046 141.704C175.933 142.49 174.771 143.203 173.567 143.839C172.974 144.155 172.381 144.471 171.768 144.748L170.879 145.123C170.167 145.736 169.456 146.349 168.724 146.942C164.336 150.526 159.856 153.972 155.283 157.28C153.965 158.189 152.681 159.078 151.429 159.948C150.065 160.837 148.741 161.826 147.298 162.636C147.273 162.624 147.254 162.603 147.243 162.578C147.232 162.552 147.231 162.524 147.238 162.498Z" fill="#263238"/>
<path d="M204.876 135.24L211.656 124.922L218.041 133.6L215.432 141.269L208.197 141.427L204.876 135.24Z" fill="#263238"/>
<path d="M208.197 141.427L196.179 221.342L208.375 249.509L219.385 220.472L215.432 141.269L208.197 141.427Z" fill="#200100"/>
<path d="M214.167 124.191C207.11 125.891 194.914 115.178 190.072 106.401C189.736 105.808 190.625 99.4832 191.317 91.7348C191.732 87.0305 192.068 81.8517 192.048 76.9695L222.251 84.1051C220.566 90.1277 219.63 96.3349 219.464 102.586C219.462 103.251 219.535 103.914 219.681 104.563C219.681 104.662 219.681 104.761 219.681 104.899C220.274 108.674 220.907 122.511 214.167 124.191Z" fill="#F7A9A0"/>
<path d="M194.084 77.5229C195.013 83.8877 199.322 104.84 216.539 105.196C217.576 105.221 218.614 105.161 219.642 105.018C219.634 104.906 219.634 104.794 219.642 104.682C219.499 104.032 219.419 103.37 219.405 102.705C219.586 96.4534 220.529 90.2472 222.212 84.2237L194.084 77.5229Z" fill="#263238"/>
<path d="M185.011 43.3077C182.699 54.2384 191.06 84.5203 199.243 90.7466C211.103 99.7205 229.169 99.0682 236.443 85.1132C243.5 71.5932 231.917 32.3375 222.903 26.8623C209.62 18.6791 188.471 27.139 185.011 43.3077Z" fill="#F7A9A0"/>
<path d="M211.973 61.2554C211.973 61.2554 211.834 61.3937 211.854 61.4728C212.467 63.4494 212.842 65.9202 211.182 67.1062C211.182 67.1062 211.182 67.2445 211.182 67.205C213.396 66.276 212.882 63.0739 211.973 61.2554Z" fill="#263238"/>
<path d="M209.561 59.6148C206.221 60.2474 207.742 66.9086 210.846 66.3156C213.949 65.7226 212.368 59.0812 209.561 59.6148Z" fill="#263238"/>
<path d="M224.267 58.2114C224.267 58.1126 224.445 58.2114 224.465 58.3498C224.86 60.4252 225.69 62.7378 227.706 62.9948V63.1134C225.374 63.2913 224.307 60.188 224.267 58.2114Z" fill="#263238"/>
<path d="M225.611 55.6022C228.873 54.5941 230.652 61.196 227.588 62.125C224.524 63.0541 222.884 56.4521 225.611 55.6022Z" fill="#263238"/>
<path d="M206.26 57.1836C207.11 56.7487 207.822 56.1953 208.632 55.6813C209.442 55.1674 210.312 54.7128 210.747 53.7047C210.842 53.4021 210.834 53.0763 210.723 52.779C210.612 52.4818 210.405 52.2301 210.134 52.0641C209.551 51.8056 208.909 51.7095 208.276 51.7861C207.642 51.8626 207.042 52.1089 206.537 52.499C205.389 53.1309 204.515 54.1662 204.086 55.4046C204.009 55.6911 204.017 55.9935 204.108 56.2756C204.199 56.5578 204.37 56.8077 204.599 56.9954C204.829 57.1832 205.107 57.3008 205.402 57.3341C205.697 57.3675 205.994 57.3152 206.26 57.1836Z" fill="#A6A6A6"/>
<path d="M227.41 51.6689C226.475 51.718 225.538 51.718 224.603 51.6689C223.617 51.784 222.62 51.561 221.777 51.0364C221.538 50.8225 221.378 50.5356 221.321 50.2207C221.264 49.9059 221.313 49.5809 221.46 49.2969C221.835 48.7828 222.341 48.378 222.925 48.1244C223.508 47.8707 224.149 47.7774 224.781 47.854C226.087 47.8082 227.363 48.2524 228.359 49.0993C228.549 49.3081 228.679 49.5654 228.733 49.8429C228.788 50.1205 228.764 50.4076 228.666 50.6729C228.569 50.9382 228.4 51.1714 228.178 51.3471C227.956 51.5227 227.691 51.6341 227.41 51.6689Z" fill="#A6A6A6"/>
<path d="M215.847 73.6093C216.564 74.2954 217.415 74.8253 218.347 75.1656C219.28 75.5058 220.272 75.6489 221.263 75.586C222.13 75.5614 222.99 75.4082 223.812 75.1313L224.267 74.9732L224.722 74.7953C224.823 74.7462 224.907 74.6663 224.96 74.5668C225.013 74.4674 225.034 74.3536 225.018 74.2419C225.026 74.1696 225.026 74.0967 225.018 74.0244V73.8466C224.702 72.2455 223.99 69.8933 223.99 69.8933C224.643 70.0514 227.944 70.7037 227.667 69.8933C225.838 62.783 223.295 55.8758 220.077 49.2772C220.058 49.2274 220.021 49.1869 219.973 49.1647C219.925 49.1424 219.869 49.1402 219.82 49.1586C219.77 49.1769 219.729 49.2143 219.707 49.2625C219.685 49.3107 219.683 49.3657 219.701 49.4155C221.361 55.9977 224.148 62.2438 225.908 68.8259C224.746 68.5763 223.554 68.4964 222.369 68.5887C222.152 68.7073 223.812 73.1547 223.911 73.8861C222.641 74.3215 221.295 74.4935 219.956 74.3915C218.617 74.2896 217.313 73.9158 216.123 73.2931C215.827 73.2931 215.689 73.471 215.847 73.6093Z" fill="#263238"/>
<path d="M222.706 74.8546C222.029 76.165 221.029 77.2808 219.8 78.0962C219.121 78.502 218.336 78.6947 217.547 78.6497C215.787 78.5113 215.57 76.9894 215.57 75.6452C215.604 74.9206 215.73 74.2033 215.946 73.5105C217.999 74.6639 220.367 75.1346 222.706 74.8546Z" fill="#263238"/>
<path d="M219.8 78.0962C219.121 78.5019 218.336 78.6947 217.547 78.6496C215.787 78.5113 215.57 76.9893 215.57 75.6452C216.448 75.5202 217.342 75.6939 218.109 76.1384C218.877 76.583 219.472 77.2725 219.8 78.0962Z" fill="#FF9CBD"/>
<g opacity="0.2">
<path opacity="0.2" d="M215.155 47.0633C216.251 46.9679 217.341 46.8028 218.416 46.5692C219.503 46.2924 220.512 45.7983 221.599 45.5413C223.685 45.1754 225.818 45.1754 227.904 45.5413C228.082 45.5413 228.082 45.6797 227.904 45.6599C225.697 45.361 223.452 45.543 221.322 46.1936C219.625 46.8667 217.842 47.2991 216.025 47.4784C211.856 47.5032 207.802 48.8453 204.442 51.313C204.442 51.313 204.442 51.313 204.442 51.313C207.508 48.8574 211.239 47.3771 215.155 47.0633Z" fill="black"/>
<path opacity="0.2" d="M214.443 44.1774C215.488 44.1049 216.525 43.9529 217.547 43.7228C218.574 43.4658 219.523 42.9914 220.571 42.7543C222.533 42.4125 224.539 42.4125 226.501 42.7543C226.679 42.7543 226.679 42.8926 226.501 42.8728C224.406 42.6061 222.278 42.7811 220.255 43.3868C218.647 44.0244 216.956 44.4304 215.234 44.5925C211.283 44.6244 207.443 45.9043 204.264 48.2493C204.264 48.2493 204.264 48.2493 204.264 48.2493C207.177 45.9106 210.721 44.493 214.443 44.1774Z" fill="black"/>
</g>
<path d="M188.016 69.3991C188.016 69.3991 177.421 51.9456 178.41 41.845C178.844 37.2791 185.051 34.2153 185.051 34.2153C184.574 32.3535 184.627 30.3955 185.203 28.562C185.779 26.7285 186.856 25.0924 188.312 23.838C193.709 18.7581 206.774 19.8848 206.774 19.8848C206.774 19.8848 215.234 7.64954 227.212 12.4923C239.191 17.335 231.403 30.9143 231.403 30.9143C231.403 30.9143 235.791 37.1604 225.058 42.0427C214.325 46.9249 193.234 42.1415 193.234 42.1415C194.236 49.4952 194.13 56.9576 192.918 64.2797C192.651 65.5012 192.052 66.6254 191.187 67.5286C190.322 68.4318 189.225 69.079 188.016 69.3991Z" fill="#A6A6A6"/>
<path d="M208.83 20.0428C206.159 18.9573 203.291 18.4389 200.409 18.5208C197.83 18.4784 195.263 18.8796 192.819 19.7068C190.62 20.3305 188.631 21.5413 187.068 23.2094C185.504 24.8774 184.424 26.9396 183.944 29.1748C183.77 30.3348 183.828 31.518 184.117 32.655C184.405 33.792 184.918 34.8601 185.624 35.7965C185.624 35.7965 185.802 35.7965 185.743 35.7965C182.976 32.3572 184.419 27.0203 187.285 24.1542C190.786 21.11 195.276 19.4448 199.915 19.4696C202.887 19.432 205.852 19.7438 208.751 20.3986C208.929 20.3393 208.988 20.1219 208.83 20.0428Z" fill="#A6A6A6"/>
<path d="M193.808 67.7981C193.808 67.7981 185.782 58.6266 181.533 61.5915C177.283 64.5564 184.102 78.3927 189.597 79.7764C190.291 80.0066 191.025 80.0934 191.753 80.0316C192.481 79.9698 193.19 79.7606 193.835 79.4168C194.48 79.073 195.048 78.6017 195.506 78.0315C195.963 77.4613 196.3 76.8042 196.496 76.0999L193.808 67.7981Z" fill="#F7A9A0"/>
<path d="M183.588 65.5051V65.6435C187.542 66.7504 189.795 69.9723 191.495 73.3918C191.236 73.0463 190.906 72.7602 190.527 72.5529C190.148 72.3456 189.729 72.2219 189.298 72.1901C188.867 72.1582 188.435 72.219 188.03 72.3684C187.624 72.5177 187.256 72.7521 186.949 73.0558C186.922 73.0742 186.905 73.1022 186.899 73.1337C186.893 73.1652 186.901 73.1976 186.919 73.2238C186.937 73.25 186.965 73.2679 186.997 73.2734C187.028 73.279 187.061 73.2718 187.087 73.2535C187.713 72.9726 188.412 72.8941 189.085 73.0287C189.758 73.1633 190.372 73.5045 190.843 74.0046C191.599 74.8533 192.262 75.7811 192.819 76.7719C193.017 77.0881 193.61 76.7719 193.432 76.4754C193.116 71.6524 188.708 65.4261 183.588 65.5051Z" fill="#263238"/>
<path d="M211.38 72.0477C209.649 72.2804 207.887 72.0225 206.296 71.3035C204.704 70.5845 203.346 69.4332 202.377 67.9806C201.407 66.5281 200.865 64.8325 200.812 63.0869C200.758 61.3413 201.196 59.6157 202.074 58.1065C202.953 56.5973 204.238 55.365 205.782 54.55C207.327 53.7349 209.069 53.3697 210.811 53.496C212.553 53.6222 214.225 54.2349 215.635 55.2642C217.046 56.2935 218.14 57.6981 218.792 59.3183C219.249 60.4552 219.477 61.671 219.464 62.8963C219.451 64.1215 219.197 65.3322 218.716 66.4592C218.235 67.5862 217.537 68.6074 216.662 69.4646C215.786 70.3217 214.75 70.9979 213.613 71.4547C212.894 71.7373 212.144 71.9363 211.38 72.0477ZM209.087 54.772C208.41 54.8674 207.747 55.0399 207.11 55.286C205.207 56.049 203.666 57.5082 202.801 59.3669C201.935 61.2256 201.81 63.3441 202.451 65.2917C203.092 67.2393 204.45 68.8697 206.25 69.8514C208.05 70.8331 210.156 71.0923 212.141 70.5764C214.125 70.0605 215.838 68.8081 216.932 67.074C218.026 65.3399 218.418 63.2543 218.029 61.2412C217.64 59.2281 216.499 57.4388 214.838 56.2371C213.177 55.0354 211.12 54.5115 209.087 54.772Z" fill="#455A64"/>
<path d="M232.095 66.6318C228.556 67.1061 224.86 63.904 223.654 59.1997C223.048 56.949 223.159 54.5653 223.971 52.3804C224.26 51.4237 224.792 50.5582 225.515 49.868C226.238 49.1778 227.127 48.6865 228.096 48.4417C229.065 48.197 230.081 48.2072 231.045 48.4713C232.009 48.7354 232.888 49.2446 233.597 49.9491C235.384 51.4897 236.62 53.5719 237.115 55.879C238.38 60.8601 236.404 65.7621 232.687 66.612C232.491 66.6373 232.292 66.6439 232.095 66.6318ZM228.873 49.5736H228.398C227.636 49.8084 226.941 50.2214 226.371 50.7782C225.8 51.335 225.37 52.0197 225.117 52.7757C224.413 54.7109 224.323 56.8163 224.86 58.8044C225.967 63.1332 229.327 66.019 232.371 65.2284C235.415 64.4377 237.016 60.3264 235.909 55.9976C235.44 53.9899 234.355 52.1791 232.806 50.8188C232.275 50.3466 231.65 49.9916 230.972 49.7771C230.294 49.5625 229.579 49.4932 228.873 49.5736Z" fill="#455A64"/>
<path d="M218.772 60.4252L217.744 59.6939C218.832 58.1916 221.599 55.8395 224.406 57.7172L223.734 58.7648C221.223 57.0847 218.871 60.2868 218.772 60.4252Z" fill="#455A64"/>
<path d="M179.082 72.9768L177.876 72.7001C177.995 72.1269 179.22 67.1458 181.829 66.0191C184.438 64.8924 200.844 62.3624 201.595 62.2635L201.793 63.489C197.029 64.2402 184.26 66.3354 182.383 67.1656C180.505 67.9957 179.398 71.613 179.082 72.9768Z" fill="#455A64"/>
<path d="M219.622 104.286L211.182 121.602L190.684 97.7438L183.944 104.524C183.944 104.524 203.058 141.644 203.295 140.103L211.656 125.318L221.539 136.683L222.508 109.92L219.622 104.286Z" fill="#EBEBEB"/>
<path d="M222.706 123.321C222.706 118.894 222.864 114.446 222.706 110.019C222.706 109.88 222.449 109.781 222.409 110.019C221.243 114.209 221.263 131.129 220.966 135.161C220.571 134.687 211.834 125.14 211.735 125.278C209.976 127.591 203.829 138.363 203.414 139.352C200.409 133.422 188.747 111.975 185.09 106.342C185.068 106.314 185.036 106.294 185.001 106.286C184.965 106.278 184.928 106.283 184.896 106.299C184.864 106.315 184.838 106.342 184.823 106.375C184.808 106.408 184.805 106.445 184.814 106.48C187.403 112.667 202.801 141.565 203.058 141.506C206.246 136.45 209.169 131.231 211.814 125.871C213.257 127.848 221.994 138.601 222.073 137.948C222.535 133.087 222.746 128.205 222.706 123.321Z" fill="#263238"/>
<path d="M300.011 236.107C292.757 246.465 273.011 248.461 223.793 258.087C216.973 259.431 194.618 213.89 201.813 212.091C210.885 209.818 246.583 202.999 249.252 202.821C271.805 201.319 304.933 228.991 300.011 236.107Z" fill="#F7A9A0"/>
<path d="M211.676 209.759C211.676 209.759 190.803 212.921 180.367 217.962C169.642 223.487 160.418 231.531 153.485 241.404C145.973 252.039 135.142 282.913 143.503 287.618C151.073 291.848 160.541 259.708 160.541 259.708C160.541 259.708 145.479 290.879 155.52 294.299C165.562 297.718 174.437 259.827 174.437 259.827C174.437 259.827 159.671 292.223 170.582 294.101C178.845 295.524 188.807 261.605 188.807 261.605C188.807 261.605 176.314 289.535 184.735 291.373C194.045 293.35 205.213 262.653 205.213 262.653C227.39 263.701 238.38 255.122 245.476 248.085C247.196 246.326 211.676 209.759 211.676 209.759Z" fill="#F7A9A0"/>
<path d="M165.048 248.58C163.071 252.177 161.193 255.814 159.632 259.57C158.07 263.325 156.608 267.14 155.382 271.014C153.697 276.065 152.59 281.29 152.081 286.59C153.662 277.26 159.098 263.72 160.679 259.965C162.261 256.209 163.625 252.375 165.206 248.639C165.245 248.54 165.107 248.5 165.048 248.58Z" fill="#263238"/>
<path d="M178.726 254.015C176.492 258.72 174.101 263.305 172.084 268.109C170.068 272.912 168.586 277.596 166.906 282.498C166.767 282.874 167.024 282.815 167.163 282.498C169.04 277.675 171.116 273.347 173.092 268.543C175.069 263.74 176.769 258.838 178.864 254.114C178.864 253.996 178.746 253.897 178.726 254.015Z" fill="#263238"/>
<path d="M191.297 256.585C187.697 263.708 184.848 271.187 182.798 278.901C182.679 279.276 182.995 279.178 183.114 278.782C185.802 271.311 187.858 265.44 191.534 256.703C191.594 256.585 191.376 256.427 191.297 256.585Z" fill="#263238"/>
<path d="M207.327 209.759L250.457 257.85C250.457 257.85 294.081 247.848 300.505 236.661C304.735 229.288 271.884 199.461 247.136 202.939L207.327 209.759Z" fill="#FFC017"/>
<path opacity="0.1" d="M245.615 239.744C245.424 240.963 245.058 242.148 244.528 243.262C244.029 244.397 243.363 245.449 242.551 246.386C242.745 245.167 243.111 243.983 243.638 242.867C244.151 241.741 244.816 240.69 245.615 239.744ZM275.58 237.036C275.056 238.159 274.69 239.35 274.493 240.574C275.301 239.628 275.967 238.569 276.47 237.431C277.004 236.317 277.376 235.132 277.577 233.913C276.77 234.857 276.098 235.908 275.58 237.036ZM254.213 226.955C253.101 226.419 251.915 226.053 250.695 225.868C252.605 227.444 254.895 228.494 257.336 228.912C256.394 228.114 255.342 227.455 254.213 226.955ZM275.58 213.732C275.995 214.895 276.574 215.994 277.3 216.993C277.059 214.525 276.18 212.161 274.75 210.134C274.853 211.367 275.132 212.579 275.58 213.732ZM231.956 224.129C232.363 225.296 232.942 226.396 233.676 227.39C233.435 224.922 232.556 222.558 231.126 220.531C231.229 221.764 231.508 222.976 231.956 224.129ZM214.167 212.743C215.329 212.325 216.427 211.747 217.428 211.024C216.196 211.12 214.985 211.393 213.831 211.834C212.67 212.256 211.573 212.835 210.569 213.554C211.801 213.458 213.013 213.185 214.167 212.743ZM250.892 208.79C252.054 208.372 253.152 207.793 254.154 207.071C252.922 207.169 251.711 207.442 250.556 207.881C249.398 208.308 248.301 208.886 247.295 209.601C248.513 209.487 249.71 209.208 250.853 208.77L250.892 208.79ZM264.491 251.011C265.655 250.596 266.754 250.017 267.753 249.291C266.52 249.392 265.308 249.671 264.155 250.121C262.99 250.531 261.891 251.111 260.894 251.841C262.114 251.726 263.312 251.44 264.452 250.991L264.491 251.011ZM296.908 227.054C296.025 227.219 295.158 227.464 294.319 227.786C293.155 228.2 292.057 228.779 291.057 229.505C292.288 229.393 293.499 229.114 294.655 228.675C295.549 228.357 296.404 227.939 297.205 227.43L296.908 227.054Z" fill="black"/>
<path d="M276.667 210.688C268.094 204.493 257.537 201.678 247.018 202.781C246.899 202.781 246.899 202.999 247.018 202.999C257.85 202.702 272.457 208.355 276.549 210.806C276.687 210.945 276.786 210.767 276.667 210.688Z" fill="#263238"/>
<path d="M262.258 249.746C257.79 244.211 253.047 238.934 248.263 233.656C243.48 228.378 238.736 223.081 233.834 217.843C231.067 214.937 228.319 211.913 225.453 209.186C225.437 209.165 225.414 209.151 225.388 209.147C225.362 209.143 225.336 209.15 225.315 209.166C225.294 209.181 225.28 209.205 225.276 209.231C225.272 209.257 225.279 209.283 225.295 209.304C229.762 214.819 234.486 220.136 239.131 225.433C243.776 230.731 248.659 236.028 253.501 241.246C256.229 244.191 259.016 247.176 261.882 249.924C262.119 250.121 262.376 249.943 262.258 249.746Z" fill="#263238"/>
<path d="M207.248 209.146C209.896 208.338 212.598 207.717 215.333 207.288C218.041 206.794 220.788 206.319 223.516 205.885C228.952 205.015 240.377 202.544 250.418 202.564C250.536 202.564 249.963 203.117 249.845 203.098C245.061 202.841 210.806 209.66 208 209.858C208.098 210.055 208.217 210.233 208.296 210.431C208.325 210.462 208.34 210.504 208.338 210.546C208.336 210.589 208.318 210.629 208.286 210.658C208.255 210.687 208.213 210.702 208.17 210.7C208.128 210.698 208.088 210.68 208.059 210.648C207.703 210.411 207.466 210.115 207.13 209.858C207.066 209.815 207.016 209.756 206.986 209.686C206.956 209.616 206.946 209.539 206.959 209.463C206.971 209.388 207.005 209.318 207.057 209.262C207.108 209.206 207.175 209.165 207.248 209.146Z" fill="#263238"/>
</svg>
