<svg width="299" height="340" viewBox="0 0 299 340" fill="none" xmlns="http://www.w3.org/2000/svg">
<path d="M290.797 3.47888H57.5957V244.251H290.797V3.47888Z" fill="#FFC017"/>
<path d="M0.728516 75.3685V199.184H124.544V75.3685H0.728516ZM10.0779 189.834V84.7179H115.195V189.834H10.0779Z" fill="#A6A6A6"/>
<path d="M211.416 71.1978C217.544 69.7548 233.436 73.9058 238.872 82.0297C244.307 90.1536 244.05 103.456 241.342 104.8C238.634 106.144 226.893 105.314 218.789 101.005C210.685 96.6962 208.392 72.0082 211.416 71.1978Z" fill="#263238"/>
<path d="M211.397 71.2373C211.199 71.2373 211.159 70.8618 211.397 70.842C216.793 70.6246 222.584 72.364 227.743 73.7674C232.02 74.6641 236.06 76.4486 239.603 79.0055C241.237 80.3107 242.567 81.9554 243.502 83.8257C244.437 85.696 244.955 87.7472 245.019 89.8373C245.432 94.8951 244.534 99.9741 242.41 104.583C242.41 104.702 242.113 104.583 242.153 104.583C244.505 95.5695 246.501 84.5795 237.488 78.6101C229.799 73.4511 220.094 72.9965 211.397 71.2373Z" fill="#263238"/>
<path d="M240.512 102.468C245.908 103.081 260.061 113.122 262.551 123.321C265.042 133.521 256.977 148.78 254.368 149.907C251.759 151.034 239.702 141.407 235.709 134.272C233.04 129.488 234.997 123.855 236.104 118.241C237.606 109.979 239.583 102.389 240.512 102.468Z" fill="#263238"/>
<path d="M232.368 133.026C230.609 122.629 236.321 112.213 239.761 102.745C239.761 102.646 239.958 102.745 239.939 102.745C238.12 111.817 232.803 120.02 232.783 129.469C232.66 132.24 233.206 135 234.376 137.515C235.546 140.031 237.305 142.227 239.504 143.918C243.556 146.843 248.616 148.128 253.34 149.709C253.656 149.808 253.459 150.263 253.143 150.164C243.773 147.317 234.167 143.779 232.368 133.026Z" fill="#263238"/>
<path d="M241.599 103.417C241.55 103.388 241.512 103.342 241.494 103.288C241.475 103.234 241.477 103.175 241.499 103.122C241.521 103.069 241.561 103.026 241.612 103C241.663 102.974 241.722 102.968 241.777 102.982C249.486 106.5 258.776 111.639 262.986 119.328C267.552 127.67 263.243 136.525 259.408 144.175C259.408 144.175 259.211 144.175 259.25 144.175C263.026 136.426 266.999 126.82 261.84 118.716C257.392 111.659 248.873 106.856 241.599 103.417Z" fill="#263238"/>
<path d="M253.637 149.65C251.204 151.629 249.201 154.084 247.749 156.864C246.298 159.644 245.43 162.691 245.197 165.819C244.406 178.311 239.524 176.354 226.439 180.979C215.37 184.933 214.243 197.84 220.924 203.493C220.924 203.493 216.635 196.021 223.889 191.416C232.546 185.901 254.428 193.392 263.54 179.418C275.32 161.351 253.637 149.65 253.637 149.65Z" fill="#263238"/>
<path d="M255.87 150.935C255.87 150.935 255.712 150.935 255.87 151.053C260.812 155.006 265.991 158.96 267.948 165.324C270.043 172.144 267.157 179.477 262.117 184.241C256.463 189.558 249.664 187.976 242.686 187.344C237.681 186.554 232.555 187.12 227.842 188.984C227.704 188.984 227.842 189.301 227.961 189.241C235.61 186.632 243.003 188.233 250.81 188.708C253.718 188.945 256.634 188.36 259.224 187.017C261.815 185.675 263.975 183.63 265.457 181.118C273.186 169.456 266.465 157.734 255.87 150.935Z" fill="#263238"/>
<path d="M216.041 65.4854C216.409 65.0891 216.912 64.8454 217.451 64.8027C217.99 64.7599 218.525 64.9212 218.95 65.2546C219.376 65.588 219.66 66.069 219.747 66.6024C219.835 67.1358 219.718 67.6825 219.421 68.1341C217.741 70.3479 214.361 67.6992 216.041 65.4854Z" fill="#FFC017"/>
<path d="M214.441 69.1421C214.808 68.7458 215.311 68.5022 215.85 68.4594C216.389 68.4166 216.924 68.5779 217.349 68.9113C217.775 69.2446 218.059 69.7257 218.146 70.2591C218.234 70.7925 218.117 71.3392 217.821 71.7908C216.14 73.9849 212.839 71.3559 214.441 69.1421Z" fill="#FFC017"/>
<path d="M212.207 72.5024C212.575 72.1061 213.078 71.8624 213.616 71.8196C214.155 71.7769 214.69 71.9382 215.116 72.2716C215.541 72.6049 215.826 73.086 215.913 73.6194C216 74.1528 215.884 74.6995 215.587 75.1511C215.22 75.5474 214.717 75.7911 214.178 75.8338C213.639 75.8766 213.104 75.7153 212.678 75.3819C212.253 75.0485 211.968 74.5675 211.881 74.0341C211.794 73.5007 211.91 72.954 212.207 72.5024Z" fill="#FFC017"/>
<path d="M209.618 75.4475C209.985 75.0512 210.488 74.8076 211.027 74.7648C211.566 74.7221 212.101 74.8833 212.526 75.2167C212.952 75.5501 213.236 76.0311 213.324 76.5645C213.411 77.0979 213.295 77.6446 212.998 78.0962C211.318 80.31 207.938 77.6613 209.618 75.4475Z" fill="#FFC017"/>
<path d="M206.495 77.9381C208.175 75.7242 211.555 78.3729 209.875 80.5867C209.507 80.983 209.004 81.2267 208.465 81.2695C207.927 81.3123 207.391 81.1509 206.966 80.8176C206.541 80.4842 206.256 80.0031 206.169 79.4697C206.081 78.9364 206.198 78.3897 206.495 77.9381Z" fill="#FFC017"/>
<path d="M203.095 79.9148C203.462 79.5185 203.965 79.2747 204.504 79.232C205.043 79.1892 205.578 79.3505 206.004 79.6839C206.429 80.0173 206.714 80.4984 206.801 81.0317C206.888 81.5651 206.772 82.1118 206.475 82.5634C204.795 84.6586 201.435 82.01 203.095 79.9148Z" fill="#FFC017"/>
<path d="M199.873 119.645C190.602 131.07 140.97 167.084 99.0652 166.372C84.8336 166.155 45.3012 105.413 37.9877 82.3262C32.7497 65.7423 67.9532 57.3614 77.9154 59.7532C90.3285 62.7576 114.522 114.842 119.306 115.098C133.537 116.087 157.968 107.528 187.954 104.484C203.391 103.002 207.028 110.869 199.873 119.645Z" fill="#AD6359"/>
<path d="M39.3911 86.141C36.7424 80.3693 24.3095 48.2888 23.3014 40.0463C22.2933 31.8038 21.1272 7.80765 27.3733 6.44378C33.6194 5.07992 34.5089 12.0376 34.5089 12.0376C34.5089 12.0376 35.6158 1.81849 42.0398 0.968541C48.4638 0.118595 49.5114 11.0493 49.5114 11.0493C49.5114 11.0493 51.488 0.652281 57.8725 0.256957C64.257 -0.138367 63.5454 11.0295 63.5454 11.0295C63.5454 11.0295 64.8302 1.44294 70.2857 3.36026C76.8678 5.67291 72.4797 23.1264 74.2389 32.1003C74.654 34.0769 85.4661 73.0953 85.4661 73.0953L39.3911 86.141Z" fill="#AD6359"/>
<path d="M63.5851 10.0214C60.4027 22.8102 61.2132 28.9772 65.285 41.3113C65.285 41.5485 65.0281 41.7264 64.9293 41.4694C59.8296 29.7679 57.6948 22.1974 62.9526 9.84355C63.2294 9.2308 63.7432 9.40869 63.5851 10.0214Z" fill="#263238"/>
<path d="M49.7684 9.9819C47.6336 23.5613 48.4638 30.2423 51.745 43.4856C51.745 43.6635 51.488 43.7623 51.4287 43.5844C47.0802 30.8748 45.1234 23.2648 49.0568 9.9819C49.2545 9.36915 49.8672 9.34938 49.7684 9.9819Z" fill="#263238"/>
<path d="M34.7066 12.7096C33.58 26.032 34.173 33.3851 39.0354 45.818C39.0501 45.8756 39.0443 45.9364 39.0191 45.9902C38.9939 46.044 38.9508 46.0875 38.8972 46.1131C38.8437 46.1387 38.7828 46.145 38.7251 46.1308C38.6675 46.1167 38.6164 46.0829 38.5808 46.0354C32.394 33.8397 31.5836 24.6484 34.2916 12.7294C34.4892 11.8399 34.7857 11.8004 34.7066 12.7096Z" fill="#263238"/>
<path d="M94.2425 79.0648C94.2425 79.0648 96.0807 62.6391 95.2901 55.2465C94.4994 47.8539 81.4537 21.3673 75.5239 23.8578C67.9337 27.0797 72.4601 43.8612 75.7611 51.7874C75.7611 51.7874 58.1889 59.2393 58.8412 71.9885C59.4935 84.7376 94.2425 79.0648 94.2425 79.0648Z" fill="#AD6359"/>
<path d="M73.7844 25.4391C68.9812 33.3456 73.9821 43.4856 76.611 51.4118C76.6557 51.528 76.6715 51.6532 76.6573 51.7769C76.6431 51.9005 76.5991 52.0188 76.5292 52.1218C76.4593 52.2247 76.3655 52.3092 76.2558 52.368C76.1461 52.4268 76.0239 52.4582 75.8994 52.4595C68.7441 56.0767 59.6912 63.2518 58.5052 71.6327C58.4922 71.6722 58.467 71.7067 58.4333 71.7311C58.3996 71.7555 58.359 71.7686 58.3174 71.7686C58.2758 71.7686 58.2352 71.7555 58.2015 71.7311C58.1678 71.7067 58.1426 71.6722 58.1296 71.6327C58.1296 62.4612 66.4907 54.693 74.5751 51.234C71.7683 43.1496 67.2023 32.7724 73.7251 25.3996C73.7449 25.3403 73.824 25.3798 73.7844 25.4391Z" fill="#263238"/>
<path d="M140.554 111.145L157.83 151.073C157.83 151.073 183.961 138.64 199.853 122.57C215.745 106.5 198.074 101.104 182.696 103.436C167.318 105.769 140.554 111.145 140.554 111.145Z" fill="#EBEBEB"/>
<path d="M199.853 122.649C184.04 138.719 157.83 151.152 157.83 151.152L152.572 138.996L205.21 108.477C207.147 111.679 206.079 116.344 199.853 122.649Z" fill="#C7C7C7"/>
<path d="M164.353 145.539C158.683 134.409 153.7 122.943 149.43 111.205C149.43 111.066 149.608 110.967 149.667 111.205C150.833 114.288 159.056 131.287 164.61 145.519C164.689 145.618 164.432 145.697 164.353 145.539Z" fill="#263238"/>
<path d="M160.261 190.131L153.165 244.251H266.445C266.445 244.251 251.463 142.751 227.269 111.541C215.172 95.9451 198.964 96.3602 187.499 108.279C184.989 110.869 159.688 147.021 155.221 161.944C151.327 175.168 160.261 190.131 160.261 190.131Z" fill="#EBEBEB"/>
<path d="M193.231 113.735L186.076 132.928C183.717 139.332 181.451 145.756 179.276 152.2C177.3 158.683 174.829 165.166 175.798 171.768C176.648 178.422 178.833 184.836 182.222 190.625L182.38 190.902V191.179C181.391 199.777 180.225 208.375 179.178 216.875C178.13 225.374 176.924 234.051 175.699 242.571C176.437 233.926 177.221 225.302 178.051 216.697C178.921 208.079 179.711 199.461 180.66 190.862L180.779 191.396C177.175 185.416 174.828 178.764 173.88 171.847C173.469 168.34 173.717 164.787 174.612 161.371C175.481 158.011 176.588 154.749 177.636 151.488C179.83 144.985 182.419 138.66 185.009 132.335C187.598 126.009 190.345 119.941 193.231 113.735Z" fill="#263238"/>
<path d="M177.418 138.739C177.334 139.165 177.416 139.607 177.648 139.975C177.879 140.343 178.243 140.608 178.664 140.716C178.872 140.746 179.084 140.734 179.288 140.68C179.491 140.627 179.682 140.532 179.848 140.403C180.014 140.274 180.153 140.112 180.255 139.928C180.357 139.744 180.421 139.541 180.443 139.332C180.532 138.905 180.452 138.461 180.22 138.092C179.987 137.723 179.621 137.459 179.197 137.355C178.989 137.322 178.775 137.332 178.571 137.384C178.366 137.437 178.174 137.531 178.007 137.661C177.84 137.79 177.702 137.953 177.601 138.139C177.499 138.324 177.437 138.528 177.418 138.739Z" fill="#263238"/>
<path d="M170.56 157.418C170.47 157.845 170.55 158.289 170.783 158.658C171.015 159.027 171.381 159.291 171.805 159.394C172.011 159.425 172.22 159.414 172.422 159.361C172.623 159.308 172.811 159.215 172.975 159.088C173.14 158.96 173.277 158.801 173.378 158.619C173.479 158.438 173.542 158.237 173.564 158.031C173.654 157.604 173.574 157.159 173.341 156.79C173.109 156.422 172.742 156.158 172.319 156.054C172.113 156.024 171.903 156.035 171.702 156.088C171.501 156.14 171.313 156.233 171.148 156.361C170.984 156.488 170.847 156.647 170.746 156.829C170.645 157.011 170.581 157.211 170.56 157.418Z" fill="#263238"/>
<path d="M169.69 176.473C169.601 176.899 169.68 177.344 169.913 177.713C170.145 178.081 170.512 178.346 170.935 178.449C171.142 178.48 171.353 178.468 171.555 178.416C171.758 178.363 171.947 178.271 172.113 178.144C172.279 178.016 172.418 177.857 172.521 177.675C172.624 177.494 172.69 177.293 172.714 177.085C172.799 176.659 172.717 176.217 172.485 175.849C172.253 175.482 171.89 175.217 171.469 175.109C171.262 175.078 171.051 175.089 170.849 175.142C170.647 175.194 170.457 175.287 170.291 175.414C170.125 175.541 169.986 175.701 169.883 175.882C169.78 176.064 169.714 176.265 169.69 176.473Z" fill="#263238"/>
<path d="M174.987 192.266C174.898 192.692 174.978 193.137 175.21 193.506C175.442 193.875 175.809 194.139 176.232 194.242C176.439 194.273 176.65 194.262 176.852 194.209C177.055 194.157 177.245 194.064 177.41 193.937C177.576 193.81 177.715 193.65 177.818 193.469C177.921 193.287 177.987 193.086 178.011 192.878C178.096 192.452 178.014 192.01 177.782 191.642C177.551 191.275 177.187 191.01 176.766 190.902C176.559 190.871 176.348 190.883 176.146 190.935C175.944 190.988 175.754 191.08 175.588 191.207C175.422 191.335 175.283 191.494 175.18 191.676C175.077 191.857 175.011 192.058 174.987 192.266Z" fill="#263238"/>
<path d="M172.932 209.482C172.847 209.908 172.929 210.351 173.161 210.718C173.392 211.086 173.756 211.351 174.177 211.459C174.384 211.489 174.595 211.477 174.798 211.423C175 211.369 175.189 211.275 175.354 211.145C175.519 211.016 175.655 210.854 175.755 210.67C175.855 210.486 175.917 210.284 175.936 210.075C176.02 209.649 175.938 209.206 175.707 208.839C175.475 208.471 175.112 208.206 174.691 208.098C174.484 208.068 174.272 208.08 174.07 208.134C173.868 208.188 173.678 208.282 173.514 208.412C173.349 208.541 173.213 208.703 173.112 208.887C173.012 209.071 172.951 209.273 172.932 209.482Z" fill="#263238"/>
<path d="M171.054 226.481C170.969 226.907 171.052 227.349 171.283 227.717C171.515 228.085 171.878 228.35 172.299 228.458C172.507 228.488 172.72 228.476 172.923 228.422C173.127 228.369 173.317 228.274 173.484 228.145C173.65 228.016 173.788 227.854 173.89 227.67C173.992 227.486 174.056 227.283 174.078 227.074C174.167 226.645 174.084 226.197 173.848 225.828C173.612 225.459 173.24 225.197 172.813 225.097C172.605 225.064 172.393 225.074 172.19 225.127C171.986 225.179 171.796 225.274 171.63 225.404C171.465 225.534 171.328 225.697 171.229 225.882C171.13 226.067 171.07 226.271 171.054 226.481Z" fill="#263238"/>
<path d="M193.745 303.53C199.458 307.483 209.064 290.326 212.325 286.669C215.587 283.012 217.01 283.131 216.812 285.918L224.244 256.427C220.39 259.411 212.227 265.836 207.878 270.065C202.047 275.719 188.033 299.655 193.745 303.53Z" fill="#AD6359"/>
<path d="M236.559 115.929C260.753 135.438 291.252 169.752 297.478 191.93C302.262 209.047 278.187 268.524 271.011 282.4C267.888 288.448 226.458 270.046 224.64 262.989C222.822 255.933 251.7 204.718 251.977 199.283C252.253 193.847 233.377 157.952 220.509 133.679C204.795 104.267 215.884 99.3449 236.559 115.929Z" fill="#AD6359"/>
<path d="M197.817 320.469C201.632 324.62 209.361 319.58 209.361 319.58C209.361 319.58 202.482 328.079 207.858 331.439C213.235 334.8 220.568 327.486 220.568 327.486C220.568 327.486 214.638 335.63 220.272 338.516C225.905 341.402 233.1 335.096 233.1 335.096C233.1 335.096 232.704 338.219 237.587 338.496C244.584 338.891 254.566 327.545 258.381 320.39C262.196 313.235 270.853 284.198 272.118 279.731L226.359 254.865C226.359 254.865 225.549 255.458 224.244 256.486L216.793 285.918C216.674 287.756 211.436 299.082 209.538 302.344C205.269 309.677 193.528 315.804 197.817 320.469Z" fill="#AD6359"/>
<path d="M209.598 319.086C219.856 311.317 222.999 306.158 227.387 294.299C227.387 294.062 227.842 294.141 227.763 294.398C224.462 306.396 221.458 313.452 209.875 319.619C209.38 319.995 209.104 319.54 209.598 319.086Z" fill="#263238"/>
<path d="M220.054 327.664C229.937 318.651 233.456 313.077 239.049 301C239.049 300.822 239.425 301 239.346 301.118C234.879 313.433 231.716 320.39 220.588 328.079C220.094 328.435 219.599 328.059 220.054 327.664Z" fill="#263238"/>
<path d="M233.139 334.899C242.133 325.49 246.185 319.52 250.099 307.107C250.114 307.044 250.154 306.99 250.21 306.957C250.266 306.924 250.332 306.914 250.395 306.929C250.458 306.945 250.512 306.985 250.545 307.041C250.579 307.096 250.589 307.163 250.573 307.226C247.806 320.272 242.805 327.743 233.455 335.136C232.803 335.61 232.605 335.452 233.139 334.899Z" fill="#263238"/>
<path d="M231.914 169.317L266.841 143.167C266.841 143.167 248.695 120.633 229.384 108.892C210.072 97.1509 208.886 115.652 214.816 130.081C220.746 144.511 231.914 169.317 231.914 169.317Z" fill="#EBEBEB"/>
<path d="M259.863 138.205C250.344 146.294 240.343 153.799 229.917 160.679C229.799 160.679 229.66 160.561 229.779 160.462C232.526 158.604 247.153 146.626 259.725 137.968C259.863 137.869 260.001 138.087 259.863 138.205Z" fill="#263238"/>
<path d="M225.766 154.532C223.652 149.769 220.746 142.831 218.334 138.186C218.334 138.186 218.196 138.186 218.216 138.186C219.165 140.894 220.192 143.601 221.359 146.27C221.28 146.127 221.194 145.989 221.102 145.855C220.232 144.61 219.323 143.384 218.354 142.198C219.086 143.542 219.876 144.867 220.726 146.151C221.26 146.962 221.833 147.733 222.406 148.503C223.019 149.907 224.383 153.386 225.035 154.789C226.063 157.141 231.084 170.385 231.301 170.227C232.526 169.422 233.701 168.544 234.819 167.598C234.997 167.459 234.819 167.143 234.562 167.281C233.93 167.815 232.349 168.863 232.092 169.06C230.965 166.669 230.115 164.139 228.988 161.688C227.862 159.237 226.854 157.003 225.766 154.532Z" fill="#263238"/>
<path d="M211.08 104.089C210.487 106.065 200.07 118.795 190.8 117.925C187.776 117.609 188.725 101.045 188.725 101.045L188.507 99.8192L185.582 82.4645L206.415 70.6047L209.42 69.063C209.42 69.063 209.894 73.8661 210.448 79.8355C210.448 80.1123 210.448 80.389 210.448 80.6855C210.448 80.982 210.448 81.3378 210.546 81.654C210.645 82.5633 210.724 83.4725 210.803 84.3818C210.883 85.291 210.922 85.7456 210.962 86.477C211.001 87.2083 210.962 87.9199 211.1 88.6513C211.441 93.7917 211.434 98.9492 211.08 104.089Z" fill="#AD6359"/>
<path d="M210.448 79.7763C208.448 84.4833 205.45 88.7005 201.662 92.1369C197.874 95.5732 193.386 98.1471 188.507 99.6809L185.582 82.3262L206.415 70.4664L209.42 68.9247C209.42 68.9247 209.894 73.8069 210.448 79.7763Z" fill="#263238"/>
<path d="M163.859 51.8665C157.573 82.089 174.987 89.2641 181.49 90.6082C187.42 91.814 207.72 95.2335 217.069 65.8016C226.419 36.3698 214.361 23.9171 200.96 20.3394C187.559 16.7618 170.125 21.6242 163.859 51.8665Z" fill="#AD6359"/>
<path d="M174.058 44.7309C174.769 44.7704 175.482 44.7704 176.193 44.7309C176.945 44.7991 177.7 44.626 178.347 44.2367C178.524 44.0703 178.64 43.8506 178.68 43.6113C178.719 43.3721 178.679 43.1265 178.565 42.9124C178.274 42.5215 177.885 42.2148 177.437 42.0237C176.989 41.8327 176.498 41.7642 176.015 41.8253C175.02 41.8021 174.053 42.1551 173.307 42.8136C173.169 42.9742 173.078 43.1693 173.043 43.378C173.007 43.5866 173.03 43.8009 173.107 43.9979C173.184 44.1949 173.313 44.3672 173.481 44.4963C173.648 44.6254 173.848 44.7066 174.058 44.7309Z" fill="#263238"/>
<path d="M194.832 49.3759C194.141 49.1585 193.528 48.862 192.856 48.5853C192.12 48.3992 191.462 47.9838 190.978 47.3993C190.863 47.184 190.824 46.9363 190.867 46.6961C190.91 46.4559 191.033 46.2371 191.215 46.075C191.616 45.8044 192.082 45.6452 192.565 45.614C193.048 45.5827 193.53 45.6804 193.963 45.8971C194.909 46.2008 195.707 46.8501 196.196 47.7156C196.293 47.9191 196.331 48.1461 196.303 48.37C196.276 48.5939 196.186 48.8055 196.043 48.9797C195.899 49.154 195.71 49.2839 195.495 49.354C195.281 49.4242 195.051 49.4318 194.832 49.3759Z" fill="#263238"/>
<path d="M189.496 55.9185C189.496 55.9185 189.634 56.0371 189.614 56.1161C189.14 58.0927 188.962 60.6031 190.701 61.6507C190.701 61.6507 190.701 61.7891 190.701 61.7693C188.448 60.9984 188.725 57.7765 189.496 55.9185Z" fill="#263238"/>
<path d="M191.749 54.2187C195.109 54.5942 194.081 61.3147 190.978 60.9391C187.875 60.5636 188.922 53.7838 191.749 54.2187Z" fill="#263238"/>
<path d="M193.073 54.6733C193.587 55.1279 194.061 55.8988 194.773 56.0767C195.485 56.2545 196.295 55.6615 196.928 55.0686C196.928 55.0686 197.046 55.0686 197.026 55.1674C196.849 56.4522 196.157 57.6975 194.753 57.6777C193.35 57.6579 192.777 56.3929 192.619 55.0488C192.539 54.7919 192.796 54.4756 193.073 54.6733Z" fill="#263238"/>
<path d="M176.786 53.013C176.786 52.9141 176.608 53.0129 176.608 53.1711C176.371 55.1477 175.738 57.6184 173.762 58.0335V58.1521C176.114 58.1719 176.905 55.0291 176.786 53.013Z" fill="#263238"/>
<path d="M175.284 50.562C171.983 49.8306 170.738 56.4919 173.801 57.1837C176.865 57.8755 178.012 51.1747 175.284 50.562Z" fill="#263238"/>
<path d="M173.781 50.7398C173.188 50.9967 172.536 51.5502 171.904 51.4711C171.271 51.392 170.757 50.5619 170.421 49.791C170.421 49.791 170.322 49.791 170.303 49.791C170.026 51.0758 170.204 52.4792 171.39 52.9536C172.576 53.4279 173.485 52.4397 174.019 51.2142C174.117 51.0363 174.019 50.6409 173.781 50.7398Z" fill="#263238"/>
<path d="M177.26 62.817C177.26 62.817 176.312 65.8412 176.074 67.3039C176.074 67.4422 176.391 67.5608 176.885 67.6794C178.101 68.1173 179.415 68.2106 180.681 67.949C181.947 67.6874 183.117 67.0811 184.06 66.197C184.178 66.0784 184.06 65.9005 183.882 65.9598C181.81 66.9282 179.479 67.1987 177.241 66.7306C177.241 66.3155 179.019 61.6112 178.782 61.5519C177.632 61.4652 176.476 61.5317 175.343 61.7496C177.122 55.3849 179.889 49.3562 181.569 42.9915C181.588 42.9417 181.585 42.8866 181.563 42.8384C181.541 42.7902 181.501 42.7529 181.451 42.7345C181.401 42.7162 181.346 42.7183 181.298 42.7406C181.25 42.7628 181.212 42.8033 181.194 42.8531C178.018 49.219 175.489 55.8872 173.643 62.7577C173.525 63.5681 176.707 62.9553 177.26 62.817Z" fill="#263238"/>
<path d="M186.867 24.2334C185.96 26.7733 185.83 29.5254 186.491 32.1398C189.1 39.2754 197.501 38.2673 200.051 41.2323C202.601 44.1972 201.019 49.1387 203.154 51.9258C206.139 55.7406 210.764 54.8116 211.061 57.2231C211.357 59.6346 212.227 67.3039 215.152 68.5491C218.078 69.7944 236.618 21.1103 197.165 18.9755C197.165 18.9755 191.986 16.2676 183.21 19.6674C173.544 23.4427 168.069 38.2476 168.069 38.2476C168.069 38.2476 168.287 38.0499 169.749 37.0023C171.726 35.5001 172.675 34.0374 174.177 33.0491C176.529 31.5666 177.656 32.3177 180.107 30.8748C182.747 29.0929 185.038 26.8418 186.867 24.2334Z" fill="#263238"/>
<path d="M187.677 22.1184C186.862 24.0167 186.284 26.0084 185.957 28.0483C185.501 30.0126 185.597 32.0649 186.234 33.9781C187.095 35.7611 188.578 37.1673 190.405 37.9314C192.203 38.8011 194.358 39.1964 196.196 40.1847C197.192 40.6985 198.031 41.4698 198.627 42.4183C199.128 43.3957 199.424 44.4652 199.497 45.5611C199.527 47.555 200.101 49.5029 201.158 51.1945C201.753 51.9882 202.514 52.6431 203.388 53.114C204.262 53.585 205.227 53.8607 206.218 53.9222C208.281 53.7798 210.35 54.0832 212.286 54.8117C210.308 54.2463 208.234 54.1048 206.198 54.3966C205.118 54.3737 204.056 54.1182 203.084 53.6475C202.111 53.1767 201.252 52.5018 200.565 51.6689C199.352 49.9222 198.666 47.8641 198.588 45.739C198.502 44.7685 198.234 43.823 197.797 42.952C197.269 42.1618 196.538 41.5271 195.682 41.1137C193.963 40.1847 191.887 39.7301 189.99 38.8011C189.018 38.3342 188.119 37.7283 187.321 37.0023C186.497 36.2788 185.865 35.3619 185.483 34.3339C184.901 32.2792 184.901 30.103 185.483 28.0483C185.971 25.99 186.708 23.9987 187.677 22.1184Z" fill="#263238"/>
<path d="M186.748 23.838C186.177 25.6821 185.366 27.4432 184.337 29.076C183.301 30.7948 181.782 32.1699 179.968 33.0293C179.06 33.3828 178.121 33.6475 177.162 33.8199C176.306 34.0132 175.52 34.4371 174.888 35.0454C174.302 35.8269 173.64 36.5486 172.912 37.1999C172.137 37.8061 171.229 38.2194 170.263 38.4057C171.135 38.0522 171.922 37.5203 172.576 36.8442C173.203 36.1381 173.765 35.3774 174.256 34.571C174.922 33.7655 175.83 33.197 176.845 32.9502C177.757 32.7592 178.65 32.488 179.514 32.1398C181.164 31.3404 182.58 30.1285 183.625 28.6214C184.776 27.1014 185.82 25.5031 186.748 23.838Z" fill="#263238"/>
<path d="M208.985 64.2598C208.985 64.2598 217.109 55.7406 221.062 58.7648C225.015 61.789 217.919 74.8545 212.563 75.9812C211.884 76.1705 211.173 76.2208 210.474 76.1292C209.776 76.0375 209.102 75.8057 208.495 75.4476C207.888 75.0896 207.359 74.6126 206.941 74.0454C206.522 73.4782 206.223 72.8324 206.06 72.1465L208.985 64.2598Z" fill="#AD6359"/>
<path d="M218.928 62.4611C218.928 62.4611 218.928 62.5796 218.928 62.5994C215.132 63.5086 212.76 66.5526 211.021 69.735C211.281 69.4109 211.609 69.1473 211.982 68.9625C212.354 68.7777 212.762 68.6761 213.178 68.6648C213.593 68.6535 214.006 68.7328 214.388 68.8971C214.77 69.0614 215.112 69.3069 215.389 69.6164C215.488 69.6164 215.389 69.814 215.271 69.7745C214.676 69.4793 214.003 69.3777 213.347 69.4841C212.691 69.5904 212.085 69.8994 211.614 70.3675C210.815 71.1417 210.105 72.0037 209.499 72.9371C209.282 73.2336 208.748 72.9371 208.926 72.6208C209.499 68.0549 213.986 62.125 218.928 62.4611Z" fill="#263238"/>
<path d="M188.488 102.349L192.856 116.423L211.199 100.61L215.547 106.54C215.547 106.54 196.77 132.592 196.75 131.346L192.085 119.151L183.329 126.662L185.641 106.204L188.488 102.349Z" fill="#EBEBEB"/>
<path d="M183.902 116.403C184.396 113.043 184.791 109.643 185.443 106.303C185.443 106.184 185.661 106.144 185.681 106.303C186.096 109.623 184.119 122.491 183.882 125.594C184.257 125.278 191.986 119.012 192.045 119.131C193.113 121.107 196.552 129.982 196.769 130.793C199.734 126.642 211.06 111.639 214.559 107.765C214.658 107.666 214.836 107.765 214.757 107.904C212.068 112.311 196.967 132.552 196.849 132.473C195.009 128.256 193.386 123.948 191.986 119.566C190.642 120.969 182.775 128.105 182.795 127.591C182.965 123.844 183.334 120.11 183.902 116.403Z" fill="#263238"/>
</svg>
