<svg width="282" height="358" viewBox="0 0 282 358" fill="none" xmlns="http://www.w3.org/2000/svg">
<path d="M256.286 65.4285H0.531006V321.183H256.286V65.4285Z" fill="#DBDBDB"/>
<path d="M109.581 0.615112V172.917H281.883V0.615112H109.581ZM272.514 163.528H118.93V9.96451H272.514V163.528Z" fill="#263238"/>
<path d="M85.1106 217.391L98.947 218.359C103.35 210.739 105.29 201.943 104.501 193.177C104.343 191.201 108.553 202.863 105.944 218.873C120.551 219.881 140.436 221.265 157.791 222.313C158.443 215.533 159.352 209.287 159.352 209.287C159.703 213.765 160.45 218.204 161.586 222.55C163.958 222.708 166.29 222.827 168.524 222.945C168.86 213.291 169.731 203.664 171.133 194.106C171.927 204.228 174.377 214.151 178.387 223.479C189.437 224.032 196.691 224.19 196.177 223.637C180.364 203.732 193.093 193.256 189.101 176.198C184.337 155.74 167.061 151.728 168.267 136.666C169.236 124.332 171.785 102.016 156.407 96.5008C152.405 92.193 147.226 89.1536 141.514 87.7588C135.801 86.3641 129.805 86.6752 124.267 88.6537C99.1841 96.9555 107.209 135.48 105.173 143.149C102.268 154.1 96.8122 157.756 92.3055 170.209C87.7989 182.662 93.1555 191.537 93.4124 200.214C93.6694 208.891 82.3434 217.233 85.1106 217.391Z" fill="#263238"/>
<path d="M196.908 220.85C194.782 217.411 193.145 213.692 192.046 209.801C191.23 205.949 191.428 201.951 192.619 198.198C193.697 194.215 194.561 190.177 195.208 186.101C195.857 181.845 195.642 177.503 194.576 173.332C193.417 169.155 191.314 165.3 188.429 162.065C185.632 158.991 182.584 156.154 179.316 153.586C176.155 151.126 173.33 148.262 170.916 145.066C168.604 141.744 167.238 137.857 166.962 133.819C166.612 138.007 167.536 142.203 169.611 145.857C171.798 149.42 174.51 152.632 177.656 155.384C180.652 158.066 183.471 160.938 186.096 163.983C188.576 166.957 190.389 170.428 191.413 174.162C192.328 177.946 192.542 181.865 192.046 185.725C191.631 189.679 190.721 193.632 190.069 197.585C189.684 199.66 189.459 201.761 189.397 203.871C189.384 206.029 189.759 208.171 190.504 210.196C191.994 214.097 194.162 217.704 196.908 220.85Z" fill="#263238"/>
<path d="M109.621 102.253C107.71 106.935 106.382 111.834 105.667 116.84C104.817 121.802 104.205 126.723 103.691 131.803L102.801 139.255C102.551 141.662 102.068 144.038 101.358 146.351C99.6873 150.907 97.2101 155.125 94.0449 158.804C92.458 160.838 91.0117 162.977 89.7161 165.208C88.4146 167.5 87.38 169.934 86.6326 172.462C85.9673 174.974 85.485 177.53 85.1895 180.112C84.8669 182.737 84.8669 185.393 85.1895 188.018C85.5256 190.608 86.1384 193.078 86.6326 195.49C87.1342 197.89 87.4121 200.332 87.4627 202.784C87.4221 205.24 86.7987 207.651 85.6441 209.82C84.4895 211.988 82.8366 213.851 80.8213 215.256C83.1021 214.019 85.0434 212.239 86.4739 210.075C87.9045 207.91 88.7803 205.426 89.0242 202.843C89.183 200.27 89.0837 197.687 88.7278 195.134C88.3917 192.604 87.8778 190.153 87.7197 187.742C87.4366 182.901 88.0463 178.05 89.5183 173.431C90.2509 171.156 91.2181 168.963 92.4042 166.888C93.6582 164.788 95.0515 162.774 96.5749 160.86C98.1565 158.839 99.6279 156.734 100.983 154.554C102.366 152.302 103.462 149.884 104.244 147.359C104.937 144.845 105.387 142.27 105.588 139.67C105.845 137.14 106.003 134.63 106.162 132.12C106.498 127.099 106.754 122.098 107.229 117.117C107.506 112.092 108.307 107.111 109.621 102.253Z" fill="#263238"/>
<path d="M230.293 314.166C230.293 313.87 230.293 313.573 230.135 313.277C230.214 313.642 230.273 314.012 230.313 314.384C230.316 314.31 230.31 314.237 230.293 314.166Z" fill="#FFC017"/>
<path d="M180.798 322.923C180.961 323.031 181.133 323.123 181.312 323.199V323.061L180.779 322.942L180.798 322.923Z" fill="#FFC017"/>
<path d="M110.075 184.559C79.0027 219.506 41.3877 291.593 49.8279 305.37C59.2168 320.709 104.027 270.937 102.485 268.684C101.18 266.708 115.748 223.657 126.343 192.13C136.937 160.603 117.764 175.921 110.075 184.559Z" fill="#D3766A"/>
<path d="M110.075 184.559C79.0027 219.506 41.3877 291.593 49.8279 305.37C59.2168 320.709 104.027 270.937 102.485 268.684C101.18 266.708 115.748 223.657 126.343 192.13C136.937 160.603 117.764 175.921 110.075 184.559Z" fill="#455A64"/>
<path d="M114.266 228.302C111.222 237.493 108.454 246.091 106.359 253.01C101.556 253.227 87.5022 252.456 72.9148 238.422C77.3029 230.654 82.0467 222.846 86.9487 215.375C94.2263 222.797 103.912 227.38 114.266 228.302Z" fill="#EBEBEB"/>
<path d="M80.1096 321.302L87.8975 268.427C87.8975 268.427 75.4053 246.684 82.6595 230.871C86.3163 222.965 111.439 184.144 124.959 174.32C137.649 165.109 155.043 173.51 160.953 181.515C177.952 204.563 186.234 246.032 195.722 321.242L80.1096 321.302Z" fill="#58BA04"/>
<path d="M102.861 198.751C100.291 202.27 97.8004 205.847 95.3494 209.465C96.0215 208.061 96.6935 206.658 97.326 205.254C97.326 205.156 97.326 205.057 97.1877 205.254C96.2784 207.014 95.4285 208.793 94.6181 210.591C91.3369 215.427 88.1611 220.343 85.0908 225.337C83.758 227.426 82.6263 229.636 81.7107 231.939C80.881 234.196 80.3301 236.546 80.0702 238.936C79.7836 241.331 79.7439 243.748 79.9516 246.151C80.1121 248.618 80.4623 251.07 80.9991 253.484C81.6068 256.232 82.467 258.919 83.5687 261.509C84.1222 262.774 84.6954 264.019 85.3279 265.265C85.9605 266.51 87.0476 268.664 87.0476 268.743C86.8104 270.008 86.5732 270.898 86.4151 271.965C86.2569 273.033 86.079 274.14 85.9209 275.227C85.5849 277.401 82.7781 298.511 82.4618 300.686C81.8293 304.995 81.2759 309.304 80.7422 313.632C80.4457 316.123 80.2678 318.614 79.9318 321.084C79.9318 321.183 80.0702 321.223 80.09 321.084C80.4458 318.93 80.9794 316.815 81.3549 314.66C81.7305 312.506 82.1457 310.351 82.5607 308.197C83.3712 303.848 86.5139 280.524 87.186 276.156C87.3836 274.95 87.5616 273.744 87.7593 272.519C88.0252 271.217 88.1773 269.894 88.2138 268.566C86.0864 264.2 84.2891 259.68 82.8374 255.045C82.1451 252.69 81.6363 250.285 81.3155 247.851C81.0883 245.477 81.0883 243.088 81.3155 240.715C81.51 238.333 81.9674 235.98 82.6793 233.698C83.4742 231.377 84.4936 229.14 85.7233 227.017C88.2534 222.53 90.9416 218.122 93.6298 213.754C96.7133 208.799 99.8495 203.864 103.038 198.949C103.038 198.949 102.92 198.672 102.861 198.751Z" fill="#263238"/>
<path d="M49.828 305.37C57.7345 315.55 77.9552 316.518 128.596 323.713C135.593 324.721 155.933 277.164 148.501 275.721C139.151 273.883 102.446 268.822 99.7178 268.803C76.6902 268.526 44.4318 298.472 49.828 305.37Z" fill="#D3766A"/>
<path d="M138.361 273.942C138.361 273.942 159.767 276.057 170.678 280.643C181.924 285.691 191.773 293.397 199.379 303.097C207.602 313.514 220.252 344.408 211.99 349.607C204.518 354.311 193.172 322.073 193.172 322.073C193.172 322.073 210.151 353.026 200.11 357.039C190.069 361.051 179.02 322.883 179.02 322.883C179.02 322.883 195.762 355.082 184.752 357.573C176.43 359.549 164.491 325.472 164.491 325.472C164.491 325.472 178.684 353.244 170.204 355.537C160.835 358.087 147.848 327.409 147.848 327.409C125.315 329.643 113.653 321.48 106.063 314.7C104.126 313.059 138.361 273.942 138.361 273.942Z" fill="#D3766A"/>
<path d="M187.875 311.004C190.01 314.561 192.184 318.159 193.983 321.895C195.781 325.631 197.462 329.445 198.905 333.339C200.907 338.383 202.314 343.644 203.095 349.014C201 339.585 194.754 326.105 192.935 322.349C191.117 318.594 189.535 314.799 187.737 311.063L187.875 311.004Z" fill="#263238"/>
<path d="M174.256 317.269C176.766 321.934 179.455 326.48 181.767 331.244C184.08 336.008 185.72 340.732 187.697 345.634C187.855 346.009 187.697 345.97 187.42 345.634C185.266 340.811 182.894 336.522 180.68 331.798C178.466 327.073 176.43 322.132 174.039 317.427C174.098 317.23 174.216 317.19 174.256 317.269Z" fill="#263238"/>
<path d="M161.586 320.531C165.645 327.593 168.957 335.059 171.469 342.807C171.607 343.183 171.291 343.104 171.133 342.709C167.99 335.257 165.599 329.366 161.388 320.689C161.289 320.551 161.507 320.393 161.586 320.531Z" fill="#263238"/>
<path d="M154.529 274.318L112.842 323.377C112.842 323.377 55.9158 319.424 49.3534 304.402C42.7911 289.379 86.1383 267.538 99.6584 268.823C113.178 270.107 154.529 274.318 154.529 274.318Z" fill="#58BA04"/>
<path d="M77.7181 275.227C80.9992 272.973 90.2893 267.676 99.6585 268.724V268.882C91.9694 269.119 81.1376 273.448 77.7971 275.345C77.718 275.405 77.639 275.266 77.7181 275.227Z" fill="#263238"/>
<path d="M104.027 314.897C120.413 297.543 135.001 276.808 137.807 273.388C137.926 273.23 137.649 273.033 137.531 273.191C134.961 276.709 115.788 298.59 103.73 314.7C103.592 314.878 103.869 315.056 104.027 314.897Z" fill="#263238"/>
<path d="M60.8406 207.845L42.3623 298.345L111.869 312.537L130.347 222.037L60.8406 207.845Z" fill="#FFC017"/>
<path d="M113.291 213.665L80.355 206.904L78.3041 216.895L111.24 223.656L113.291 213.665Z" fill="#EBEBEB"/>
<path d="M105.786 212.173L101.734 211.323L102.663 206.737L92.8195 204.701L91.8706 209.307L87.8186 208.476L89.5383 200.095L107.565 203.792L105.786 212.173Z" fill="#EBEBEB"/>
<path d="M169.275 192.545C202.759 235.141 215.39 311.774 196.809 317.704C179.83 323.16 109.996 305.686 89.1824 298.61C83.0747 296.535 101.951 249.036 108.494 251.171C116.4 253.84 159.57 264.079 160.42 264.098C162.218 264.098 152.612 217.015 148.56 195.648C142.749 165.92 156.704 176.534 169.275 192.545Z" fill="#D3766A"/>
<path d="M52.6544 233.342C51.6609 234.554 51.0637 236.042 50.9435 237.605C50.8233 239.167 51.1859 240.729 51.9823 242.079C49.431 242.847 47.2286 244.483 45.756 246.704C43.3445 250.657 48.6221 256.291 48.6221 256.291C46.1379 257.638 44.119 259.705 42.8306 262.221C40.8539 266.312 45.4397 272.677 45.4397 272.677C43.8409 275.166 43.1952 278.15 43.6213 281.078C45.084 288.865 56.3309 293.293 63.3874 296.179C70.444 299.065 93.4321 300.547 97.7609 301.279L116.657 255.678C116.657 255.678 88.3718 233.678 79.4968 231.464C72.124 229.606 56.6274 228.756 52.6544 233.342Z" fill="#D3766A"/>
<path d="M52.5952 241.486C61.0156 241.486 68.9419 244.095 77.0065 246.19C77.1844 246.19 77.0065 246.506 77.0065 246.467C69.1 244.293 60.6796 243.739 52.615 241.881C52.5626 241.884 52.5112 241.865 52.4723 241.83C52.4333 241.795 52.4101 241.746 52.4075 241.693C52.4049 241.641 52.4232 241.59 52.4584 241.551C52.4936 241.512 52.5428 241.488 52.5952 241.486Z" fill="#263238"/>
<path d="M49.0173 255.757C50.9256 255.951 52.7999 256.396 54.5914 257.081C56.568 257.694 58.5446 258.327 60.3631 259.058C64.3163 260.402 68.0127 261.845 71.788 263.387C71.9461 263.387 71.788 263.723 71.788 263.663C67.9534 262.346 64.0989 261.087 60.2247 259.888C58.2481 259.295 56.2716 258.722 54.3938 258.169C52.5145 257.763 50.6852 257.153 48.9383 256.35C48.8994 256.345 48.8618 256.332 48.8278 256.312C48.7938 256.293 48.7641 256.266 48.7402 256.235C48.7164 256.204 48.6989 256.168 48.6888 256.13C48.6787 256.092 48.6761 256.053 48.6813 256.014C48.6865 255.975 48.6993 255.938 48.719 255.904C48.7387 255.87 48.7649 255.84 48.7961 255.816C48.8273 255.792 48.8629 255.775 48.9009 255.764C48.9388 255.754 48.9784 255.752 49.0173 255.757Z" fill="#263238"/>
<path d="M45.598 272.697C47.3234 272.908 49.0008 273.409 50.5593 274.179C52.279 274.832 54.0381 275.464 55.7775 276.156C59.2563 277.401 62.7549 278.666 66.2733 279.793C66.3036 279.804 66.3297 279.824 66.3481 279.851C66.3666 279.877 66.3765 279.909 66.3765 279.941C66.3765 279.973 66.3666 280.005 66.3481 280.031C66.3297 280.058 66.3036 280.078 66.2733 280.089C62.6956 278.943 59.0785 277.856 55.5008 276.69L50.243 274.93C48.5865 274.562 47.012 273.892 45.598 272.954C45.5811 272.954 45.5644 272.95 45.5488 272.944C45.5332 272.937 45.5191 272.928 45.5071 272.916C45.4952 272.904 45.4857 272.89 45.4793 272.874C45.4728 272.859 45.4695 272.842 45.4695 272.825C45.4695 272.808 45.4728 272.792 45.4793 272.776C45.4857 272.76 45.4952 272.746 45.5071 272.734C45.5191 272.722 45.5332 272.713 45.5488 272.707C45.5644 272.7 45.5811 272.697 45.598 272.697Z" fill="#263238"/>
<path d="M159.846 262.181C160.38 261.845 150.359 216.383 146.998 192.644C143.638 168.904 154.233 171.197 169.473 191.477C185.819 213.22 214.935 272.044 204.834 315.609C201.573 329.722 100.508 309.956 100.508 309.956L114.127 251.863C114.127 251.863 158.957 262.675 159.846 262.181Z" fill="#58BA04"/>
<path d="M200.98 257.872C184.495 262.695 166.606 260.244 159.313 258.88C158.265 253.168 155.715 240.794 153.106 227.432C170.421 229.409 182.162 226.879 188.586 224.724C193.583 235.43 197.727 246.514 200.98 257.872Z" fill="#EBEBEB"/>
<path d="M113.673 303.987C119.82 283.746 123.2 261.568 124.07 257.734C124.07 257.556 123.813 257.516 123.793 257.734C123.141 261.529 116.499 286.474 113.356 303.967C113.317 304.125 113.613 304.164 113.673 303.987Z" fill="#263238"/>
<path d="M178.783 268.902C176.806 268.566 125.236 254.037 113.969 252.278C113.791 252.278 113.969 251.665 114.127 251.705C136.266 255.573 158.102 261.003 179.474 267.953C182.044 268.981 182.42 269.534 178.783 268.902Z" fill="#263238"/>
<path d="M159.293 262.636C159.293 262.636 155.893 245.123 155.34 244.036C154.786 242.949 153.363 240.418 152.81 239.252C151.683 236.9 150.714 234.489 149.687 232.097C149.687 231.899 149.904 231.761 149.983 231.959C151.11 234.251 152.414 236.465 153.739 238.659C154.391 239.727 155.043 240.814 155.715 241.861C155.715 241.861 152.533 224.862 152.078 221.858C152.078 221.641 152.276 221.562 152.355 221.858C153.324 224.882 160.084 259.098 161.013 262.893C160.434 262.849 159.859 262.763 159.293 262.636Z" fill="#263238"/>
<path d="M121.263 313.553C117.883 312.624 104.383 310.45 101.101 309.976C101.712 307.551 102.109 305.077 102.287 302.583C102.274 302.558 102.254 302.538 102.229 302.524C102.205 302.509 102.177 302.502 102.149 302.502C102.121 302.502 102.093 302.509 102.069 302.524C102.044 302.538 102.024 302.558 102.011 302.583C100.978 305.338 100.152 308.166 99.5398 311.043C99.5398 311.32 117.725 313.613 121.283 313.791C121.322 313.751 121.362 313.593 121.263 313.553Z" fill="#263238"/>
<path d="M116.736 178.61C116.736 178.61 118.08 191.972 129.169 194.047C140.258 196.122 160.953 181.575 160.953 181.575C158.109 178.123 154.547 175.331 150.517 173.393C146.486 171.454 142.082 170.415 137.609 170.347C123.16 170.328 116.736 178.61 116.736 178.61Z" fill="#D3766A"/>
<path d="M148.54 174.874C147.947 176.85 137.491 189.54 128.221 188.572C125.196 188.236 126.244 171.672 126.244 171.672L126.046 170.446L123.18 153.091L144.053 141.232L147.058 139.69C147.058 139.69 147.532 144.493 148.046 150.482C148.046 150.759 148.046 151.036 148.046 151.332C148.046 151.629 148.046 151.985 148.145 152.301C148.145 153.19 148.323 154.099 148.382 155.009C148.441 155.918 148.501 156.392 148.54 157.104L148.659 159.278C148.975 164.473 148.936 169.684 148.54 174.874Z" fill="#D3766A"/>
<path d="M147.987 150.561C145.979 155.272 142.972 159.489 139.173 162.923C135.375 166.356 130.876 168.923 125.987 170.446L123.121 153.091L143.994 141.232L146.998 139.69C146.998 139.69 147.493 144.572 147.987 150.561Z" fill="#263238"/>
<path d="M103.078 120.695C94.9542 150.463 111.894 158.705 118.318 160.445C124.248 162.026 144.192 166.671 155.36 137.891C166.527 109.112 155.241 95.9079 142.077 91.5791C128.912 87.2503 111.202 90.9071 103.078 120.695Z" fill="#D3766A"/>
<path d="M113.811 114.864C114.542 114.864 115.214 114.864 115.946 114.864C116.69 114.987 117.454 114.862 118.12 114.508C118.314 114.36 118.451 114.149 118.509 113.912C118.567 113.674 118.541 113.424 118.436 113.203C118.176 112.796 117.812 112.466 117.381 112.247C116.95 112.028 116.468 111.928 115.985 111.958C114.99 111.859 113.994 112.142 113.198 112.749C113.012 112.895 112.873 113.093 112.8 113.318C112.727 113.544 112.723 113.786 112.789 114.014C112.855 114.241 112.988 114.444 113.17 114.595C113.352 114.747 113.575 114.84 113.811 114.864Z" fill="#263238"/>
<path d="M135.04 117.829C134.363 117.574 133.703 117.277 133.063 116.939C132.333 116.732 131.693 116.287 131.245 115.674C131.142 115.455 131.115 115.207 131.169 114.971C131.222 114.734 131.354 114.523 131.541 114.37C131.958 114.117 132.437 113.983 132.925 113.983C133.413 113.983 133.891 114.117 134.309 114.37C135.246 114.733 136.009 115.44 136.443 116.346C136.506 116.545 136.515 116.757 136.469 116.96C136.422 117.163 136.322 117.35 136.179 117.501C136.036 117.653 135.854 117.763 135.654 117.82C135.454 117.878 135.242 117.881 135.04 117.829Z" fill="#263238"/>
<path d="M128.22 127.356C128.22 127.356 128.339 127.494 128.22 127.573C127.647 129.55 127.351 132.021 129.031 133.147C129.031 133.147 129.031 133.286 129.031 133.246C126.916 132.376 127.371 129.174 128.22 127.356Z" fill="#263238"/>
<path d="M130.573 125.676C133.933 126.229 132.549 132.89 129.466 132.357C126.382 131.823 127.786 125.201 130.573 125.676Z" fill="#263238"/>
<path d="M131.818 126.288C132.312 126.783 132.747 127.573 133.439 127.791C134.131 128.008 134.981 127.455 135.653 126.901C135.653 126.901 135.771 126.901 135.653 127C135.396 128.285 134.644 129.491 133.241 129.392C131.838 129.293 131.264 127.988 131.264 126.644C131.343 126.407 131.62 126.091 131.818 126.288Z" fill="#263238"/>
<path d="M115.966 123.284C115.966 123.284 115.788 123.284 115.768 123.442C115.392 125.518 114.621 127.811 112.605 128.087V128.206C114.938 128.384 115.946 125.32 115.966 123.284Z" fill="#263238"/>
<path d="M114.602 120.754C111.34 119.785 109.66 126.368 112.625 127.257C115.59 128.147 117.329 121.564 114.602 120.754Z" fill="#263238"/>
<path d="M113.119 120.833C112.506 121.05 111.834 121.545 111.143 121.426C110.451 121.307 110.055 120.438 109.779 119.647C109.779 119.647 109.68 119.647 109.66 119.647C109.304 120.892 109.383 122.316 110.53 122.869C111.676 123.422 112.645 122.493 113.277 121.327C113.455 121.149 113.356 120.754 113.119 120.833Z" fill="#263238"/>
<path d="M122.963 142.932C122.39 143.327 121.797 143.92 120.986 143.861C120.222 143.722 119.495 143.425 118.851 142.991C118.851 142.991 118.713 142.991 118.733 142.991C118.965 143.446 119.315 143.831 119.746 144.105C120.177 144.38 120.673 144.534 121.184 144.553C121.633 144.515 122.061 144.344 122.413 144.062C122.765 143.781 123.025 143.401 123.16 142.971C123.2 142.932 123.062 142.872 122.963 142.932Z" fill="#263238"/>
<path d="M116.005 133.622C116.005 133.622 114.918 136.606 114.602 138.049C114.602 138.188 114.898 138.326 115.392 138.464C116.582 138.968 117.889 139.131 119.166 138.936C120.444 138.74 121.642 138.194 122.627 137.358C122.765 137.239 122.627 137.061 122.449 137.12C120.332 137.976 117.995 138.121 115.788 137.535C115.788 137.12 117.764 132.515 117.606 132.436C116.458 132.279 115.295 132.279 114.147 132.436C116.262 126.17 119.346 120.299 121.342 114.033C121.342 113.796 121.085 113.658 120.986 113.856C117.483 120.049 114.609 126.578 112.408 133.345C112.151 134.175 115.373 133.74 116.005 133.622Z" fill="#263238"/>
<path d="M115.966 138.01C116.516 139.329 117.394 140.485 118.515 141.37C119.147 141.834 119.907 142.089 120.69 142.101C122.39 142.101 122.824 140.639 122.864 139.314C122.881 138.611 122.815 137.907 122.666 137.219C120.572 138.183 118.227 138.46 115.966 138.01Z" fill="#263238"/>
<path d="M118.515 141.37C119.147 141.833 119.907 142.089 120.69 142.101C122.39 142.101 122.824 140.639 122.864 139.314C122.014 139.131 121.127 139.233 120.341 139.605C119.555 139.976 118.913 140.597 118.515 141.37Z" fill="#FF9CBD"/>
<path d="M153.699 137.397C150.517 136.27 144.646 124.964 148.876 109.29C148.876 109.29 146.05 123.64 146.524 125.992C146.999 128.344 143.243 119.627 146.524 106.937C141.746 108.646 136.746 109.658 131.68 109.942C125.275 109.942 121.639 108.795 121.342 108.242C121.046 107.689 130.573 107.451 133.716 105.396C133.716 105.396 115.807 108.222 108.356 106.68C107.506 106.503 111.459 88.8909 124.841 84.7597C138.222 80.6286 153.778 93.6941 157.257 99.703C157.257 99.703 162.653 102.114 166.389 112.215C170.125 122.315 157.119 138.603 153.699 137.397Z" fill="#263238"/>
<path d="M149.094 138.049C149.094 138.049 157.435 129.767 161.309 132.91C165.183 136.053 157.692 148.901 152.316 149.85C151.636 150.022 150.929 150.056 150.237 149.95C149.544 149.843 148.88 149.598 148.284 149.229C147.688 148.86 147.173 148.375 146.769 147.802C146.364 147.23 146.079 146.582 145.931 145.897L149.094 138.049Z" fill="#D3766A"/>
<path d="M159.076 136.547C159.076 136.547 159.076 136.666 159.076 136.686C155.28 137.476 152.81 140.421 150.892 143.584C151.161 143.264 151.497 143.007 151.876 142.83C152.255 142.653 152.668 142.562 153.086 142.562C153.505 142.562 153.918 142.653 154.297 142.83C154.676 143.007 155.011 143.264 155.28 143.584C155.28 143.584 155.28 143.782 155.142 143.742C154.556 143.43 153.887 143.308 153.228 143.393C152.57 143.478 151.954 143.766 151.466 144.216C150.658 144.977 149.929 145.819 149.291 146.727C149.054 147.023 148.52 146.727 148.718 146.411C149.489 141.785 154.134 136.112 159.076 136.547Z" fill="#263238"/>
<path d="M180.858 322.942L181.372 323.061L180.858 322.942Z" fill="#D3766A"/>
<path d="M230.135 313.277C230.214 313.642 230.273 314.012 230.313 314.384C230.323 314.311 230.323 314.238 230.313 314.166C230.254 313.87 230.194 313.573 230.135 313.277Z" fill="#FFC017"/>
<path d="M230.135 313.277C230.214 313.642 230.273 314.012 230.313 314.384C230.323 314.311 230.323 314.238 230.313 314.166C230.254 313.87 230.194 313.573 230.135 313.277Z" fill="#FFC017"/>
<path d="M178.526 328.319L180.127 328.694L178.526 328.319Z" fill="#FFC017"/>
<path d="M230.135 313.277C230.214 313.642 230.273 314.012 230.313 314.384C230.323 314.311 230.323 314.238 230.313 314.166C230.254 313.87 230.194 313.573 230.135 313.277Z" fill="#DBDBDB"/>
</svg>
