<svg width="87" height="87" viewBox="0 0 87 87" fill="none" xmlns="http://www.w3.org/2000/svg">
<path d="M82.8398 39.498C81.0049 20.8642 66.1358 5.99507 47.502 4.14434C34.9107 2.89471 22.5567 7.70344 14.1731 16.9571C6.69106 25.2142 3.03706 36.3502 4.14433 47.502C5.99506 66.1358 20.8641 80.9891 39.4821 82.8398C40.8109 82.9663 42.1554 83.0454 43.4841 83.0454C54.6201 83.0454 65.3132 78.3 72.7952 70.0429C80.2931 61.77 83.9471 50.634 82.8398 39.498ZM70.47 67.9074C62.7665 76.4176 51.3774 80.8467 39.8143 79.692C22.6674 77.9994 9.00051 64.3325 7.30797 47.1856C6.2956 36.9196 9.64906 26.6694 16.53 19.0767C23.4109 11.484 33.2498 7.11816 43.5 7.11816C44.718 7.11816 45.9676 7.18144 47.1856 7.30798C64.3167 9.01634 77.9836 22.6833 79.692 39.8143C80.7201 50.0645 77.3509 60.3147 70.47 67.9074Z" fill="#C7C7C7"/>
<path d="M44.0063 38.3749C42.3928 38.2326 40.7793 38.8495 39.6879 40.0358C38.723 41.1115 38.2484 42.5509 38.3908 44.0062C38.6281 46.4264 40.5737 48.3562 43.0097 48.6093C43.1837 48.6251 43.3419 48.6251 43.5159 48.6251C44.9712 48.6251 46.3474 48.0082 47.3281 46.9326C48.3088 45.8569 48.7833 44.4175 48.6252 42.9622C48.3721 40.5578 46.4423 38.628 44.0063 38.3749ZM44.9712 44.8287C44.5915 45.24 44.0695 45.4773 43.5001 45.4773C43.421 45.4773 43.3577 45.4773 43.2944 45.4615C42.3612 45.3666 41.6177 44.6231 41.5386 43.7056C41.4753 43.1362 41.6652 42.5826 42.0448 42.1713C42.4244 41.76 42.9623 41.5227 43.5159 41.5227C43.5792 41.5227 43.6583 41.5227 43.7215 41.5386C44.6548 41.6335 45.3983 42.3769 45.4774 43.3102C45.5248 43.848 45.335 44.4175 44.9712 44.8287Z" fill="#C7C7C7"/>
<path d="M73.9499 41.9657L55.5375 37.1727L60.5361 28.6626C60.8999 28.0457 60.805 27.2547 60.2988 26.7486C59.7926 26.2424 59.0017 26.1316 58.3848 26.4955L49.843 31.4782L45.0343 13.05C44.8444 12.354 44.2275 11.8636 43.4999 11.8636C42.7723 11.8636 42.1553 12.354 41.9655 13.05L37.1726 31.4782L28.6308 26.4955C28.0139 26.1316 27.223 26.2266 26.7168 26.7486C26.2106 27.2706 26.1157 28.0457 26.4795 28.6626L31.4781 37.1727L13.0499 41.9657C12.3539 42.1555 11.8635 42.7724 11.8635 43.5C11.8635 44.2276 12.3539 44.8446 13.0499 45.0344L31.4781 49.8273L26.4795 58.3691C26.1157 58.986 26.2106 59.7769 26.7326 60.2831C27.0332 60.5837 27.4444 60.7418 27.8557 60.7418C28.1246 60.7418 28.4093 60.6786 28.6624 60.5204L37.2043 55.5218L41.9972 73.95C42.187 74.646 42.8039 75.1364 43.5315 75.1364C44.2592 75.1364 44.8761 74.646 45.0659 73.95L49.8272 55.5218L58.3532 60.5046C58.6063 60.6469 58.8752 60.726 59.1441 60.726C59.5553 60.726 59.9508 60.5678 60.2672 60.2673C60.7733 59.7611 60.8841 58.9702 60.5203 58.3533L55.5217 49.8273L73.9499 45.0344C74.6459 44.8446 75.1363 44.2276 75.1363 43.5C75.1363 42.7724 74.6459 42.1555 73.9499 41.9657ZM54.7466 32.2691L52.3581 36.3344L51.0135 35.9864L50.6655 34.6418L54.7466 32.2691ZM32.269 32.2691L36.3501 34.6576L36.0021 36.0022L34.6575 36.3502L32.269 32.2691ZM32.269 54.7309L34.6575 50.6498L36.0021 50.9978L36.3501 52.3424L32.269 54.7309ZM54.7308 54.7309L50.6655 52.3424L51.0135 50.9978L52.3581 50.6498L54.7308 54.7309ZM49.3052 48.1822C48.7515 48.3246 48.3244 48.7675 48.1663 49.3211L43.4999 67.2747L38.8177 49.3053C38.6753 48.7517 38.2324 48.3246 37.6788 48.1664L19.7252 43.5L37.6946 38.8178C38.2483 38.6755 38.6753 38.2326 38.8335 37.6789L43.5157 19.7095L48.1979 37.6789C48.3403 38.2326 48.7832 38.6597 49.3368 38.8178L67.3063 43.5L49.3052 48.1822Z" fill="#C7C7C7"/>
</svg>
