<svg width="534" height="321" viewBox="0 0 534 321" fill="none" xmlns="http://www.w3.org/2000/svg">
<path d="M62.1423 172.847C62.5491 162.494 62.4084 152.126 61.7207 141.788C60.1892 120.468 56.9357 99.3064 51.9919 78.5108C49.276 66.7958 45.9358 55.2835 42.4497 43.7874C42.3524 43.4388 41.793 43.5361 41.8903 43.9009C52.6567 84.4373 61.4856 126.271 60.8775 168.412C60.7073 180.208 59.3452 191.794 58.2264 203.509C58.2264 203.825 58.7129 203.947 58.7858 203.622C61.0072 193.594 61.7288 183.087 62.1423 172.847Z" fill="#EBEBEB"/>
<path d="M41.8903 43.9009C41.8903 43.9009 25.5785 85.2966 29.2349 95.0254C32.8912 104.754 40.4148 106.83 40.4148 106.83C40.4148 106.83 30.4347 121.042 37.407 134.443C44.3793 147.844 59.8722 147.171 60.9181 162.324C60.9019 162.324 61.7694 98.9736 41.8903 43.9009Z" fill="#EBEBEB"/>
<path d="M59.1264 136.162C59.154 136.091 59.154 136.013 59.1264 135.943C56.8401 107.794 51.8299 79.735 43.3091 52.6729C43.3091 52.5919 43.1551 52.6162 43.1794 52.6729C46.4223 64.7852 49.2761 76.9596 51.7407 89.1962C49.55 87.1221 46.874 85.6308 43.9577 84.8588C43.9469 84.8588 43.9366 84.8631 43.929 84.8707C43.9214 84.8783 43.9172 84.8886 43.9172 84.8994C43.9172 84.9101 43.9214 84.9204 43.929 84.928C43.9366 84.9356 43.9469 84.9399 43.9577 84.9399C46.9736 86.2452 49.8598 87.7531 51.992 90.315C52.4703 92.7472 52.9405 95.1145 53.3783 97.5143C49.7382 93.4606 44.6792 91.4176 39.596 89.4962C39.5311 89.4962 39.4906 89.5854 39.596 89.6097C44.8576 91.7581 50.1354 94.5146 53.6783 99.0547C54.9214 105.93 56.0024 112.824 56.9212 119.736C54.2844 116.979 50.9053 115.045 47.1925 114.167C47.079 114.167 47.0141 114.304 47.1357 114.337C50.9649 115.441 54.3902 117.636 56.9942 120.652C57.0121 120.673 57.0342 120.69 57.059 120.701C57.3833 123.133 57.6914 125.565 57.9752 127.998C55.9388 126.273 53.6397 124.886 51.1651 123.887C51.1545 123.891 51.1455 123.899 51.1391 123.908C51.1328 123.918 51.1294 123.929 51.1294 123.94C51.1294 123.951 51.1328 123.962 51.1391 123.972C51.1455 123.981 51.1545 123.988 51.1651 123.993C53.6877 125.086 55.9984 126.614 57.9914 128.508C57.9914 128.508 58.0481 128.508 58.0806 128.549C58.3481 130.868 58.6237 133.186 58.8913 135.505C55.2183 131.066 50.451 127.663 45.0603 125.63C45.0401 125.627 45.0193 125.63 45.0014 125.64C44.9834 125.65 44.9695 125.666 44.9619 125.685C44.9543 125.704 44.9534 125.725 44.9596 125.745C44.9657 125.764 44.9783 125.781 44.9954 125.792C50.3186 128.142 54.9964 131.74 58.6319 136.283C58.6688 136.336 58.7219 136.376 58.7833 136.397C58.8446 136.417 58.911 136.417 58.9724 136.397C59.3291 139.959 59.6399 143.526 59.9047 147.098C59.9047 147.147 59.9858 147.155 59.9858 147.098C59.7101 143.461 59.4237 139.815 59.1264 136.162Z" fill="white"/>
<path d="M46.025 80.7646C43.1955 78.827 39.604 77.9919 36.2233 77.7163C36.1422 77.7163 36.1422 77.8298 36.2233 77.8379C39.7337 78.3568 42.7091 79.6296 45.9115 80.9997C46.025 81.0646 46.1466 80.8538 46.025 80.7646Z" fill="white"/>
<path d="M48.0032 124.601C45.7344 123.301 43.2389 122.445 40.6499 122.079C40.5607 122.079 40.5526 122.209 40.6499 122.217C43.1888 122.726 45.6445 123.585 47.9465 124.771C47.9656 124.769 47.9838 124.762 47.999 124.751C48.0141 124.739 48.0254 124.723 48.0315 124.705C48.0375 124.686 48.0381 124.667 48.0331 124.648C48.028 124.63 48.0176 124.613 48.0032 124.601Z" fill="white"/>
<path d="M105.022 95.6983C98.124 100.469 91.7896 106.007 86.1398 112.205C80.3167 118.761 75.8206 126.385 72.9006 134.654C66.7104 151.889 63.3829 170.022 63.0503 188.332C62.8412 198.478 63.818 208.613 65.9608 218.532C65.9748 218.606 66.0177 218.671 66.08 218.714C66.1423 218.756 66.219 218.773 66.2932 218.759C66.3674 218.745 66.433 218.702 66.4756 218.639C66.5181 218.577 66.5342 218.5 66.5202 218.426C63.859 200.923 63.9602 183.111 66.8202 165.64C69.6253 148.517 74.0195 129.887 84.9075 115.966C90.8339 108.386 98.2278 102.427 105.532 96.2658C105.905 95.9577 105.419 95.4226 105.022 95.6983Z" fill="#EBEBEB"/>
<path d="M65.4825 176.017C69.4165 169.667 74.0385 163.77 79.2648 158.432C87.4289 150.276 94.2957 144.48 95.3578 139.08C96.4198 133.681 87.1857 129.716 87.1857 129.716C87.1857 129.716 98.4791 131.743 101.568 127C104.657 122.258 106.149 94.8227 106.149 94.8227C106.149 94.8227 85.6047 109.481 76.0382 130.041C66.4716 150.601 65.4825 176.017 65.4825 176.017Z" fill="#EBEBEB"/>
<path d="M98.9736 101.852C90.3313 110.34 81.6322 119.388 76.5408 130.543C74.8026 134.395 73.2894 138.345 72.0088 142.372C71.7494 143.183 71.4819 143.993 71.1981 144.804C71.1762 144.844 71.1624 144.888 71.1576 144.934C68.7443 153.272 66.7982 161.738 65.3284 170.293C65.3284 170.342 65.3933 170.374 65.4095 170.293C66.2932 166.013 67.2661 161.683 68.3606 157.378C68.4007 157.386 68.442 157.386 68.4822 157.378C70.1962 156.642 72.0156 156.179 73.8735 156.008C73.9951 156.008 73.987 155.781 73.8735 155.789C72.0596 155.872 70.2652 156.199 68.5389 156.762C69.5361 152.871 70.6144 148.995 71.8305 145.177C75.8142 144.202 79.8913 143.658 83.9914 143.556V143.483C79.9839 143.321 75.9724 143.681 72.0575 144.553C72.2683 143.896 72.4872 143.247 72.7061 142.591C75.3754 141.956 78.0837 141.499 80.8133 141.221C80.862 141.221 80.862 141.131 80.8133 141.131C78.1419 141.184 75.4826 141.507 72.8763 142.096C73.987 138.788 75.195 135.529 76.5408 132.367C77.6485 129.766 78.9436 127.249 80.4161 124.836C82.5793 124.301 84.7759 123.911 86.9911 123.668C87.0559 123.668 87.0478 123.563 86.9911 123.555C84.9229 123.4 82.8434 123.605 80.8458 124.163C81.924 122.42 83.059 120.709 84.2751 119.055C88.8801 118.034 93.5499 117.085 98.2683 117.969C98.3494 117.969 98.3737 117.847 98.2683 117.831C93.785 116.647 89.3503 117.328 84.867 118.212C85.3534 117.564 85.856 116.923 86.3587 116.291C89.1469 115.432 92.0434 114.976 94.9605 114.937C94.9734 114.937 94.9858 114.932 94.9949 114.923C95.004 114.913 95.0092 114.901 95.0092 114.888C95.0092 114.875 95.004 114.863 94.9949 114.854C94.9858 114.845 94.9734 114.84 94.9605 114.84C92.2667 114.593 89.5504 114.835 86.9424 115.553C90.7447 110.826 94.9524 106.384 99.1033 101.981C99.3303 101.771 99.1763 101.657 98.9736 101.852Z" fill="white"/>
<path d="M98.7223 120.563C97.38 120.371 96.0212 120.322 94.6686 120.417C94.5065 120.417 94.5146 120.709 94.6686 120.709C96.0226 120.709 97.3684 120.652 98.7223 120.709C98.736 120.703 98.7475 120.692 98.7556 120.679C98.7637 120.666 98.768 120.651 98.768 120.636C98.768 120.621 98.7637 120.606 98.7556 120.593C98.7475 120.58 98.736 120.57 98.7223 120.563Z" fill="white"/>
<path d="M83.9589 147.188C81.79 147.237 79.6466 147.668 77.6271 148.46C77.5785 148.46 77.6271 148.558 77.6271 148.55C79.7188 148.047 81.8348 147.844 83.9427 147.496C83.963 147.497 83.9832 147.494 84.0023 147.487C84.0214 147.48 84.039 147.47 84.054 147.456C84.0691 147.443 84.0813 147.426 84.09 147.408C84.0988 147.39 84.1038 147.37 84.1049 147.35C84.1059 147.329 84.103 147.309 84.0962 147.29C84.0895 147.271 84.079 147.253 84.0655 147.238C84.0519 147.223 84.0355 147.211 84.0173 147.202C83.999 147.194 83.9792 147.189 83.9589 147.188Z" fill="white"/>
<path d="M79.5324 137.986C78.6296 137.982 77.7283 138.063 76.8408 138.229C76.7516 138.229 76.7597 138.391 76.8408 138.391C77.7398 138.44 78.6415 138.399 79.5324 138.27C79.6946 138.237 79.6865 137.994 79.5324 137.986Z" fill="white"/>
<path d="M5.22924 124.828C11.9129 127.093 18.3181 130.109 24.3219 133.819C30.5511 137.777 35.9508 142.91 40.2202 148.931C49.2221 161.448 56.1127 175.355 60.6181 190.099C63.1305 198.269 64.6813 206.703 65.2393 215.232C65.2289 215.288 65.1994 215.338 65.1557 215.375C65.112 215.411 65.0569 215.431 65.0001 215.431C64.9433 215.431 64.8882 215.411 64.8446 215.375C64.8009 215.338 64.7713 215.288 64.7609 215.232C62.87 200.452 58.6735 186.06 52.3244 172.58C46.098 159.373 38.2258 145.315 26.2028 136.567C19.6521 131.8 12.2907 128.687 4.95359 125.387C4.57255 125.233 4.8482 124.69 5.22924 124.828Z" fill="#EBEBEB"/>
<path d="M55.8267 180.679C51.1796 176.447 46.082 172.739 40.6256 169.62C32.1373 164.91 25.2218 161.805 23.1301 157.686C21.0384 153.568 27.5729 148.217 27.5729 148.217C27.5729 148.217 18.9062 152.465 15.3147 149.344C11.7232 146.223 4.16718 124.357 4.16718 124.357C4.16718 124.357 24.1759 131.476 36.6773 145.907C49.1788 160.338 55.8267 180.679 55.8267 180.679Z" fill="#EBEBEB"/>
<path d="M54.7809 176.171C44.7684 157.378 31.4319 140.386 13.1176 129.149C17.8965 132.239 22.3775 135.768 26.5027 139.688C22.7793 139.485 19.0682 140.268 15.7444 141.958C15.734 141.967 15.7268 141.979 15.7237 141.993C15.7207 142.006 15.7219 142.02 15.7273 142.033C15.7327 142.045 15.742 142.056 15.7538 142.063C15.7656 142.07 15.7793 142.073 15.793 142.072C19.3308 140.745 23.0902 140.109 26.8676 140.199C26.9126 140.198 26.9558 140.181 26.9892 140.15C27.6458 140.767 28.2863 141.391 28.9187 142.023C26.9845 142.114 25.0616 142.369 23.1706 142.785C23.1599 142.785 23.1496 142.79 23.142 142.797C23.1344 142.805 23.1301 142.815 23.1301 142.826C23.1301 142.837 23.1344 142.847 23.142 142.854C23.1496 142.862 23.1599 142.866 23.1706 142.866C25.1723 142.492 27.207 142.324 29.243 142.364C32.6022 145.748 35.769 149.318 38.7285 153.057C37.3719 152.864 35.9898 152.964 34.6749 153.349C34.6586 153.354 34.6445 153.365 34.6345 153.379C34.6245 153.392 34.6191 153.409 34.6191 153.426C34.6191 153.443 34.6245 153.46 34.6345 153.474C34.6445 153.487 34.6586 153.498 34.6749 153.503C36.0988 153.338 37.5358 153.319 38.9636 153.446C39.5149 154.144 40.0662 154.833 40.5851 155.538C36.4944 155.292 32.3906 155.692 28.4241 156.722C28.3674 156.722 28.3836 156.827 28.4241 156.819C32.5312 156.015 36.7247 155.742 40.9012 156.008C41.412 156.681 41.8984 157.378 42.393 158.067C39.9563 157.997 37.5218 158.27 35.1613 158.878C35.1503 158.874 35.1385 158.873 35.127 158.875C35.1155 158.877 35.1045 158.881 35.095 158.888C35.0856 158.894 35.0778 158.903 35.0725 158.914C35.0671 158.924 35.0643 158.935 35.0643 158.947C35.0643 158.959 35.0671 158.97 35.0725 158.981C35.0778 158.991 35.0856 159 35.095 159.007C35.1045 159.013 35.1155 159.018 35.127 159.019C35.1385 159.021 35.1503 159.02 35.1613 159.016C37.6177 158.484 40.1354 158.29 42.6443 158.44C44.8008 161.4 46.8601 164.432 48.8464 167.504C47.7868 167.313 46.6966 167.38 45.6683 167.699C45.6576 167.699 45.6473 167.703 45.6397 167.711C45.6321 167.718 45.6278 167.729 45.6278 167.739C45.6278 167.75 45.6321 167.761 45.6397 167.768C45.6473 167.776 45.6576 167.78 45.6683 167.78C46.8164 167.692 47.9711 167.746 49.1058 167.942C50.8894 170.72 52.6082 173.52 54.262 176.341C54.5296 176.593 54.943 176.414 54.7809 176.171Z" fill="white"/>
<path d="M39.215 160.581C37.2471 160.452 35.2724 160.694 33.3939 161.294C33.3453 161.294 33.3939 161.391 33.3939 161.383C35.3086 161.061 37.2422 160.863 39.1825 160.792C39.3204 160.767 39.3447 160.597 39.215 160.581Z" fill="white"/>
<path d="M21.7518 137.686C20.8568 137.618 19.9567 137.672 19.0765 137.848C19.0602 137.853 19.0461 137.864 19.0361 137.877C19.0261 137.891 19.0207 137.908 19.0207 137.925C19.0207 137.942 19.0261 137.959 19.0361 137.973C19.0461 137.986 19.0602 137.997 19.0765 138.002C19.9601 137.913 20.8276 137.945 21.7113 137.913C21.7414 137.918 21.7724 137.911 21.7975 137.894C21.8226 137.876 21.8397 137.85 21.8451 137.82C21.8505 137.789 21.8437 137.758 21.8262 137.733C21.8087 137.708 21.782 137.691 21.7518 137.686Z" fill="white"/>
<path d="M81.6403 242.805H36.4584L42.9037 195.62L44.5495 183.524H73.5492L75.195 195.62L81.6403 242.805Z" fill="#DBDBDB"/>
<path d="M75.195 195.62H42.9037L44.5495 183.524H73.5492L75.195 195.62Z" fill="#C7C7C7"/>
<path d="M77.6921 179.325H40.3986V189.572H77.6921V179.325Z" fill="#DBDBDB"/>
<path d="M425.372 27.5242C423.227 32.9836 421.966 38.7498 421.635 44.6062H406.701H406.515V44.1927L406.636 43.0334C406.818 41.0211 407.143 39.0243 407.609 37.0583C408.392 33.8412 409.52 30.718 410.974 27.7431C411.001 27.6706 411.052 27.6094 411.118 27.5696C411.184 27.5298 411.262 27.5138 411.339 27.5242H425.348H425.372Z" fill="#EBEBEB"/>
<path d="M424.918 65.6689H411.023C410.949 65.6764 410.876 65.6588 410.814 65.6191C410.752 65.5793 410.706 65.5197 410.682 65.45C409.078 62.1025 407.919 58.5592 407.236 54.9105C406.892 53.1547 406.664 51.3781 406.555 49.5921C406.555 49.5354 406.555 49.4705 406.515 49.4138V48.9922H406.742H421.392C421.659 48.9922 421.651 48.9922 421.667 49.2679C421.765 50.4758 421.846 51.7 421.959 52.908C422.152 54.8333 422.463 56.7448 422.892 58.6318C423.393 60.9411 424.052 63.2137 424.862 65.4338C424.87 65.5148 424.886 65.5878 424.918 65.6689Z" fill="#EBEBEB"/>
<path d="M483.356 70.0792C483.356 70.1603 483.275 70.2252 483.242 70.2819C482.061 72.0826 480.744 73.7901 479.302 75.3895C477.564 77.3538 475.629 79.1358 473.53 80.7079C471.469 82.2616 469.268 83.6187 466.955 84.7615C464.726 85.874 462.4 86.7804 460.007 87.4693C458.107 88.0102 456.173 88.4219 454.218 88.7016L453.651 88.7989H453.318L453.01 88.6125L453.383 88.353C457.629 85.468 461.343 81.8692 464.36 77.7163C466.067 75.3752 467.567 72.8905 468.844 70.29C468.866 70.2195 468.912 70.1589 468.974 70.1189C469.036 70.0789 469.111 70.062 469.184 70.0711H483.396L483.356 70.0792Z" fill="#EBEBEB"/>
<path d="M469.46 44.59H449.938V27.5647H450.164H465.171C465.237 27.5566 465.304 27.5726 465.359 27.6099C465.414 27.6471 465.454 27.7031 465.471 27.7674C466.876 30.973 467.918 34.326 468.576 37.7636C468.928 39.5506 469.18 41.356 469.33 43.1712C469.379 43.609 469.419 44.0873 469.46 44.59Z" fill="#EBEBEB"/>
<path d="M469.338 49.1463C469.338 49.5435 469.338 49.957 469.281 50.3461C469.2 51.2947 469.127 52.2514 468.998 53.1918C468.811 54.4971 468.617 55.8104 468.349 57.1076C467.77 59.9539 466.923 62.7391 465.82 65.4257C465.802 65.5044 465.756 65.5738 465.69 65.6203C465.624 65.6668 465.543 65.687 465.463 65.677H449.824V49.1463H469.338Z" fill="#EBEBEB"/>
<path d="M445.535 27.6377V44.7197H426.475C426.475 44.2819 426.516 43.8603 426.564 43.4387C426.661 42.4821 426.734 41.5254 426.888 40.5769C427.124 39.1338 427.367 37.6826 427.699 36.2476C428.327 33.3504 429.242 30.5232 430.431 27.8079C430.453 27.741 430.497 27.6836 430.556 27.6453C430.615 27.6069 430.686 27.5899 430.756 27.5971H445.535V27.6377Z" fill="#EBEBEB"/>
<path d="M445.56 49.3732C445.56 54.724 445.56 60.0776 445.56 65.4338V65.6689H430.31C430.235 65.6793 430.159 65.6619 430.096 65.6201C430.034 65.5782 429.988 65.5148 429.969 65.4419C428.812 62.6711 427.942 59.7887 427.375 56.84C427.091 55.324 426.872 53.7917 426.686 52.2594C426.556 51.2622 426.524 50.2488 426.459 49.2354C426.456 49.2004 426.456 49.1651 426.459 49.13H445.292C445.511 49.1219 445.56 49.1787 445.56 49.3732Z" fill="#EBEBEB"/>
<path d="M490.158 44.7116H474.162C473.839 38.8209 472.58 33.0192 470.433 27.5242H485.342C485.415 27.5142 485.49 27.5296 485.553 27.568C485.617 27.6063 485.665 27.6653 485.691 27.7349C487.398 31.1162 488.639 34.7135 489.379 38.4284C489.779 40.4059 490.05 42.4072 490.19 44.4197L490.158 44.7116Z" fill="#EBEBEB"/>
<path d="M490.166 49.0165C490.166 49.4057 490.166 49.7705 490.117 50.1353C490.015 51.5783 489.839 53.0151 489.59 54.4403C488.998 57.749 488.01 60.9745 486.647 64.0474C486.436 64.542 486.193 65.0284 485.974 65.5229C485.959 65.5721 485.928 65.6145 485.885 65.6427C485.842 65.6708 485.79 65.683 485.739 65.677H470.846C471.025 65.1662 471.203 64.6717 471.373 64.169C472.235 61.6278 472.897 59.0227 473.351 56.3779C473.694 54.4608 473.924 52.5253 474.04 50.5812C474.04 50.1191 474.097 49.657 474.113 49.203C474.113 49.0814 474.113 49.0165 474.284 49.0327C474.332 49.0368 474.381 49.0368 474.43 49.0327L490.166 49.0165Z" fill="#EBEBEB"/>
<path d="M482.918 23.1705V23.2435H482.707C478.045 23.2435 473.384 23.2435 468.722 23.2435C468.651 23.2521 468.579 23.2369 468.517 23.2002C468.456 23.1635 468.408 23.1075 468.382 23.0408C466.524 19.3254 464.191 15.8671 461.442 12.7527C459.82 10.9562 458.037 9.31166 456.115 7.83968C455.159 7.11002 454.17 6.42091 453.197 5.71557L453.035 5.59396L453.229 5.45614C453.229 5.37507 453.172 5.27778 453.132 5.15617C458.065 5.70985 462.857 7.14897 467.279 9.40438C473.597 12.5597 478.987 17.3036 482.918 23.1705Z" fill="#EBEBEB"/>
<path d="M442.827 88.6125C442.696 88.6535 442.56 88.6754 442.422 88.6773C440.887 88.4767 439.365 88.1816 437.866 87.7936C435.065 87.0779 432.348 86.0698 429.759 84.7858C426.794 83.3097 424.015 81.4862 421.481 79.354C419.68 77.8458 418.016 76.1799 416.511 74.3761C415.386 73.0113 414.349 71.5761 413.406 70.0792C413.378 70.0365 413.356 69.9901 413.341 69.9414H413.568C417.914 69.9414 422.251 69.9414 426.597 69.9414C426.666 69.9357 426.736 69.9533 426.795 69.9915C426.853 70.0296 426.898 70.0861 426.921 70.1522C428.279 72.8915 429.883 75.5019 431.712 77.9514C433.404 80.1781 435.281 82.2582 437.323 84.1697C439.002 85.7592 440.808 87.2097 442.722 88.5071L442.827 88.6125Z" fill="#EBEBEB"/>
<path d="M442.657 5.56966C442.057 6.00745 441.36 6.50199 440.679 7.02086C438.406 8.79125 436.292 10.7581 434.363 12.8986C431.753 15.7442 429.526 18.9195 427.74 22.3436C427.626 22.5625 427.529 22.7895 427.399 22.9922C427.377 23.027 427.347 23.0565 427.312 23.0789C427.277 23.1013 427.238 23.1159 427.197 23.1219C426.961 23.1219 426.726 23.1219 426.491 23.1219H413.763C420.857 13.1094 430.383 7.08572 442.511 5.2859C442.511 5.34265 442.454 5.3994 442.422 5.44805L442.657 5.56966Z" fill="#EBEBEB"/>
<path d="M463.631 70.0873C461.823 73.2423 459.645 76.1708 457.145 78.8108C454.948 81.1774 452.477 83.2731 449.783 85.0534V70.0873H463.631Z" fill="#EBEBEB"/>
<path d="M445.535 70.0955V84.7696C440.024 80.9917 435.484 75.9634 432.288 70.0955H445.535Z" fill="#EBEBEB"/>
<path d="M463.201 23.1138H449.938V9.16116C452.658 10.935 455.157 13.0281 457.38 15.3957C459.579 17.7623 461.53 20.3486 463.201 23.1138Z" fill="#EBEBEB"/>
<path d="M445.535 9.55843V23.2273H432.807C435.921 17.737 440.28 13.0549 445.535 9.55843Z" fill="#EBEBEB"/>
<path d="M192.961 79.6945H81.543V7.1344H192.961V79.6945ZM82.3537 78.8838H192.15V7.94513H82.3537V78.8838Z" fill="#EBEBEB"/>
<path d="M192.961 17.4793H81.543V7.1344H192.961V17.4793ZM82.3537 16.6686H192.15V7.94513H82.3537V16.6686Z" fill="#EBEBEB"/>
<path d="M90.8988 12.4041C90.8988 12.8852 90.7561 13.3554 90.4889 13.7554C90.2216 14.1554 89.8418 14.4671 89.3974 14.6512C88.9529 14.8353 88.4639 14.8834 87.9921 14.7896C87.5203 14.6957 87.0869 14.4641 86.7468 14.124C86.4067 13.7838 86.175 13.3504 86.0812 12.8786C85.9873 12.4068 86.0355 11.9178 86.2196 11.4734C86.4036 11.029 86.7154 10.6491 87.1154 10.3819C87.5153 10.1146 87.9856 9.97195 88.4666 9.97195C89.1117 9.97195 89.7303 10.2282 90.1864 10.6843C90.6425 11.1404 90.8988 11.7591 90.8988 12.4041Z" fill="#C7C7C7"/>
<path d="M100.684 12.4041C100.684 12.8869 100.541 13.3587 100.271 13.7595C100.002 14.1603 99.6201 14.472 99.1733 14.6548C98.7265 14.8376 98.2354 14.8834 97.7625 14.7862C97.2897 14.689 96.8564 14.4533 96.5179 14.1091C96.1795 13.7649 95.9511 13.3277 95.8618 12.8533C95.7726 12.3789 95.8266 11.8886 96.0169 11.445C96.2072 11.0013 96.5253 10.6243 96.9306 10.362C97.3358 10.0997 97.81 9.96391 98.2927 9.97196C98.6102 9.97191 98.9245 10.0351 99.2174 10.1578C99.5102 10.2805 99.7757 10.4603 99.9983 10.6867C100.221 10.9131 100.396 11.1816 100.514 11.4764C100.632 11.7713 100.69 12.0867 100.684 12.4041Z" fill="#EBEBEB"/>
<path d="M110.478 12.4041C110.478 12.8852 110.335 13.3554 110.068 13.7554C109.801 14.1554 109.421 14.4671 108.976 14.6512C108.532 14.8353 108.043 14.8834 107.571 14.7896C107.099 14.6957 106.666 14.4641 106.326 14.124C105.986 13.7838 105.754 13.3504 105.66 12.8786C105.566 12.4068 105.615 11.9178 105.799 11.4734C105.983 11.029 106.294 10.6491 106.694 10.3819C107.094 10.1146 107.565 9.97195 108.046 9.97195C108.691 9.97195 109.309 10.2282 109.766 10.6843C110.222 11.1404 110.478 11.7591 110.478 12.4041Z" fill="#FFC727"/>
<path d="M266.543 320.367C413.75 320.367 533.086 305.369 533.086 286.868C533.086 268.367 413.75 253.369 266.543 253.369C119.335 253.369 0 268.367 0 286.868C0 305.369 119.335 320.367 266.543 320.367Z" fill="#EBEBEB"/>
<path d="M3.64014 242.805L69.3658 242.61L135.091 242.537L266.543 242.399L397.994 242.537L463.72 242.61L529.446 242.805L463.72 243.007L397.994 243.072L266.543 243.21L135.091 243.072L69.3658 242.999L3.64014 242.805Z" fill="#263238"/>
<path d="M423.597 43.5685H108.881V254.09H423.597V43.5685Z" fill="#DBDBDB"/>
<path d="M421.311 46.1385H111.167V251.52H421.311V46.1385Z" fill="#263238"/>
<path d="M464.587 269.875H67.8903V284.322H464.587V269.875Z" fill="#C7C7C7"/>
<path d="M67.8903 269.875L108.881 254.09H423.597L464.587 269.875H67.8903Z" fill="#DBDBDB"/>
<path d="M112.545 264.281L138.999 254.09H393.487L419.941 264.281H112.545Z" fill="#263238"/>
<path d="M403.783 61.745H128.695V235.922H403.783V61.745Z" fill="white"/>
<path d="M403.791 61.745H128.468V68.4497H403.791V61.745Z" fill="#455A64"/>
<path d="M133.794 65.1015C133.794 65.4319 133.696 65.7548 133.511 66.0289C133.327 66.303 133.065 66.5159 132.759 66.6404C132.453 66.7649 132.116 66.7954 131.793 66.7279C131.469 66.6604 131.173 66.4981 130.943 66.2616C130.712 66.0251 130.557 65.7252 130.497 65.4001C130.438 65.0751 130.477 64.7397 130.609 64.4368C130.741 64.134 130.96 63.8773 131.239 63.6996C131.517 63.522 131.842 63.4314 132.173 63.4395C132.607 63.45 133.019 63.6298 133.322 63.9403C133.625 64.2509 133.794 64.6676 133.794 65.1015Z" fill="#C7C7C7"/>
<path d="M140.58 65.1015C140.58 65.4319 140.481 65.7548 140.297 66.0289C140.112 66.303 139.85 66.5159 139.544 66.6404C139.238 66.7649 138.902 66.7954 138.579 66.7279C138.255 66.6604 137.959 66.4981 137.728 66.2616C137.498 66.0251 137.343 65.7252 137.283 65.4001C137.224 65.0751 137.263 64.7397 137.395 64.4368C137.527 64.134 137.746 63.8773 138.024 63.6996C138.303 63.522 138.628 63.4314 138.959 63.4395C139.392 63.45 139.805 63.6298 140.108 63.9403C140.411 64.2509 140.58 64.6676 140.58 65.1015Z" fill="white"/>
<path d="M147.366 65.1014C147.366 65.4302 147.268 65.7515 147.086 66.0248C146.903 66.2981 146.644 66.5111 146.34 66.6369C146.036 66.7627 145.702 66.7956 145.38 66.7315C145.057 66.6674 144.761 66.5091 144.529 66.2767C144.296 66.0442 144.138 65.7481 144.074 65.4257C144.01 65.1033 144.043 64.7691 144.168 64.4654C144.294 64.1617 144.507 63.9022 144.781 63.7196C145.054 63.5369 145.375 63.4395 145.704 63.4395C146.145 63.4395 146.567 63.6146 146.879 63.9262C147.191 64.2379 147.366 64.6607 147.366 65.1014Z" fill="#FFC727"/>
<path d="M141.91 157.451H248.885V82.5321L141.91 82.5321V157.451Z" fill="#EBEBEB"/>
<path d="M154.411 103.83C154.411 105.582 154.931 107.296 155.904 108.753C156.878 110.21 158.262 111.346 159.881 112.017C161.5 112.687 163.282 112.863 165.001 112.521C166.72 112.179 168.299 111.335 169.538 110.096C170.777 108.856 171.621 107.278 171.963 105.559C172.305 103.84 172.13 102.058 171.459 100.439C170.788 98.8196 169.653 97.4357 168.195 96.462C166.738 95.4883 165.025 94.9686 163.272 94.9686C160.922 94.9686 158.668 95.9022 157.006 97.564C155.345 99.2258 154.411 101.48 154.411 103.83Z" fill="#DBDBDB"/>
<path d="M189.394 141.31H248.893L219.14 100.992L189.394 141.31Z" fill="#C7C7C7"/>
<path d="M166.094 141.35H215.208L190.651 115.091L166.094 141.35Z" fill="#DBDBDB"/>
<path d="M248.885 141.31H141.91V157.451H248.885V141.31Z" fill="#DBDBDB"/>
<path d="M264.103 221.572H323.877V167.488H264.103V221.572Z" fill="#EBEBEB"/>
<path d="M271.829 179.309C271.56 180.656 271.731 182.055 272.318 183.298C272.905 184.541 273.876 185.562 275.088 186.21C276.3 186.859 277.688 187.1 279.048 186.898C280.408 186.697 281.666 186.064 282.638 185.092C283.61 184.12 284.244 182.861 284.445 181.501C284.646 180.142 284.405 178.753 283.757 177.542C283.108 176.33 282.087 175.358 280.845 174.771C279.602 174.185 278.203 174.013 276.855 174.282C275.615 174.53 274.475 175.139 273.581 176.034C272.686 176.929 272.076 178.068 271.829 179.309Z" fill="#DBDBDB"/>
<path d="M280.933 209.914H323.886L302.409 180.808L280.933 209.914Z" fill="#C7C7C7"/>
<path d="M264.111 209.938H299.572L281.841 190.983L264.111 209.938Z" fill="#DBDBDB"/>
<path d="M323.886 209.914H264.111V221.564H323.886V209.914Z" fill="#DBDBDB"/>
<path d="M359.995 82.5402H264.111V87.3802H359.995V82.5402Z" fill="#A6A6A6"/>
<path d="M380.847 92.5527H264.111V97.3927H380.847V92.5527Z" fill="#DBDBDB"/>
<path d="M380.847 102.565H264.111V107.405H380.847V102.565Z" fill="#DBDBDB"/>
<path d="M380.847 112.586H264.111V117.426H380.847V112.586Z" fill="#DBDBDB"/>
<path d="M380.847 122.598H264.111V127.438H380.847V122.598Z" fill="#DBDBDB"/>
<path d="M341.608 132.611H264.111V137.451H341.608V132.611Z" fill="#DBDBDB"/>
<path d="M371.621 167.48H329.212V172.247H371.621V167.48Z" fill="#A6A6A6"/>
<path d="M380.839 177.347H329.212V182.114H380.839V177.347Z" fill="#DBDBDB"/>
<path d="M380.839 187.213H329.212V191.98H380.839V187.213Z" fill="#DBDBDB"/>
<path d="M380.839 197.072H329.212V201.839H380.839V197.072Z" fill="#DBDBDB"/>
<path d="M380.839 206.938H329.212V211.705H380.839V206.938Z" fill="#DBDBDB"/>
<path d="M364.252 216.805H329.212V221.572H364.252V216.805Z" fill="#DBDBDB"/>
<path d="M380.847 143.231H264.111V157.451H380.847V143.231Z" fill="#FFC727"/>
<path d="M248.885 167.48H141.91V181.7H248.885V167.48Z" fill="#A6A6A6"/>
<path d="M248.885 186.881H141.91V191.688H248.885V186.881Z" fill="#DBDBDB"/>
<path d="M248.885 196.837H141.91V201.644H248.885V196.837Z" fill="#DBDBDB"/>
<path d="M248.885 206.8H141.91V211.608H248.885V206.8Z" fill="#DBDBDB"/>
<path d="M215.208 216.756H141.91V221.564H215.208V216.756Z" fill="#DBDBDB"/>
<path d="M403.783 68.4416H396.429V235.914H403.783V68.4416Z" fill="#DBDBDB"/>
<path d="M400.102 156.089C399.599 156.089 399.116 155.889 398.761 155.534C398.405 155.178 398.205 154.695 398.205 154.192V72.0007C398.205 71.4976 398.405 71.0151 398.761 70.6593C399.116 70.3035 399.599 70.1036 400.102 70.1036C400.605 70.1036 401.088 70.3035 401.444 70.6593C401.799 71.0151 401.999 71.4976 401.999 72.0007V154.192C401.999 154.695 401.799 155.178 401.444 155.534C401.088 155.889 400.605 156.089 400.102 156.089Z" fill="#A6A6A6"/>
<path d="M234.162 155.903V274.739C234.139 277.299 233.102 279.745 231.278 281.541C229.455 283.337 226.993 284.337 224.434 284.322H37.6421C35.0825 284.337 32.6213 283.337 30.7977 281.541C28.9741 279.745 27.9369 277.299 27.9134 274.739V155.903C27.9369 153.344 28.9744 150.899 30.7982 149.104C32.622 147.309 35.0833 146.311 37.6421 146.328H224.385C225.656 146.313 226.918 146.549 228.098 147.023C229.277 147.496 230.352 148.197 231.26 149.087C232.169 149.976 232.893 151.036 233.39 152.206C233.888 153.375 234.151 154.632 234.162 155.903Z" fill="#455A64"/>
<path d="M219.999 152.125H42.4578V278.339H219.999V152.125Z" fill="white"/>
<path d="M53.0215 216.075H131.784V160.921H53.0215V216.075Z" fill="#EBEBEB"/>
<path d="M62.2395 176.609C62.2475 177.89 62.6347 179.14 63.3522 180.201C64.0697 181.262 65.0855 182.087 66.2713 182.572C67.4571 183.057 68.7599 183.179 70.0153 182.925C71.2708 182.67 72.4226 182.049 73.3256 181.14C74.2286 180.232 74.8423 179.076 75.0893 177.819C75.3363 176.562 75.2055 175.26 74.7135 174.077C74.2214 172.894 73.3901 171.884 72.3244 171.173C71.2587 170.462 70.0064 170.083 68.7253 170.083C67.8702 170.083 67.0235 170.252 66.2339 170.58C65.4444 170.909 64.7276 171.39 64.1248 171.997C63.522 172.603 63.0451 173.323 62.7215 174.114C62.398 174.906 62.2342 175.754 62.2395 176.609Z" fill="#DBDBDB"/>
<path d="M87.9802 204.198H131.784L109.878 174.517L87.9802 204.198Z" fill="#C7C7C7"/>
<path d="M70.8252 204.222H106.984L88.9044 184.895L70.8252 204.222Z" fill="#DBDBDB"/>
<path d="M131.784 204.198H53.0216V216.083H131.784V204.198Z" fill="#DBDBDB"/>
<path d="M156.77 268.481H209.435V231.601H156.77V268.481Z" fill="#EBEBEB"/>
<path d="M162.924 242.091C162.922 242.956 163.177 243.802 163.656 244.521C164.135 245.241 164.817 245.802 165.616 246.134C166.414 246.466 167.293 246.554 168.141 246.386C168.989 246.219 169.769 245.803 170.381 245.192C170.993 244.581 171.41 243.803 171.579 242.955C171.748 242.107 171.662 241.228 171.332 240.429C171.001 239.63 170.441 238.947 169.722 238.467C169.003 237.986 168.158 237.73 167.294 237.73C166.72 237.729 166.152 237.841 165.622 238.059C165.092 238.278 164.61 238.599 164.204 239.004C163.798 239.409 163.476 239.891 163.257 240.42C163.037 240.95 162.924 241.518 162.924 242.091Z" fill="#DBDBDB"/>
<path d="M180.152 260.535H209.435L194.793 240.689L180.152 260.535Z" fill="#C7C7C7"/>
<path d="M168.68 260.56H192.856L180.768 247.629L168.68 260.56Z" fill="#DBDBDB"/>
<path d="M209.435 260.544H156.77V268.489H209.435V260.544Z" fill="#DBDBDB"/>
<path d="M209.443 160.929H138.578V174.404H209.443V160.929Z" fill="#FFC727"/>
<path d="M209.443 179.519H138.578V181.408H209.443V179.519Z" fill="#DBDBDB"/>
<path d="M209.443 183.954H138.578V185.843H209.443V183.954Z" fill="#DBDBDB"/>
<path d="M209.443 188.389H138.578V190.278H209.443V188.389Z" fill="#DBDBDB"/>
<path d="M209.443 192.823H138.578V194.712H209.443V192.823Z" fill="#DBDBDB"/>
<path d="M209.443 197.258H138.578V199.147H209.443V197.258Z" fill="#DBDBDB"/>
<path d="M209.443 201.693H138.578V203.582H209.443V201.693Z" fill="#DBDBDB"/>
<path d="M179.317 206.127H138.578V208.016H179.317V206.127Z" fill="#DBDBDB"/>
<path d="M149.279 258.217H78.4136V260.106H149.279V258.217Z" fill="#DBDBDB"/>
<path d="M149.279 231.609H78.4136V233.498H149.279V231.609Z" fill="#DBDBDB"/>
<path d="M149.279 236.043H78.4136V237.932H149.279V236.043Z" fill="#DBDBDB"/>
<path d="M149.279 240.478H78.4136V242.367H149.279V240.478Z" fill="#DBDBDB"/>
<path d="M126.741 244.913H78.4136V246.802H126.741V244.913Z" fill="#DBDBDB"/>
<path d="M149.279 253.782H78.4136V255.671H149.279V253.782Z" fill="#DBDBDB"/>
<path d="M126.741 262.651H78.4136V264.54H126.741V262.651Z" fill="#DBDBDB"/>
<path d="M209.443 222.237H53.0216V226.696H209.443V222.237Z" fill="#455A64"/>
<path d="M73.2736 231.609H53.0216V268.489H73.2736V231.609Z" fill="#FFC727"/>
<path d="M36.4584 200.298H36.3368C35.7771 200.298 35.3234 200.752 35.3234 201.312V229.322C35.3234 229.882 35.7771 230.336 36.3368 230.336H36.4584C37.0181 230.336 37.4718 229.882 37.4718 229.322V201.312C37.4718 200.752 37.0181 200.298 36.4584 200.298Z" fill="#37474F"/>
<path d="M231.682 215.313C231.683 216.083 231.456 216.837 231.029 217.478C230.602 218.119 229.994 218.619 229.283 218.915C228.572 219.21 227.789 219.288 227.033 219.138C226.277 218.988 225.583 218.618 225.038 218.073C224.494 217.528 224.123 216.834 223.973 216.078C223.823 215.323 223.901 214.54 224.196 213.828C224.492 213.117 224.992 212.509 225.633 212.082C226.274 211.655 227.028 211.428 227.798 211.43C228.827 211.432 229.814 211.842 230.542 212.569C231.27 213.297 231.679 214.284 231.682 215.313Z" fill="#37474F"/>
<path d="M492.825 120.879H420.581C418.627 120.901 416.762 121.697 415.394 123.092C414.026 124.487 413.267 126.368 413.284 128.322V277.009C413.269 278.963 414.029 280.842 415.396 282.237C416.763 283.632 418.628 284.428 420.581 284.452H492.809C494.762 284.428 496.626 283.632 497.994 282.237C499.361 280.842 500.12 278.963 500.105 277.009V128.338C500.127 126.384 499.373 124.502 498.008 123.103C496.643 121.705 494.779 120.905 492.825 120.879ZM495.573 272.413C495.573 276.328 492.638 279.49 489.023 279.49H424.408C420.784 279.49 417.857 276.328 417.857 272.413V133.957C417.857 125.987 420.784 125.598 424.408 125.598H437.379C438.133 125.598 438.749 126.409 438.749 127.511V127.965C438.749 130.454 440.111 130.462 441.782 130.462H471.657C473.335 130.462 474.681 130.462 474.681 127.965V127.527C474.681 126.465 475.289 125.614 476.059 125.614H489.031C492.647 125.614 495.581 126.676 495.581 133.973L495.573 272.413Z" fill="#455A64"/>
<path d="M460.793 127.357H452.629C452.496 127.357 452.368 127.304 452.274 127.21C452.179 127.116 452.126 126.988 452.126 126.855C452.126 126.721 452.179 126.593 452.274 126.499C452.368 126.405 452.496 126.352 452.629 126.352H460.793C460.927 126.352 461.056 126.405 461.151 126.499C461.247 126.593 461.302 126.721 461.304 126.855C461.302 126.989 461.247 127.116 461.151 127.211C461.056 127.305 460.927 127.357 460.793 127.357Z" fill="white"/>
<path d="M495.573 133.957V272.413C495.573 276.328 492.639 279.49 489.023 279.49H424.408C420.784 279.49 417.857 276.328 417.857 272.413V133.957C417.857 125.987 420.784 125.598 424.408 125.598H437.379C438.133 125.598 438.749 126.409 438.749 127.511V127.965C438.749 130.454 440.112 130.462 441.782 130.462H471.657C473.335 130.462 474.681 130.462 474.681 127.965V127.527C474.681 126.465 475.289 125.614 476.059 125.614H489.031C492.639 125.598 495.573 126.66 495.573 133.957Z" fill="white"/>
<path d="M495.573 133.957V144.285H417.849V133.957C417.849 125.987 420.784 125.598 424.408 125.598H437.379C438.125 125.598 438.741 126.409 438.741 127.511V127.965C438.741 130.454 440.103 130.462 441.765 130.462H471.657C473.335 130.462 474.689 130.462 474.689 127.965V127.527C474.689 126.465 475.297 125.614 476.059 125.614H489.031C492.638 125.598 495.573 126.66 495.573 133.957Z" fill="#FFC727"/>
<path d="M425.218 139.242L422.924 137.094L425.218 134.946L425.575 135.319L423.686 137.094L425.575 138.87L425.218 139.242Z" fill="white"/>
<path d="M488.561 139.437H486.939V138.878C486.939 138.862 486.934 138.847 486.925 138.834C486.917 138.821 486.905 138.811 486.89 138.805L486.712 138.699C486.698 138.693 486.683 138.69 486.668 138.69C486.652 138.69 486.637 138.693 486.623 138.699L486.128 138.991L485.318 137.589L485.812 137.305C485.822 137.292 485.827 137.276 485.827 137.26C485.827 137.244 485.822 137.228 485.812 137.216V137.021C485.822 137.008 485.827 136.993 485.827 136.977C485.827 136.96 485.822 136.945 485.812 136.932L485.318 136.648L486.128 135.246L486.623 135.529C486.636 135.537 486.652 135.541 486.668 135.541C486.683 135.541 486.699 135.537 486.712 135.529L486.89 135.424C486.905 135.418 486.917 135.408 486.925 135.395C486.934 135.382 486.939 135.367 486.939 135.351V134.775H488.561V135.351C488.561 135.367 488.566 135.382 488.574 135.395C488.583 135.408 488.595 135.418 488.609 135.424L488.788 135.529C488.801 135.537 488.816 135.541 488.832 135.541C488.848 135.541 488.863 135.537 488.877 135.529L489.371 135.246L490.182 136.648L489.687 136.932C489.678 136.945 489.672 136.96 489.672 136.977C489.672 136.993 489.678 137.008 489.687 137.021V137.216C489.678 137.228 489.672 137.244 489.672 137.26C489.672 137.276 489.678 137.292 489.687 137.305L490.182 137.589L489.371 138.991L488.877 138.707C488.863 138.7 488.848 138.696 488.832 138.696C488.816 138.696 488.801 138.7 488.788 138.707L488.609 138.813C488.595 138.819 488.583 138.829 488.574 138.842C488.566 138.855 488.561 138.87 488.561 138.886V139.437ZM487.344 139.032H488.155V138.878C488.156 138.787 488.182 138.699 488.229 138.622C488.276 138.545 488.343 138.482 488.423 138.44C488.471 138.417 488.517 138.39 488.561 138.359C488.639 138.313 488.729 138.289 488.82 138.289C488.911 138.289 489.001 138.313 489.079 138.359L489.225 138.448L489.631 137.743L489.485 137.654C489.406 137.61 489.342 137.544 489.299 137.465C489.256 137.387 489.236 137.297 489.242 137.208V137.045C489.236 136.955 489.257 136.864 489.299 136.784C489.342 136.704 489.406 136.637 489.485 136.591L489.631 136.51L489.225 135.805L489.079 135.894C489.002 135.94 488.914 135.964 488.824 135.964C488.734 135.964 488.646 135.94 488.569 135.894L488.423 135.813C488.343 135.771 488.276 135.708 488.229 135.631C488.182 135.554 488.156 135.466 488.155 135.375V135.205H487.344V135.375C487.343 135.466 487.318 135.554 487.271 135.631C487.224 135.708 487.157 135.771 487.077 135.813C487.028 135.836 486.982 135.863 486.939 135.894C486.86 135.94 486.771 135.964 486.68 135.964C486.589 135.964 486.499 135.94 486.42 135.894L486.274 135.805L485.869 136.51L486.015 136.591C486.093 136.637 486.157 136.704 486.2 136.784C486.243 136.864 486.263 136.955 486.258 137.045V137.208C486.263 137.298 486.243 137.389 486.2 137.469C486.157 137.549 486.093 137.616 486.015 137.662L485.869 137.743L486.274 138.448L486.42 138.359C486.499 138.313 486.589 138.289 486.68 138.289C486.771 138.289 486.86 138.313 486.939 138.359C486.982 138.39 487.028 138.417 487.077 138.44C487.157 138.482 487.224 138.545 487.271 138.622C487.318 138.699 487.343 138.787 487.344 138.878V139.032ZM487.75 138.294C487.512 138.294 487.281 138.224 487.083 138.092C486.886 137.96 486.732 137.773 486.641 137.553C486.55 137.334 486.527 137.093 486.573 136.86C486.619 136.627 486.734 136.413 486.901 136.246C487.069 136.078 487.283 135.964 487.516 135.917C487.749 135.871 487.99 135.895 488.209 135.986C488.428 136.076 488.616 136.23 488.747 136.427C488.879 136.625 488.95 136.857 488.95 137.094C488.948 137.412 488.82 137.716 488.596 137.94C488.371 138.165 488.067 138.292 487.75 138.294ZM487.75 136.3C487.589 136.3 487.433 136.347 487.299 136.436C487.166 136.525 487.062 136.652 487.001 136.8C486.939 136.948 486.923 137.111 486.955 137.268C486.986 137.426 487.063 137.57 487.177 137.684C487.29 137.797 487.434 137.874 487.592 137.905C487.749 137.937 487.912 137.921 488.06 137.859C488.208 137.798 488.335 137.694 488.424 137.561C488.513 137.427 488.561 137.271 488.561 137.11C488.561 136.895 488.475 136.689 488.323 136.537C488.171 136.385 487.965 136.3 487.75 136.3Z" fill="white"/>
<path d="M435.117 128.703L434.996 128.833L434.923 128.906C434.764 128.744 434.575 128.615 434.366 128.528C434.157 128.44 433.933 128.395 433.707 128.395C433.48 128.395 433.256 128.44 433.047 128.528C432.838 128.615 432.649 128.744 432.491 128.906L432.426 128.833L432.304 128.711C432.352 128.661 432.403 128.615 432.458 128.573C432.57 128.48 432.692 128.401 432.823 128.338C432.978 128.264 433.141 128.209 433.309 128.176H433.553H433.926C434.078 128.195 434.227 128.23 434.372 128.282C434.475 128.322 434.576 128.371 434.672 128.427C434.775 128.483 434.873 128.548 434.963 128.622L435.093 128.744L435.117 128.703Z" fill="white"/>
<path d="M432.904 129.295L432.71 129.1C432.841 128.968 432.998 128.863 433.171 128.791C433.343 128.72 433.528 128.683 433.715 128.683C433.902 128.683 434.087 128.72 434.259 128.791C434.432 128.863 434.588 128.968 434.72 129.1L434.526 129.303C434.31 129.089 434.019 128.969 433.715 128.969C433.411 128.969 433.12 129.089 432.904 129.303V129.295Z" fill="white"/>
<path d="M434.363 129.489L434.169 129.692C434.116 129.638 434.053 129.595 433.983 129.566C433.914 129.537 433.839 129.522 433.764 129.522C433.688 129.522 433.613 129.537 433.544 129.566C433.474 129.595 433.411 129.638 433.358 129.692L433.164 129.489C433.324 129.333 433.539 129.245 433.764 129.245C433.988 129.245 434.203 129.333 434.363 129.489Z" fill="white"/>
<path d="M433.893 129.871C433.893 129.906 433.883 129.94 433.863 129.97C433.844 129.999 433.816 130.022 433.783 130.035C433.75 130.049 433.715 130.052 433.68 130.045C433.645 130.039 433.614 130.022 433.589 129.997C433.564 129.972 433.547 129.94 433.54 129.905C433.533 129.871 433.537 129.835 433.55 129.802C433.564 129.77 433.586 129.742 433.616 129.722C433.645 129.703 433.68 129.692 433.715 129.692C433.739 129.691 433.762 129.695 433.784 129.703C433.807 129.712 433.827 129.725 433.844 129.742C433.86 129.759 433.873 129.779 433.882 129.801C433.891 129.823 433.894 129.847 433.893 129.871Z" fill="white"/>
<path d="M422.924 129.084C422.924 128.949 422.978 128.819 423.074 128.723C423.169 128.627 423.299 128.573 423.435 128.573C423.571 128.573 423.702 128.627 423.799 128.722C423.896 128.818 423.952 128.948 423.954 129.084C423.954 129.222 423.899 129.354 423.802 129.451C423.704 129.548 423.572 129.603 423.435 129.603C423.299 129.601 423.169 129.545 423.073 129.448C422.978 129.351 422.924 129.22 422.924 129.084Z" fill="white"/>
<path d="M424.546 129.084C424.546 128.949 424.599 128.819 424.695 128.723C424.791 128.627 424.921 128.573 425.056 128.573C425.193 128.573 425.323 128.627 425.42 128.722C425.517 128.818 425.573 128.948 425.575 129.084C425.575 129.222 425.52 129.354 425.423 129.451C425.326 129.548 425.194 129.603 425.056 129.603C424.92 129.601 424.79 129.545 424.695 129.448C424.599 129.351 424.546 129.22 424.546 129.084Z" fill="white"/>
<path d="M426.167 129.084C426.183 128.959 426.244 128.843 426.338 128.76C426.433 128.676 426.555 128.63 426.682 128.63C426.808 128.63 426.93 128.676 427.025 128.76C427.12 128.843 427.181 128.959 427.196 129.084C427.206 129.157 427.199 129.231 427.178 129.302C427.156 129.372 427.119 129.437 427.071 129.492C427.022 129.547 426.962 129.591 426.895 129.622C426.828 129.652 426.755 129.668 426.682 129.668C426.608 129.668 426.535 129.652 426.468 129.622C426.401 129.591 426.341 129.547 426.293 129.492C426.244 129.437 426.208 129.372 426.186 129.302C426.164 129.231 426.158 129.157 426.167 129.084Z" fill="white"/>
<path d="M427.788 129.084C427.788 128.981 427.819 128.881 427.876 128.796C427.933 128.711 428.014 128.644 428.109 128.605C428.204 128.565 428.308 128.555 428.409 128.575C428.509 128.595 428.602 128.645 428.674 128.717C428.747 128.79 428.796 128.882 428.816 128.983C428.836 129.084 428.826 129.188 428.787 129.283C428.747 129.377 428.681 129.458 428.596 129.516C428.51 129.573 428.41 129.603 428.307 129.603C428.17 129.603 428.038 129.548 427.94 129.451C427.843 129.354 427.788 129.222 427.788 129.084Z" fill="white"/>
<path d="M429.41 129.084C429.412 128.948 429.468 128.818 429.565 128.722C429.662 128.627 429.793 128.573 429.929 128.573C430.064 128.573 430.194 128.627 430.29 128.723C430.386 128.819 430.44 128.949 430.44 129.084C430.44 129.22 430.386 129.351 430.29 129.448C430.195 129.545 430.065 129.601 429.929 129.603C429.791 129.603 429.659 129.548 429.562 129.451C429.465 129.354 429.41 129.222 429.41 129.084Z" fill="white"/>
<path d="M489.736 130.203H485.553V128.273H489.736V130.203ZM485.755 130H489.533V128.476H485.755V130Z" fill="white"/>
<path d="M488.593 128.598H485.893V129.879H488.593V128.598Z" fill="white"/>
<path d="M490.117 128.719H489.744V129.757H490.117V128.719Z" fill="white"/>
<path d="M429.661 271.026H429.069V273.742H427.967V272.356H426.013V273.742H424.91V271.026H424.318L426.994 268.27L429.661 271.026Z" fill="#EBEBEB"/>
<path d="M489.12 268.27H482.675V269.194H489.12V268.27Z" fill="#EBEBEB"/>
<path d="M489.12 270.54H482.675V271.464H489.12V270.54Z" fill="#EBEBEB"/>
<path d="M489.12 272.818H482.675V273.742H489.12V272.818Z" fill="#EBEBEB"/>
<path d="M429.54 157.881C428.855 158.308 428.064 158.534 427.257 158.534C426.451 158.534 425.66 158.308 424.975 157.881C424.173 157.385 423.554 156.64 423.213 155.76C422.872 154.881 422.827 153.914 423.085 153.006C423.343 152.099 423.89 151.3 424.643 150.732C425.396 150.163 426.314 149.855 427.257 149.855C428.201 149.855 429.119 150.163 429.872 150.732C430.624 151.3 431.171 152.099 431.429 153.006C431.687 153.914 431.643 154.881 431.302 155.76C430.961 156.64 430.342 157.385 429.54 157.881Z" fill="#DBDBDB"/>
<path d="M428.575 153.698C428.575 153.96 428.497 154.215 428.352 154.433C428.206 154.65 427.999 154.82 427.757 154.919C427.515 155.019 427.249 155.045 426.993 154.993C426.736 154.942 426.501 154.815 426.316 154.629C426.132 154.444 426.006 154.207 425.956 153.951C425.906 153.694 425.934 153.428 426.035 153.186C426.136 152.945 426.307 152.739 426.525 152.595C426.743 152.451 427 152.375 427.261 152.376C427.611 152.378 427.945 152.519 428.191 152.766C428.437 153.014 428.575 153.349 428.575 153.698Z" fill="white"/>
<path d="M429.54 157.338V157.881C428.855 158.308 428.064 158.534 427.257 158.534C426.451 158.534 425.66 158.308 424.975 157.881V157.338C425.01 156.756 425.265 156.21 425.69 155.81C426.114 155.41 426.675 155.188 427.257 155.188C427.84 155.188 428.401 155.41 428.825 155.81C429.249 156.21 429.505 156.756 429.54 157.338Z" fill="white"/>
<path d="M464.595 150.106H437.031V152.376H464.595V150.106Z" fill="#EBEBEB"/>
<path d="M461.093 153.892H437.031V155.4H461.093V153.892Z" fill="#EBEBEB"/>
<path d="M476.813 156.795H437.031V158.303H476.813V156.795Z" fill="#EBEBEB"/>
<path d="M417.857 216.537H495.573V162.121H417.857V216.537Z" fill="#EBEBEB"/>
<path d="M426.937 177.59C426.937 178.863 427.315 180.108 428.022 181.166C428.729 182.225 429.735 183.05 430.911 183.537C432.087 184.024 433.381 184.152 434.63 183.903C435.879 183.655 437.026 183.042 437.926 182.142C438.826 181.241 439.439 180.094 439.688 178.846C439.936 177.597 439.809 176.303 439.321 175.127C438.834 173.95 438.009 172.945 436.951 172.238C435.892 171.53 434.647 171.153 433.374 171.153C431.667 171.153 430.03 171.831 428.823 173.038C427.615 174.245 426.937 175.883 426.937 177.59Z" fill="#DBDBDB"/>
<path d="M452.362 204.814H495.573L473.967 175.523L452.362 204.814Z" fill="#C7C7C7"/>
<path d="M435.417 204.838H471.097L453.253 185.77L435.417 204.838Z" fill="#DBDBDB"/>
<path d="M495.573 204.814H417.857V216.537H495.573V204.814Z" fill="#DBDBDB"/>
<path d="M429.54 245.229C428.855 245.656 428.064 245.882 427.257 245.882C426.451 245.882 425.66 245.656 424.975 245.229C424.173 244.732 423.554 243.988 423.213 243.108C422.872 242.229 422.827 241.262 423.085 240.354C423.343 239.447 423.89 238.648 424.643 238.079C425.396 237.511 426.314 237.203 427.257 237.203C428.201 237.203 429.119 237.511 429.872 238.079C430.624 238.648 431.171 239.447 431.429 240.354C431.687 241.262 431.643 242.229 431.302 243.108C430.961 243.988 430.342 244.732 429.54 245.229Z" fill="#DBDBDB"/>
<path d="M427.261 242.367C427.991 242.367 428.583 241.775 428.583 241.046C428.583 240.316 427.991 239.724 427.261 239.724C426.532 239.724 425.94 240.316 425.94 241.046C425.94 241.775 426.532 242.367 427.261 242.367Z" fill="white"/>
<path d="M429.54 244.686V245.229C428.855 245.656 428.064 245.882 427.257 245.882C426.451 245.882 425.66 245.656 424.975 245.229V244.686C425.01 244.104 425.265 243.557 425.69 243.158C426.114 242.758 426.675 242.536 427.257 242.536C427.84 242.536 428.401 242.758 428.825 243.158C429.249 243.557 429.505 244.104 429.54 244.686Z" fill="white"/>
<path d="M472.476 237.454H437.031V239.724H472.476V237.454Z" fill="#EBEBEB"/>
<path d="M482.285 241.24H437.031V242.748H482.285V241.24Z" fill="#EBEBEB"/>
<path d="M452.443 244.143H437.031V245.65H452.443V244.143Z" fill="#EBEBEB"/>
<path d="M495.557 249.469H417.857V262.757H495.557V249.469Z" fill="#EBEBEB"/>
<path d="M439.43 262.765H427.318C427.763 261.515 428.585 260.434 429.669 259.669C430.753 258.904 432.047 258.494 433.374 258.494C434.701 258.494 435.995 258.904 437.08 259.669C438.164 260.434 438.985 261.515 439.43 262.765Z" fill="#DBDBDB"/>
<path d="M423.078 222.91C422.958 222.416 422.987 221.897 423.161 221.42C423.335 220.942 423.648 220.527 424.058 220.227C424.468 219.927 424.958 219.755 425.466 219.734C425.974 219.712 426.477 219.842 426.911 220.106C427.345 220.37 427.691 220.757 427.906 221.218C428.12 221.679 428.193 222.193 428.115 222.695C428.037 223.198 427.812 223.666 427.468 224.04C427.124 224.414 426.677 224.678 426.183 224.799C425.855 224.88 425.514 224.895 425.181 224.844C424.847 224.792 424.526 224.676 424.238 224.5C423.949 224.325 423.698 224.094 423.499 223.821C423.3 223.548 423.157 223.238 423.078 222.91Z" fill="#EBEBEB"/>
<path fill-rule="evenodd" clip-rule="evenodd" d="M425.227 223.323C425.154 223.283 425.097 223.218 425.008 223.226C424.918 223.234 425.008 223.226 425.008 223.185V222.156C425.002 222.147 424.998 222.137 424.998 222.127C424.998 222.117 425.002 222.107 425.008 222.099C425.267 221.969 425.381 221.71 425.543 221.483C425.628 221.368 425.689 221.237 425.721 221.097C425.754 220.957 425.756 220.813 425.729 220.672C425.729 220.599 425.729 220.567 425.826 220.55C425.861 220.536 425.898 220.534 425.934 220.545C425.969 220.555 426 220.577 426.021 220.607C426.097 220.748 426.147 220.902 426.167 221.061C426.183 221.188 426.183 221.316 426.167 221.442C426.167 221.539 426.126 221.629 426.11 221.726C426.094 221.823 426.159 221.726 426.183 221.726H427.051C427.172 221.726 427.237 221.726 427.253 221.839C427.262 221.89 427.254 221.941 427.231 221.987C427.207 222.032 427.17 222.069 427.124 222.091C427.124 222.091 427.067 222.091 427.067 222.131C427.067 222.172 427.067 222.131 427.124 222.172C427.18 222.212 427.205 222.391 427.124 222.48C427.043 222.569 427.043 222.48 427.043 222.529C427.043 222.577 427.091 222.529 427.116 222.593C427.134 222.617 427.147 222.645 427.153 222.674C427.159 222.704 427.158 222.734 427.15 222.764C427.142 222.793 427.127 222.82 427.107 222.842C427.087 222.865 427.062 222.882 427.034 222.893H426.978C426.978 222.893 426.978 222.893 426.978 222.934C427.007 222.948 427.032 222.969 427.049 222.997C427.066 223.024 427.075 223.056 427.075 223.088C427.075 223.12 427.066 223.152 427.049 223.179C427.032 223.206 427.007 223.228 426.978 223.242C426.928 223.258 426.874 223.258 426.824 223.242H425.462C425.456 223.266 425.445 223.289 425.428 223.307C425.411 223.326 425.39 223.34 425.367 223.348C425.343 223.356 425.318 223.358 425.293 223.354C425.269 223.35 425.246 223.339 425.227 223.323Z" fill="white"/>
<path fill-rule="evenodd" clip-rule="evenodd" d="M423.929 222.723C423.929 222.504 423.929 222.285 423.929 222.066C423.929 222.026 423.929 222.002 423.994 222.002C424.254 222.002 424.521 222.002 424.805 222.002C424.854 222.002 424.862 222.002 424.862 222.066V223.38C424.862 223.437 424.862 223.453 424.789 223.453H424.018C423.954 223.453 423.946 223.453 423.946 223.372C423.937 223.193 423.929 222.942 423.929 222.723Z" fill="white"/>
<path d="M428.478 222.91C428.358 222.416 428.387 221.898 428.561 221.421C428.736 220.944 429.047 220.529 429.457 220.229C429.867 219.929 430.357 219.758 430.864 219.736C431.372 219.714 431.874 219.843 432.308 220.106C432.742 220.37 433.089 220.756 433.304 221.216C433.519 221.676 433.592 222.19 433.516 222.692C433.439 223.194 433.215 223.662 432.872 224.037C432.53 224.412 432.084 224.677 431.591 224.799C431.262 224.881 430.921 224.897 430.586 224.846C430.251 224.796 429.93 224.679 429.64 224.503C429.351 224.328 429.099 224.097 428.899 223.823C428.7 223.549 428.556 223.239 428.478 222.91Z" fill="#FFC727"/>
<path d="M432.288 222.626C432.288 222.974 432.15 223.308 431.903 223.554C431.657 223.801 431.323 223.939 430.975 223.939C430.626 223.939 430.292 223.801 430.046 223.554C429.8 223.308 429.661 222.974 429.661 222.626C429.577 222.503 429.521 222.364 429.495 222.217C429.47 222.071 429.476 221.921 429.514 221.777C429.552 221.633 429.62 221.499 429.714 221.384C429.808 221.269 429.925 221.176 430.058 221.11C430.788 220.891 430.975 222.164 430.975 222.164C430.975 222.164 431.161 220.891 431.899 221.11C432.41 221.264 432.612 221.969 432.288 222.626Z" fill="white"/>
<path d="M473.967 221.969H437.46V223.453H473.967V221.969Z" fill="#EBEBEB"/>
<path d="M417.857 230.83L427.57 230.684L437.282 230.603L456.707 230.53L476.132 230.603L485.845 230.684L495.557 230.83L485.845 230.984L476.132 231.065L456.707 231.138L437.282 231.065L427.57 230.984L417.857 230.83Z" fill="#EBEBEB"/>
<path d="M301.137 301.064C300.528 299.345 269.145 259.619 267.037 258.906C266.802 258.809 253.352 268.813 253.352 268.813C252.801 269.575 226.728 264.63 226.728 264.63L227.125 295.948L274.383 293.954C274.383 293.954 280.868 297.578 286.754 300.512C289.266 301.862 291.86 303.054 294.521 304.08C296.913 304.623 301.753 302.766 301.137 301.064Z" fill="#8B5421"/>
<path d="M294.537 304.063C291.879 303.038 289.287 301.847 286.779 300.496C280.876 297.561 274.407 293.937 274.407 293.937L263.867 294.383L246.842 268.14C250.474 268.708 253.174 269.032 253.328 268.789C253.328 268.789 266.77 258.792 267.013 258.89C269.121 259.619 300.504 299.345 301.112 301.047C301.72 302.75 296.913 304.631 294.537 304.063Z" fill="white"/>
<path d="M301.404 301.104C300.764 299.353 269.242 259.652 267.078 258.898C266.267 258.606 259.668 262.87 253.336 268.797L273.685 294.359C273.685 294.359 292.17 303.666 294.626 304.242C297.083 304.817 302.053 302.863 301.404 301.104Z" fill="#FFC017"/>
<path d="M299.377 301.834C293.929 295.348 272.575 268.472 267.686 261.614C267.645 261.557 267.686 261.524 267.686 261.614C273.223 267.962 294.367 294.967 299.442 301.777C299.596 301.834 299.491 301.939 299.377 301.834Z" fill="#263238"/>
<path d="M291.189 302.823C290.58 302.098 290.129 301.255 289.864 300.346C289.599 299.437 289.525 298.484 289.648 297.545C289.855 295.857 290.706 294.315 292.024 293.24C292.064 293.24 292.121 293.281 292.081 293.321C290.942 294.592 290.247 296.199 290.1 297.9C289.954 299.601 290.365 301.303 291.27 302.75C291.31 302.807 291.229 302.872 291.189 302.823Z" fill="#263238"/>
<path d="M276.028 295.924C273.872 293.289 272.364 289.438 273.231 286.065C273.231 285.935 273.45 285.984 273.466 286.065C274.097 289.363 275.078 292.583 276.393 295.672C276.426 295.721 276.439 295.78 276.429 295.838C276.418 295.896 276.385 295.947 276.336 295.98C276.288 296.014 276.228 296.026 276.171 296.016C276.113 296.005 276.062 295.972 276.028 295.924Z" fill="#263238"/>
<path d="M278.461 297.342C276.312 294.708 274.796 290.857 275.663 287.484C275.663 287.354 275.882 287.403 275.907 287.484C276.53 290.782 277.509 294.003 278.825 297.091C278.859 297.14 278.871 297.199 278.861 297.257C278.85 297.315 278.817 297.366 278.769 297.399C278.745 297.416 278.718 297.427 278.689 297.433C278.661 297.439 278.631 297.44 278.603 297.435C278.545 297.424 278.494 297.391 278.461 297.342Z" fill="#263238"/>
<path d="M280.893 298.761C278.744 296.126 277.236 292.275 278.096 288.903C278.096 288.773 278.315 288.822 278.339 288.903C278.968 292.2 279.946 295.42 281.257 298.51C281.291 298.558 281.304 298.618 281.293 298.676C281.282 298.733 281.249 298.785 281.201 298.818C281.152 298.851 281.093 298.864 281.035 298.853C280.977 298.843 280.926 298.81 280.893 298.761Z" fill="#263238"/>
<path d="M283.333 300.212C281.176 297.578 279.668 293.727 280.528 290.354C280.528 290.224 280.747 290.273 280.771 290.354C281.399 293.652 282.38 296.873 283.698 299.961C283.731 300.009 283.744 300.069 283.733 300.127C283.723 300.185 283.689 300.236 283.641 300.269C283.617 300.286 283.59 300.297 283.562 300.303C283.533 300.309 283.504 300.31 283.475 300.305C283.417 300.294 283.366 300.261 283.333 300.212Z" fill="#263238"/>
<path d="M262.708 268.294C260.341 265.294 264.994 261.622 267.362 264.621C269.729 267.621 265.075 271.294 262.708 268.294Z" fill="#263238"/>
<path d="M274.942 301.129C275.655 298.218 275.08 295.105 274.885 292.162C274.875 292.098 274.85 292.037 274.813 291.984C274.775 291.931 274.725 291.888 274.667 291.858C274.61 291.828 274.546 291.812 274.481 291.811C274.416 291.81 274.352 291.825 274.293 291.854C274.284 291.843 274.273 291.835 274.26 291.829C274.248 291.824 274.234 291.821 274.22 291.821C274.207 291.821 274.193 291.824 274.18 291.829C274.168 291.835 274.157 291.843 274.147 291.854C271.869 293.991 270.191 296.689 269.283 299.677C268.789 301.428 269.04 303.998 271.229 304.461C273.418 304.923 274.528 302.831 274.942 301.129ZM272.834 303.001C269.721 305.044 269.875 300.658 270.296 299.385C270.577 298.551 270.918 297.738 271.318 296.953C272.158 295.362 273.078 293.814 274.074 292.316C274.074 293.767 274.212 295.202 274.269 296.645C274.342 298.404 274.545 301.883 272.834 303.001Z" fill="#263238"/>
<path d="M264.921 283.722C263.349 285.344 264.548 287.597 265.935 288.781C268.345 290.779 271.239 292.104 274.326 292.624C274.399 292.624 274.431 292.583 274.431 292.527C274.496 292.52 274.559 292.498 274.614 292.462C274.669 292.426 274.715 292.377 274.747 292.32C274.78 292.263 274.798 292.199 274.801 292.134C274.804 292.068 274.791 292.003 274.764 291.943C273.304 289.381 272.064 286.471 269.899 284.436C268.602 283.244 266.429 282.222 264.921 283.722ZM271.756 288.514C272.51 289.754 273.191 291.027 273.977 292.243C272.356 291.489 270.686 290.808 269.113 289.892C268.354 289.46 267.626 288.978 266.932 288.449C265.878 287.638 263.34 284.038 267.062 284.03C269.137 283.998 270.888 287.038 271.772 288.514H271.756Z" fill="#263238"/>
<path d="M225.196 257.163L203.882 255.485C203.882 255.485 173.074 246.567 155.303 251.228C134.905 256.587 132.027 280.414 152.765 289.965C173.309 299.402 263.6 295.932 263.6 295.932L244.24 267.256C244.24 267.256 214.502 260.276 188.47 261.695L225.325 265.935L225.196 257.163Z" fill="#37474F"/>
<path d="M224.977 263.227C221.807 262.708 218.596 262.416 215.402 262.149C212.208 261.881 208.916 261.614 205.673 261.411C199.221 260.989 192.751 260.892 186.289 261.119C185.681 261.119 185.081 261.176 184.473 261.216C184.342 261.179 184.21 261.149 184.076 261.127C183.768 261.054 183.451 260.981 183.143 260.933C182.551 260.835 181.968 260.762 181.376 260.681C180.152 260.519 178.944 260.414 177.703 260.211C177.63 260.211 177.598 260.317 177.703 260.325C178.936 260.576 180.135 260.9 181.376 261.135L182.438 261.338C180.071 261.508 177.711 261.743 175.352 262.011C175.279 262.011 175.279 262.133 175.352 262.124C178.595 261.865 181.838 261.776 185.032 261.768C188.227 261.76 191.429 261.768 194.631 261.873C201.117 262.108 207.603 262.554 214.024 263.097C217.64 263.397 221.272 263.77 224.904 263.843C225.261 263.859 225.334 263.284 224.977 263.227Z" fill="#263238"/>
<path d="M254.382 295.275C253.19 293.451 252.16 291.497 251.066 289.6L247.758 283.925C245.553 280.155 237.657 267.491 236.886 266.608C236.838 266.551 236.74 266.608 236.765 266.689C237.146 267.67 242.083 276.061 243.251 277.934C245.521 281.671 247.904 285.336 250.247 289.024C250.92 290.078 251.609 291.124 252.29 292.17C252.971 293.216 253.693 294.245 254.317 295.324C254.293 295.405 254.382 295.348 254.382 295.275Z" fill="#263238"/>
<path d="M148.314 306.836C148.841 305.093 178.311 263.932 180.379 263.097C180.614 262.992 194.526 272.34 194.526 272.34C195.11 273.077 220.915 266.908 220.915 266.908L222.001 298.21L174.704 298.453C174.704 298.453 168.42 302.377 162.656 305.596C160.21 307.061 157.676 308.374 155.068 309.528C152.7 310.201 147.779 308.571 148.314 306.836Z" fill="#8B5421"/>
<path d="M155.052 309.528C157.658 308.377 160.19 307.064 162.632 305.596C168.388 302.353 174.679 298.453 174.679 298.453L185.219 298.404L200.987 271.383C197.388 272.121 194.704 272.575 194.502 272.34C194.502 272.34 180.589 262.984 180.354 263.097C178.287 263.908 148.817 305.093 148.29 306.836C147.763 308.579 152.7 310.201 155.052 309.528Z" fill="white"/>
<path d="M148.039 306.901C148.59 305.117 178.206 263.932 180.322 263.122C181.133 262.789 187.918 266.737 194.526 272.348L175.401 298.858C175.401 298.858 157.386 309.025 154.954 309.714C152.522 310.403 147.488 308.684 148.039 306.901Z" fill="#FFC017"/>
<path d="M150.114 307.509C155.246 300.731 175.304 272.923 179.868 265.829C179.868 265.773 179.868 265.748 179.819 265.829C174.59 272.429 154.752 300.407 150.001 307.452C149.895 307.558 150.001 307.639 150.114 307.509Z" fill="#263238"/>
<path d="M158.343 308.125C158.914 307.371 159.323 306.508 159.543 305.588C159.764 304.668 159.791 303.713 159.624 302.782C159.351 301.112 158.445 299.611 157.095 298.591C157.095 298.591 156.997 298.64 157.03 298.68C158.228 299.896 158.999 301.468 159.227 303.159C159.455 304.851 159.128 306.571 158.294 308.06C158.293 308.068 158.294 308.075 158.296 308.083C158.297 308.09 158.301 308.097 158.305 308.103C158.31 308.109 158.315 308.114 158.322 308.118C158.328 308.122 158.336 308.124 158.343 308.125Z" fill="#263238"/>
<path d="M173.155 300.512C175.182 297.78 176.511 293.881 175.482 290.54C175.482 290.411 175.263 290.467 175.247 290.581C174.785 293.901 173.97 297.163 172.815 300.31C172.806 300.352 172.812 300.396 172.829 300.436C172.847 300.475 172.877 300.508 172.914 300.53C172.951 300.552 172.994 300.563 173.037 300.559C173.08 300.556 173.122 300.54 173.155 300.512Z" fill="#263238"/>
<path d="M170.788 302.045C172.815 299.312 174.144 295.413 173.123 292.073C173.123 291.943 172.896 292 172.879 292.113C172.418 295.434 171.602 298.695 170.447 301.842C170.439 301.884 170.444 301.928 170.462 301.968C170.48 302.007 170.509 302.04 170.547 302.063C170.584 302.085 170.627 302.095 170.67 302.092C170.713 302.088 170.754 302.072 170.788 302.045Z" fill="#263238"/>
<path d="M168.445 303.577C170.463 300.845 171.793 296.945 170.772 293.605C170.731 293.475 170.553 293.532 170.536 293.605C170.071 296.925 169.256 300.186 168.104 303.334C168.08 303.379 168.072 303.432 168.084 303.482C168.096 303.532 168.125 303.576 168.167 303.606C168.209 303.636 168.26 303.649 168.311 303.644C168.363 303.639 168.41 303.615 168.445 303.577Z" fill="#263238"/>
<path d="M166.061 305.117C168.088 302.377 169.418 298.477 168.388 295.137C168.388 295.008 168.169 295.064 168.153 295.178C167.691 298.498 166.876 301.76 165.721 304.907C165.71 304.95 165.714 304.995 165.731 305.036C165.748 305.077 165.777 305.112 165.815 305.135C165.852 305.159 165.897 305.169 165.941 305.166C165.985 305.163 166.027 305.146 166.061 305.117Z" fill="#263238"/>
<path d="M185.154 272.291C187.375 269.186 182.551 265.732 180.33 268.837C178.109 271.942 182.924 275.396 185.154 272.291Z" fill="#263238"/>
<path d="M178.376 308.798C180.541 308.239 180.671 305.66 180.087 303.934C179.034 300.986 177.222 298.368 174.833 296.345C174.777 296.297 174.728 296.345 174.695 296.345C174.635 296.32 174.57 296.308 174.504 296.313C174.439 296.317 174.375 296.336 174.318 296.369C174.262 296.402 174.213 296.448 174.178 296.503C174.142 296.558 174.119 296.621 174.112 296.686C174.063 299.629 173.633 302.766 174.485 305.644C174.979 307.347 176.325 309.333 178.376 308.798ZM174.931 301.185C174.931 299.742 174.979 298.299 174.931 296.856C175.997 298.303 176.987 299.805 177.898 301.356C178.331 302.11 178.713 302.893 179.041 303.699C179.519 304.955 179.852 309.325 176.674 307.444C174.931 306.398 174.931 302.912 174.931 301.185Z" fill="#263238"/>
<path d="M178.749 288.749C176.649 290.889 175.547 293.856 174.217 296.483C174.193 296.544 174.183 296.609 174.189 296.675C174.194 296.74 174.216 296.803 174.25 296.858C174.285 296.913 174.333 296.96 174.389 296.993C174.445 297.027 174.509 297.046 174.574 297.051C174.572 297.064 174.574 297.078 174.579 297.092C174.584 297.105 174.592 297.116 174.602 297.126C174.612 297.135 174.625 297.142 174.638 297.146C174.651 297.15 174.666 297.15 174.679 297.148C177.737 296.479 180.566 295.02 182.884 292.916C184.205 291.667 185.316 289.332 183.654 287.816C181.992 286.3 179.973 287.5 178.749 288.749ZM181.522 288.214C185.235 288.052 182.868 291.74 181.854 292.624C181.187 293.184 180.483 293.699 179.746 294.164C178.212 295.103 176.632 295.963 175.012 296.742C175.741 295.494 176.366 294.189 177.055 292.916C177.874 291.4 179.471 288.303 181.522 288.214Z" fill="#263238"/>
<path d="M222.091 257.244L243.307 256.684C243.307 256.684 265.197 245.423 283.211 249.25C303.836 253.628 307.144 279.304 292.065 288.814C272.964 300.861 186.532 300.918 186.532 300.918L204.368 268.781C204.368 268.781 232.93 261.97 259.003 262.157L222.382 268.14L222.091 257.244Z" fill="#37474F"/>
<path d="M203.168 270.88C203.189 270.828 203.203 270.774 203.209 270.718V270.58L203.282 270.272C203.338 270.061 203.411 269.859 203.484 269.648C203.557 269.437 203.647 269.243 203.728 269.04C203.827 268.842 203.94 268.653 204.068 268.472C204.068 268.472 204.068 268.472 204.117 268.432H204.157H204.206C207.352 267.759 228.73 264.119 231.917 263.673C235.103 263.227 238.338 262.862 241.564 262.481C247.988 261.752 254.444 261.346 260.908 261.265C261.516 261.265 262.124 261.265 262.732 261.265C262.86 261.221 262.99 261.186 263.121 261.16C263.43 261.079 263.738 260.989 264.046 260.925C264.629 260.795 265.213 260.689 265.797 260.584C267.013 260.365 268.229 260.203 269.445 259.944C269.518 259.944 269.551 260.041 269.445 260.057C268.229 260.365 267.013 260.746 265.821 261.046L264.767 261.297C267.143 261.362 269.51 261.484 271.885 261.638C271.901 261.638 271.915 261.644 271.926 261.655C271.936 261.665 271.942 261.68 271.942 261.695C271.942 261.71 271.936 261.724 271.926 261.735C271.915 261.745 271.901 261.751 271.885 261.751C268.643 261.646 265.4 261.711 262.197 261.849C258.995 261.987 255.809 262.141 252.614 262.416C246.129 262.951 239.724 263.705 233.303 264.549C229.703 265.027 207.903 268.797 204.279 269.048H204.23C204.208 269.134 204.178 269.218 204.141 269.299L203.849 269.891C203.752 270.078 203.655 270.264 203.541 270.451L203.371 270.718L203.282 270.848C203.282 270.888 203.201 270.945 203.193 270.986C203.184 271.026 203.128 270.953 203.168 270.88Z" fill="#263238"/>
<path d="M193.212 298.842C194.323 296.961 195.256 294.967 196.261 293.029L199.293 287.208C201.32 283.341 208.608 270.313 209.338 269.372C209.378 269.316 209.484 269.372 209.459 269.445C209.127 270.451 204.595 279.061 203.549 280.982C201.458 284.825 199.252 288.603 197.063 292.397C196.447 293.483 195.799 294.554 195.174 295.64C194.55 296.726 193.877 297.78 193.302 298.883C193.303 298.893 193.301 298.903 193.297 298.912C193.293 298.921 193.286 298.929 193.278 298.935C193.27 298.941 193.261 298.944 193.251 298.945C193.241 298.946 193.231 298.944 193.222 298.94C193.213 298.936 193.205 298.93 193.199 298.922C193.193 298.913 193.19 298.904 193.189 298.894C193.188 298.884 193.189 298.874 193.194 298.865C193.198 298.856 193.204 298.848 193.212 298.842Z" fill="#263238"/>
<path d="M264.605 171.209L260.138 195.393C259.927 196.107 260.316 196.658 261.006 196.61L273.288 195.799C273.661 195.745 274.01 195.587 274.297 195.343C274.584 195.099 274.796 194.779 274.909 194.421L279.377 170.237C279.587 169.523 279.198 168.98 278.509 169.02L266.235 169.831C265.861 169.885 265.51 170.043 265.222 170.286C264.934 170.53 264.72 170.85 264.605 171.209Z" fill="#37474F"/>
<path d="M266.064 171.104L261.597 195.288C261.387 196.002 261.776 196.553 262.457 196.504L274.739 195.693C275.112 195.64 275.462 195.483 275.749 195.239C276.036 194.995 276.248 194.675 276.361 194.315L280.836 170.131C281.047 169.418 280.658 168.866 279.968 168.915L267.686 169.726C267.314 169.781 266.965 169.939 266.678 170.183C266.391 170.427 266.179 170.746 266.064 171.104Z" fill="#455A64"/>
<path d="M269.502 171.972C269.511 172.178 269.459 172.383 269.352 172.561C269.245 172.738 269.087 172.879 268.9 172.967C268.712 173.055 268.503 173.085 268.298 173.053C268.093 173.021 267.903 172.93 267.75 172.79C267.597 172.65 267.49 172.468 267.441 172.266C267.392 172.065 267.404 171.854 267.475 171.659C267.547 171.465 267.674 171.296 267.841 171.174C268.009 171.052 268.209 170.983 268.416 170.974C268.692 170.963 268.961 171.062 269.164 171.249C269.368 171.436 269.489 171.696 269.502 171.972Z" fill="#263238"/>
<path d="M227.328 209.792C235.103 224.215 251.779 242.586 258.249 242.31C261.322 242.181 266.851 242.61 270.686 238.857C279.06 230.668 285.603 215.516 286.641 206.995C287.006 203.971 272.048 198.272 270.029 200.833C265.294 206.841 260.049 218.394 259.149 218.378C255.825 218.305 242.302 208.252 232.857 201.174C221.393 192.572 224.231 204.044 227.328 209.792Z" fill="#8B5421"/>
<path d="M286.138 191.47C284.257 185.462 282.855 184.173 283.957 178.295C284.679 174.412 282.514 172.288 279.968 175.506C275.809 180.776 276.612 189.037 277.715 191.826L286.138 191.47Z" fill="#8B5421"/>
<path d="M286.073 209.654C286.073 209.654 288.319 201.012 286.949 194.413C286 189.848 282.83 180.144 269.656 175.66C266.527 174.598 261.322 175.304 265.797 178.903C268.975 181.457 271.756 182.146 273.337 183.938C273.337 183.938 266.851 185.608 265.878 188.802C265.052 191.57 264.426 194.393 264.005 197.25C264.51 197.446 265.027 197.608 265.554 197.736C265.554 197.736 264.743 200.736 267.175 204.79L286.073 209.654Z" fill="#8B5421"/>
<path d="M285.344 190.197C283.398 188.721 279.214 185.665 274.926 184.351C270.159 182.9 260.592 181.376 259.522 184.903C258.76 187.497 262.359 188.397 262.359 188.397C262.359 188.397 258.306 188.6 258.095 191.089C257.933 193.359 260.762 193.886 260.762 193.886C260.762 193.886 258.33 194.437 258.573 196.65C258.89 199.309 263.989 197.72 266.681 200.136C267.272 200.679 285.344 190.197 285.344 190.197Z" fill="#8B5421"/>
<path d="M274.229 189.645C270.539 188.028 266.445 187.57 262.489 188.332C262.392 188.332 262.359 188.446 262.449 188.437C266.415 188.379 270.373 188.804 274.237 189.702L274.229 189.645Z" fill="#263238"/>
<path d="M272.615 194.412C270.742 193.659 265.213 192.596 260.803 193.796C260.697 193.796 260.673 193.91 260.803 193.902C264.757 193.639 268.728 193.827 272.639 194.461L272.615 194.412Z" fill="#263238"/>
<path d="M287.119 213.173C287.119 213.173 276.442 237.454 269.64 240.567C262.838 243.68 258.638 243.307 256.036 243.056C255.024 242.877 254.064 242.479 253.222 241.889C245.926 237.268 232.419 220.25 226.777 210.578C222.545 203.282 222.601 196.512 228.512 198.377C230.518 199.107 232.389 200.164 234.049 201.506C245.188 209.849 258.022 217.672 258.598 217.332C259.173 216.991 264.759 206.954 264.759 206.954L287.119 213.173Z" fill="#FFC017"/>
<path d="M259.571 222.383C259.495 222.92 259.495 223.466 259.571 224.004C259.65 224.566 259.814 225.113 260.057 225.625C260.137 225.088 260.137 224.542 260.057 224.004C259.978 223.442 259.814 222.895 259.571 222.383Z" fill="white"/>
<path d="M273.507 228.423C273.431 228.96 273.431 229.506 273.507 230.044C273.581 230.586 273.729 231.115 273.945 231.617C274.025 231.079 274.025 230.533 273.945 229.995C273.877 229.452 273.73 228.922 273.507 228.423Z" fill="white"/>
<path d="M248.942 234.284C248.866 234.822 248.866 235.368 248.942 235.905C249.009 236.449 249.156 236.979 249.38 237.478C249.455 236.94 249.455 236.395 249.38 235.857C249.304 235.315 249.157 234.787 248.942 234.284Z" fill="white"/>
<path d="M242.221 210.432C242.084 211.535 242.24 212.653 242.675 213.675C242.751 213.138 242.751 212.592 242.675 212.054C242.6 211.495 242.447 210.949 242.221 210.432Z" fill="white"/>
<path d="M240.016 220.202C240.554 220.277 241.099 220.277 241.637 220.202C242.18 220.135 242.711 219.987 243.21 219.764C242.672 219.688 242.126 219.688 241.589 219.764C241.047 219.839 240.518 219.987 240.016 220.202Z" fill="white"/>
<path d="M268.456 223.031C268.994 223.107 269.54 223.107 270.078 223.031C270.619 222.957 271.148 222.81 271.65 222.593C271.113 222.513 270.566 222.513 270.029 222.593C269.486 222.661 268.956 222.808 268.456 223.031Z" fill="white"/>
<path d="M254.009 231.56C254.547 231.636 255.093 231.636 255.63 231.56C256.174 231.493 256.704 231.346 257.203 231.122C256.1 230.992 254.983 231.151 253.96 231.584L254.009 231.56Z" fill="white"/>
<path d="M281.484 214.656C282.022 214.732 282.568 214.732 283.106 214.656C283.649 214.59 284.179 214.442 284.679 214.219C283.576 214.088 282.458 214.247 281.436 214.681L281.484 214.656Z" fill="white"/>
<path d="M267.41 239.513C267.948 239.589 268.494 239.589 269.032 239.513C269.575 239.447 270.105 239.299 270.604 239.075C270.067 238.995 269.521 238.995 268.983 239.075C268.44 239.143 267.91 239.291 267.41 239.513Z" fill="white"/>
<path d="M225.609 199.18C225.162 199.377 224.69 199.514 224.207 199.585C224.275 199.429 224.363 199.282 224.466 199.147C224.847 199.11 225.231 199.12 225.609 199.18Z" fill="white"/>
<path d="M252.639 216.456C252.206 216.791 251.822 217.184 251.496 217.624C251.16 218.059 250.887 218.539 250.685 219.051C251.55 218.372 252.222 217.477 252.631 216.456H252.639Z" fill="white"/>
<path d="M266.008 230.028C265.573 230.364 265.188 230.759 264.865 231.203C264.53 231.637 264.257 232.114 264.054 232.622C264.488 232.289 264.873 231.896 265.197 231.455C265.533 231.02 265.806 230.539 266.008 230.028Z" fill="white"/>
<path d="M273.604 212.038C273.17 212.371 272.785 212.764 272.461 213.205C272.125 213.64 271.852 214.121 271.65 214.632C272.085 214.296 272.47 213.9 272.794 213.456C273.128 213.023 273.401 212.546 273.604 212.038Z" fill="white"/>
<path d="M244.199 228.333C243.766 228.671 243.382 229.067 243.056 229.509C242.722 229.942 242.449 230.42 242.245 230.928C242.68 230.595 243.065 230.202 243.388 229.76C243.727 229.327 244.001 228.846 244.199 228.333Z" fill="white"/>
<path d="M234.114 205.503C233.679 205.836 233.294 206.229 232.971 206.671C232.632 207.104 232.358 207.585 232.16 208.098C233.025 207.419 233.697 206.524 234.106 205.503H234.114Z" fill="white"/>
<path d="M233.489 216.707C233.154 216.273 232.758 215.888 232.314 215.564C231.883 215.227 231.405 214.954 230.895 214.754C231.224 215.192 231.617 215.577 232.063 215.897C232.496 216.235 232.977 216.509 233.489 216.707Z" fill="white"/>
<path d="M280.731 222.01C280.395 221.577 280.003 221.192 279.563 220.867C279.128 220.53 278.648 220.258 278.136 220.056C278.471 220.488 278.864 220.873 279.304 221.199C279.739 221.535 280.219 221.808 280.731 222.01Z" fill="white"/>
<path d="M266.194 217.64C265.859 217.207 265.466 216.823 265.027 216.497C264.594 216.158 264.113 215.884 263.6 215.686C264.278 216.551 265.173 217.223 266.194 217.632V217.64Z" fill="white"/>
<path d="M250.182 226.606C249.852 226.17 249.458 225.785 249.015 225.463C248.584 225.121 248.102 224.848 247.588 224.653C247.926 225.085 248.321 225.47 248.764 225.796C249.197 226.13 249.674 226.403 250.182 226.606Z" fill="white"/>
<path d="M259.814 239.975C259.481 239.541 259.088 239.156 258.646 238.832C258.211 238.496 257.731 238.223 257.219 238.022C257.555 238.456 257.951 238.841 258.395 239.165C258.828 239.499 259.306 239.772 259.814 239.975Z" fill="white"/>
<path d="M253.222 241.889C245.926 237.268 232.419 220.25 226.777 210.578C222.545 203.282 222.601 196.512 228.512 198.377C231.795 204.093 246.129 229.095 253.222 241.889Z" fill="#263238"/>
<path d="M284.379 217.64C283.568 217.243 275.899 214.729 274.22 214.219C272.542 213.708 265.716 211.567 263.94 211.186C263.933 211.184 263.925 211.183 263.917 211.183C263.909 211.183 263.901 211.185 263.894 211.189C263.887 211.192 263.881 211.197 263.875 211.203C263.87 211.209 263.866 211.215 263.863 211.223C263.861 211.23 263.86 211.238 263.86 211.246C263.86 211.254 263.862 211.262 263.866 211.269C263.869 211.276 263.874 211.283 263.88 211.288C263.886 211.293 263.892 211.297 263.9 211.3C265.57 212.005 272.453 214.194 274.156 214.746C275.858 215.297 283.487 217.616 284.355 217.753C284.444 217.761 284.452 217.664 284.379 217.64Z" fill="#263238"/>
<path d="M245.504 257.917C244.734 258.727 195.142 260.349 194.891 260.041C194.202 259.23 200.306 227.66 205.382 215.581C211.867 200.096 215.597 198.669 217.818 197.745C220.648 196.545 225.828 196.772 227.085 197.282C228.512 197.85 234.738 204.701 236.635 210.254C240.445 221.426 246.177 257.179 245.504 257.917Z" fill="#FFC017"/>
<path d="M223.663 206.606C223.533 207.709 223.692 208.826 224.125 209.849C224.202 209.311 224.202 208.765 224.125 208.227C224.055 207.666 223.899 207.12 223.663 206.606Z" fill="white"/>
<path d="M224.085 230.279C223.948 231.381 224.104 232.5 224.539 233.522C224.615 232.984 224.615 232.438 224.539 231.901C224.464 231.342 224.311 230.796 224.085 230.279Z" fill="white"/>
<path d="M195.888 255.039C195.76 256.141 195.919 257.259 196.35 258.282C196.426 257.744 196.426 257.198 196.35 256.66C196.278 256.099 196.123 255.553 195.888 255.039Z" fill="white"/>
<path d="M216.205 256.02C216.128 256.557 216.128 257.103 216.205 257.641C216.278 258.186 216.428 258.719 216.651 259.222C216.726 258.684 216.726 258.138 216.651 257.601C216.582 257.054 216.432 256.521 216.205 256.02Z" fill="white"/>
<path d="M232.93 245.083C232.854 245.621 232.854 246.167 232.93 246.704C232.997 247.248 233.144 247.778 233.368 248.277C233.444 247.739 233.444 247.194 233.368 246.656C233.296 246.114 233.149 245.584 232.93 245.083Z" fill="white"/>
<path d="M209.078 220.761C209.003 221.299 209.003 221.845 209.078 222.383C209.145 222.926 209.293 223.456 209.516 223.955C209.597 223.418 209.597 222.871 209.516 222.334C209.449 221.791 209.301 221.261 209.078 220.761Z" fill="white"/>
<path d="M206.679 241.613C206.603 242.151 206.603 242.697 206.679 243.235C206.753 243.776 206.9 244.305 207.116 244.807C207.255 243.705 207.099 242.586 206.662 241.564L206.679 241.613Z" fill="white"/>
<path d="M236.473 225.09C236.397 225.628 236.397 226.174 236.473 226.712C236.547 227.253 236.695 227.783 236.911 228.285C236.991 227.747 236.991 227.201 236.911 226.663C236.843 226.12 236.696 225.59 236.473 225.09Z" fill="white"/>
<path d="M218.864 216.618C219.402 216.695 219.948 216.695 220.485 216.618C221.031 216.552 221.564 216.404 222.066 216.181C220.963 216.039 219.843 216.199 218.823 216.643L218.864 216.618Z" fill="white"/>
<path d="M206.906 232.233C208.008 232.363 209.126 232.204 210.149 231.771C209.611 231.694 209.065 231.694 208.527 231.771C207.966 231.841 207.419 231.997 206.906 232.233Z" fill="white"/>
<path d="M225.836 241.086C226.374 241.162 226.92 241.162 227.458 241.086C228 241.015 228.53 240.868 229.03 240.648C228.493 240.573 227.947 240.573 227.409 240.648C226.867 240.723 226.338 240.87 225.836 241.086Z" fill="white"/>
<path d="M211.786 251.123C212.324 251.199 212.87 251.199 213.408 251.123C213.949 251.049 214.478 250.901 214.981 250.685C214.443 250.61 213.897 250.61 213.359 250.685C212.818 250.76 212.289 250.908 211.786 251.123Z" fill="white"/>
<path d="M239.489 250.847C240.027 250.923 240.572 250.923 241.11 250.847C241.653 250.78 242.184 250.633 242.683 250.409C242.146 250.329 241.599 250.329 241.062 250.409C240.519 250.477 239.989 250.624 239.489 250.847Z" fill="white"/>
<path d="M222.399 199.634C222.936 199.71 223.482 199.71 224.02 199.634C224.564 199.559 225.096 199.412 225.601 199.196C225.063 199.12 224.517 199.12 223.98 199.196C223.434 199.266 222.902 199.413 222.399 199.634Z" fill="white"/>
<path d="M217.413 203.809C216.974 204.143 216.586 204.539 216.262 204.984C215.926 205.417 215.653 205.894 215.451 206.403C215.887 206.072 216.272 205.679 216.594 205.236C216.933 204.801 217.208 204.321 217.413 203.809Z" fill="white"/>
<path d="M228.974 221.507C228.109 222.188 227.436 223.082 227.02 224.101C227.458 223.77 227.844 223.373 228.163 222.926C228.5 222.494 228.773 222.017 228.974 221.507Z" fill="white"/>
<path d="M240.462 239.278C240.029 239.616 239.644 240.012 239.319 240.454C238.983 240.889 238.71 241.369 238.508 241.881C238.943 241.545 239.327 241.149 239.651 240.705C239.99 240.272 240.263 239.791 240.462 239.278Z" fill="white"/>
<path d="M227.685 252.793C227.25 253.126 226.865 253.519 226.542 253.96C226.203 254.394 225.93 254.875 225.731 255.387C226.169 255.059 226.555 254.665 226.874 254.22C227.213 253.787 227.486 253.306 227.685 252.793Z" fill="white"/>
<path d="M201.231 248.577C200.794 248.911 200.409 249.307 200.087 249.753C199.75 250.184 199.477 250.662 199.277 251.172C199.715 250.843 200.101 250.449 200.42 250.004C200.759 249.571 201.032 249.09 201.231 248.577Z" fill="white"/>
<path d="M216.432 236.035C215.999 236.37 215.615 236.763 215.289 237.203C214.952 237.638 214.68 238.118 214.478 238.63C214.91 238.294 215.295 237.902 215.621 237.462C215.958 237.028 216.231 236.547 216.432 236.035Z" fill="white"/>
<path d="M234.114 205.503C233.679 205.836 233.294 206.229 232.971 206.671C232.632 207.104 232.358 207.585 232.16 208.098C233.025 207.419 233.697 206.524 234.106 205.503H234.114Z" fill="white"/>
<path d="M233.489 216.707C233.154 216.273 232.758 215.888 232.314 215.564C231.883 215.227 231.405 214.954 230.895 214.754C231.224 215.192 231.617 215.577 232.063 215.897C232.496 216.235 232.977 216.509 233.489 216.707Z" fill="white"/>
<path d="M200.923 235.889C200.435 235.7 199.976 235.444 199.56 235.127L199.658 234.681L199.747 234.746C200.191 235.07 200.587 235.455 200.923 235.889Z" fill="white"/>
<path d="M235.151 235.508C234.818 235.074 234.425 234.689 233.984 234.365C233.549 234.029 233.068 233.756 232.557 233.554C232.893 233.989 233.289 234.374 233.733 234.698C234.166 235.032 234.643 235.305 235.151 235.508Z" fill="white"/>
<path d="M237.049 258.598C236.711 258.165 236.315 257.78 235.873 257.455C235.44 257.116 234.959 256.842 234.446 256.644C234.784 257.077 235.18 257.461 235.622 257.787C236.057 258.123 236.537 258.396 237.049 258.598Z" fill="white"/>
<path d="M211.786 213.011C211.45 212.566 211.052 212.173 210.603 211.843C210.169 211.504 209.689 211.231 209.176 211.032C209.506 211.469 209.9 211.854 210.343 212.176C210.781 212.522 211.267 212.804 211.786 213.011Z" fill="white"/>
<path d="M221.766 246.704C221.43 246.27 221.035 245.885 220.591 245.561C220.157 245.227 219.68 244.954 219.172 244.751C219.502 245.184 219.893 245.569 220.331 245.894C220.769 246.23 221.252 246.503 221.766 246.704Z" fill="white"/>
<path d="M207.279 257.625C206.946 257.19 206.553 256.805 206.111 256.482C205.678 256.143 205.197 255.87 204.684 255.671C205.015 256.107 205.408 256.493 205.852 256.814C206.286 257.151 206.767 257.424 207.279 257.625Z" fill="white"/>
<path d="M218.799 225.974C218.464 225.542 218.071 225.157 217.632 224.831C217.198 224.492 216.718 224.219 216.205 224.02C216.54 224.453 216.933 224.837 217.372 225.163C217.807 225.499 218.288 225.772 218.799 225.974Z" fill="white"/>
<path d="M209.638 201.985C188.405 218.264 170.123 240.746 171.963 247.791C173.909 255.233 188.778 263.454 201.847 265.035C204.522 265.359 212.613 245.675 209.865 244.767C207.724 244.086 197.996 241.418 196.82 240.097C196.009 239.181 210.862 217.851 215.653 206.744C220.672 195.158 215.321 197.631 209.638 201.985Z" fill="#8B5421"/>
<path d="M204.344 244.272C204.344 244.272 212.516 245.01 217.834 245.748C220.802 246.161 225.828 247.321 227.871 248.618C230.919 250.563 242.464 260.649 240.073 263.495C237.916 266.073 234.584 262.051 234.584 262.051C234.584 262.051 238.638 266.105 235.711 268.002C232.784 269.899 228.925 264.265 228.925 264.265C228.925 264.265 233.53 268.262 230.214 269.997C227.328 271.496 222.212 265.465 222.212 265.465C222.212 265.465 227.506 269.129 224.701 270.961C221.612 272.98 212.8 264.897 212.8 264.897C205.819 265.708 201.514 265.311 196.585 263.973C195.677 263.73 204.344 244.272 204.344 244.272Z" fill="#8B5421"/>
<path d="M230.165 265.602C229.849 265.173 229.517 264.751 229.193 264.322C228.587 263.468 227.927 262.656 227.214 261.889C226.517 261.143 225.788 260.438 225.025 259.757C224.263 259.076 223.355 258.387 222.593 257.641C222.587 257.636 222.581 257.632 222.573 257.629C222.566 257.626 222.558 257.625 222.55 257.626C222.542 257.626 222.534 257.628 222.527 257.631C222.52 257.635 222.513 257.639 222.508 257.645C222.503 257.651 222.499 257.658 222.496 257.665C222.493 257.673 222.492 257.681 222.492 257.689C222.493 257.696 222.495 257.704 222.498 257.711C222.502 257.719 222.506 257.725 222.512 257.73C223.292 258.456 224.029 259.228 224.717 260.041C225.423 260.811 226.112 261.589 226.809 262.368C227.506 263.146 228.212 263.835 228.909 264.581C229.257 264.946 229.59 265.335 229.922 265.716C230.213 266.102 230.536 266.462 230.887 266.794C230.928 266.794 230.968 266.794 230.952 266.737C230.73 266.333 230.466 265.953 230.165 265.602Z" fill="#263238"/>
<path d="M235.411 262.919C234.329 261.309 233.137 259.775 231.844 258.33C230.527 256.895 229.071 255.595 227.498 254.447C227.492 254.441 227.485 254.437 227.478 254.435C227.471 254.432 227.463 254.431 227.455 254.431C227.447 254.432 227.439 254.434 227.432 254.437C227.425 254.44 227.418 254.445 227.413 254.451C227.408 254.457 227.404 254.464 227.401 254.471C227.398 254.478 227.397 254.486 227.397 254.494C227.398 254.502 227.4 254.51 227.403 254.517C227.406 254.524 227.411 254.531 227.417 254.536C228.73 255.971 230.068 257.39 231.398 258.817C232.046 259.506 234.908 262.757 235.257 263.057C235.338 263.105 235.451 262.984 235.411 262.919Z" fill="#263238"/>
<path d="M225.301 268.27C224.253 266.777 223.107 265.355 221.872 264.013C220.484 262.762 219.007 261.613 217.453 260.576C217.396 260.576 217.323 260.625 217.372 260.665C218.75 261.922 220.153 263.146 221.426 264.459C222.074 265.108 224.482 267.816 225.147 268.375C225.161 268.396 225.183 268.41 225.207 268.414C225.231 268.419 225.256 268.413 225.277 268.399C225.297 268.385 225.311 268.364 225.316 268.34C225.32 268.315 225.315 268.29 225.301 268.27Z" fill="#263238"/>
<path d="M210.757 243.98L199.325 265.829C199.325 265.829 173.569 259.027 171.347 247.361C169.126 235.695 198.636 208.876 207.741 202.536C216.845 196.196 222.399 195.345 215.216 209.784C208.033 224.223 196.918 239.075 197.826 239.821C198.596 240.446 210.757 243.98 210.757 243.98Z" fill="#FFC017"/>
<path d="M192.629 228.058C192.553 228.596 192.553 229.141 192.629 229.679C192.697 230.225 192.844 230.757 193.067 231.26C193.142 230.722 193.142 230.176 193.067 229.639C192.991 229.095 192.844 228.563 192.629 228.058Z" fill="white"/>
<path d="M195.888 255.039C195.76 256.141 195.919 257.259 196.35 258.282C196.426 257.744 196.426 257.198 196.35 256.66C196.278 256.099 196.123 255.553 195.888 255.039Z" fill="white"/>
<path d="M182.592 241.889C182.516 242.426 182.516 242.972 182.592 243.51C182.662 244.054 182.812 244.584 183.038 245.083C183.118 244.545 183.118 243.999 183.038 243.461C182.967 242.918 182.816 242.388 182.592 241.889Z" fill="white"/>
<path d="M209.111 220.85L209.062 220.931C209.058 220.877 209.058 220.823 209.062 220.769C209.082 220.794 209.098 220.821 209.111 220.85Z" fill="white"/>
<path d="M202.933 206.492C202.803 207.595 202.962 208.713 203.395 209.735C203.471 209.197 203.471 208.652 203.395 208.114C203.326 207.553 203.17 207.006 202.933 206.492Z" fill="white"/>
<path d="M207.133 244.823C206.917 244.321 206.769 243.792 206.695 243.251C206.695 243.089 206.679 242.926 206.646 242.764L207.06 242.886C207.06 242.983 207.1 243.089 207.116 243.186C207.199 243.728 207.204 244.28 207.133 244.823Z" fill="white"/>
<path d="M208.738 201.92C209.276 201.996 209.822 201.996 210.359 201.92C210.917 201.849 211.463 201.702 211.981 201.482C210.879 201.343 209.76 201.5 208.738 201.936V201.92Z" fill="white"/>
<path d="M181.927 229.582C182.465 229.657 183.011 229.657 183.549 229.582C184.092 229.515 184.622 229.368 185.121 229.144C184.584 229.068 184.038 229.068 183.5 229.144C182.958 229.218 182.429 229.366 181.927 229.582Z" fill="white"/>
<path d="M193.261 243.461C193.799 243.538 194.345 243.538 194.883 243.461C195.428 243.395 195.961 243.247 196.463 243.024C195.926 242.948 195.38 242.948 194.842 243.024C194.298 243.097 193.766 243.245 193.261 243.461Z" fill="white"/>
<path d="M186.532 259.417C187.07 259.493 187.616 259.493 188.154 259.417C188.699 259.35 189.232 259.202 189.734 258.979C188.632 258.848 187.514 259.008 186.492 259.441L186.532 259.417Z" fill="white"/>
<path d="M174.233 248.326C174.771 248.402 175.317 248.402 175.855 248.326C176.398 248.259 176.928 248.112 177.428 247.888C176.325 247.758 175.207 247.917 174.185 248.35L174.233 248.326Z" fill="white"/>
<path d="M198.02 215.548C198.558 215.625 199.104 215.625 199.642 215.548C200.187 215.481 200.72 215.334 201.222 215.11C200.12 214.98 199.002 215.139 197.98 215.572L198.02 215.548Z" fill="white"/>
<path d="M217.413 203.809C216.974 204.143 216.586 204.539 216.262 204.984C215.926 205.417 215.653 205.894 215.451 206.403C215.887 206.072 216.272 205.679 216.594 205.236C216.933 204.801 217.208 204.321 217.413 203.809Z" fill="white"/>
<path d="M201.231 222.683C200.794 223.016 200.409 223.412 200.087 223.858C199.75 224.289 199.477 224.767 199.277 225.277C199.715 224.948 200.101 224.555 200.42 224.109C200.759 223.676 201.032 223.195 201.231 222.683Z" fill="white"/>
<path d="M201.231 248.577C200.794 248.911 200.409 249.307 200.087 249.753C199.75 250.184 199.477 250.662 199.277 251.172C199.715 250.843 200.101 250.449 200.42 250.004C200.759 249.571 201.032 249.09 201.231 248.577Z" fill="white"/>
<path d="M184.359 252.071C183.495 252.753 182.821 253.647 182.406 254.666C182.844 254.334 183.23 253.938 183.549 253.49C183.886 253.059 184.159 252.581 184.359 252.071Z" fill="white"/>
<path d="M188.478 235.508C188.045 235.843 187.661 236.236 187.335 236.676C186.997 237.11 186.724 237.59 186.524 238.103C186.958 237.77 187.343 237.377 187.667 236.935C188.003 236.5 188.276 236.02 188.478 235.508Z" fill="white"/>
<path d="M200.25 262.205C199.389 262.889 198.718 263.782 198.304 264.8C199.169 264.121 199.841 263.226 200.25 262.205Z" fill="white"/>
<path d="M200.201 235.119L200.015 235.427C199.836 235.322 199.666 235.2 199.496 235.079C199.054 234.755 198.661 234.37 198.328 233.935C198.836 234.139 199.314 234.412 199.747 234.746C199.901 234.868 200.063 234.989 200.201 235.119Z" fill="white"/>
<path d="M177.914 239.075C177.579 238.643 177.186 238.258 176.747 237.932C176.312 237.596 175.831 237.323 175.32 237.122C175.653 237.556 176.046 237.941 176.487 238.265C176.922 238.601 177.403 238.874 177.914 239.075Z" fill="white"/>
<path d="M191.956 251.309C191.623 250.875 191.23 250.49 190.788 250.166C190.353 249.83 189.873 249.557 189.362 249.355C189.697 249.79 190.093 250.175 190.537 250.499C190.97 250.833 191.448 251.106 191.956 251.309Z" fill="white"/>
<path d="M211.786 213.011C211.45 212.566 211.052 212.173 210.603 211.843C210.169 211.504 209.689 211.231 209.176 211.032C209.506 211.469 209.9 211.854 210.343 212.176C210.781 212.522 211.267 212.804 211.786 213.011Z" fill="white"/>
<path d="M192.548 222.01C191.865 221.149 190.971 220.479 189.953 220.064C190.286 220.498 190.679 220.883 191.121 221.207C191.556 221.54 192.037 221.81 192.548 222.01Z" fill="white"/>
<path d="M195.677 262.797C196.22 262.076 200.169 255.047 200.995 253.498C201.822 251.95 205.26 245.667 205.973 244.005C205.977 243.991 205.976 243.977 205.971 243.964C205.965 243.952 205.956 243.941 205.944 243.934C205.933 243.926 205.919 243.923 205.905 243.924C205.891 243.925 205.878 243.931 205.868 243.94C204.855 245.44 201.368 251.771 200.493 253.328C199.617 254.885 195.872 261.922 195.564 262.749C195.539 262.822 195.637 262.846 195.677 262.797Z" fill="#263238"/>
<path d="M210.894 243.907L210.359 244.799C210.359 244.799 210.286 244.896 210.359 244.799C210.432 244.702 210.724 244.037 210.724 244.037C207.238 243.226 203.768 242.359 200.339 241.297C199.909 241.159 199.479 241.021 199.05 240.859C198.589 240.704 198.148 240.494 197.736 240.235C197.702 240.208 197.669 240.178 197.639 240.146C197.588 240.085 197.547 240.017 197.517 239.943C197.487 239.818 197.487 239.687 197.517 239.562C197.558 239.448 197.607 239.319 197.655 239.213C197.704 239.108 197.85 238.792 197.947 238.589C198.15 238.184 198.369 237.778 198.58 237.389C199.439 235.768 200.331 234.244 201.247 232.695C203.103 229.614 204.952 226.534 206.873 223.509C208.689 220.64 210.578 217.397 212.483 214.591C212.597 214.421 212.889 214.267 212.54 214.883C210.789 218.021 209.208 220.729 207.4 223.801L201.936 233.076C201.028 234.625 200.104 236.157 199.236 237.722C199.017 238.111 198.798 238.532 198.596 238.897C198.49 239.092 198.401 239.286 198.304 239.481L198.223 239.7L198.166 239.659C198.171 239.678 198.171 239.697 198.166 239.716C198.166 239.716 198.166 239.789 198.166 239.765V239.708C198.504 239.899 198.857 240.065 199.22 240.202L200.469 240.664C202.147 241.273 203.857 241.816 205.576 242.343L210.894 243.907Z" fill="#263238"/>
<path d="M198.223 239.708V239.765C198.223 239.765 198.223 239.724 198.223 239.716C198.228 239.697 198.228 239.678 198.223 239.659V239.708Z" fill="#263238"/>
<path d="M212.005 218.653C212.248 218.467 212.224 218.653 212.111 218.759C211.486 219.569 210.53 220.421 209.832 221.134C209.015 221.982 208.143 222.776 207.222 223.51C207.941 222.575 208.718 221.687 209.549 220.85C210.315 220.061 211.136 219.327 212.005 218.653Z" fill="#263238"/>
<path d="M226.006 205.876C223.217 206.687 218.191 202.633 216.124 199.204C215.978 198.969 216.229 196.431 216.383 193.334C216.472 191.461 216.529 189.362 216.44 187.448C216.44 187.059 228.601 189.808 228.601 189.808C228.028 192.235 227.755 194.724 227.79 197.218C227.804 197.491 227.842 197.762 227.903 198.028C227.903 198.028 227.903 198.109 227.903 198.158C228.228 199.609 228.698 205.106 226.006 205.876Z" fill="#8B5421"/>
<path d="M217.186 187.465C217.891 190.707 220.275 198.401 226.687 198.247C227.098 198.243 227.508 198.202 227.912 198.126C227.917 198.083 227.917 198.039 227.912 197.996C227.852 197.729 227.811 197.458 227.79 197.185C227.758 194.691 228.03 192.203 228.601 189.775C228.601 189.775 219.812 187.821 217.186 187.465Z" fill="#263238"/>
<path d="M231.414 168.299C231.414 168.299 235.322 169.92 236.043 173.877C236.765 177.833 235.865 181.984 235.524 182.203C235.184 182.422 231.414 168.299 231.414 168.299Z" fill="#263238"/>
<path d="M214.981 173.309C213.845 177.614 216.602 189.832 219.691 192.459C224.239 196.269 231.438 196.374 234.616 190.967C237.697 185.73 233.879 169.888 230.401 167.504C225.277 164.01 216.659 166.945 214.981 173.309Z" fill="#8B5421"/>
<path d="M227.49 181.352C227.49 181.352 227.433 181.408 227.441 181.441C227.652 182.252 227.749 183.233 227.06 183.662C227.06 183.662 227.06 183.719 227.06 183.711C227.96 183.387 227.814 182.098 227.49 181.352Z" fill="#263238"/>
<path d="M226.566 180.654C225.22 180.841 225.698 183.524 226.947 183.346C228.195 183.168 227.701 180.5 226.566 180.654Z" fill="#263238"/>
<path d="M232.144 180.557C232.144 180.557 232.217 180.557 232.217 180.622C232.338 181.433 232.622 182.389 233.416 182.535V182.584C232.492 182.657 232.119 181.368 232.144 180.557Z" fill="#263238"/>
<path d="M232.727 179.56C234.049 179.219 234.624 181.879 233.408 182.195C232.192 182.511 231.625 179.844 232.727 179.56Z" fill="#263238"/>
<path d="M224.961 178.749C225.319 178.648 225.671 178.527 226.015 178.384C226.405 178.307 226.759 178.102 227.02 177.801C227.081 177.69 227.106 177.563 227.09 177.437C227.074 177.312 227.018 177.195 226.931 177.103C226.726 176.952 226.483 176.858 226.229 176.832C225.975 176.806 225.719 176.85 225.488 176.958C224.987 177.096 224.556 177.417 224.28 177.857C224.224 177.962 224.199 178.08 224.208 178.198C224.218 178.316 224.261 178.429 224.333 178.523C224.405 178.617 224.502 178.688 224.613 178.728C224.725 178.768 224.845 178.776 224.961 178.749Z" fill="#263238"/>
<path d="M233.611 177.387C233.239 177.378 232.869 177.348 232.5 177.298C232.104 177.322 231.71 177.213 231.382 176.99C231.292 176.9 231.234 176.783 231.218 176.657C231.202 176.53 231.228 176.402 231.292 176.293C231.452 176.095 231.662 175.943 231.9 175.853C232.138 175.763 232.396 175.739 232.646 175.782C233.167 175.795 233.666 175.997 234.049 176.349C234.13 176.436 234.185 176.545 234.206 176.663C234.227 176.78 234.214 176.901 234.167 177.011C234.121 177.121 234.044 177.215 233.945 177.281C233.846 177.348 233.73 177.385 233.611 177.387Z" fill="#263238"/>
<path d="M227.466 189.313C227.684 189.527 227.971 189.656 228.276 189.678C228.584 189.613 228.876 189.489 229.136 189.313C229.136 189.313 229.193 189.313 229.176 189.313C229.087 189.498 228.95 189.655 228.778 189.768C228.607 189.88 228.408 189.945 228.203 189.953C228.021 189.944 227.846 189.879 227.701 189.768C227.556 189.656 227.449 189.503 227.393 189.329C227.393 189.329 227.433 189.289 227.466 189.313Z" fill="#263238"/>
<path d="M227.904 186.711C228.171 187.003 228.497 187.236 228.86 187.395C229.223 187.554 229.615 187.636 230.011 187.635C230.356 187.64 230.7 187.597 231.033 187.505L231.228 187.448L231.406 187.392C231.448 187.373 231.483 187.342 231.506 187.303C231.529 187.264 231.539 187.218 231.536 187.173C231.538 187.146 231.538 187.119 231.536 187.092V187.019C231.446 186.378 231.211 185.397 231.211 185.397C231.463 185.478 232.752 185.803 232.671 185.47C232.088 182.589 231.214 179.775 230.06 177.071C230.05 177.057 230.036 177.047 230.019 177.042C230.003 177.037 229.986 177.037 229.97 177.043C229.953 177.048 229.939 177.058 229.929 177.072C229.92 177.086 229.914 177.103 229.914 177.12C230.441 179.771 231.422 182.316 231.998 184.976C231.538 184.851 231.063 184.794 230.587 184.805C230.506 184.846 231.073 186.654 231.09 186.946C230.576 187.091 230.038 187.13 229.509 187.062C228.979 186.994 228.469 186.819 228.009 186.548C227.895 186.548 227.839 186.613 227.904 186.711Z" fill="#263238"/>
<path d="M230.603 187.205C230.334 187.725 229.935 188.166 229.444 188.486C229.171 188.65 228.854 188.726 228.536 188.705C227.847 188.648 227.725 188.04 227.725 187.497C227.744 187.208 227.796 186.923 227.879 186.646C228.703 187.122 229.659 187.318 230.603 187.205Z" fill="#263238"/>
<path d="M229.444 188.486C229.171 188.65 228.854 188.726 228.536 188.705C227.847 188.648 227.725 188.04 227.725 187.497C228.081 187.448 228.442 187.519 228.753 187.698C229.064 187.877 229.307 188.154 229.444 188.486Z" fill="#8B5421"/>
<path d="M216.586 184.895C218.029 185.089 218.921 180.703 219.099 179.049C219.261 177.59 218.977 173.082 218.994 172.774C219.01 172.466 225.617 175.693 228.901 174.112C232.184 172.531 233.976 169.045 233.765 167.626C233.554 166.207 228.674 163.216 224.928 163.645C221.183 164.075 216.959 169.62 216.959 169.62C217.447 168.843 217.875 168.03 218.24 167.188C218.15 167.026 215.913 168.388 215.759 170.164C215.759 170.164 215.872 167.942 215.686 167.934C215.499 167.926 213.943 170.074 214.591 171.388C214.591 171.388 212.751 173.617 212.897 175.693C213.043 177.768 214.899 184.668 216.586 184.895Z" fill="#263238"/>
<path d="M231.228 172.977C230.301 173.703 229.267 174.281 228.163 174.688C226.91 175.008 225.597 175.008 224.344 174.688C223.081 174.427 221.87 173.959 220.761 173.301C219.772 172.734 218.864 172.004 217.842 171.526C217.583 171.404 217.372 171.785 217.551 171.972C219.451 173.883 221.915 175.134 224.58 175.539C225.818 175.728 227.084 175.592 228.254 175.144C229.423 174.697 230.457 173.953 231.252 172.985C231.252 172.985 231.244 172.969 231.228 172.977Z" fill="#263238"/>
<path d="M217.988 183.233C217.988 183.233 214.981 179.422 213.237 180.517C211.494 181.611 213.918 187.254 216.075 187.919C216.347 188.022 216.637 188.07 216.928 188.059C217.219 188.048 217.505 187.978 217.768 187.854C218.032 187.73 218.268 187.554 218.461 187.336C218.655 187.119 218.803 186.865 218.896 186.589L217.988 183.233Z" fill="#8B5421"/>
<path d="M213.967 182.114C213.967 182.114 213.967 182.162 213.967 182.171C215.491 182.689 216.351 184.019 216.983 185.413C216.888 185.27 216.763 185.148 216.616 185.058C216.469 184.967 216.305 184.91 216.134 184.889C215.962 184.868 215.789 184.885 215.625 184.937C215.461 184.99 215.31 185.078 215.183 185.195C215.183 185.195 215.183 185.284 215.232 185.267C215.488 185.17 215.768 185.155 216.034 185.223C216.3 185.291 216.538 185.44 216.715 185.649C217.01 185.998 217.265 186.379 217.478 186.784C217.559 186.913 217.794 186.832 217.737 186.678C217.64 184.749 216.01 182.187 213.967 182.114Z" fill="#263238"/>
<path d="M214.656 200.104C215.985 201.722 217.403 203.265 218.904 204.725C220.282 206.154 222.085 207.098 224.044 207.417C225.95 207.587 227.855 207.198 228.552 204.871C229.047 202.868 229.094 200.781 228.69 198.758C228.686 198.747 228.685 198.735 228.687 198.724C228.688 198.712 228.693 198.701 228.699 198.692C228.706 198.682 228.715 198.674 228.725 198.669C228.736 198.664 228.747 198.661 228.759 198.661C228.77 198.661 228.782 198.664 228.792 198.669C228.803 198.674 228.812 198.682 228.818 198.692C228.825 198.701 228.829 198.712 228.831 198.724C228.833 198.735 228.832 198.747 228.828 198.758C229.266 201.798 229.72 206.517 226.955 207.571C223.858 208.754 220.818 207.157 218.637 205.017C217.11 203.55 215.751 201.919 214.583 200.152C214.608 200.112 214.656 200.071 214.656 200.104Z" fill="#263238"/>
</svg>
