<svg width="432" height="337" viewBox="0 0 432 337" fill="none" xmlns="http://www.w3.org/2000/svg">
<path d="M401.715 230.828C408.582 163.133 303.437 18.115 232.966 89.8766C195.871 127.651 105.614 171.581 39.3504 194.071C-25.0819 215.939 108.035 324.872 208.099 335.022C308.164 345.172 394.848 298.523 401.715 230.828Z" fill="#FFF4F2"/>
<path d="M70.32 281.319C74.1807 281.319 74.1871 275.319 70.32 275.319C66.4593 275.319 66.4529 281.319 70.32 281.319Z" fill="#FFA574"/>
<path d="M34.6911 143.78C38.5518 143.78 38.5582 137.78 34.6911 137.78C30.8304 137.78 30.824 143.78 34.6911 143.78Z" fill="#FFA574"/>
<path d="M95.58 57.1501C99.4407 57.1501 99.4471 51.1501 95.58 51.1501C91.7193 51.1501 91.7129 57.1501 95.58 57.1501Z" fill="#FFA574"/>
<path d="M95.58 57.1501C99.4407 57.1501 99.4471 51.1501 95.58 51.1501C91.7193 51.1501 91.7129 57.1501 95.58 57.1501Z" fill="#FFA574"/>
<path d="M18.72 277.894C22.5807 277.894 22.5871 271.894 18.72 271.894C14.8593 271.894 14.8529 277.894 18.72 277.894Z" fill="#FFA574"/>
<path d="M205.228 6C209.089 6 209.096 0 205.228 0C201.368 0 201.361 6 205.228 6Z" fill="#FFA574"/>
<path d="M166.86 236.43C170.721 236.43 170.727 230.43 166.86 230.43C162.999 230.43 162.993 236.43 166.86 236.43Z" fill="#FFA574"/>
<path d="M64.26 119.79C68.1207 119.79 68.1271 113.79 64.26 113.79C60.3993 113.79 60.3929 119.79 64.26 119.79Z" fill="#FFA574"/>
<path d="M90.8811 310.474C94.7418 310.474 94.7482 304.474 90.8811 304.474C87.0204 304.474 87.014 310.474 90.8811 310.474Z" fill="#FFA574"/>
<path d="M300.417 284.032C304.278 284.032 304.284 278.032 300.417 278.032C296.556 278.032 296.55 284.032 300.417 284.032Z" fill="#FFA574"/>
<path d="M311.58 49.5902C315.441 49.5902 315.447 43.5902 311.58 43.5902C307.719 43.5902 307.713 49.5902 311.58 49.5902Z" fill="#FFA574"/>
<path d="M390.649 236.43C394.51 236.43 394.516 230.43 390.649 230.43C386.788 230.43 386.782 236.43 390.649 236.43Z" fill="#FFA574"/>
<path d="M81.5343 238.419C81.9231 238.405 82.2915 238.241 82.5618 237.961C82.8321 237.682 82.9832 237.308 82.9832 236.919C82.9832 236.53 82.8321 236.156 82.5618 235.876C82.2915 235.596 81.9231 235.432 81.5343 235.419C81.1454 235.432 80.777 235.596 80.5067 235.876C80.2364 236.156 80.0853 236.53 80.0853 236.919C80.0853 237.308 80.2364 237.682 80.5067 237.961C80.777 238.241 81.1454 238.405 81.5343 238.419Z" fill="#FFA574"/>
<path d="M272.694 19.1787C273.083 19.1652 273.452 19.0013 273.722 18.7215C273.992 18.4416 274.143 18.0678 274.143 17.6787C274.143 17.2896 273.992 16.9158 273.722 16.636C273.452 16.3561 273.083 16.1922 272.694 16.1787C272.305 16.1922 271.937 16.3561 271.667 16.636C271.396 16.9158 271.245 17.2896 271.245 17.6787C271.245 18.0678 271.396 18.4416 271.667 18.7215C271.937 19.0013 272.305 19.1652 272.694 19.1787Z" fill="#FFA574"/>
<path d="M224.155 119.137C224.544 119.123 224.913 118.96 225.183 118.68C225.453 118.4 225.604 118.026 225.604 117.637C225.604 117.248 225.453 116.874 225.183 116.594C224.913 116.314 224.544 116.15 224.155 116.137C223.767 116.15 223.398 116.314 223.128 116.594C222.858 116.874 222.707 117.248 222.707 117.637C222.707 118.026 222.858 118.4 223.128 118.68C223.398 118.96 223.767 119.123 224.155 119.137Z" fill="#FFA574"/>
<path d="M248.934 244.899C249.323 244.885 249.692 244.721 249.962 244.441C250.232 244.162 250.383 243.788 250.383 243.399C250.383 243.01 250.232 242.636 249.962 242.356C249.692 242.076 249.323 241.912 248.934 241.899C248.545 241.912 248.177 242.076 247.907 242.356C247.636 242.636 247.485 243.01 247.485 243.399C247.485 243.788 247.636 244.162 247.907 244.441C248.177 244.721 248.545 244.885 248.934 244.899Z" fill="#FFA574"/>
<path d="M192.774 323.739C193.163 323.725 193.532 323.561 193.802 323.282C194.072 323.002 194.223 322.628 194.223 322.239C194.223 321.85 194.072 321.476 193.802 321.196C193.532 320.916 193.163 320.752 192.774 320.739C192.385 320.752 192.017 320.916 191.747 321.196C191.476 321.476 191.325 321.85 191.325 322.239C191.325 322.628 191.476 323.002 191.747 323.282C192.017 323.561 192.385 323.725 192.774 323.739Z" fill="#FFA574"/>
<path d="M364.494 321.579C364.883 321.565 365.252 321.401 365.522 321.122C365.792 320.842 365.943 320.468 365.943 320.079C365.943 319.69 365.792 319.316 365.522 319.036C365.252 318.756 364.883 318.592 364.494 318.579C364.106 318.592 363.737 318.756 363.467 319.036C363.196 319.316 363.045 319.69 363.045 320.079C363.045 320.468 363.196 320.842 363.467 321.122C363.737 321.401 364.106 321.565 364.494 321.579Z" fill="#FFA574"/>
<path d="M226.254 177.939C226.643 177.925 227.012 177.761 227.282 177.481C227.552 177.202 227.703 176.828 227.703 176.439C227.703 176.05 227.552 175.676 227.282 175.396C227.012 175.116 226.643 174.952 226.254 174.939C225.865 174.952 225.497 175.116 225.227 175.396C224.956 175.676 224.805 176.05 224.805 176.439C224.805 176.828 224.956 177.202 225.227 177.481C225.497 177.761 225.865 177.925 226.254 177.939Z" fill="#FFA574"/>
<path d="M139.145 13.1982C139.534 13.1848 139.902 13.0208 140.172 12.741C140.443 12.4612 140.594 12.0873 140.594 11.6982C140.594 11.3092 140.443 10.9353 140.172 10.6555C139.902 10.3756 139.534 10.2117 139.145 10.1982C138.756 10.2117 138.388 10.3756 138.117 10.6555C137.847 10.9353 137.696 11.3092 137.696 11.6982C137.696 12.0873 137.847 12.4612 138.117 12.741C138.388 13.0208 138.756 13.1848 139.145 13.1982Z" fill="#FFD1CA"/>
<path d="M37.589 211.814C37.9778 211.801 38.3462 211.637 38.6166 211.357C38.8869 211.077 39.0379 210.704 39.0379 210.314C39.0379 209.925 38.8869 209.552 38.6166 209.272C38.3462 208.992 37.9778 208.828 37.589 208.814C37.2002 208.828 36.8318 208.992 36.5615 209.272C36.2912 209.552 36.1401 209.925 36.1401 210.314C36.1401 210.704 36.2912 211.077 36.5615 211.357C36.8318 211.637 37.2002 211.801 37.589 211.814Z" fill="#FFD1CA"/>
<path d="M221.807 47.3752C222.196 47.3618 222.564 47.1978 222.835 46.918C223.105 46.6382 223.256 46.2643 223.256 45.8752C223.256 45.4862 223.105 45.1123 222.835 44.8325C222.564 44.5527 222.196 44.3887 221.807 44.3752C221.418 44.3887 221.05 44.5527 220.78 44.8325C220.509 45.1123 220.358 45.4862 220.358 45.8752C220.358 46.2643 220.509 46.6382 220.78 46.918C221.05 47.1978 221.418 47.3618 221.807 47.3752Z" fill="#FFD1CA"/>
<path d="M393.547 60.4457C393.936 60.4322 394.304 60.2683 394.575 59.9884C394.845 59.7086 394.996 59.3347 394.996 58.9457C394.996 58.5566 394.845 58.1828 394.575 57.9029C394.304 57.6231 393.936 57.4592 393.547 57.4457C393.158 57.4592 392.79 57.6231 392.52 57.9029C392.249 58.1828 392.098 58.5566 392.098 58.9457C392.098 59.3347 392.249 59.7086 392.52 59.9884C392.79 60.2683 393.158 60.4322 393.547 60.4457Z" fill="#FFD1CA"/>
<path d="M147.071 223.674C147.46 223.661 147.828 223.497 148.099 223.217C148.369 222.937 148.52 222.563 148.52 222.174C148.52 221.785 148.369 221.411 148.099 221.132C147.828 220.852 147.46 220.688 147.071 220.674C146.682 220.688 146.314 220.852 146.044 221.132C145.773 221.411 145.622 221.785 145.622 222.174C145.622 222.563 145.773 222.937 146.044 223.217C146.314 223.497 146.682 223.661 147.071 223.674Z" fill="#FFD1CA"/>
<path d="M308.029 201.897C308.418 201.883 308.786 201.719 309.057 201.439C309.327 201.16 309.478 200.786 309.478 200.397C309.478 200.008 309.327 199.634 309.057 199.354C308.786 199.074 308.418 198.91 308.029 198.897C307.64 198.91 307.272 199.074 307.001 199.354C306.731 199.634 306.58 200.008 306.58 200.397C306.58 200.786 306.731 201.16 307.001 201.439C307.272 201.719 307.64 201.883 308.029 201.897Z" fill="#FFD1CA"/>
<path d="M336.96 14.7345C337.349 14.721 337.717 14.5571 337.988 14.2773C338.258 13.9974 338.409 13.6236 338.409 13.2345C338.409 12.8454 338.258 12.4716 337.988 12.1917C337.717 11.9119 337.349 11.748 336.96 11.7345C336.571 11.748 336.203 11.9119 335.932 12.1917C335.662 12.4716 335.511 12.8454 335.511 13.2345C335.511 13.6236 335.662 13.9974 335.932 14.2773C336.203 14.5571 336.571 14.721 336.96 14.7345Z" fill="#FFD1CA"/>
<path d="M391.444 292.132C391.833 292.119 392.201 291.955 392.471 291.675C392.742 291.395 392.893 291.021 392.893 290.632C392.893 290.243 392.742 289.869 392.471 289.589C392.201 289.31 391.833 289.146 391.444 289.132C391.055 289.146 390.687 289.31 390.416 289.589C390.146 289.869 389.995 290.243 389.995 290.632C389.995 291.021 390.146 291.395 390.416 291.675C390.687 291.955 391.055 292.119 391.444 292.132Z" fill="#FFD1CA"/>
<path d="M176.902 46.9215V55.2318L172.664 57.049C172.664 57.049 174.031 78.0718 184.111 72.5518C194.191 67.0318 196.904 57.769 194.744 57.049L191.723 55.2318L191.357 47.3243L176.902 46.9215Z" fill="#FED4C0"/>
<path d="M290.248 88.1849L256.018 93.4542C254.469 93.6942 252.886 93.5822 251.387 93.1264C249.887 92.6707 248.509 91.8829 247.356 90.8216C230.871 75.6129 219.985 68.0086 213.367 64.2125C213.362 64.21 213.358 64.2047 213.352 64.2027L213.346 64.2003C207.417 60.8011 194.872 56.5153 194.872 56.5153L194.999 57.1549L194.744 57.0489C182.984 81.5289 172.664 57.0489 172.664 57.0489C172.664 57.0489 160.119 61.3348 154.19 64.734L154.184 64.7364C154.178 64.7384 154.174 64.7438 154.169 64.7462C147.551 68.5424 136.665 76.1466 120.18 91.3553C119.027 92.4166 117.649 93.2044 116.149 93.6601C114.65 94.1159 113.067 94.2279 111.518 93.9879L77.288 88.7186L70.4524 106.118L109.956 116.679C112.772 117.432 115.718 117.568 118.593 117.08C121.467 116.591 124.202 115.489 126.612 113.847L152.052 96.5181L152.162 96.1483C152.685 115.542 154.184 136.729 154.184 136.729L154.664 146.329H212.744L212.77 145.795H212.872L213.352 136.195C213.352 136.195 214.851 115.009 215.374 95.6146L215.484 95.9844L240.924 113.314C243.334 114.955 246.069 116.057 248.943 116.546C251.818 117.035 254.764 116.898 257.58 116.145L297.084 105.585L290.248 88.1849Z" fill="#FABB05"/>
<path d="M198.511 28.6718C198.511 16.8086 192.171 7.19165 184.351 7.19165C176.53 7.19165 170.191 16.8086 170.191 28.6718L170.191 28.6808C170.16 28.6801 170.132 28.6718 170.101 28.6718C169.481 28.6692 168.866 28.7891 168.292 29.0247C167.719 29.2602 167.197 29.6068 166.758 30.0444C166.318 30.482 165.97 31.0021 165.732 31.5748C165.494 32.1475 165.371 32.7616 165.371 33.3817C165.371 34.0019 165.494 34.6159 165.732 35.1886C165.97 35.7614 166.318 36.2814 166.758 36.719C167.197 37.1567 167.719 37.5032 168.292 37.7387C168.866 37.9743 169.481 38.0942 170.101 38.0917C170.597 38.0853 171.09 37.9996 171.559 37.8379C173.828 45.1095 178.695 50.1517 184.351 50.1517C190 50.1517 194.862 45.1212 197.134 37.8634C197.579 38.0082 198.043 38.0851 198.511 38.0917C199.757 38.0865 200.95 37.5881 201.829 36.7053C202.708 35.8226 203.201 34.6275 203.201 33.3817C203.201 32.1359 202.708 30.9408 201.829 30.0581C200.95 29.1754 199.757 28.6769 198.511 28.6718Z" fill="#FED4C0"/>
<path d="M171.751 32.8718C171.751 32.8718 170.911 16.3118 176.791 12.7118C176.791 12.7118 178.951 9.9518 185.071 16.4318C191.191 22.9118 197.139 19.4389 197.139 19.4389C197.139 19.4389 198.631 30.5918 197.671 32.8718C197.671 32.8718 206.311 18.1118 196.831 10.5518C187.351 2.9918 182.191 5.6318 174.631 10.5518C174.631 10.5518 160.471 12.2318 171.751 32.8718Z" fill="#200100"/>
<path d="M183.455 29.797C183.437 30.5416 183.365 31.2521 183.299 31.9542C183.223 32.6349 183.182 33.3191 183.176 34.004C183.169 34.6656 183.29 35.2828 183.643 35.4308C184.29 35.5224 184.95 35.4417 185.555 35.1969C185.303 35.4782 185.008 35.7185 184.682 35.9093C184.316 36.1443 183.88 36.2426 183.449 36.1866C183.204 36.1297 182.978 36.0117 182.792 35.8437C182.606 35.6758 182.465 35.4633 182.383 35.2262C182.247 34.8373 182.177 34.4282 182.177 34.0162C182.186 33.264 182.307 32.5172 182.536 31.8009C182.745 31.0921 183.054 30.4172 183.455 29.797Z" fill="#200100"/>
<path d="M173.449 26.5638C173.449 26.5638 176.788 22.9896 180.713 25.928L173.449 26.5638Z" fill="#200100"/>
<path d="M186.27 26.2546C186.27 26.2546 189.753 22.8206 193.553 25.918L186.27 26.2546Z" fill="#200100"/>
<path d="M177.995 32.0771C178.559 32.0771 179.015 31.3921 179.015 30.5471C179.015 29.7021 178.559 29.0171 177.995 29.0171C177.432 29.0171 176.975 29.7021 176.975 30.5471C176.975 31.3921 177.432 32.0771 177.995 32.0771Z" fill="#200100"/>
<path d="M189.635 31.6572C190.199 31.6572 190.655 30.9722 190.655 30.1272C190.655 29.2822 190.199 28.5972 189.635 28.5972C189.072 28.5972 188.615 29.2822 188.615 30.1272C188.615 30.9722 189.072 31.6572 189.635 31.6572Z" fill="#200100"/>
<path d="M167.135 34.277C167.106 33.852 167.211 33.4285 167.434 33.0661C167.663 32.6699 168.012 32.3574 168.431 32.1745C168.652 32.0804 168.89 32.0336 169.13 32.037C169.371 32.0405 169.608 32.0941 169.826 32.1945C170.227 32.3678 170.55 32.6818 170.735 33.0773C170.301 33.0319 169.953 32.9459 169.633 32.9503C169.351 32.9325 169.069 32.9834 168.811 33.0987C168.205 33.4189 167.642 33.8148 167.135 34.277Z" fill="#200100"/>
<path d="M201.735 34.2769C201.229 33.8148 200.666 33.4189 200.059 33.0987C199.801 32.9834 199.519 32.9325 199.237 32.9503C198.918 32.9459 198.57 33.0318 198.135 33.0773C198.32 32.6818 198.644 32.3678 199.045 32.1945C199.263 32.0941 199.5 32.0405 199.74 32.037C199.98 32.0336 200.218 32.0804 200.44 32.1745C200.859 32.3574 201.208 32.6699 201.436 33.0661C201.66 33.4285 201.765 33.852 201.735 34.2769Z" fill="#200100"/>
<path d="M177.394 47.3722C179.374 48.6618 181.653 49.4176 184.011 49.566C185.164 49.621 186.319 49.4813 187.426 49.153C187.994 48.997 188.552 48.8051 189.096 48.5783C189.652 48.359 190.17 48.0568 190.748 47.8268C190.303 48.2533 189.83 48.6486 189.331 49.0099C188.812 49.359 188.26 49.654 187.682 49.8903C186.511 50.392 185.242 50.6225 183.97 50.5646C182.701 50.5132 181.456 50.1963 180.317 49.6344C179.193 49.0971 178.196 48.3258 177.394 47.3722Z" fill="#200100"/>
<path d="M176.723 38.0989C177.112 38.0854 177.48 37.9215 177.75 37.6416C178.021 37.3618 178.172 36.9879 178.172 36.5989C178.172 36.2098 178.021 35.836 177.75 35.5561C177.48 35.2763 177.112 35.1123 176.723 35.0989C176.334 35.1123 175.966 35.2763 175.695 35.5561C175.425 35.836 175.274 36.2098 175.274 36.5989C175.274 36.9879 175.425 37.3618 175.695 37.6416C175.966 37.9215 176.334 38.0854 176.723 38.0989Z" fill="#602922"/>
<path d="M191.723 37.1388C192.112 37.1253 192.48 36.9614 192.75 36.6816C193.021 36.4017 193.172 36.0279 193.172 35.6388C193.172 35.2497 193.021 34.8759 192.75 34.596C192.48 34.3162 192.112 34.1523 191.723 34.1388C191.334 34.1523 190.966 34.3162 190.695 34.596C190.425 34.8759 190.274 35.2497 190.274 35.6388C190.274 36.0279 190.425 36.4017 190.695 36.6816C190.966 36.9614 191.334 37.1253 191.723 37.1388Z" fill="#602922"/>
<path d="M179.847 41.1038C179.847 41.1038 184.796 46.834 189.083 39.5258L179.847 41.1038Z" fill="#200100"/>
<path d="M156.344 146.329V311.449H178.424L181.304 167.449H187.064L198.104 311.449H220.184L210.584 146.329H156.344Z" fill="#FA81A2"/>
<path d="M202.904 317.209C202.904 317.209 196.904 334.009 201.944 336.409H206.984C206.984 336.409 209.384 329.689 212.744 336.409H243.464C243.464 336.409 245.384 331.129 237.944 328.729C230.504 326.329 218.024 317.209 218.024 317.209H202.904Z" fill="#2C66BF"/>
<path d="M201.944 311.449L202.904 317.209H218.024V311.449H201.944Z" fill="#FED4C0"/>
<path d="M174.711 317.209C174.711 317.209 180.711 334.009 175.671 336.409H170.631C170.631 336.409 168.231 329.689 164.871 336.409H134.151C134.151 336.409 132.231 331.129 139.671 328.729C147.111 326.329 159.591 317.209 159.591 317.209H174.711Z" fill="#2C66BF"/>
<path d="M175.671 311.449L174.711 317.209H159.591V311.449H175.671Z" fill="#FED4C0"/>
<path d="M189.053 167.038C187.447 167.39 185.806 167.558 184.163 167.537C182.519 167.56 180.878 167.393 179.273 167.038C180.878 166.683 182.519 166.515 184.163 166.538C185.806 166.517 187.447 166.685 189.053 167.038Z" fill="#E06C96"/>
<path d="M155.847 117.637C156.067 119.166 156.408 120.676 156.865 122.152C157.067 122.895 157.343 123.614 157.577 124.344L158.452 126.47C159.692 129.262 161.36 131.844 163.395 134.123C165.408 136.417 167.791 138.358 170.444 139.865C171.762 140.652 173.138 141.334 174.562 141.906C175.971 142.528 177.474 142.901 178.931 143.459C178.173 143.302 177.415 143.135 176.656 142.957L175.516 142.694L174.944 142.563L174.393 142.367C172.907 141.873 171.462 141.262 170.073 140.539C167.251 139.116 164.73 137.163 162.647 134.785C160.543 132.43 158.882 129.714 157.746 126.767C156.585 123.858 155.942 120.768 155.847 117.637Z" fill="#EDA606"/>
<path d="M162.751 120.316C163.284 121.766 163.931 123.172 164.685 124.521C165.036 125.205 165.456 125.852 165.837 126.517L167.134 128.415C168.927 130.889 171.095 133.068 173.559 134.874C176.004 136.7 178.738 138.104 181.647 139.027C183.099 139.523 184.587 139.905 186.099 140.169C187.606 140.484 189.154 140.536 190.695 140.78C189.921 140.784 189.144 140.778 188.365 140.762L187.195 140.742L186.609 140.732L186.029 140.654C184.473 140.481 182.932 140.183 181.423 139.763C178.367 138.958 175.495 137.571 172.965 135.678C170.417 133.811 168.229 131.498 166.505 128.852C164.765 126.247 163.494 123.358 162.751 120.316Z" fill="#EDA606"/>
<path d="M205.228 80.2617H188.264V101.422H205.228V80.2617Z" fill="#EDA606"/>
<path d="M351.718 46.8986V56.2088L355.549 57.0488C355.549 57.0488 354.589 78.0488 344.509 72.5288C334.429 67.0088 331.309 57.7688 333.469 57.0488L336.829 55.9688L337.262 47.3014L351.718 46.8986Z" fill="#B86A4B"/>
<path d="M330.109 28.6489C330.109 16.7858 336.449 7.16882 344.269 7.16882C352.089 7.16882 358.429 16.7858 358.429 28.6489L358.429 28.6579C358.459 28.6573 358.488 28.6489 358.519 28.6489C359.139 28.6464 359.754 28.7663 360.327 29.0019C360.901 29.2374 361.423 29.5839 361.862 30.0216C362.301 30.4592 362.65 30.9793 362.888 31.552C363.126 32.1247 363.248 32.7387 363.248 33.3589C363.248 33.979 363.126 34.5931 362.888 35.1658C362.65 35.7385 362.301 36.2586 361.862 36.6962C361.423 37.1338 360.901 37.4804 360.327 37.7159C359.754 37.9515 359.139 38.0714 358.519 38.0688C358.022 38.0625 357.53 37.9768 357.06 37.8151C354.792 45.0867 349.925 50.1289 344.269 50.1289C338.62 50.1289 333.758 45.0984 331.486 37.8406C331.041 37.9853 330.577 38.0623 330.109 38.0688C329.489 38.0714 328.874 37.9515 328.301 37.7159C327.727 37.4804 327.205 37.1338 326.766 36.6962C326.327 36.2586 325.978 35.7385 325.74 35.1658C325.502 34.5931 325.38 33.979 325.38 33.3589C325.38 32.7387 325.502 32.1247 325.74 31.552C325.978 30.9793 326.327 30.4592 326.766 30.0216C327.205 29.5839 327.727 29.2374 328.301 29.0019C328.874 28.7663 329.489 28.6464 330.109 28.6489Z" fill="#B86A4B"/>
<path d="M356.869 32.8488C356.869 32.8488 357.709 16.2888 351.829 12.6888C351.829 12.6888 349.669 9.92885 343.549 16.4088C337.429 22.8888 331.481 19.4159 331.481 19.4159C331.481 19.4159 329.989 30.5688 330.949 32.8488C330.949 32.8488 322.309 18.0888 331.789 10.5288C341.269 2.96885 346.429 5.60885 353.989 10.5288C353.989 10.5288 368.149 12.2088 356.869 32.8488Z" fill="#200100"/>
<path d="M345.164 29.774C345.566 30.3943 345.875 31.0692 346.083 31.7779C346.313 32.4943 346.434 33.241 346.443 33.9933C346.443 34.4053 346.373 34.8144 346.237 35.2033C346.155 35.4404 346.014 35.6529 345.828 35.8208C345.641 35.9888 345.415 36.1068 345.171 36.1637C344.74 36.2197 344.303 36.1214 343.938 35.8864C343.612 35.6956 343.317 35.4553 343.064 35.174C343.67 35.4188 344.33 35.4995 344.976 35.4079C345.33 35.2599 345.451 34.6427 345.443 33.9811C345.438 33.2962 345.397 32.612 345.321 31.9313C345.255 31.2291 345.182 30.5187 345.164 29.774Z" fill="#200100"/>
<path d="M355.185 24.9562C355.185 24.9562 350.668 23.0819 348.309 27.3799L355.185 24.9562Z" fill="#200100"/>
<path d="M341.807 27.5963C341.807 27.5963 339.911 23.0873 335.212 24.4858L341.807 27.5963Z" fill="#200100"/>
<path d="M350.624 32.0543C351.188 32.0543 351.645 31.3693 351.645 30.5243C351.645 29.6793 351.188 28.9943 350.624 28.9943C350.061 28.9943 349.604 29.6793 349.604 30.5243C349.604 31.3693 350.061 32.0543 350.624 32.0543Z" fill="#200100"/>
<path d="M338.984 31.6342C339.548 31.6342 340.004 30.9492 340.004 30.1042C340.004 29.2592 339.548 28.5742 338.984 28.5742C338.421 28.5742 337.964 29.2592 337.964 30.1042C337.964 30.9492 338.421 31.6342 338.984 31.6342Z" fill="#200100"/>
<path d="M361.484 34.2541C360.978 33.792 360.415 33.396 359.808 33.0759C359.551 32.9606 359.269 32.9096 358.987 32.9275C358.667 32.9231 358.319 33.009 357.884 33.0545C358.07 32.659 358.393 32.3449 358.794 32.1717C359.012 32.0713 359.249 32.0177 359.489 32.0142C359.729 32.0108 359.968 32.0576 360.189 32.1517C360.608 32.3346 360.957 32.6471 361.185 33.0432C361.409 33.4057 361.514 33.8292 361.484 34.2541Z" fill="#200100"/>
<path d="M326.884 34.2541C326.855 33.8291 326.96 33.4056 327.184 33.0431C327.412 32.647 327.761 32.3344 328.18 32.1515C328.401 32.0575 328.64 32.0106 328.88 32.0141C329.12 32.0175 329.357 32.0712 329.575 32.1715C329.976 32.3448 330.299 32.6588 330.484 33.0543C330.05 33.0089 329.702 32.923 329.382 32.9273C329.1 32.9095 328.818 32.9604 328.56 33.0758C327.954 33.3959 327.391 33.7919 326.884 34.2541Z" fill="#200100"/>
<path d="M351.226 47.3492C350.423 48.3028 349.427 49.0743 348.302 49.6119C347.163 50.1735 345.919 50.4901 344.65 50.5416C343.377 50.5998 342.108 50.3693 340.938 49.8673C340.36 49.631 339.807 49.336 339.289 48.9869C338.79 48.6257 338.316 48.2304 337.872 47.8038C338.45 48.0338 338.968 48.3361 339.523 48.5553C340.067 48.7821 340.625 48.9741 341.194 49.13C342.301 49.4584 343.455 49.598 344.609 49.5431C346.967 49.3946 349.246 48.6389 351.226 47.3492Z" fill="#200100"/>
<path d="M348.729 39.4185C348.729 39.4185 345.948 45.7185 340.368 40.4985L348.729 39.4185Z" fill="#200100"/>
<path d="M393.386 160.587L397.183 182.784C397.387 183.974 397.343 185.194 397.053 186.366C396.764 187.538 396.236 188.638 395.502 189.597L387.888 199.544C387.685 199.81 387.424 200.024 387.125 200.172C386.825 200.32 386.496 200.397 386.162 200.397C385.586 200.397 385.033 200.168 384.626 199.76C384.218 199.353 383.989 198.8 383.989 198.224C383.989 197.085 384.369 195.979 385.069 195.081L390.909 187.583C390.909 187.583 390.14 177.331 389.969 178.869L386.942 183.805C386.803 184.032 386.608 184.221 386.376 184.353C386.144 184.485 385.882 184.556 385.615 184.559C385.349 184.563 385.085 184.499 384.85 184.373C384.614 184.248 384.415 184.064 384.269 183.841C384.083 183.563 383.99 183.232 384.005 182.898C384.081 181.663 384.429 180.461 385.026 179.377L385.869 177.844C385.869 177.844 383.989 166.397 386.381 160.587L393.386 160.587Z" fill="#B86A4B"/>
<path d="M342.947 76.8934L345.489 85.4581L317.735 121.923C313.427 127.707 305.317 127.429 301.709 120.156C301.709 120.156 301.435 114.853 302.158 113.293C305.407 106.279 308.948 105.405 314.567 100.692L342.947 76.8934Z" fill="#8C4D3E"/>
<path d="M343.947 77.8934L346.489 86.4581L318.735 122.923C314.427 128.707 306.317 128.429 302.709 121.156C302.709 121.156 302.435 115.853 303.158 114.293C306.407 107.279 309.948 106.405 315.567 101.692L343.947 77.8934Z" fill="#8C4D3E"/>
<path d="M279.926 100.296C279.926 100.296 279.733 96.4476 273.74 90.422C267.746 84.3964 262.387 80.2933 265.531 85.3933L267.991 89.24C267.991 89.24 261.591 86.8455 257.904 85.0851C256.933 84.6027 255.833 84.4448 254.766 84.6347C253.699 84.8245 252.721 85.352 251.976 86.1395C250.612 87.6458 250.673 89.274 254.518 92.1187C260.268 96.3734 269.173 102.849 270.9 103.484C271.499 103.704 279.926 100.296 279.926 100.296Z" fill="#B86A4B"/>
<path d="M315.709 146.329H373.549L374.029 136.729L382.189 169.849L397.309 167.449C393.154 118.627 383.504 87.0399 378.449 73.2274C377.537 70.7407 376.12 68.4701 374.286 66.5593C372.452 64.6485 370.242 63.1391 367.795 62.1264L355.549 57.0488C355.549 57.0488 345.229 81.5288 333.469 57.0488L321.223 62.1264C316.275 64.178 309.87 68.0607 308.029 73.0909C305.74 79.3446 301.448 93.0675 298.203 99.4144C297.99 99.8308 297.689 100.195 297.319 100.483C296.95 100.77 296.522 100.972 296.066 101.076C295.61 101.18 295.137 101.182 294.679 101.083C294.222 100.985 293.792 100.786 293.42 100.503L275.236 89.6537L268.237 103.165L291.41 122.412C294.483 124.527 298.263 125.35 301.936 124.705C305.61 124.059 308.883 121.997 311.051 118.962L314.989 113.449L315.469 146.329H373.309" fill="#4285F4"/>
<path d="M271.739 90.9948C271.059 90.8448 270.4 90.6138 269.775 90.3068C269.145 90.0128 268.548 89.6553 267.991 89.2399C268.344 89.2708 268.692 89.3431 269.028 89.4552C269.36 89.5587 269.684 89.6861 269.998 89.8366C270.635 90.131 271.222 90.5216 271.739 90.9948Z" fill="#160B07"/>
<path d="M262.925 89.9201C262.114 89.6576 261.319 89.3471 260.544 88.9904C259.764 88.6471 259.007 88.255 258.262 87.84C257.516 87.4239 256.796 86.9641 256.104 86.463C255.403 85.9707 254.758 85.4032 254.18 84.7706C255.59 85.7286 257.045 86.5582 258.518 87.3868C259.984 88.2248 261.47 89.027 262.925 89.9201Z" fill="#160B07"/>
<path d="M259.476 93.3951C258.715 93.2144 257.97 92.9748 257.246 92.6783C256.519 92.3902 255.809 92.0597 255.121 91.6886C253.726 90.9647 252.465 90.0102 251.389 88.8654C252.049 89.2872 252.693 89.7081 253.357 90.0992C254.027 90.4801 254.688 90.8702 255.369 91.2311L259.476 93.3951Z" fill="#160B07"/>
<path d="M261.367 91.901C260.464 91.6608 259.578 91.3602 258.715 91.0011C257.847 90.6508 257.001 90.249 256.181 89.798C255.354 89.3518 254.567 88.8325 253.832 88.2462C253.069 87.6851 252.436 86.9665 251.976 86.1393C252.584 86.8321 253.29 87.4334 254.07 87.9244C254.836 88.4279 255.62 88.9069 256.433 89.3424C258.044 90.2394 259.708 91.0441 261.367 91.901Z" fill="#160B07"/>
<path d="M282.99 307.474L285.054 319.504L299.908 330.484C299.908 330.484 282.448 336.784 273.628 327.424L275.428 319.144L271.288 308.524L282.99 307.474Z" fill="#8C4D3E"/>
<path d="M227.965 307.474L227.901 319.504L213.048 330.484C213.048 330.484 230.508 336.784 239.328 327.424L237.528 319.144L239.668 308.524L227.965 307.474Z" fill="#8C4D3E"/>
<path d="M254.913 132.044L247.638 145.069C242.609 154.072 239.235 163.905 237.678 174.1L217.546 310.71L291.616 308.524L295.817 178.948C296.313 167.393 294.156 155.878 289.511 145.286C287.449 140.49 284.687 136.027 281.313 132.044L254.913 132.044Z" fill="#DF382B"/>
<path d="M247.052 44.3283C247.173 46.0233 247.82 46.065 248.216 47.9547C248.787 50.6817 247.576 51.2537 248.152 53.4369C248.479 54.6786 248.906 54.6256 251.084 57.7169C253.332 60.9064 252.84 60.9095 254.021 62.1859C256.101 64.435 257.044 63.795 259.404 66.221C260.967 67.8277 260.789 68.3507 262.512 69.93C263.659 70.8795 264.879 71.7364 266.162 72.4929C270.596 75.4451 270.866 75.7323 271.91 75.9529C273.527 76.2281 275.186 76.111 276.748 75.6115C278.501 75.1651 278.55 74.783 281.496 73.6556C284.518 72.4992 284.698 72.8126 285.806 72.0456C287.478 70.8886 287.124 70.1368 289.125 68.3792C291.015 66.7183 291.545 67.2023 292.658 65.842C294.078 64.1066 293.363 63.1403 294.83 61.6348C295.942 60.4933 296.606 60.7902 297.805 59.4881C298.489 58.6171 299.041 57.6491 299.44 56.6161C301.053 53.5441 301.757 53.8803 302.729 51.6275C303.249 50.4203 302.915 50.6291 303.943 46.8751C304.76 43.8943 304.912 43.977 304.989 43.0094C305.224 40.0794 303.783 39.9175 304.304 37.7954C304.62 36.5072 305.495 35.1618 304.997 33.3454L304.997 33.3449C304.525 29.9566 304.179 27.4743 302.316 25.1782C301.308 23.9363 301.125 24.3126 298.07 21.306C296.135 19.4014 295.725 18.7752 294.403 17.9877C292.677 16.9591 292.373 17.43 290.209 16.3823C287.404 15.0239 287.478 14.0203 285.225 13.283C283.74 12.7972 283.726 13.2386 280.867 12.8151C277.241 12.278 277.116 11.5456 275.293 11.7262C273.343 11.9197 273.125 12.795 270.302 13.6227C267.944 14.314 267.578 13.6281 265.779 14.3089C263.95 15.001 264.118 15.6512 261.871 16.8384C259.208 18.2453 258.436 17.6159 257.192 18.8348C255.95 20.0512 256.576 20.8186 255.213 23.2266C254.099 25.1944 253.554 24.9074 251.718 27.4639C250.675 28.9791 249.763 30.5805 248.992 32.2507C248.236 33.4865 247.691 34.8404 247.383 36.2562C247.185 37.9316 247.752 38.1139 247.662 40.2187C247.567 42.4186 246.93 42.6239 247.052 44.3283Z" fill="#200100"/>
<path d="M259.995 51.825C260.013 51.8246 260.03 51.83 260.049 51.8298C260.383 42.2244 266.466 34.5132 274.12 34.3389C281.774 34.1647 288.202 41.5911 288.973 51.1714C288.991 51.1708 289.008 51.1645 289.027 51.1641C290.183 51.2629 291.263 51.7854 292.057 52.6313C292.852 53.4773 293.306 54.5869 293.332 55.7473C293.359 56.9076 292.956 58.0368 292.2 58.918C291.445 59.7992 290.391 60.3703 289.24 60.5216C288.784 60.5255 288.332 60.4469 287.904 60.2896C286.31 65.0616 283.181 68.7952 279.281 70.4615L279.296 70.4629L279.414 82.351L278.892 91.0651L266.93 90.1971L267.177 82.6296L268.12 69.4116L268.152 69.4145C265.103 67.3405 262.786 64.3574 261.531 60.89C261.111 61.0666 260.663 61.1657 260.208 61.1825C259.051 61.0837 257.972 60.5612 257.177 59.7153C256.383 58.8693 255.929 57.7597 255.902 56.5993C255.876 55.439 256.279 54.3098 257.034 53.4286C257.79 52.5474 258.844 51.9763 259.995 51.825V51.825Z" fill="#8C4D3E"/>
<path d="M231.62 171.647L229.503 187.371C229.393 188.223 229.476 189.088 229.746 189.903C230.016 190.718 230.465 191.462 231.062 192.08L237.338 198.743C237.515 198.924 237.729 199.065 237.966 199.156C238.202 199.247 238.455 199.285 238.708 199.269C239.135 199.267 239.543 199.096 239.843 198.793C240.144 198.491 240.313 198.082 240.313 197.655C240.265 196.844 239.926 196.077 239.358 195.496L234.549 190.478C234.549 190.478 234.763 183.256 234.952 184.327L237.485 187.664C237.612 187.82 237.774 187.944 237.958 188.026C238.142 188.108 238.342 188.147 238.543 188.139C238.744 188.13 238.941 188.076 239.117 187.979C239.293 187.881 239.445 187.745 239.559 187.579C239.692 187.382 239.752 187.144 239.729 186.907C239.62 186.036 239.304 185.203 238.806 184.48L238.095 183.439C238.095 183.439 239.125 175.333 237.053 171.358L231.62 171.647Z" fill="#8C4D3E"/>
<path d="M234.974 119.732L230.689 179.083L237.957 175.812L247.219 125.089L234.974 119.732Z" fill="#8C4D3E"/>
<path d="M233.952 129.224L236.376 97.5538C236.579 94.9091 237.408 92.3506 238.794 90.0889C240.18 87.8273 242.083 85.9273 244.347 84.5454C247.002 82.918 249.881 81.6882 252.892 80.8954C257.562 79.7877 262.345 79.2333 267.144 79.2438C267.144 79.2438 272.184 93.1637 279.384 79.2438L289.319 82.5913C292.175 83.5535 294.802 85.0932 297.037 87.1147C299.272 89.1361 301.066 91.596 302.309 94.3411L313.045 112.005L304.491 122.484L290.051 112.472L281.304 132.044H254.904L249.073 112.005L246.949 129.224L233.952 129.224Z" fill="#34A853"/>
<path d="M115.691 44.3753C119.754 44.3753 123.048 41.0813 123.048 37.018C123.048 32.9546 119.754 29.6606 115.691 29.6606C111.627 29.6606 108.333 32.9546 108.333 37.018C108.333 41.0813 111.627 44.3753 115.691 44.3753Z" fill="#200100"/>
<path d="M82.4879 45.875C86.5512 45.875 89.8452 42.5811 89.8452 38.5177C89.8452 34.4544 86.5512 31.1604 82.4879 31.1604C78.4245 31.1604 75.1306 34.4544 75.1306 38.5177C75.1306 42.5811 78.4245 45.875 82.4879 45.875Z" fill="#200100"/>
<path d="M114.911 54.1612C114.892 54.1602 114.875 54.1651 114.856 54.1643C114.836 44.5531 109.008 36.6471 101.364 36.2228C93.72 35.7984 87.0527 43.0108 85.9692 52.5608C85.9507 52.5595 85.9339 52.5527 85.9153 52.5516C84.7563 52.6126 83.6606 53.0996 82.8387 53.9191C82.0168 54.7386 81.5267 55.8328 81.4623 56.9916C81.398 58.1505 81.764 59.2923 82.4902 60.1977C83.2163 61.1031 84.2513 61.7084 85.3965 61.8972C85.8517 61.916 86.3066 61.8523 86.7391 61.709C87.3392 67.6364 88.8171 71.324 94.9444 73.9946L94.5034 84.0361L94.74 92.7626L106.725 92.2861L107.163 84.4446L106.279 73.8219C111.222 72.5677 112.979 65.3213 113.078 63.1712C113.492 63.3614 113.937 63.4751 114.392 63.5068C115.551 63.4458 116.646 62.9589 117.468 62.1394C118.29 61.3199 118.78 60.2256 118.845 59.0668C118.909 57.908 118.543 56.7662 117.817 55.8608C117.091 54.9554 116.056 54.3501 114.911 54.1612H114.911Z" fill="#B86A4B"/>
<path d="M96.4185 74.8971C97.8816 74.8956 99.2437 74.9777 100.605 74.9425C101.284 74.9293 101.952 74.8693 102.627 74.7936C103.317 74.6864 104.001 74.542 104.675 74.361C104.159 74.9 103.521 75.308 102.815 75.551C102.11 75.7875 101.373 75.9193 100.63 75.9421C99.8955 75.9515 99.1628 75.872 98.4478 75.7053C97.7314 75.5497 97.0457 75.2766 96.4185 74.8971Z" fill="#200100"/>
<path d="M99.2282 55.2135C99.1692 55.9557 99.0575 56.6613 98.9522 57.3585C98.8388 58.034 98.7601 58.7149 98.7164 59.3985C98.6725 60.0587 98.7591 60.6812 99.1037 60.8492C99.7445 60.9763 100.407 60.9323 101.026 60.7217C100.758 60.9883 100.45 61.2118 100.114 61.3843C99.7361 61.5987 99.2946 61.6725 98.8676 61.5928C98.6267 61.5225 98.4077 61.3922 98.2308 61.2141C98.054 61.0361 97.9252 60.8161 97.8565 60.5748C97.7422 60.1788 97.6954 59.7665 97.718 59.355C97.7684 58.6046 97.9308 57.866 98.1998 57.1636C98.4469 56.4675 98.7933 55.8106 99.2282 55.2135Z" fill="#200100"/>
<path d="M88.8951 50.7603C88.8951 50.7603 92.528 47.4851 96.1865 50.7489L88.8951 50.7603Z" fill="#200100"/>
<path d="M102.377 51.0427C102.377 51.0427 105.662 47.4187 109.63 50.2978L102.377 51.0427Z" fill="#200100"/>
<path d="M95.2566 64.024C95.2566 64.024 98.4888 70.8712 104.577 64.9792L95.2566 64.024Z" fill="#200100"/>
<path d="M94.7534 55.7163C94.8003 54.8726 94.3823 54.1633 93.8198 54.1321C93.2574 54.1009 92.7634 54.7595 92.7166 55.6032C92.6697 56.4469 93.0877 57.1562 93.6502 57.1874C94.2127 57.2186 94.7066 56.56 94.7534 55.7163Z" fill="#200100"/>
<path d="M106.399 55.9421C106.446 55.0984 106.028 54.3892 105.465 54.3579C104.903 54.3267 104.409 54.9853 104.362 55.829C104.315 56.6727 104.733 57.382 105.296 57.4132C105.858 57.4444 106.352 56.7858 106.399 55.9421Z" fill="#200100"/>
<path d="M117.287 59.7014C116.807 59.2119 116.267 58.7855 115.679 58.4324C115.428 58.3026 115.149 58.2361 114.867 58.2385C114.548 58.2165 114.196 58.2825 113.759 58.3039C113.966 57.9193 114.306 57.6237 114.716 57.4729C114.94 57.3848 115.179 57.3443 115.419 57.3543C115.659 57.3642 115.895 57.4242 116.11 57.5306C116.518 57.7362 116.85 58.0676 117.056 58.4759C117.259 58.8501 117.34 59.2787 117.287 59.7014Z" fill="#200100"/>
<path d="M82.7404 57.7839C82.7346 57.3579 82.8626 56.9409 83.1062 56.5915C83.356 56.2084 83.7221 55.9156 84.1507 55.7561C84.3766 55.6744 84.6171 55.6409 84.8567 55.6576C85.0964 55.6744 85.3299 55.741 85.5422 55.8532C85.9327 56.0486 86.2382 56.3799 86.4014 56.7849C85.9699 56.7155 85.6273 56.611 85.308 56.5974C85.0275 56.5637 84.743 56.5989 84.4791 56.6999C83.856 56.9861 83.2717 57.3504 82.7404 57.7839Z" fill="#200100"/>
<path d="M89.9799 44.9637C94.3254 45.0247 93.6267 41.7947 94.1777 39.1667C94.1777 39.1667 96.7611 45.1298 101.894 39.5951C103.063 38.3348 102.407 47.8469 108.396 41.2087C109.324 40.1808 110.084 43.051 111.261 45.3368C111.968 46.7082 112.825 47.8692 113.959 47.8516L113.867 56.3567C113.867 56.3567 126.06 35.579 99.7709 31.3555C96.9372 30.9627 94.0503 31.3861 91.4488 32.5761C78.4182 39.2862 82.6273 52.0371 87.4385 57.5875C87.4385 57.5875 85.0864 44.895 89.9799 44.9637Z" fill="#200100"/>
<path d="M98.6895 32.287L96.5976 29.3766C96.5976 29.3766 91.6103 29.911 94.5058 28.0886C97.4012 26.2663 97.9504 27.739 97.9205 28.2782L98.6895 32.287Z" fill="#200100"/>
<path d="M142.409 173.608L144.525 189.333C144.635 190.184 144.553 191.05 144.283 191.865C144.013 192.68 143.563 193.424 142.967 194.042L136.691 200.704C136.514 200.886 136.3 201.027 136.063 201.117C135.827 201.208 135.573 201.247 135.321 201.231C134.894 201.228 134.486 201.057 134.185 200.755C133.885 200.452 133.716 200.043 133.716 199.617C133.764 198.806 134.103 198.039 134.671 197.457L139.48 192.439C139.48 192.439 139.266 185.218 139.076 186.289L136.544 189.626C136.417 189.782 136.255 189.905 136.071 189.988C135.887 190.07 135.687 190.109 135.486 190.1C135.285 190.092 135.088 190.037 134.912 189.94C134.736 189.843 134.584 189.706 134.47 189.541C134.337 189.343 134.277 189.105 134.3 188.868C134.408 187.997 134.725 187.165 135.223 186.441L135.934 185.401C135.934 185.401 134.904 177.295 136.976 173.319L142.409 173.608Z" fill="#B86A4B"/>
<path d="M139.055 121.693L143.34 181.045L136.072 177.774L126.81 127.05L139.055 121.693Z" fill="#B86A4B"/>
<path d="M120.993 145.276L120.036 145.565L120.181 146.043L121.138 145.754L120.993 145.276Z" fill="#200100"/>
<path d="M124.448 160.123L124.144 159.117L125.101 158.828L125.405 159.834L124.448 160.123ZM123.839 158.113L123.534 157.108L124.491 156.817L124.796 157.822L123.839 158.113ZM123.229 156.101L122.924 155.095L123.881 154.806L124.186 155.812L123.229 156.101ZM122.619 154.089L122.315 153.083L123.272 152.794L123.576 153.8L122.619 154.089ZM122.01 152.077L121.705 151.072L122.662 150.782L122.967 151.788L122.01 152.077ZM121.4 150.067L121.095 149.061L122.052 148.772L122.357 149.778L121.4 150.067ZM120.79 148.055L120.486 147.049L121.443 146.76L121.747 147.766L120.79 148.055Z" fill="#200100"/>
<path d="M125.71 160.839L124.753 161.13L124.899 161.609L125.856 161.318L125.71 160.839Z" fill="#200100"/>
<path d="M140.077 131.185L137.652 99.5152C137.449 96.8705 136.621 94.312 135.235 92.0503C133.849 89.7886 131.946 87.8886 129.682 86.5068C127.027 84.8794 124.148 83.6496 121.137 82.8568C116.467 81.7491 111.684 81.1948 106.884 81.2052C106.884 81.2052 101.844 95.1251 94.6444 81.2052L84.7098 84.5527C81.8541 85.5149 79.227 87.0546 76.9922 89.0761C74.7573 91.0975 72.9625 93.5574 71.7195 96.3025L60.9838 113.966V134.801L83.9773 114.433L92.7245 134.005H119.124L124.956 113.966L127.08 131.185L140.077 131.185Z" fill="#DF382B"/>
<path d="M78.5644 103.525C79.7746 105.168 80.8304 106.92 81.7185 108.757C82.6465 110.575 83.4028 112.475 83.9773 114.433C82.7652 112.791 81.7093 111.04 80.8232 109.201C79.897 107.383 79.1408 105.483 78.5644 103.525Z" fill="#B7251D"/>
<path d="M124.956 113.966C125.32 111.539 125.87 109.144 126.602 106.801C127.29 104.445 128.16 102.146 129.204 99.925C128.842 102.353 128.292 104.748 127.558 107.091C126.868 109.446 125.998 111.744 124.956 113.966Z" fill="#B7251D"/>
<path d="M57.5021 76.9175L50.0135 81.7896L47.5005 127.547C47.3954 129.157 47.7552 130.763 48.5372 132.174C49.3192 133.585 50.4903 134.742 51.9111 135.506C53.3319 136.271 54.9424 136.611 56.5509 136.486C58.1595 136.361 59.6982 135.776 60.9838 134.801C63.9633 128.1 64.9003 120.668 63.6774 113.437L57.5021 76.9175Z" fill="#B86A4B"/>
<path d="M58.252 85.0222C58.252 85.0222 60.2242 82.1357 59.1999 74.4936C58.1756 66.8516 56.5549 60.9466 56.0282 66.3565L55.6951 70.4856C55.6951 70.4856 52.385 65.2441 50.6865 61.9488C50.2498 61.0677 49.5417 60.3501 48.6665 59.9017C47.7913 59.4532 46.7952 59.2977 45.825 59.458C44.0133 59.7982 43.1641 61.008 44.3809 65.1727C46.2009 71.4017 49.082 80.9665 49.9815 82.373C50.2931 82.8602 58.252 85.0222 58.252 85.0222Z" fill="#B86A4B"/>
<path d="M57.44 73.8098C57.034 73.3261 56.6845 72.7976 56.3984 72.2346C56.1083 71.6756 55.8728 71.0898 55.6952 70.4856C56.1534 70.9291 56.5329 71.4472 56.8176 72.0178C57.1127 72.581 57.3225 73.1849 57.44 73.8098Z" fill="#160B07"/>
<path d="M126.458 319.301L130.753 222.174L131.12 164.542C133.808 169.196 131.792 157.637 127.08 147.084C125.018 142.288 122.256 137.825 118.882 133.841H92.4821L85.2069 146.866C80.1778 155.87 76.8042 165.703 75.2465 175.897L56.8136 310.507L55.3044 319.301L40.4511 330.281C40.4511 330.281 57.9111 336.581 66.7311 327.221L64.9311 318.941L103.972 166.241H105.399L116.831 318.941L115.031 327.221C123.851 336.581 141.311 330.281 141.311 330.281L126.458 319.301Z" fill="#B86A4B"/>
<path d="M147.071 336.401C147.071 336.401 127.451 336.769 122.771 332.355V336.409H114.131C114.131 336.409 111.417 321.959 116.014 322.7C120.611 323.441 136.976 335.935 137.343 327.348L143.763 330.653C144.76 331.166 145.595 331.943 146.179 332.9C146.762 333.856 147.071 334.955 147.071 336.076V336.401Z" fill="#DF382B"/>
<path d="M92.5911 133.841L85.3158 146.866C80.2868 155.87 76.9132 165.703 75.3555 175.897L68.2789 222.152L131.98 222.174L133.495 180.746C133.991 169.191 131.834 157.676 127.189 147.084C125.127 142.288 122.364 137.825 118.991 133.841L92.5911 133.841Z" fill="#4285F4"/>
<path d="M34.691 336.401C34.691 336.401 54.311 336.769 58.991 332.355V336.409H67.631C67.631 336.409 70.3453 321.959 65.7482 322.7C61.151 323.441 44.7865 335.935 44.4188 327.348L37.9988 330.653C37.0025 331.166 36.1668 331.943 35.5832 332.9C34.9997 333.856 34.691 334.955 34.691 336.076V336.401Z" fill="#DF382B"/>
<path d="M277.75 71.0016C277.111 71.3606 276.416 71.611 275.695 71.7428C274.975 71.8863 274.24 71.9417 273.507 71.9078C272.764 71.861 272.033 71.7054 271.336 71.4459C270.638 71.1798 270.014 70.7511 269.515 70.1954C270.183 70.3986 270.862 70.5655 271.549 70.6954C272.221 70.7926 272.886 70.8746 273.564 70.9103C274.924 70.9894 276.288 70.9523 277.75 71.0016Z" fill="#200100"/>
<path d="M275.634 53.3893C276.049 54.0004 276.374 54.6682 276.598 55.3722C276.844 56.083 276.982 56.8266 277.008 57.5783C277.017 57.9902 276.957 58.4007 276.83 58.7926C276.753 59.0316 276.617 59.2472 276.435 59.4193C276.252 59.5915 276.029 59.7145 275.786 59.777C275.357 59.8428 274.918 59.7546 274.547 59.528C274.217 59.3447 273.917 59.1113 273.658 58.8361C274.269 59.0669 274.93 59.1324 275.574 59.026C275.924 58.8698 276.031 58.2502 276.009 57.589C275.988 56.9045 275.931 56.2214 275.84 55.5426C275.757 54.8424 275.669 54.1334 275.634 53.3893Z" fill="#200100"/>
<path d="M286.053 49.5388C286.053 49.5388 282.78 45.9035 278.802 48.7689L286.053 49.5388Z" fill="#200100"/>
<path d="M272.684 48.8656C272.684 48.8656 269.269 45.3641 265.408 48.3865L272.684 48.8656Z" fill="#200100"/>
<path d="M281.145 55.5447C281.708 55.5318 282.149 54.8366 282.13 53.9918C282.11 53.1471 281.638 52.4726 281.075 52.4855C280.512 52.4983 280.071 53.1935 280.09 54.0383C280.109 54.883 280.581 55.5575 281.145 55.5447Z" fill="#200100"/>
<path d="M269.498 55.3896C270.061 55.3768 270.502 54.6816 270.483 53.8368C270.464 52.992 269.992 52.3176 269.428 52.3304C268.865 52.3432 268.424 53.0385 268.444 53.8832C268.463 54.728 268.935 55.4025 269.498 55.3896Z" fill="#200100"/>
<path d="M281.681 21.0197C281.482 21.0195 281.284 20.9923 281.093 20.9387C280.639 20.7586 280.227 20.4878 279.881 20.1429C279.535 19.7981 279.263 19.3863 279.082 18.9328C279.034 18.81 279.036 18.6729 279.088 18.5516C279.14 18.4302 279.238 18.3343 279.36 18.2849C279.483 18.2355 279.62 18.2366 279.742 18.2879C279.863 18.3393 279.96 18.4366 280.01 18.5588C280.015 18.5706 280.499 19.7376 281.365 19.9768C281.629 20.0238 281.9 20.009 282.157 19.9336C282.414 19.8582 282.65 19.7242 282.847 19.5423C282.953 19.4625 283.086 19.4281 283.217 19.4466C283.349 19.4651 283.467 19.535 283.547 19.6409C283.627 19.7468 283.661 19.8801 283.643 20.0114C283.624 20.1427 283.554 20.2613 283.448 20.3411C282.949 20.7548 282.328 20.9932 281.681 21.0197Z" fill="#560D0D"/>
<path d="M297.328 29.6262C296.518 29.574 295.743 29.2717 295.112 28.761C295.009 28.6764 294.945 28.5547 294.933 28.4227C294.92 28.2907 294.961 28.1591 295.045 28.0569C295.13 27.9547 295.251 27.8903 295.383 27.8779C295.515 27.8654 295.647 27.9059 295.749 27.9905C296.271 28.4251 296.939 28.6416 297.616 28.595C297.871 28.5112 298.103 28.3694 298.293 28.1808C298.484 27.9922 298.628 27.7619 298.714 27.5081C298.742 27.4484 298.78 27.3948 298.829 27.3502C298.877 27.3056 298.933 27.2709 298.995 27.2482C299.056 27.2254 299.122 27.215 299.187 27.2175C299.253 27.2201 299.318 27.2355 299.377 27.263C299.437 27.2904 299.49 27.3293 299.535 27.3775C299.58 27.4257 299.614 27.4822 299.637 27.5437C299.66 27.6053 299.67 27.6708 299.668 27.7364C299.665 27.802 299.65 27.8664 299.622 27.9261C299.477 28.3226 299.238 28.6787 298.927 28.9648C298.616 29.2508 298.242 29.4585 297.834 29.5706C297.668 29.6082 297.499 29.6268 297.328 29.6262Z" fill="#560D0D"/>
<path d="M287.816 34.5266C287.005 34.4744 286.231 34.1721 285.6 33.6614C285.498 33.5767 285.434 33.4552 285.422 33.3233C285.41 33.1915 285.45 33.0602 285.535 32.9583C285.619 32.8563 285.741 32.7921 285.872 32.7796C286.004 32.7672 286.136 32.8075 286.238 32.8918C286.76 33.323 287.428 33.5388 288.104 33.4954C288.358 33.4116 288.59 33.2698 288.781 33.0812C288.971 32.8926 289.115 32.6623 289.201 32.4084C289.257 32.288 289.358 32.1945 289.482 32.1486C289.607 32.1026 289.744 32.1079 289.865 32.1633C289.985 32.2188 290.078 32.3198 290.124 32.4441C290.17 32.5685 290.165 32.706 290.11 32.8264C289.964 33.2231 289.726 33.5793 289.415 33.8654C289.104 34.1514 288.729 34.359 288.322 34.471C288.156 34.5085 287.986 34.5272 287.816 34.5266Z" fill="#560D0D"/>
<path d="M274.218 38.969C273.408 38.9168 272.633 38.6145 272.002 38.1038L272.64 37.3342C273.161 37.7678 273.83 37.9836 274.506 37.9368C274.761 37.8532 274.993 37.7115 275.183 37.5228C275.374 37.3342 275.518 37.1038 275.604 36.8499L276.512 37.2679C276.366 37.6646 276.128 38.0208 275.817 38.307C275.506 38.5932 275.131 38.801 274.724 38.9134C274.558 38.9504 274.388 38.9691 274.218 38.969Z" fill="#560D0D"/>
<path d="M293.397 44.3254C293.178 44.3256 292.96 44.2927 292.751 44.2278C292.302 44.0354 291.897 43.7534 291.561 43.3991C291.224 43.0448 290.964 42.6256 290.795 42.1672C290.772 42.1057 290.762 42.0402 290.764 41.9746C290.767 41.9089 290.782 41.8444 290.809 41.7847C290.837 41.725 290.875 41.6713 290.923 41.6265C290.972 41.5818 291.028 41.5471 291.09 41.5242C291.151 41.5013 291.217 41.4907 291.282 41.4931C291.348 41.4955 291.412 41.5109 291.472 41.5382C291.532 41.5655 291.586 41.6044 291.63 41.6525C291.675 41.7006 291.71 41.757 291.733 41.8186C291.737 41.8303 292.19 43.01 293.049 43.2727C293.312 43.3289 293.584 43.3226 293.843 43.2543C294.103 43.1859 294.343 43.0574 294.543 42.8791C294.597 42.8409 294.657 42.8135 294.722 42.7987C294.786 42.784 294.852 42.782 294.917 42.7929C294.982 42.8039 295.044 42.8276 295.1 42.8626C295.156 42.8976 295.204 42.9433 295.242 42.9971C295.28 43.0508 295.307 43.1116 295.322 43.1758C295.336 43.24 295.338 43.3065 295.327 43.3714C295.316 43.4363 295.292 43.4983 295.256 43.554C295.221 43.6096 295.175 43.6577 295.121 43.6955C294.626 44.0804 294.023 44.3007 293.397 44.3254Z" fill="#560D0D"/>
<path d="M268.639 18.1184C268.42 18.1181 268.203 18.0852 267.994 18.0207C267.545 17.8284 267.14 17.5464 266.804 17.1921C266.468 16.8378 266.207 16.4186 266.038 15.9602C265.992 15.8359 265.997 15.6983 266.052 15.5777C266.108 15.4571 266.208 15.3634 266.333 15.3171C266.457 15.2709 266.595 15.2759 266.715 15.3312C266.836 15.3864 266.93 15.4872 266.976 15.6116C266.98 15.6233 267.433 16.803 268.292 17.0657C268.554 17.12 268.826 17.1127 269.085 17.0444C269.344 16.9762 269.583 16.8487 269.784 16.6721C269.838 16.633 269.898 16.6048 269.963 16.5893C270.027 16.5739 270.094 16.5713 270.159 16.5818C270.225 16.5924 270.287 16.6158 270.344 16.6507C270.4 16.6857 270.449 16.7315 270.487 16.7854C270.526 16.8393 270.553 16.9004 270.568 16.965C270.582 17.0295 270.584 17.0964 270.572 17.1616C270.561 17.2269 270.537 17.2892 270.501 17.345C270.465 17.4007 270.419 17.4489 270.364 17.4866C269.87 17.8727 269.266 18.0937 268.639 18.1184Z" fill="#560D0D"/>
<path d="M254.479 31.799C254.26 31.7992 254.042 31.7662 253.833 31.7013C253.385 31.5086 252.98 31.2266 252.644 30.8723C252.307 30.518 252.047 30.099 251.878 29.6408C251.833 29.5166 251.838 29.3795 251.894 29.2594C251.949 29.1394 252.05 29.0461 252.173 29C252.297 28.9539 252.435 28.9588 252.555 29.0135C252.675 29.0683 252.769 29.1684 252.816 29.2921C252.82 29.3039 253.273 30.4835 254.131 30.7462C254.394 30.8016 254.665 30.7948 254.925 30.7265C255.184 30.6581 255.424 30.5301 255.625 30.3527C255.679 30.3147 255.739 30.2876 255.803 30.273C255.868 30.2584 255.934 30.2566 255.999 30.2676C256.063 30.2786 256.125 30.3023 256.181 30.3373C256.237 30.3724 256.285 30.418 256.323 30.4716C256.361 30.5252 256.388 30.5858 256.402 30.6499C256.417 30.714 256.419 30.7803 256.408 30.8451C256.397 30.9099 256.373 30.9718 256.338 31.0274C256.303 31.083 256.257 31.1312 256.203 31.1691C255.708 31.554 255.105 31.7742 254.479 31.799Z" fill="#560D0D"/>
<path d="M253.03 45.842C252.811 45.8422 252.593 45.8093 252.384 45.7444C251.935 45.5517 251.531 45.2696 251.194 44.9154C250.858 44.5611 250.598 44.1421 250.429 43.6838C250.383 43.5595 250.388 43.4219 250.443 43.3013C250.498 43.1807 250.599 43.087 250.723 43.0408C250.848 42.9945 250.985 42.9996 251.106 43.0548C251.227 43.11 251.32 43.2109 251.367 43.3352C251.37 43.3469 251.824 44.5266 252.682 44.7893C252.944 44.845 253.216 44.8384 253.476 44.77C253.735 44.7017 253.975 44.5735 254.176 44.3957C254.23 44.3578 254.29 44.3308 254.354 44.3162C254.418 44.3016 254.485 44.2998 254.549 44.3109C254.614 44.322 254.676 44.3457 254.732 44.3807C254.787 44.4157 254.835 44.4613 254.873 44.5149C254.911 44.5685 254.938 44.6291 254.953 44.6931C254.967 44.7572 254.969 44.8234 254.958 44.8882C254.947 44.9529 254.923 45.0149 254.888 45.0705C254.853 45.126 254.808 45.1742 254.754 45.2121C254.259 45.597 253.656 45.8173 253.03 45.842Z" fill="#560D0D"/>
<path d="M266.038 28.3634C265.14 28.2859 264.299 27.8876 263.67 27.2414C263.578 27.1459 263.528 27.0178 263.53 26.8852C263.532 26.7526 263.587 26.6264 263.683 26.5344C263.778 26.4423 263.906 26.3919 264.039 26.3943C264.172 26.3966 264.298 26.4516 264.39 26.547C264.864 27.0295 265.501 27.3178 266.177 27.3556C266.44 27.301 266.686 27.186 266.896 27.0197C267.107 26.8535 267.276 26.6405 267.39 26.3976C267.459 26.2844 267.569 26.2031 267.698 26.1715C267.827 26.1399 267.963 26.1607 268.076 26.2293C268.189 26.2979 268.271 26.4086 268.303 26.5372C268.334 26.6658 268.314 26.8018 268.245 26.9152C268.056 27.2931 267.78 27.6203 267.438 27.8698C267.097 28.1193 266.702 28.2838 266.284 28.3498C266.203 28.3587 266.121 28.3632 266.038 28.3634Z" fill="#560D0D"/>
<path d="M257.438 57.2848C257.399 56.8605 257.494 56.4346 257.71 56.067C257.929 55.6659 258.271 55.3455 258.686 55.1529C258.904 55.0538 259.142 55.0016 259.382 54.9996C259.622 54.9976 259.86 55.0458 260.081 55.1412C260.485 55.3053 260.816 55.6119 261.01 56.0031C260.574 55.9674 260.225 55.8898 259.905 55.9015C259.623 55.89 259.342 55.9473 259.087 56.0685C258.488 56.4024 257.934 56.8111 257.438 57.2848Z" fill="#200100"/>
<path d="M287.928 45.9139C287.928 45.9139 283.119 44.7262 281.74 36.8809C281.74 36.8809 281.319 46.524 261.152 45.5499L260.965 54.0535L256.294 47.4542C256.294 47.4542 260.96 29.713 276.851 31.5161C279.397 31.8769 281.813 32.8695 283.877 34.4033C286.412 36.2343 288.536 38.575 290.112 41.2753C291.689 43.9755 292.683 46.9757 293.032 50.083L293.242 51.7884C293.242 51.7884 289.8 46.2754 287.34 56.1475L287.928 45.9139Z" fill="#200100"/>
<path d="M261.811 38.5667C261.001 38.5145 260.226 38.2122 259.595 37.7014C259.493 37.6168 259.429 37.4952 259.417 37.3634C259.405 37.2315 259.445 37.1003 259.53 36.9983C259.614 36.8964 259.736 36.8321 259.867 36.8197C259.999 36.8072 260.131 36.8476 260.233 36.9319C260.752 37.3689 261.422 37.5855 262.099 37.5354C262.354 37.4518 262.586 37.3101 262.776 37.1215C262.967 36.9329 263.111 36.7024 263.198 36.4485C263.253 36.328 263.354 36.2346 263.478 36.1886C263.603 36.1426 263.74 36.148 263.861 36.2034C263.981 36.2588 264.075 36.3598 264.121 36.4842C264.167 36.6085 264.161 36.746 264.106 36.8665C263.96 37.2632 263.722 37.6194 263.41 37.9055C263.099 38.1915 262.724 38.3991 262.317 38.511C262.151 38.5486 261.981 38.5673 261.811 38.5667Z" fill="#560D0D"/>
<path d="M275.696 38.2512C274.885 38.1991 274.111 37.8967 273.48 37.386C273.378 37.3012 273.315 37.1797 273.303 37.0481C273.29 36.9165 273.331 36.7854 273.415 36.6836C273.5 36.5818 273.621 36.5176 273.753 36.505C273.884 36.4924 274.015 36.5325 274.117 36.6165C274.64 37.0472 275.308 37.263 275.984 37.22C276.238 37.1362 276.47 36.9944 276.661 36.8058C276.851 36.6172 276.995 36.3869 277.081 36.133C277.137 36.0126 277.238 35.9191 277.362 35.8732C277.486 35.8272 277.624 35.8325 277.744 35.888C277.865 35.9434 277.958 36.0444 278.004 36.1687C278.05 36.2931 278.045 36.4306 277.99 36.5511C277.844 36.9477 277.606 37.3039 277.295 37.59C276.984 37.876 276.609 38.0836 276.201 38.1956C276.035 38.2332 275.866 38.2518 275.696 38.2512Z" fill="#560D0D"/>
<path d="M297.885 54.0667C297.074 54.0144 296.3 53.7121 295.668 53.2014C295.567 53.1167 295.503 52.9951 295.49 52.8634C295.478 52.7316 295.519 52.6004 295.603 52.4985C295.687 52.3965 295.809 52.3322 295.941 52.3195C296.072 52.3069 296.204 52.3469 296.306 52.4309C296.828 52.8639 297.496 53.0803 298.173 53.0354C298.428 52.9517 298.659 52.8099 298.85 52.6212C299.04 52.4326 299.184 52.2023 299.271 51.9485C299.326 51.828 299.427 51.7346 299.551 51.6886C299.676 51.6426 299.813 51.648 299.934 51.7034C300.054 51.7588 300.148 51.8598 300.194 51.9842C300.24 52.1085 300.234 52.246 300.179 52.3665C300.033 52.7631 299.795 53.1192 299.484 53.4052C299.173 53.6912 298.798 53.8989 298.391 54.011C298.225 54.0486 298.055 54.0673 297.885 54.0667Z" fill="#560D0D"/>
<path d="M292 56.4978C291.483 56.0472 290.911 55.6643 290.298 55.3581C290.037 55.2486 289.754 55.2042 289.473 55.2287C289.153 55.2312 288.807 55.3249 288.374 55.3801C288.55 54.9806 288.866 54.6593 289.263 54.4768C289.479 54.3715 289.714 54.3126 289.954 54.3038C290.194 54.2949 290.434 54.3364 290.657 54.4255C291.08 54.5988 291.436 54.9032 291.673 55.2941C291.905 55.6513 292.02 56.0723 292 56.4978Z" fill="#200100"/>
<path d="M291.059 51.6935C290.825 49.104 290.356 46.541 289.658 44.0363C289.002 41.5731 287.989 39.2191 286.651 37.0495C285.37 34.9443 283.528 33.2374 281.331 32.1198C279.115 31.0828 276.657 30.6702 274.223 30.9265C271.746 31.1501 269.343 31.8883 267.168 33.0938C264.993 34.2992 263.094 35.9454 261.591 37.9269C260.065 39.9447 258.992 42.2688 258.448 44.7399C257.91 47.2713 257.755 49.8691 257.989 52.4465C257.34 49.8713 257.169 47.1992 257.482 44.5622C257.825 41.8626 258.797 39.2811 260.318 37.0246C261.865 34.7417 263.9 32.8314 266.276 31.4322C268.652 30.033 271.31 29.1799 274.057 28.9348C275.442 28.8309 276.834 28.893 278.205 29.1198C279.594 29.3375 280.939 29.7819 282.185 30.4353C284.643 31.7652 286.658 33.7854 287.983 36.2468C289.27 38.6082 290.157 41.1661 290.609 43.8171C291.081 46.4142 291.232 49.0596 291.059 51.6935Z" fill="#23893C"/>
<path d="M281.33 61.4056C281.719 61.3922 282.087 61.2282 282.358 60.9484C282.628 60.6686 282.779 60.2947 282.779 59.9056C282.779 59.5166 282.628 59.1427 282.358 58.8629C282.087 58.583 281.719 58.4191 281.33 58.4056C280.941 58.4191 280.573 58.583 280.302 58.8629C280.032 59.1427 279.881 59.5166 279.881 59.9056C279.881 60.2947 280.032 60.6686 280.302 60.9484C280.573 61.2282 280.941 61.3922 281.33 61.4056Z" fill="#602922"/>
<path d="M268.73 60.4457C269.119 60.4322 269.487 60.2683 269.757 59.9884C270.028 59.7086 270.179 59.3347 270.179 58.9457C270.179 58.5566 270.028 58.1828 269.757 57.9029C269.487 57.6231 269.119 57.4592 268.73 57.4457C268.341 57.4592 267.973 57.6231 267.702 57.9029C267.432 58.1828 267.281 58.5566 267.281 58.9457C267.281 59.3347 267.432 59.7086 267.702 59.9884C267.973 60.2683 268.341 60.4322 268.73 60.4457Z" fill="#602922"/>
<path d="M305.668 336.604C305.668 336.604 286.048 336.972 281.368 332.558V336.611H272.728C272.728 336.611 270.013 322.161 274.61 322.903C279.208 323.644 295.572 336.138 295.94 327.551L302.36 330.855C303.356 331.368 304.192 332.145 304.775 333.102C305.359 334.059 305.668 335.157 305.668 336.278V336.604Z" fill="#FABB05"/>
<path d="M207.288 336.604C207.288 336.604 226.908 336.972 231.588 332.558V336.611H240.228C240.228 336.611 242.942 322.161 238.345 322.903C233.748 323.644 217.383 336.138 217.015 327.551L210.595 330.855C209.599 331.368 208.763 332.145 208.18 333.102C207.596 334.059 207.288 335.157 207.288 336.278V336.604Z" fill="#FABB05"/>
<path d="M283.139 145.394C283.032 145.394 282.927 145.359 282.841 145.296C282.755 145.232 282.692 145.142 282.66 145.039L282.225 143.604C282.205 143.541 282.198 143.474 282.204 143.409C282.21 143.343 282.229 143.279 282.26 143.221C282.291 143.162 282.333 143.111 282.384 143.069C282.435 143.026 282.493 142.995 282.557 142.976C282.62 142.957 282.686 142.95 282.752 142.957C282.818 142.963 282.881 142.983 282.939 143.014C282.998 143.045 283.049 143.088 283.09 143.139C283.132 143.19 283.163 143.249 283.182 143.313L283.617 144.748C283.64 144.823 283.645 144.902 283.632 144.979C283.618 145.056 283.587 145.129 283.541 145.192C283.494 145.254 283.434 145.305 283.364 145.341C283.294 145.376 283.217 145.394 283.139 145.394L283.139 145.394Z" fill="#B7251D"/>
<path d="M286.332 155.932C286.225 155.932 286.121 155.897 286.034 155.834C285.948 155.77 285.885 155.68 285.854 155.577L285.055 152.943C285.018 152.816 285.032 152.68 285.094 152.564C285.157 152.448 285.263 152.361 285.389 152.323C285.515 152.284 285.652 152.297 285.768 152.359C285.885 152.42 285.972 152.526 286.012 152.652L286.811 155.286C286.833 155.361 286.838 155.44 286.825 155.517C286.812 155.594 286.781 155.667 286.734 155.73C286.688 155.792 286.627 155.843 286.557 155.879C286.487 155.914 286.41 155.932 286.332 155.932H286.332ZM284.736 150.663C284.628 150.663 284.524 150.629 284.438 150.565C284.351 150.501 284.288 150.411 284.257 150.309L283.458 147.674C283.421 147.547 283.435 147.411 283.498 147.295C283.56 147.179 283.666 147.092 283.792 147.054C283.919 147.016 284.055 147.029 284.171 147.09C284.288 147.152 284.376 147.257 284.415 147.383L285.214 150.018C285.237 150.092 285.242 150.172 285.228 150.249C285.215 150.326 285.184 150.398 285.137 150.461C285.091 150.524 285.03 150.575 284.96 150.61C284.891 150.645 284.814 150.663 284.735 150.663L284.736 150.663Z" fill="#B7251D"/>
<path d="M287.566 160.001C287.458 160.001 287.354 159.967 287.267 159.903C287.181 159.839 287.118 159.749 287.087 159.646L286.653 158.21C286.633 158.147 286.626 158.081 286.632 158.015C286.638 157.949 286.657 157.886 286.688 157.827C286.719 157.769 286.761 157.717 286.812 157.675C286.863 157.633 286.922 157.602 286.985 157.583C287.048 157.564 287.115 157.558 287.18 157.564C287.246 157.571 287.31 157.591 287.368 157.622C287.426 157.653 287.477 157.696 287.519 157.747C287.56 157.799 287.591 157.858 287.61 157.921L288.044 159.357C288.063 159.42 288.069 159.485 288.063 159.551C288.056 159.616 288.037 159.68 288.006 159.737C287.975 159.795 287.933 159.846 287.882 159.888C287.831 159.93 287.773 159.961 287.71 159.98C287.663 159.994 287.615 160.001 287.566 160.001Z" fill="#B7251D"/>
<path d="M295.464 101.564C294.888 103.521 294.132 105.421 293.206 107.24C292.32 109.078 291.264 110.83 290.052 112.472C290.626 110.513 291.382 108.613 292.31 106.796C293.198 104.958 294.254 103.207 295.464 101.564Z" fill="#23893C"/>
<path d="M249.073 112.005C248.031 109.783 247.161 107.484 246.47 105.129C245.737 102.787 245.187 100.391 244.824 97.9635C245.869 100.185 246.739 102.484 247.427 104.84C248.158 107.182 248.709 109.578 249.073 112.005Z" fill="#23893C"/>
<path d="M279.546 63.8081C279.546 63.8081 276.765 70.1081 271.185 64.8881L279.546 63.8081Z" fill="#200100"/>
<path d="M371.869 146.329V311.449H349.789L346.909 167.449H341.149L330.109 311.449H308.029L317.629 146.329H371.869Z" fill="#FABB05"/>
<path d="M314.989 86.3287C315.195 88.589 315.292 90.8487 315.372 93.109C315.463 95.3688 315.476 97.629 315.489 99.8888C315.477 102.149 315.464 104.409 315.374 106.669L315.234 110.059C315.151 111.189 315.102 112.319 314.989 113.449C314.876 112.319 314.827 111.189 314.744 110.059L314.604 106.669C314.514 104.409 314.5 102.149 314.489 99.8888C314.502 97.629 314.515 95.3688 314.606 93.109C314.686 90.8487 314.783 88.5889 314.989 86.3287Z" fill="#2C66BF"/>
<path d="M373.549 87.5291C373.795 91.6267 373.932 95.7258 374.052 99.825C374.174 103.925 374.207 108.025 374.288 112.124C374.289 116.224 374.333 120.324 374.294 124.425L374.214 130.576C374.151 132.627 374.122 134.678 374.029 136.729C373.896 134.68 373.827 132.631 373.724 130.581L373.524 124.433C373.405 120.333 373.369 116.234 373.29 112.134C373.291 108.033 373.244 103.933 373.286 99.8328C373.326 95.7317 373.383 91.6311 373.549 87.5291Z" fill="#2C66BF"/>
<path d="M325.309 317.209C325.309 317.209 331.309 334.009 326.269 336.409H321.229C321.229 336.409 318.829 329.689 315.469 336.409H284.749C284.749 336.409 282.829 331.129 290.269 328.729C297.709 326.329 310.189 317.209 310.189 317.209H325.309Z" fill="#34A853"/>
<path d="M326.269 311.449L325.309 317.209H310.189V311.449H326.269Z" fill="#B86A4B"/>
<path d="M353.502 317.209C353.502 317.209 347.502 334.009 352.542 336.409H357.582C357.582 336.409 359.982 329.689 363.342 336.409H394.062C394.062 336.409 395.982 331.129 388.542 328.729C381.102 326.329 368.622 317.209 368.622 317.209H353.502Z" fill="#34A853"/>
<path d="M352.542 311.449L353.502 317.209H368.622V311.449H352.542Z" fill="#B86A4B"/>
<path d="M339.759 167.038C341.365 166.685 343.005 166.517 344.649 166.538C346.293 166.515 347.934 166.683 349.539 167.038C347.934 167.393 346.293 167.56 344.649 167.537C343.005 167.558 341.365 167.39 339.759 167.038Z" fill="#EDA606"/>
<path d="M312.045 111.005L314.989 113.928L315.149 124.406C315.149 124.406 306.329 129.219 303.491 121.484L312.045 111.005Z" fill="#8C4D3E"/>
<path d="M259.689 67.9514H255.547V59.0696H259.689V67.9514ZM256.297 67.2014H258.939V59.8196H256.297V67.2014Z" fill="#FABB05"/>
<path d="M293.617 67.4524H289.475V58.5706H293.617V67.4524ZM290.225 66.7024H292.867V59.3206H290.225V66.7024Z" fill="#FABB05"/>
<path d="M290.222 59.3082V58.262H292.74C292.172 59.2364 291.281 59.9818 290.222 60.3695V59.3082Z" fill="#8C4D3E"/>
<path d="M258.962 61.0028V59.0494H256.587C257.125 59.9591 257.965 60.6507 258.962 61.0028Z" fill="#8C4D3E"/>
<path d="M90.5531 81.658L91.8262 84.751C92.1282 85.4809 92.2352 86.2767 92.1368 87.0604C92.0384 87.8441 91.738 88.5888 91.265 89.2214C91.069 89.4899 90.8405 89.7332 90.5848 89.9457C90.215 90.2688 89.7946 90.5288 89.3403 90.7152L84.8448 92.5657C84.6871 92.6324 84.5241 92.6863 84.3577 92.7266C84.0594 92.8229 83.7493 92.8773 83.4361 92.8884C82.4771 92.9635 81.519 92.7319 80.7002 92.2271C79.8814 91.7222 79.2442 90.9703 78.8806 90.0798L77.6074 86.9869C77.3313 86.3145 77.3332 85.56 77.6129 84.889C77.8925 84.2181 78.427 83.6855 79.099 83.4083L86.9745 80.1665C87.6469 79.8904 88.4014 79.8923 89.0724 80.172C89.7433 80.4516 90.2758 80.9861 90.5531 81.658Z" fill="#FED4C0"/>
<path d="M91.2651 89.2213C91.069 89.4898 90.8406 89.7331 90.5849 89.9457L88.074 84.0619C88.0283 83.9505 88.0284 83.8257 88.0742 83.7144C88.12 83.6031 88.2079 83.5144 88.3187 83.4675C88.4295 83.4206 88.5544 83.4193 88.6661 83.464C88.7779 83.5086 88.8676 83.5955 88.9156 83.7058L91.2651 89.2213Z" fill="#200100"/>
<path d="M89.0699 90.8265L88.2249 91.1743L85.6395 85.1335C85.5937 85.0214 85.5942 84.8958 85.6407 84.784C85.6873 84.6723 85.7762 84.5835 85.8881 84.5371C85.9427 84.5136 86.0014 84.5012 86.0609 84.5006C86.1204 84.5 86.1794 84.5112 86.2345 84.5335C86.2896 84.5558 86.3397 84.5888 86.382 84.6306C86.4243 84.6724 86.4579 84.7222 86.4809 84.777L89.0699 90.8265Z" fill="#200100"/>
<path d="M86.5855 91.8492L85.7405 92.197L83.2227 86.2963C83.1984 86.2417 83.1854 86.1828 83.1844 86.1231C83.1835 86.0635 83.1945 86.0042 83.2169 85.9489C83.2393 85.8935 83.2726 85.8433 83.3149 85.8011C83.3571 85.7589 83.4074 85.7257 83.4628 85.7033L83.4712 85.6999C83.5819 85.6557 83.7054 85.656 83.8159 85.7008C83.9263 85.7455 84.0153 85.8311 84.0641 85.9398L86.5855 91.8492Z" fill="#200100"/>
<path d="M84.3577 92.7266C84.0594 92.8229 83.7493 92.8773 83.4361 92.8884L80.8487 86.8189C80.8007 86.7077 80.7986 86.582 80.843 86.4693C80.8873 86.3566 80.9744 86.266 81.0853 86.2173C81.1409 86.1918 81.201 86.178 81.2621 86.1766C81.3232 86.1753 81.384 86.1864 81.4406 86.2093C81.4973 86.2323 81.5486 86.2666 81.5915 86.3101C81.6345 86.3536 81.668 86.4054 81.6902 86.4624L84.3577 92.7266Z" fill="#200100"/>
<path d="M296.449 85.843L295.154 88.927C294.85 89.6559 294.361 90.2931 293.736 90.7761C293.111 91.2591 292.371 91.5714 291.589 91.6823C291.261 91.7327 290.927 91.7423 290.596 91.711C290.106 91.6767 289.625 91.562 289.173 91.3715L284.69 89.4899C284.532 89.4251 284.379 89.3476 284.233 89.2581C283.954 89.1146 283.697 88.9331 283.468 88.7188C282.738 88.092 282.227 87.2495 282.007 86.313C281.787 85.3765 281.871 84.3944 282.246 83.5085L283.54 80.4245C283.822 79.7545 284.359 79.2238 285.031 78.9488C285.704 78.6738 286.459 78.6771 287.129 78.9579L294.982 82.2542C295.652 82.5361 296.183 83.0723 296.458 83.7452C296.733 84.4181 296.73 85.1726 296.449 85.843Z" fill="#FED4C0"/>
<path d="M291.589 91.6823C291.261 91.7327 290.927 91.7423 290.596 91.711L292.996 85.7811C293.043 85.6704 293.132 85.5825 293.243 85.5366C293.354 85.4907 293.479 85.4904 293.59 85.5359C293.701 85.5813 293.79 85.6688 293.837 85.7794C293.885 85.89 293.886 86.0147 293.842 86.1266L291.589 91.6823Z" fill="#200100"/>
<path d="M288.903 91.2583L288.061 90.9046L290.519 84.8111C290.567 84.6996 290.656 84.6114 290.768 84.5656C290.88 84.5197 291.006 84.5202 291.117 84.5667C291.173 84.5889 291.223 84.6218 291.265 84.6635C291.308 84.7052 291.341 84.7549 291.364 84.8097C291.387 84.8646 291.399 84.9234 291.4 84.9828C291.4 85.0423 291.388 85.1012 291.366 85.1562L288.903 91.2583Z" fill="#200100"/>
<path d="M286.426 90.2184L285.583 89.8647L287.991 83.9179C288.012 83.8623 288.045 83.8115 288.086 83.7687C288.128 83.7259 288.178 83.692 288.233 83.6688C288.288 83.6457 288.347 83.6338 288.407 83.634C288.466 83.6342 288.525 83.6464 288.58 83.6699L288.589 83.6735C288.698 83.7208 288.785 83.8086 288.831 83.9184C288.877 84.0282 288.879 84.1517 288.837 84.263L286.426 90.2184Z" fill="#200100"/>
<path d="M284.233 89.2581C283.954 89.1146 283.697 88.9331 283.468 88.7189L285.946 82.6039C285.991 82.4914 286.078 82.4013 286.189 82.3532C286.301 82.3052 286.426 82.303 286.539 82.3473C286.596 82.3687 286.649 82.4016 286.693 82.4439C286.737 82.4863 286.772 82.5372 286.795 82.5935C286.819 82.6499 286.831 82.7105 286.83 82.7716C286.83 82.8327 286.817 82.893 286.792 82.9489L284.233 89.2581Z" fill="#200100"/>
<path d="M372.196 64.1168L370.901 67.2008C370.597 67.9297 370.108 68.5669 369.483 69.0499C368.858 69.5329 368.119 69.8452 367.336 69.9561C367.008 70.0065 366.674 70.0161 366.343 69.9848C365.853 69.9506 365.372 69.8358 364.92 69.6453L360.437 67.7637C360.279 67.6989 360.126 67.6214 359.98 67.5319C359.701 67.3884 359.444 67.2069 359.215 66.9927C358.485 66.3658 357.974 65.5233 357.754 64.5868C357.535 63.6503 357.618 62.6682 357.993 61.7823L359.287 58.6983C359.569 58.0283 360.106 57.4976 360.778 57.2226C361.451 56.9476 362.206 56.9509 362.876 57.2317L370.729 60.528C371.399 60.8099 371.93 61.3461 372.205 62.019C372.48 62.6919 372.477 63.4464 372.196 64.1168Z" fill="#8C4D3E"/>
<path d="M367.336 69.9561C367.008 70.0065 366.674 70.0161 366.343 69.9848L368.743 64.0549C368.79 63.9442 368.879 63.8563 368.99 63.8104C369.101 63.7645 369.226 63.7642 369.337 63.8097C369.448 63.8551 369.537 63.9426 369.584 64.0532C369.632 64.1638 369.633 64.2885 369.589 64.4004L367.336 69.9561Z" fill="#200100"/>
<path d="M364.65 69.5321L363.808 69.1784L366.266 63.0849C366.314 62.9734 366.403 62.8852 366.515 62.8394C366.627 62.7936 366.753 62.794 366.864 62.8405C366.92 62.8627 366.97 62.8956 367.012 62.9373C367.055 62.9791 367.088 63.0287 367.111 63.0836C367.134 63.1384 367.146 63.1972 367.147 63.2567C367.147 63.3161 367.135 63.375 367.113 63.43L364.65 69.5321Z" fill="#200100"/>
<path d="M362.173 68.4923L361.331 68.1386L363.738 62.1919C363.759 62.1362 363.792 62.0855 363.833 62.0427C363.875 61.9999 363.925 61.9659 363.98 61.9427C364.035 61.9196 364.094 61.9078 364.154 61.908C364.213 61.9082 364.272 61.9204 364.327 61.9439L364.336 61.9474C364.445 61.9948 364.532 62.0825 364.578 62.1923C364.624 62.3022 364.626 62.4256 364.584 62.5369L362.173 68.4923Z" fill="#200100"/>
<path d="M359.98 67.5319C359.701 67.3884 359.444 67.2069 359.215 66.9927L361.693 60.8777C361.738 60.7652 361.825 60.6751 361.936 60.627C362.048 60.579 362.173 60.5768 362.286 60.6211C362.343 60.6425 362.395 60.6754 362.44 60.7177C362.484 60.7601 362.519 60.811 362.542 60.8673C362.566 60.9237 362.578 60.9843 362.577 61.0454C362.577 61.1065 362.564 61.1669 362.539 61.2227L359.98 67.5319Z" fill="#200100"/>
<path d="M258.924 77.964L260.127 81.0848C260.412 81.8213 260.501 82.6193 260.385 83.4006C260.269 84.1819 259.952 84.9196 259.465 85.5414C259.263 85.8054 259.029 86.0435 258.769 86.2503C258.392 86.5649 257.966 86.8154 257.507 86.9915L252.971 88.7403C252.812 88.8035 252.648 88.8536 252.481 88.8902C252.18 88.9797 251.869 89.0272 251.556 89.0312C250.595 89.0847 249.643 88.8316 248.835 88.3084C248.028 87.7853 247.408 87.0192 247.065 86.1207L245.861 82.9999C245.6 82.3215 245.619 81.5672 245.914 80.9028C246.209 80.2383 246.755 79.7179 247.433 79.4559L255.38 76.3923C256.058 76.1314 256.812 76.1504 257.477 76.445C258.141 76.7397 258.662 77.286 258.924 77.964Z" fill="#B86A4B"/>
<path d="M259.465 85.5414C259.263 85.8054 259.029 86.0435 258.769 86.2502L256.391 80.3114C256.348 80.199 256.351 80.0742 256.399 79.964C256.447 79.8537 256.537 79.767 256.649 79.7226C256.761 79.6783 256.886 79.6798 256.996 79.7269C257.107 79.7741 257.195 79.863 257.24 79.9744L259.465 85.5414Z" fill="#200100"/>
<path d="M257.234 87.0967L256.382 87.4255L253.933 81.3279C253.89 81.2148 253.893 81.0892 253.942 80.9786C253.991 80.8679 254.082 80.7811 254.195 80.7373C254.25 80.7151 254.309 80.704 254.369 80.7047C254.428 80.7055 254.487 80.718 254.541 80.7415C254.596 80.765 254.645 80.7992 254.687 80.8419C254.728 80.8846 254.761 80.9351 254.782 80.9905L257.234 87.0967Z" fill="#200100"/>
<path d="M254.728 88.0632L253.875 88.3919L251.491 82.436C251.468 82.3809 251.456 82.3217 251.456 82.262C251.457 82.2023 251.469 82.1433 251.493 82.0885C251.516 82.0337 251.551 81.9842 251.594 81.943C251.637 81.9018 251.688 81.8696 251.744 81.8486L251.753 81.8453C251.864 81.8037 251.988 81.8068 252.097 81.8539C252.207 81.9011 252.294 81.9887 252.34 82.0985L254.728 88.0632Z" fill="#200100"/>
<path d="M252.481 88.8902C252.18 88.9798 251.869 89.0272 251.556 89.0312L249.106 82.905C249.06 82.7928 249.061 82.6671 249.108 82.5554C249.154 82.4437 249.244 82.3551 249.356 82.3089C249.412 82.2847 249.472 82.2722 249.533 82.2722C249.594 82.2722 249.655 82.2847 249.711 82.3089C249.767 82.3332 249.818 82.3686 249.86 82.4131C249.902 82.4576 249.934 82.5101 249.955 82.5676L252.481 88.8902Z" fill="#200100"/>
<path d="M0 336.409H432" stroke="#020202" stroke-miterlimit="10"/>
</svg>
