<svg width="142" height="66" viewBox="0 0 142 66" fill="none" xmlns="http://www.w3.org/2000/svg">
<path d="M8.75666 43.06H27.406V14.308L16.756 37.444L6.10599 14.2601V44.5L4.68599 44.452V10.8521H6.10599L16.756 34.036L27.406 10.9001L28.826 10.8521V44.5L8.75666 44.452V43.06ZM40.5177 43.06H55.9485L46.245 19.876L35.9264 44.5H34.4117L46.245 16.1801L58.0785 44.5H40.5177V43.06ZM63.4784 44.5V16.66H64.8984L80.3291 41.86V16.66H81.7491V44.5H80.3291L64.8984 19.2521V44.5H63.4784ZM101.779 25.7801L108.075 20.452C106.686 18.564 104.193 17.6201 100.596 17.6201C99.0184 17.6201 97.693 17.7961 96.6201 18.1481C95.5472 18.4681 94.5532 19.0921 93.6381 20.0201C92.7546 20.916 92.0919 22.2441 91.6501 24.004C91.2084 25.732 90.9875 27.9241 90.9875 30.58C90.9875 33.236 91.2084 35.444 91.6501 37.204C92.0919 38.932 92.7546 40.26 93.6381 41.188C94.5532 42.084 95.5472 42.708 96.6201 43.06C97.693 43.3801 99.0184 43.54 100.596 43.54C104.162 43.54 106.639 42.612 108.027 40.756V32.26H109.447V44.932C109.447 51.044 106.686 54.1 101.164 54.1H95.6261V52.66H101.164C103.531 52.66 105.266 52.0201 106.371 50.74C107.475 49.4921 108.027 47.092 108.027 43.54V42.82C106.323 44.26 103.846 44.98 100.596 44.98C96.6517 44.98 93.8275 43.844 92.1235 41.572C90.4195 39.3 89.5675 35.636 89.5675 30.58C89.5675 25.5241 90.4195 21.86 92.1235 19.588C93.8275 17.316 96.6517 16.1801 100.596 16.1801C105.172 16.1801 108.28 17.7 109.921 20.74L104.004 25.7801H101.779ZM131.567 18.1481C130.494 17.7961 129.169 17.6201 127.591 17.6201C126.013 17.6201 124.688 17.7961 123.615 18.1481C122.542 18.4681 121.548 19.0921 120.633 20.0201C119.749 20.916 119.087 22.2441 118.645 24.004C118.203 25.732 117.982 27.9241 117.982 30.58C117.982 33.236 118.203 35.444 118.645 37.204C119.087 38.932 119.749 40.26 120.633 41.188C121.548 42.084 122.542 42.708 123.615 43.06C124.688 43.3801 126.013 43.54 127.591 43.54C129.169 43.54 130.494 43.3801 131.567 43.06C132.64 42.708 133.618 42.084 134.502 41.188C135.417 40.26 136.095 38.932 136.537 37.204C136.979 35.444 137.2 33.236 137.2 30.58C137.2 27.9241 136.979 25.732 136.537 24.004C136.095 22.2441 135.417 20.916 134.502 20.0201C133.618 19.0921 132.64 18.4681 131.567 18.1481ZM136.064 41.572C134.36 43.844 131.535 44.98 127.591 44.98C123.646 44.98 120.822 43.844 119.118 41.572C117.414 39.3 116.562 35.636 116.562 30.58C116.562 25.5241 117.414 21.86 119.118 19.588C120.822 17.316 123.646 16.1801 127.591 16.1801C131.535 16.1801 134.36 17.316 136.064 19.588C137.768 21.86 138.62 25.5241 138.62 30.58C138.62 35.636 137.768 39.3 136.064 41.572Z" fill="#FFC017"/>
<path d="M8.75665 43.06V42.06H7.77054V43.06H8.75665ZM27.406 43.06V44.06H28.3921V43.06H27.406ZM27.406 14.308H28.3921L26.5124 13.885L27.406 14.308ZM16.756 37.444L15.8621 37.8663L16.755 39.8102L17.6496 37.867L16.756 37.444ZM6.10599 14.26L6.99985 13.8378L5.11987 14.26H6.10599ZM6.10599 44.5L6.07315 45.4995L7.0921 45.5339V44.5H6.10599ZM4.68599 44.452H3.69987V45.4192L4.65313 45.4515L4.68599 44.452ZM4.68599 10.852V9.85202H3.69987V10.852H4.68599ZM6.10599 10.852L6.99985 10.4298L6.73448 9.85202H6.10599V10.852ZM16.756 34.036L15.8621 34.4583L16.755 36.4022L17.6496 34.459L16.756 34.036ZM27.406 10.9L27.3731 9.90057L26.7684 9.92101L26.5124 10.477L27.406 10.9ZM28.826 10.852H29.8121V9.81812L28.7931 9.85256L28.826 10.852ZM28.826 44.5L28.8237 45.5L29.8121 45.5024V44.5H28.826ZM8.75665 44.452H7.77054V45.4497L8.75434 45.452L8.75665 44.452ZM8.75665 44.06H27.406V42.06H8.75665V44.06ZM28.3921 43.06V14.308H26.4199V43.06H28.3921ZM26.5124 13.885L15.8624 37.021L17.6496 37.867L28.2996 14.731L26.5124 13.885ZM17.6498 37.0218L6.99985 13.8378L5.21213 14.6823L15.8621 37.8663L17.6498 37.0218ZM5.11987 14.26V44.5H7.0921V14.26H5.11987ZM6.13882 43.5006L4.71884 43.4526L4.65313 45.4515L6.07315 45.4995L6.13882 43.5006ZM5.6721 44.452V10.852H3.69987V44.452H5.6721ZM4.68599 11.852H6.10599V9.85202H4.68599V11.852ZM5.21213 11.2743L15.8621 34.4583L17.6498 33.6138L6.99985 10.4298L5.21213 11.2743ZM17.6496 34.459L28.2996 11.323L26.5124 10.477L15.8624 33.613L17.6496 34.459ZM27.4388 11.8995L28.8588 11.8515L28.7931 9.85256L27.3731 9.90057L27.4388 11.8995ZM27.8399 10.852V44.5H29.8121V10.852H27.8399ZM28.8283 43.5L8.75897 43.452L8.75434 45.452L28.8237 45.5L28.8283 43.5ZM9.74276 44.452V43.06H7.77054V44.452H9.74276ZM40.5177 43.06V42.06H39.5316V43.06H40.5177ZM55.9485 43.06V44.06H57.438L56.8562 42.6693L55.9485 43.06ZM46.245 19.876L47.1528 19.4853L46.2456 17.3178L45.3375 19.4849L46.245 19.876ZM35.9264 44.5V45.5H36.5787L36.8339 44.8911L35.9264 44.5ZM34.4117 44.5L33.5037 44.1099L32.9229 45.5H34.4117V44.5ZM46.245 16.18L47.153 15.7899L46.245 13.6169L45.337 15.7899L46.245 16.18ZM58.0785 44.5V45.5H59.567L58.9862 44.1099L58.0785 44.5ZM40.5177 44.5H39.5316V45.5H40.5177V44.5ZM40.5177 44.06H55.9485V42.06H40.5177V44.06ZM56.8562 42.6693L47.1528 19.4853L45.3373 20.2667L55.0408 43.4507L56.8562 42.6693ZM45.3375 19.4849L35.0188 44.1089L36.8339 44.8911L47.1526 20.2671L45.3375 19.4849ZM35.9264 43.5H34.4117V45.5H35.9264V43.5ZM35.3197 44.8902L47.153 16.5702L45.337 15.7899L33.5037 44.1099L35.3197 44.8902ZM45.337 16.5702L57.1703 44.8902L58.9862 44.1099L47.153 15.7899L45.337 16.5702ZM58.0785 43.5H40.5177V45.5H58.0785V43.5ZM41.5038 44.5V43.06H39.5316V44.5H41.5038ZM63.4784 44.5H62.4923V45.5H63.4784V44.5ZM63.4784 16.66V15.66H62.4923V16.66H63.4784ZM64.8984 16.66L65.7361 16.1325L65.4467 15.66H64.8984V16.66ZM80.3291 41.86L79.4914 42.3875L81.3152 45.3661V41.86H80.3291ZM80.3291 16.66V15.66H79.343V16.66H80.3291ZM81.7491 16.66H82.7352V15.66H81.7491V16.66ZM81.7491 44.5V45.5H82.7352V44.5H81.7491ZM80.3291 44.5L79.4909 45.0268L79.7803 45.5H80.3291V44.5ZM64.8984 19.252L65.7366 18.7252L63.9123 15.7403V19.252H64.8984ZM64.8984 44.5V45.5H65.8845V44.5H64.8984ZM64.4645 44.5V16.66H62.4923V44.5H64.4645ZM63.4784 17.66H64.8984V15.66H63.4784V17.66ZM64.0607 17.1875L79.4914 42.3875L81.1668 41.3325L65.7361 16.1325L64.0607 17.1875ZM81.3152 41.86V16.66H79.343V41.86H81.3152ZM80.3291 17.66H81.7491V15.66H80.3291V17.66ZM80.763 16.66V44.5H82.7352V16.66H80.763ZM81.7491 43.5H80.3291V45.5H81.7491V43.5ZM81.1673 43.9732L65.7366 18.7252L64.0602 19.7788L79.4909 45.0268L81.1673 43.9732ZM63.9123 19.252V44.5H65.8845V19.252H63.9123ZM64.8984 43.5H63.4784V45.5H64.8984V43.5ZM101.779 25.78L101.147 25.0123L99.0588 26.78H101.779V25.78ZM108.075 20.452L108.706 21.2198L109.423 20.6131L108.865 19.8542L108.075 20.452ZM96.6201 18.148L96.8982 19.1074L96.911 19.1036L96.9234 19.0995L96.6201 18.148ZM93.6381 20.02L92.9405 19.3129L93.6381 20.02ZM91.6501 24.004L92.6047 24.255L92.6057 24.2507L91.6501 24.004ZM91.6501 37.204L90.6941 37.4507L90.6956 37.455L91.6501 37.204ZM93.6381 41.188L92.9286 41.8826L92.9405 41.8952L92.9528 41.9074L93.6381 41.188ZM96.6201 43.06L96.3164 44.0115L96.3287 44.0156L96.3416 44.0194L96.6201 43.06ZM108.027 40.756L108.813 41.3604L109.014 41.0924V40.756H108.027ZM108.027 32.26V31.26H107.041V32.26H108.027ZM109.447 32.26H110.434V31.26H109.447V32.26ZM95.6261 54.1H94.64V55.1H95.6261V54.1ZM95.6261 52.66V51.66H94.64V52.66H95.6261ZM106.371 50.74L105.637 50.072L105.633 50.077L105.628 50.0815L106.371 50.74ZM108.027 42.82H109.014V40.685L107.396 42.0518L108.027 42.82ZM92.1235 41.572L92.9079 40.9667L92.1235 41.572ZM92.1235 19.588L91.3385 18.9827L92.1235 19.588ZM109.921 20.74L110.555 21.5057L111.174 20.9787L110.786 20.2599L109.921 20.74ZM104.004 25.78V26.78H104.363L104.638 26.5457L104.004 25.78ZM102.411 26.5478L108.706 21.2198L107.443 19.6843L101.147 25.0123L102.411 26.5478ZM108.865 19.8542C107.206 17.5985 104.33 16.62 100.596 16.62V18.62C104.057 18.62 106.166 19.5296 107.284 21.0498L108.865 19.8542ZM100.596 16.62C98.9528 16.62 97.518 16.8024 96.3164 17.1966L96.9234 19.0995C97.8676 18.7896 99.0834 18.62 100.596 18.62V16.62ZM96.3416 17.1887C95.0872 17.5628 93.9537 18.2853 92.9405 19.3129L94.3353 20.7271C95.1523 19.8987 96.0068 19.3732 96.8982 19.1074L96.3416 17.1887ZM92.9405 19.3129C91.8888 20.3796 91.162 21.8944 90.6941 23.7573L92.6057 24.2507C93.0213 22.5937 93.6199 21.4525 94.3353 20.7271L92.9405 19.3129ZM90.6956 23.7531C90.2252 25.5924 90.0014 27.8762 90.0014 30.58H91.9736C91.9736 27.9718 92.191 25.8717 92.6042 24.255L90.6956 23.7531ZM90.0014 30.58C90.0014 33.2846 90.2252 35.5823 90.6941 37.4507L92.6057 36.9573C92.191 35.3057 91.9736 33.1874 91.9736 30.58H90.0014ZM90.6956 37.455C91.164 39.2888 91.8903 40.7921 92.9286 41.8826L94.3472 40.4934C93.6184 39.728 93.0194 38.5752 92.6042 36.9531L90.6956 37.455ZM92.9528 41.9074C93.9621 42.8956 95.0833 43.6069 96.3164 44.0115L96.9234 42.1086C96.0107 41.8092 95.1439 41.2725 94.323 40.4686L92.9528 41.9074ZM96.3416 44.0194C97.5333 44.3749 98.9592 44.54 100.596 44.54V42.54C99.077 42.54 97.8523 42.3852 96.8982 42.1007L96.3416 44.0194ZM100.596 44.54C104.297 44.54 107.153 43.5787 108.813 41.3604L107.242 40.1516C106.124 41.6454 104.027 42.54 100.596 42.54V44.54ZM109.014 40.756V32.26H107.041V40.756H109.014ZM108.027 33.26H109.447V31.26H108.027V33.26ZM108.461 32.26V44.932H110.434V32.26H108.461ZM108.461 44.932C108.461 47.8545 107.799 49.8598 106.649 51.1325C105.514 52.3885 103.75 53.1 101.164 53.1V55.1C104.1 55.1 106.477 54.2835 108.103 52.4835C109.715 50.7 110.434 48.1215 110.434 44.932H108.461ZM101.164 53.1H95.6261V55.1H101.164V53.1ZM96.6123 54.1V52.66H94.64V54.1H96.6123ZM95.6261 53.66H101.164V51.66H95.6261V53.66ZM101.164 53.66C103.694 53.66 105.754 52.9735 107.113 51.3985L105.628 50.0815C104.778 51.0665 103.367 51.66 101.164 51.66V53.66ZM107.104 51.408C107.808 50.6135 108.276 49.5236 108.573 48.2313C108.872 46.932 109.014 45.3621 109.014 43.54H107.041C107.041 45.27 106.906 46.676 106.653 47.7768C106.398 48.8844 106.038 49.6185 105.637 50.072L107.104 51.408ZM109.014 43.54V42.82H107.041V43.54H109.014ZM107.396 42.0518C105.935 43.286 103.72 43.98 100.596 43.98V45.98C103.973 45.98 106.711 45.2341 108.659 43.5882L107.396 42.0518ZM100.596 43.98C96.8282 43.98 94.3585 42.9004 92.9079 40.9667L91.3385 42.1774C93.296 44.7877 96.4747 45.98 100.596 45.98V43.98ZM92.9079 40.9667C91.4021 38.9588 90.5536 35.567 90.5536 30.58H88.5814C88.5814 35.705 89.4363 39.6413 91.3385 42.1774L92.9079 40.9667ZM90.5536 30.58C90.5536 25.593 91.4021 22.2013 92.9079 20.1934L91.3385 18.9827C89.4363 21.5188 88.5814 25.455 88.5814 30.58H90.5536ZM92.9079 20.1934C94.3585 18.2597 96.8282 17.18 100.596 17.18V15.18C96.4747 15.18 93.296 16.3724 91.3385 18.9827L92.9079 20.1934ZM100.596 17.18C104.951 17.18 107.646 18.6086 109.055 21.2202L110.786 20.2599C108.913 16.7914 105.392 15.18 100.596 15.18V17.18ZM109.286 19.9743L103.37 25.0143L104.638 26.5457L110.555 21.5057L109.286 19.9743ZM104.004 24.78H101.779V26.78H104.004V24.78ZM131.567 18.148L131.263 19.0995L131.276 19.1036L131.288 19.1074L131.567 18.148ZM123.615 18.148L123.893 19.1074L123.906 19.1036L123.918 19.0995L123.615 18.148ZM120.633 20.02L119.935 19.3129L120.633 20.02ZM118.645 24.004L119.599 24.255L119.6 24.2507L118.645 24.004ZM118.645 37.204L117.689 37.4507L117.69 37.455L118.645 37.204ZM120.633 41.188L119.923 41.8826L119.935 41.8952L119.948 41.9074L120.633 41.188ZM123.615 43.06L123.311 44.0115L123.324 44.0156L123.336 44.0194L123.615 43.06ZM131.567 43.06L131.845 44.0194L131.858 44.0156L131.87 44.0115L131.567 43.06ZM134.502 41.188L135.199 41.8951L134.502 41.188ZM136.537 37.204L137.491 37.455L137.492 37.4507L136.537 37.204ZM136.537 24.004L135.581 24.2507L135.582 24.255L136.537 24.004ZM134.502 20.02L133.792 20.7146L133.804 20.7272L133.816 20.7394L134.502 20.02ZM136.064 41.572L135.279 40.9667L136.064 41.572ZM119.118 41.572L119.903 40.9667L119.118 41.572ZM119.118 19.588L118.333 18.9827L119.118 19.588ZM136.064 19.588L136.848 18.9827L136.064 19.588ZM131.87 17.1966C130.669 16.8024 129.234 16.62 127.591 16.62V18.62C129.103 18.62 130.319 18.7896 131.263 19.0995L131.87 17.1966ZM127.591 16.62C125.948 16.62 124.513 16.8024 123.311 17.1966L123.918 19.0995C124.862 18.7896 126.078 18.62 127.591 18.62V16.62ZM123.336 17.1887C122.082 17.5628 120.948 18.2853 119.935 19.3129L121.33 20.7271C122.147 19.8987 123.002 19.3732 123.893 19.1074L123.336 17.1887ZM119.935 19.3129C118.884 20.3796 118.157 21.8944 117.689 23.7573L119.6 24.2507C120.016 22.5937 120.615 21.4525 121.33 20.7271L119.935 19.3129ZM117.69 23.7531C117.22 25.5924 116.996 27.8762 116.996 30.58H118.968C118.968 27.9718 119.186 25.8717 119.599 24.255L117.69 23.7531ZM116.996 30.58C116.996 33.2846 117.22 35.5823 117.689 37.4507L119.6 36.9573C119.186 35.3057 118.968 33.1874 118.968 30.58H116.996ZM117.69 37.455C118.159 39.2888 118.885 40.7921 119.923 41.8826L121.342 40.4934C120.613 39.728 120.014 38.5752 119.599 36.9531L117.69 37.455ZM119.948 41.9074C120.957 42.8956 122.078 43.6069 123.311 44.0115L123.918 42.1086C123.006 41.8092 122.139 41.2725 121.318 40.4686L119.948 41.9074ZM123.336 44.0194C124.528 44.3749 125.954 44.54 127.591 44.54V42.54C126.072 42.54 124.847 42.3852 123.893 42.1007L123.336 44.0194ZM127.591 44.54C129.227 44.54 130.653 44.3749 131.845 44.0194L131.288 42.1007C130.334 42.3852 129.11 42.54 127.591 42.54V44.54ZM131.87 44.0115C133.107 43.6057 134.217 42.8907 135.199 41.8951L133.804 40.4809C133.019 41.2773 132.172 41.8104 131.263 42.1086L131.87 44.0115ZM135.199 41.8951C136.275 40.8036 137.021 39.2958 137.491 37.455L135.582 36.9531C135.169 38.5683 134.558 39.7165 133.804 40.4809L135.199 41.8951ZM137.492 37.4507C137.961 35.5823 138.186 33.2846 138.186 30.58H136.213C136.213 33.1874 135.996 35.3057 135.581 36.9573L137.492 37.4507ZM138.186 30.58C138.186 27.8762 137.961 25.5924 137.491 23.7531L135.582 24.255C135.996 25.8717 136.213 27.9718 136.213 30.58H138.186ZM137.492 23.7573C137.023 21.8874 136.277 20.368 135.186 19.3006L133.816 20.7394C134.556 21.464 135.167 22.6007 135.581 24.2507L137.492 23.7573ZM135.211 19.3254C134.225 18.2902 133.103 17.5639 131.845 17.1887L131.288 19.1074C132.176 19.3721 133.011 19.8939 133.792 20.7146L135.211 19.3254ZM135.279 40.9667C133.828 42.9004 131.358 43.98 127.591 43.98V45.98C131.712 45.98 134.891 44.7877 136.848 42.1774L135.279 40.9667ZM127.591 43.98C123.823 43.98 121.353 42.9004 119.903 40.9667L118.333 42.1774C120.291 44.7877 123.469 45.98 127.591 45.98V43.98ZM119.903 40.9667C118.397 38.9588 117.548 35.567 117.548 30.58H115.576C115.576 35.705 116.431 39.6413 118.333 42.1774L119.903 40.9667ZM117.548 30.58C117.548 25.593 118.397 22.2013 119.903 20.1934L118.333 18.9827C116.431 21.5188 115.576 25.455 115.576 30.58H117.548ZM119.903 20.1934C121.353 18.2597 123.823 17.18 127.591 17.18V15.18C123.469 15.18 120.291 16.3724 118.333 18.9827L119.903 20.1934ZM127.591 17.18C131.358 17.18 133.828 18.2597 135.279 20.1934L136.848 18.9827C134.891 16.3724 131.712 15.18 127.591 15.18V17.18ZM135.279 20.1934C136.784 22.2013 137.633 25.593 137.633 30.58H139.606C139.606 25.455 138.75 21.5188 136.848 18.9827L135.279 20.1934ZM137.633 30.58C137.633 35.567 136.784 38.9588 135.279 40.9667L136.848 42.1774C138.75 39.6413 139.606 35.705 139.606 30.58H137.633Z" fill="#FFC017"/>
<path d="M132.151 6.09897C129.35 7.91047 127.795 12.5559 127.367 14.6522C127.367 14.6522 132.288 17.0203 133.679 12.317C135.069 7.61372 134.951 4.2875 132.151 6.09897Z" fill="#58BA04" stroke="#60B517"/>
<path d="M127.998 4.86081C129.324 8.06079 127.835 12.7283 126.924 14.662C126.924 14.662 121.2 13.4484 122.868 8.83854C124.536 4.22864 126.672 1.66085 127.998 4.86081Z" fill="#58BA04" stroke="#60B517"/>
<path d="M9.58159 59.2092C10.0084 58.0576 10.6295 56.3712 11.4448 54.1486C12.2602 51.9259 12.8703 50.2709 13.2753 49.1839H15.1878V60.8083H13.817V52.4376L13.8252 51.4306C13.3875 52.6613 12.7472 54.4071 11.9045 56.6666C11.0618 58.9268 10.5502 60.3069 10.3696 60.8083H8.81C8.64035 60.3499 8.13149 58.98 7.28326 56.6987C6.44058 54.418 5.7976 52.6613 5.35435 51.4306L5.37077 52.4376V60.8083H4V49.1839H5.9043L9.58159 59.2092ZM24.1019 58.7617C23.7955 59.4541 23.3549 60.0006 22.7804 60.4003C22.2113 60.8001 21.5026 61 20.6545 61C20.1838 61 19.7515 60.9331 19.3575 60.8001C18.9636 60.6671 18.6215 60.4802 18.3316 60.2407C18.047 59.9951 17.8035 59.7209 17.601 59.4173C17.3985 59.1082 17.2344 58.7671 17.1085 58.394C16.9224 57.8502 16.8294 57.2478 16.8294 56.5868C16.8294 55.5744 17.021 54.708 17.404 53.9889C17.7925 53.2637 18.3397 52.7391 19.0456 52.4137C19.4998 52.2056 19.9978 52.1019 20.5395 52.1019C21.0101 52.1019 21.4397 52.1736 21.8283 52.3175C22.2167 52.4615 22.5478 52.6641 22.8214 52.9254C23.0951 53.1812 23.3249 53.4691 23.5109 53.789C23.7024 54.1083 23.8611 54.4631 23.987 54.8519C24.1676 55.4489 24.2578 56.1283 24.2578 56.891H18.2905C18.3014 57.7438 18.5039 58.4281 18.8979 58.9452C19.2974 59.4568 19.8911 59.7127 20.6791 59.7127C21.6476 59.7127 22.3344 59.2651 22.7393 58.3701L24.1019 58.7617ZM22.6819 55.6358C22.5013 54.5429 22.0444 53.845 21.3111 53.5407C21.0758 53.4452 20.8268 53.3968 20.5642 53.3968C20.11 53.3968 19.7214 53.5196 19.3986 53.7652C19.0812 54.0046 18.8322 54.3164 18.6516 54.7005C18.5149 54.9775 18.4246 55.2892 18.3808 55.6358H22.6819ZM29.4372 52.0938C29.8586 52.0938 30.2526 52.1763 30.6192 52.3421C30.9859 52.5017 31.2978 52.7098 31.555 52.9656V49.112H32.975V60.8083H31.6371L31.5796 60.0886C31.1582 60.6964 30.4933 61 29.585 61C29.1308 61 28.7122 60.9331 28.3291 60.8001C27.9461 60.6671 27.615 60.4802 27.3359 60.2407C27.0623 60.0006 26.827 59.7318 26.63 59.433C26.433 59.1294 26.2743 58.7937 26.1539 58.426C25.9679 57.8823 25.8749 57.269 25.8749 56.5868C25.8749 55.5744 26.0636 54.7052 26.4412 53.9807C26.8188 53.2508 27.3551 52.7227 28.0501 52.398C28.4824 52.1954 28.9447 52.0938 29.4372 52.0938ZM31.555 55.7477C31.555 55.2306 31.4373 54.7803 31.202 54.3962C30.9721 54.0128 30.6684 53.7331 30.2909 53.5571C30.0555 53.4452 29.8203 53.3893 29.585 53.3893C29.3004 53.3893 29.0377 53.4398 28.797 53.5407C28.5617 53.6369 28.362 53.7754 28.1978 53.9569C28.0336 54.1329 27.8941 54.3246 27.7791 54.532C27.6697 54.74 27.5794 54.9693 27.5083 55.2196C27.3934 55.6194 27.3359 56.0751 27.3359 56.5868C27.3359 57.2799 27.4563 57.8796 27.6971 58.3858C27.9379 58.892 28.2853 59.2597 28.7395 59.4889C29.0132 59.6219 29.3031 59.6888 29.6096 59.6888C30.0419 59.6888 30.4086 59.5742 30.7095 59.345C31.0105 59.1103 31.2376 58.8094 31.3908 58.4417C31.5003 58.1647 31.555 57.8448 31.555 57.4825V55.7477ZM36.2664 51.0466C36.0804 51.2812 35.8287 51.3986 35.5113 51.3986C35.1939 51.3986 34.9395 51.2812 34.748 51.0466C34.5619 50.8119 34.4688 50.5294 34.4688 50.1993C34.4688 49.9591 34.5263 49.7435 34.6412 49.5518C34.7562 49.3547 34.9039 49.208 35.0845 49.112C35.2103 49.0373 35.3526 49 35.5113 49C35.8287 49 36.0804 49.1173 36.2664 49.352C36.458 49.5859 36.5538 49.8691 36.5538 50.1993C36.5538 50.5294 36.458 50.8119 36.2664 51.0466ZM36.2337 60.8083H34.8136V52.3578H36.2337V60.8083ZM41.4786 53.3333C40.5703 53.3333 40.0094 53.7809 39.796 54.6759L38.376 54.3007C38.6113 53.6233 38.9971 53.085 39.5333 52.6852C40.0696 52.2861 40.7509 52.0862 41.5772 52.0862C42.1025 52.0862 42.5758 52.1715 42.9972 52.3421C43.424 52.5072 43.777 52.7337 44.056 53.0216C44.3351 53.304 44.5568 53.6424 44.721 54.0367C44.907 54.474 45 54.9904 45 55.5873V60.8083H43.6046L43.5389 59.9528C42.8878 60.635 42.0669 60.9761 41.0765 60.9761C40.3869 60.9761 39.7933 60.8376 39.2953 60.56C38.8028 60.2775 38.4416 59.8941 38.2118 59.4091C38.0586 59.0789 37.982 58.7132 37.982 58.3135C37.982 57.9457 38.0422 57.6101 38.1626 57.3065C38.2829 56.9975 38.4498 56.7335 38.6632 56.5152C38.8767 56.2914 39.1147 56.1045 39.3773 55.9551C39.6455 55.8009 39.9355 55.6781 40.2474 55.5873C40.6852 55.4598 41.134 55.3956 41.5936 55.3956C42.294 55.3956 42.9233 55.5341 43.4815 55.8118V55.5717C43.4815 54.8574 43.3173 54.3055 42.989 53.9166C42.6606 53.5278 42.1572 53.3333 41.4786 53.3333ZM41.6346 56.6427C40.9944 56.6427 40.48 56.7785 40.0915 57.0507C39.7084 57.3174 39.5169 57.7247 39.5169 58.2739C39.5169 59.2228 40.138 59.697 41.3802 59.697C41.8617 59.697 42.2694 59.5878 42.6032 59.3688C42.9425 59.1451 43.1859 58.8497 43.3337 58.482C43.4322 58.2309 43.4815 57.9621 43.4815 57.6742V57.0984C43.0492 56.7949 42.4335 56.6427 41.6346 56.6427Z" fill="black"/>
</svg>
