<svg width="137" height="53" viewBox="0 0 137 53" fill="none" xmlns="http://www.w3.org/2000/svg">
<path d="M101.004 22.7799C101.132 23.2633 101.132 23.2633 101.132 23.2632L101.133 23.2631L101.134 23.2627L101.139 23.2614L101.157 23.2566C101.172 23.2524 101.195 23.2462 101.223 23.2382C101.281 23.2221 101.364 23.1984 101.468 23.1672C101.677 23.105 101.973 23.0128 102.322 22.8927C103.018 22.6533 103.937 22.299 104.809 21.8431C105.671 21.393 106.539 20.8177 107.083 20.1167C107.36 19.7607 107.567 19.354 107.633 18.9004C107.699 18.4398 107.612 17.9685 107.361 17.5024C105.604 14.248 102.287 12.6799 97.5961 12.6799C93.5597 12.6799 90.5552 13.8456 88.7234 16.2879C86.9208 18.6915 86.0675 22.4904 86.0675 27.5799C86.0675 32.6695 86.9208 36.4683 88.7234 38.8719C90.5552 41.3143 93.5597 42.4799 97.5961 42.4799C100.442 42.4799 102.769 41.9395 104.526 40.8097C104.513 42.4423 104.377 43.8004 104.126 44.8918C103.86 46.0465 103.473 46.8699 102.996 47.4086L102.992 47.4133C102.016 48.5445 100.446 49.1599 98.1641 49.1599H86.5675H86.0675V49.6599V51.0999V51.5999H86.5675H98.1641C101.016 51.5999 103.243 50.8084 104.748 49.1431C106.244 47.4874 106.947 45.0532 106.947 41.9319V29.2599V28.7599H106.447H105.027H104.527V29.2599V37.5853C103.256 39.1765 101.001 40.0399 97.5961 40.0399C96.052 40.0399 94.7804 39.8833 93.7696 39.5827C92.7836 39.2581 91.8584 38.6813 90.9943 37.8369C90.1913 36.9907 89.5621 35.7522 89.1347 34.0807C88.7066 32.3744 88.4874 30.2112 88.4874 27.5799C88.4874 24.9475 88.7068 22.8008 89.1345 21.1278L89.1351 21.1257C89.5642 19.4162 90.195 18.1814 90.9941 17.371C91.8599 16.4931 92.7832 15.9193 93.763 15.6271L93.7631 15.6273L93.776 15.623C94.783 15.2926 96.0519 15.1199 97.5961 15.1199C99.305 15.1199 100.983 15.594 102.404 16.2998C103.83 17.008 104.962 17.9318 105.597 18.7962C105.604 18.8058 105.609 18.813 105.611 18.8179C105.607 18.8298 105.594 18.8541 105.565 18.8913C105.45 19.0361 105.194 19.2249 104.774 19.4414C103.953 19.8648 102.744 20.2762 101.547 20.6599C101.328 20.7301 101.108 20.7996 100.892 20.8681C99.9568 21.1641 99.0795 21.4418 98.5386 21.6809C98.3698 21.7555 98.2081 21.8371 98.0795 21.9269C98.0152 21.9718 97.9427 22.03 97.8802 22.1038C97.8195 22.1753 97.7407 22.294 97.7227 22.456C97.6789 22.8503 97.9982 23.0466 98.1225 23.1079C98.279 23.1851 98.479 23.2349 98.6932 23.2724C99.1769 23.3571 99.7781 23.3547 100.234 23.3357C100.466 23.326 100.671 23.3114 100.818 23.2993C100.892 23.2932 100.951 23.2877 100.992 23.2837L101.04 23.2789L101.053 23.2775L101.057 23.2771L101.058 23.277L101.058 23.277L101.058 23.277C101.058 23.277 101.059 23.277 101.004 22.7799ZM101.004 22.7799L101.132 23.2633L101.096 23.2729L101.059 23.277L101.004 22.7799ZM5.75664 39.5599H5.25664V40.0599V41.4519V41.9519H5.75664H25.826H26.326V41.4519V13.6119V13.0947L25.8091 13.1122L24.3891 13.1602L24.1202 13.1693L23.9797 13.3986L13.7566 30.0782L3.53259 13.3512L3.38636 13.1119H3.10597H1.68597H1.18597V13.6119V41.4519V41.9353L1.66908 41.9516L3.08908 41.9996L3.60597 42.0171V41.4999V18.7967L13.3294 34.7047L13.7554 35.4017L14.1823 34.7052L23.906 18.8405V39.5599H5.75664ZM37.5177 39.5599H37.0177V40.0599V41.4999V41.9999H37.5177H55.0785H55.8338L55.5387 41.3046L43.7053 13.4166L43.245 12.3319L42.7848 13.4166L30.9514 41.3046L30.6564 41.9999H31.4117H32.9264H33.259L33.3875 41.6932L43.2448 18.1703L52.1972 39.5599H37.5177ZM59.9784 41.4999V41.9999H60.4784H61.8984H62.3984V41.4999V18.0288L76.9025 41.7607L77.0487 41.9999H77.3291H78.7491H79.2491V41.4999V13.6599V13.1599H78.7491H77.3291H76.8291V13.6599V37.083L62.325 13.3512L62.173 13.1024L61.8815 13.1122L60.4615 13.1602L59.9784 13.1765V13.6599V41.4999ZM98.5559 22.2063C98.556 22.2063 98.5573 22.207 98.5596 22.2084C98.557 22.207 98.5559 22.2063 98.5559 22.2063ZM128.411 15.623L128.411 15.6232L128.424 15.6271C129.402 15.9187 130.307 16.4906 131.139 17.3647L131.146 17.3711L131.152 17.3772C131.979 18.1871 132.624 19.4197 133.052 21.1257L133.052 21.1278C133.48 22.8008 133.7 24.9475 133.7 27.5799C133.7 30.2112 133.48 32.3744 133.052 34.0807C132.625 35.7529 131.98 36.991 131.146 37.8368C130.313 38.6809 129.404 39.2579 128.417 39.5827C127.407 39.8833 126.135 40.0399 124.591 40.0399C123.047 40.0399 121.775 39.8833 120.764 39.5827C119.778 39.2581 118.853 38.6813 117.989 37.8369C117.186 36.9907 116.557 35.7522 116.129 34.0807C115.701 32.3744 115.482 30.2112 115.482 27.5799C115.482 24.9475 115.702 22.8008 116.129 21.1278L116.13 21.1257C116.559 19.4162 117.19 18.1814 117.989 17.371C118.855 16.4931 119.778 15.9193 120.758 15.6271L120.758 15.6273L120.771 15.623C121.778 15.2926 123.047 15.1199 124.591 15.1199C126.135 15.1199 127.404 15.2926 128.411 15.623ZM124.591 42.4799C128.627 42.4799 131.632 41.3143 133.464 38.8719C135.266 36.4683 136.12 32.6695 136.12 27.5799C136.12 22.4904 135.266 18.6915 133.464 16.2879C131.632 13.8456 128.627 12.6799 124.591 12.6799C120.554 12.6799 117.55 13.8456 115.718 16.2879C113.916 18.6915 113.062 22.4904 113.062 27.5799C113.062 32.6695 113.916 36.4683 115.718 38.8719C117.55 41.3143 120.554 42.4799 124.591 42.4799Z" fill="#FFC017" stroke="#FFC017"/>
<path d="M132.023 6.92752C128.758 7.61229 125.638 11.3894 124.486 13.1923C124.486 13.1923 128.229 17.1697 131.216 13.2795C134.202 9.38926 135.287 6.2426 132.023 6.92752Z" fill="#58BA04" stroke="#60B517"/>
<path d="M128.592 4.28076C128.68 7.7434 125.614 11.5646 124.07 13.0425C124.07 13.0425 119.163 9.85437 122.376 6.15098C125.587 2.44741 128.503 0.818129 128.592 4.28076Z" fill="#58BA04" stroke="#60B517"/>
</svg>
