<svg width="450" height="321" viewBox="0 0 450 321" fill="none" xmlns="http://www.w3.org/2000/svg">
<path d="M71.5066 306.937C85.8841 294.8 87.7436 274.404 85.7075 256.386C85.3646 253.376 85.4374 250.173 83.8168 247.645C82.1962 245.117 78.7681 243.585 76.2125 245.085C74.1349 246.327 73.3454 249.016 72.2857 251.276C70.8611 254.313 68.6363 256.874 65.8658 258.668C64.0582 259.825 61.7728 260.628 59.8198 259.739C57.15 258.518 56.5682 254.951 56.3501 251.951C55.9345 246.359 55.5259 240.764 55.1242 235.165C55.0559 232.15 54.5156 229.165 53.5244 226.328C52.3817 223.564 50.1482 221.089 47.2914 220.532C44.4347 219.975 41.0584 221.903 40.726 224.892C40.7127 226.145 40.7821 227.398 40.9338 228.641C40.9928 229.263 40.8749 229.889 40.5945 230.443C40.3141 230.996 39.8833 231.454 39.3548 231.759C38.2121 232.209 36.9655 231.459 36.0097 230.687C32.727 227.924 30.3481 224.196 28.1146 220.479C25.8811 216.762 23.6892 212.98 20.6662 209.874C17.6432 206.767 13.6125 204.518 9.37406 204.625C5.13563 204.732 0.845251 207.785 0.118068 212.123C-0.609114 216.462 2.14379 220.532 5.05252 223.725C9.38474 228.44 14.3529 232.488 19.8039 235.744C20.8486 236.224 21.7181 237.034 22.2868 238.057C23.0867 240.007 21.383 242.15 19.5027 242.974C17.3627 243.906 14.9526 243.874 12.6776 244.346C10.4025 244.817 7.99242 246.059 7.2964 248.341C6.34067 251.555 9.11436 254.511 11.753 256.407C17.0706 260.204 22.9757 263.041 29.2158 264.795C31.4492 265.416 33.7866 265.931 35.6565 267.334C37.5264 268.737 38.773 271.34 37.9108 273.547C37.0486 275.754 34.3684 276.654 32.0622 276.418C29.756 276.182 27.6263 275.1 25.3929 274.457C21.2375 273.247 16.0434 273.975 13.6956 277.757C13.0014 279.046 12.6105 280.486 12.5546 281.959C12.4987 283.433 12.7792 284.9 13.3736 286.241C14.5828 288.909 16.2997 291.298 18.4223 293.268C25.4932 300.591 34.3172 305.853 43.9983 308.522C53.6595 311.04 62.4376 311.2 71.5066 306.937Z" fill="#EBEBEB"/>
<path d="M72.7636 320.316C71.2703 312.007 68.9985 303.867 65.98 296.01C62.2502 286.414 57.9803 277.05 53.192 267.966L49.4418 260.81C48.216 258.453 47.0006 256.118 45.6709 253.912C43.1226 249.682 40.3481 245.601 37.3602 241.689C34.5242 237.929 31.6882 234.458 29.0495 231.244C26.4109 228.031 23.8554 225.085 21.3933 222.493C17.5623 218.394 13.4254 214.612 9.02085 211.181C7.4626 209.959 6.21601 209.038 5.37455 208.46L4.40844 207.774C4.29811 207.696 4.18366 207.625 4.06562 207.56C4.06562 207.56 4.1695 207.656 4.37727 207.817L5.32261 208.535C6.15367 209.156 7.40027 210.077 8.91697 211.32C13.2712 214.797 17.3654 218.607 21.1648 222.718C23.5853 225.31 26.12 228.266 28.7794 231.491C31.4389 234.715 34.2437 238.186 37.0901 241.946C40.077 245.851 42.8514 249.925 45.4008 254.147C46.7201 256.343 47.9251 258.668 49.1509 261.024L52.87 268.191C57.6184 277.262 61.8704 286.599 65.606 296.16C68.628 303.989 70.9237 312.095 72.4623 320.37" fill="#E0E0E0"/>
<path d="M45.5878 253.858C45.6853 253.429 45.7409 252.991 45.754 252.551C45.8371 251.716 45.9202 250.484 46.0033 248.973C46.1799 245.952 46.2838 241.775 46.3877 237.19C46.4915 232.605 46.6578 228.406 46.8967 225.406C47.0006 223.896 47.1148 222.685 47.198 221.839C47.2585 221.406 47.2863 220.969 47.2811 220.532C47.1527 220.951 47.0656 221.381 47.0214 221.818C46.8863 222.653 46.7305 223.875 46.585 225.374C46.263 228.395 46.0449 232.573 45.941 237.158C45.8371 241.742 45.7644 245.867 45.702 248.941C45.6501 250.387 45.6189 251.598 45.5878 252.519C45.5459 252.964 45.5459 253.413 45.5878 253.858Z" fill="#E0E0E0"/>
<path d="M7.11979 249.873H7.51455H8.64687C9.62338 249.873 11.0362 249.873 12.8022 249.927C16.3031 250.002 21.1129 250.28 26.4628 250.848C31.8128 251.416 36.5707 252.144 40.0196 252.776C41.7441 253.087 43.1361 253.365 44.1022 253.558L45.2034 253.783C45.4631 253.783 45.5981 253.847 45.5981 253.783C45.4812 253.719 45.3549 253.676 45.2242 253.654L44.1334 253.344C43.188 253.097 41.796 252.765 40.0716 252.423C36.633 251.705 31.8336 250.923 26.5044 250.344C21.1752 249.766 16.3238 249.552 12.8022 249.562C11.0466 249.562 9.68571 249.562 8.64687 249.659L7.52494 249.734C7.38362 249.758 7.24689 249.805 7.11979 249.873Z" fill="#E0E0E0"/>
<path d="M65.5022 295.325C65.5839 295.163 65.6533 294.995 65.7099 294.821C65.8554 294.447 66.0216 293.964 66.2397 293.375C66.6968 292.111 67.2786 290.258 68.0473 288.019C69.5121 283.445 71.3508 277.061 73.3038 269.98C75.2568 262.899 77.0332 256.515 78.4252 251.919C79.1213 249.67 79.6822 247.827 80.0978 246.477C80.2848 245.877 80.4302 245.406 80.5445 244.999C80.6083 244.83 80.6536 244.654 80.6795 244.474C80.5869 244.628 80.5136 244.794 80.4614 244.967C80.3263 245.353 80.1497 245.835 79.9315 246.424C79.4745 247.688 78.8927 249.53 78.1344 251.78C76.6592 256.354 74.8205 262.738 72.8779 269.819C70.9353 276.9 69.1796 283.306 67.746 287.88C67.0604 290.13 66.4891 291.972 66.0839 293.311C65.8969 293.922 65.7515 294.382 65.6268 294.8C65.5687 294.97 65.527 295.146 65.5022 295.325Z" fill="#E0E0E0"/>
<path d="M13.8307 283.081C13.9915 283.161 14.1631 283.215 14.3397 283.242L15.846 283.606L21.3934 284.913C26.0681 285.984 32.5089 287.623 39.6249 289.423C46.7409 291.222 53.192 292.786 57.8875 293.815C60.2353 294.329 62.1364 294.725 63.4557 294.971L64.9724 295.25C65.1498 295.292 65.3307 295.317 65.5126 295.325C65.3475 295.247 65.1727 295.193 64.9931 295.164L63.4868 294.8L57.9499 293.493C53.2751 292.422 46.8344 290.783 39.7287 288.983C32.6231 287.184 26.1616 285.62 21.4661 284.591C19.1183 284.077 17.2172 283.681 15.8979 283.434L14.3709 283.145C14.1928 283.109 14.0121 283.087 13.8307 283.081Z" fill="#E0E0E0"/>
<path d="M207.978 0.839858L132.87 24.1348L148.097 76.339L223.205 53.044L207.978 0.839858Z" fill="white"/>
<path d="M223.218 52.9934C223.218 52.9934 223.103 52.6614 222.916 52.04C222.729 51.4187 222.449 50.4761 222.085 49.2763C221.369 46.8553 220.309 43.3096 218.969 38.7891C216.289 29.7158 212.455 16.7005 207.781 0.857136L208.051 1.00711L132.964 24.3918L133.151 24.0383L148.359 76.2496L148.048 76.0782L202.15 59.4208L217.639 54.6967L221.794 53.4433L222.833 53.122L223.207 53.0256L222.875 53.1434L221.836 53.4862L217.764 54.7717L202.368 59.6243L148.183 76.5603L147.944 76.6353L147.871 76.3889C143.228 60.4813 138.054 42.7954 132.621 24.1883L132.548 23.9205L132.798 23.8455L207.916 0.600037L208.123 0.535767L208.186 0.750016C212.788 16.6791 216.559 29.7587 219.197 38.8748C220.486 43.3953 221.504 46.9303 222.189 49.362C222.532 50.5403 222.781 51.4509 222.968 52.0936C223.155 52.7363 223.218 52.9934 223.218 52.9934Z" fill="#E0E0E0"/>
<path d="M207.988 0.824984C207.961 0.906673 207.926 0.985558 207.885 1.06065L207.531 1.72481C207.189 2.3354 206.721 3.18167 206.139 4.25289L200.893 13.5404L183.295 44.3165L183.171 44.5201L182.963 44.4344L180.667 43.5238L146.832 29.9086L136.6 25.7309L133.837 24.5632L133.12 24.2526C133.034 24.2231 132.953 24.1797 132.881 24.124C132.971 24.1321 133.059 24.1575 133.141 24.199L133.868 24.4561L136.683 25.5273L146.967 29.5444L180.854 42.9989L183.16 43.9202L182.828 44.038C189.788 31.9868 196.042 21.1889 200.571 13.3368L205.963 4.14577C206.586 3.07455 207.085 2.27113 207.438 1.66053L207.843 1.02851C207.926 0.889252 207.978 0.814272 207.988 0.824984Z" fill="#E0E0E0"/>
<path d="M426.538 209.392C426.538 209.392 421.666 204.421 412.171 216.837C407.193 223.121 402.623 229.738 398.489 236.643C398.489 236.643 396.121 239.171 394.563 236.879C393.004 234.587 391.394 228.674 387.925 228.973C384.455 229.273 382.46 232.958 381.993 238.839C381.525 244.72 380.061 257.586 379.915 258.743C379.77 259.9 378.876 261.41 377.536 260.028C376.196 258.646 369.454 246.884 364.208 250.505C358.962 254.126 360.292 270.772 360.406 272.583C360.52 274.393 360.042 275.079 359.17 275.336C358.297 275.593 356.375 271.415 354.308 268.148C352.241 264.881 349.301 261.442 346.454 263.81C343.608 266.177 340.585 277.821 347.774 299.213L351.732 308.854L361.86 310.343C383.748 312.154 393.929 306.23 395.435 302.791C396.942 299.353 392.994 297.274 389.4 296.032C385.805 294.789 381.401 293.889 381.432 292.979C381.463 292.068 381.972 291.404 383.707 291.061C385.442 290.719 401.367 287.848 403.445 281.731C405.522 275.614 392.797 271.779 391.166 270.815C389.535 269.851 390.74 268.534 391.779 268.116C392.817 267.698 404.535 262.995 409.948 261.067C415.36 259.139 418.342 256.332 417.729 252.669C417.116 249.005 411.184 249.016 408.639 248.02C406.094 247.024 407.881 244.046 407.881 244.046C413.353 238.204 418.444 231.996 423.12 225.46C432.397 212.862 426.351 209.188 426.351 209.188" fill="#EBEBEB"/>
<path d="M417.978 220.447C417.931 220.541 417.876 220.631 417.812 220.714L417.282 221.486C416.783 222.171 416.087 223.146 415.204 224.389C413.386 226.906 410.737 230.527 407.434 234.983C400.837 243.896 391.612 256.129 381.37 269.584L355.17 304.088L347.265 314.575L345.104 317.413L344.533 318.142C344.397 318.303 344.335 318.388 344.325 318.378C344.371 318.283 344.427 318.193 344.491 318.11L345.021 317.349L347.098 314.435C348.906 311.918 351.565 308.297 354.859 303.841C361.455 294.929 370.69 282.695 380.944 269.241C391.197 255.786 400.411 243.596 407.133 234.737C410.446 230.334 413.147 226.767 415.038 224.26C415.952 223.05 416.679 222.118 417.188 221.411L417.77 220.682C417.895 220.522 417.968 220.436 417.978 220.447Z" fill="#E0E0E0"/>
<path d="M389.857 237.34C390.083 238.258 390.212 239.199 390.241 240.146C390.397 241.882 390.532 244.292 390.626 246.959C390.719 249.627 390.761 251.833 390.813 253.772C390.889 254.713 390.889 255.659 390.813 256.6C390.587 255.682 390.462 254.741 390.439 253.794C390.304 252.048 390.189 249.637 390.096 246.981C390.002 244.324 389.94 242.107 389.867 240.168C389.784 239.227 389.781 238.281 389.857 237.34Z" fill="#E0E0E0"/>
<path d="M391.685 256.975C395.24 256.383 398.822 255.979 402.416 255.765C408.348 255.261 413.179 254.972 413.189 255.122C409.634 255.708 406.052 256.108 402.458 256.322C396.526 256.836 391.706 257.125 391.685 256.975Z" fill="#E0E0E0"/>
<path d="M374.451 277.628C375.383 277.702 376.307 277.857 377.214 278.089C378.918 278.421 381.255 278.882 383.852 279.31C386.449 279.739 388.808 280.06 390.522 280.285C391.457 280.362 392.384 280.516 393.295 280.746C392.361 280.828 391.42 280.807 390.49 280.681C388.756 280.553 386.335 280.296 383.769 279.856C381.203 279.417 378.814 278.903 377.131 278.475C376.211 278.292 375.312 278.008 374.451 277.628Z" fill="#E0E0E0"/>
<path d="M369.007 260.253C369.439 261.03 369.787 261.852 370.046 262.706C370.597 264.26 371.334 266.402 372.124 268.78C372.913 271.158 373.578 273.322 374.046 274.907C374.338 275.745 374.554 276.61 374.69 277.489C374.252 276.712 373.904 275.885 373.651 275.025C373.09 273.483 372.363 271.34 371.573 268.962C370.784 266.584 370.119 264.41 369.651 262.835C369.346 262.001 369.13 261.135 369.007 260.253Z" fill="#E0E0E0"/>
<path d="M351.545 276.493C352.045 277.511 352.469 278.568 352.812 279.653C353.529 281.635 354.485 284.377 355.513 287.419C356.541 290.462 357.435 293.225 358.068 295.229C358.459 296.3 358.762 297.404 358.972 298.528C358.464 297.495 358.04 296.42 357.705 295.314C356.988 293.343 356.032 290.601 355.004 287.559C353.976 284.516 353.072 281.753 352.448 279.739C352.059 278.685 351.757 277.599 351.545 276.493Z" fill="#E0E0E0"/>
<path d="M358.941 297.949C360.124 298.019 361.301 298.177 362.463 298.421C364.624 298.774 367.657 299.256 370.929 299.706C374.202 300.156 377.245 300.499 379.417 300.777C380.599 300.857 381.776 301.018 382.938 301.259C381.754 301.334 380.565 301.305 379.385 301.174C377.193 301.024 374.191 300.745 370.857 300.285C367.522 299.824 364.54 299.288 362.39 298.849C361.219 298.647 360.065 298.346 358.941 297.949Z" fill="#E0E0E0"/>
<path d="M380.684 103.997L378.222 187.074L437.096 188.929L439.558 105.852L380.684 103.997Z" fill="#F5F5F5"/>
<path d="M369.845 115.041L367.383 198.118L426.258 199.973L428.719 116.896L369.845 115.041Z" fill="white"/>
<path d="M426.247 199.954C426.24 199.819 426.24 199.683 426.247 199.547C426.247 199.269 426.247 198.883 426.247 198.379C426.247 197.308 426.299 195.809 426.351 193.837C426.455 189.863 426.6 184.089 426.787 176.773C427.192 162.151 427.764 141.423 428.439 116.881L428.678 117.138L369.807 115.306L370.088 115.039C369.142 146.104 368.28 174.802 367.574 198.112L367.356 197.876L410.114 199.344L422.009 199.772L425.125 199.901L426.216 199.954H425.177L422.061 199.879L410.218 199.568L367.324 198.337H367.106V198.112C367.782 174.791 368.613 146.061 369.516 115.028V114.749H369.797L428.657 116.635H428.906V116.892C428.127 141.53 427.473 162.29 427.005 176.944C426.766 184.229 426.569 189.992 426.444 193.945C426.372 195.894 426.32 197.394 426.278 198.433C426.278 198.926 426.278 199.311 426.226 199.579C426.174 199.847 426.247 199.954 426.247 199.954Z" fill="#E0E0E0"/>
<path d="M405.761 134.256C405.761 134.417 399.352 134.331 391.457 134.085C383.561 133.838 377.152 133.506 377.152 133.356C377.152 133.206 383.572 133.281 391.467 133.528C399.362 133.774 405.761 134.106 405.761 134.256Z" fill="#E0E0E0"/>
<path d="M420.97 141.969C420.97 142.119 411.101 141.969 398.926 141.551C386.751 141.133 376.882 140.726 376.892 140.576C376.903 140.426 386.761 140.576 398.947 140.994C411.132 141.412 420.98 141.808 420.97 141.969Z" fill="#E0E0E0"/>
<path d="M420.752 149.5C420.752 149.65 410.872 149.5 398.697 149.082C386.522 148.664 376.664 148.257 376.664 148.107C376.664 147.957 386.543 148.107 398.718 148.525C410.893 148.943 420.752 149.339 420.752 149.5Z" fill="#E0E0E0"/>
<path d="M420.523 157.03C420.523 157.18 410.654 157.03 398.479 156.613C386.304 156.195 376.445 155.788 376.445 155.638C376.445 155.488 386.325 155.638 398.5 156.056C410.675 156.473 420.533 156.902 420.523 157.03Z" fill="#E0E0E0"/>
<path d="M420.305 164.561C420.305 164.711 410.426 164.561 398.261 164.143C386.096 163.725 376.217 163.318 376.217 163.168C376.217 163.018 386.096 163.168 398.271 163.586C410.446 164.004 420.305 164.4 420.305 164.561Z" fill="#E0E0E0"/>
<path d="M420.087 172.092C420.087 172.242 410.208 172.092 398.032 171.674C385.857 171.256 375.999 170.849 375.999 170.699C375.999 170.549 385.878 170.699 398.053 171.117C410.228 171.535 420.087 171.899 420.087 172.092Z" fill="#E0E0E0"/>
<path d="M419.858 179.622C419.858 179.772 409.979 179.622 397.814 179.205C385.65 178.787 375.77 178.38 375.781 178.23C375.791 178.08 385.649 178.23 397.825 178.648C410 179.065 419.869 179.462 419.858 179.622Z" fill="#E0E0E0"/>
<path d="M399.248 186.51C399.248 186.66 393.939 186.617 387.395 186.414C380.85 186.21 375.552 185.91 375.552 185.76C375.552 185.61 380.86 185.653 387.405 185.857C393.95 186.06 399.248 186.35 399.248 186.51Z" fill="#E0E0E0"/>
<path d="M251.862 39.0318L233.44 86.7434L291.31 110.503L309.732 62.7911L251.862 39.0318Z" fill="white"/>
<path d="M309.721 62.795L309.441 62.6879L308.63 62.3665L305.514 61.0811L293.64 56.207L251.817 39.0675L251.941 39.0139L233.533 86.7154L233.471 86.5654L291.334 110.346H291.22C296.788 95.9707 301.411 84.0588 304.631 75.7354C306.252 71.579 307.519 68.3118 308.381 66.0944L309.42 63.5556L309.763 62.6772L309.441 63.5449C309.223 64.1234 308.901 64.9696 308.475 66.073C307.623 68.3011 306.397 71.5683 304.776 75.714C301.566 84.0481 296.964 95.9921 291.427 110.4V110.486H291.344L233.398 86.8439H233.294V86.7368C239.953 69.5116 246.238 53.229 251.723 39.0354V38.939H251.806L293.734 56.207L305.545 61.0918L308.662 62.3773L309.462 62.7093L309.721 62.795Z" fill="#E0E0E0"/>
<path d="M252.654 42.9074L236.553 84.6078L290.36 106.699L306.461 64.9986L252.654 42.9074Z" fill="#EBEBEB"/>
<path d="M236.764 84.7337L265.571 66.5229L270.952 87.5189L282.192 82.0985L290.576 106.822L236.764 84.7337Z" fill="#E0E0E0"/>
<path d="M283.376 70.1329C283.043 70.9973 282.468 71.7403 281.725 72.2678C280.982 72.7952 280.103 73.0835 279.201 73.0962C278.299 73.1088 277.414 72.8452 276.657 72.3388C275.9 71.8323 275.306 71.1057 274.949 70.251C274.593 69.3962 274.491 68.4517 274.655 67.5369C274.82 66.6221 275.243 65.7782 275.873 65.1119C276.503 64.4456 277.31 63.9868 278.193 63.7937C279.075 63.6006 279.993 63.6818 280.831 64.027C281.388 64.2547 281.895 64.5935 282.325 65.0239C282.754 65.4544 283.097 65.9679 283.333 66.5352C283.569 67.1024 283.695 67.7122 283.702 68.3296C283.71 68.9469 283.599 69.5598 283.376 70.1329Z" fill="#E0E0E0"/>
<path d="M102.89 136.399C103.281 136.565 103.704 136.635 104.126 136.602C104.631 136.542 105.101 136.304 105.456 135.927C105.867 135.341 106.231 134.721 106.546 134.074L113.288 121.948L115.532 117.942L116.727 115.799C116.935 115.458 117.116 115.099 117.267 114.728C117.376 114.358 117.376 113.962 117.267 113.592C117.174 113.211 116.967 112.87 116.675 112.618C116.342 112.375 115.995 112.153 115.636 111.953L113.32 110.625L108.499 107.84L87.0372 95.4244C86.6138 95.1909 86.1215 95.1274 85.6553 95.2461C85.1892 95.3648 84.7821 95.6573 84.5128 96.0672L82.9026 98.9166C81.8638 100.802 80.8249 102.677 79.7861 104.508L73.7609 115.124C73.522 115.542 73.283 115.96 73.0545 116.378C72.823 116.739 72.7035 117.165 72.7117 117.599C72.728 118.022 72.8775 118.428 73.1376 118.756C73.4326 119.071 73.7858 119.322 74.1764 119.495L78.7161 122.151L86.8398 126.908L98.5994 133.838L101.789 135.745L102.609 136.249C102.796 136.366 102.89 136.431 102.879 136.441L102.588 136.302L101.737 135.842L98.5059 134.021L86.6528 127.25L78.5291 122.505L73.979 119.88C73.5381 119.68 73.1394 119.392 72.8052 119.034C72.4806 118.62 72.2947 118.109 72.2754 117.577C72.2531 117.047 72.391 116.523 72.6701 116.078C72.8987 115.66 73.1376 115.242 73.3765 114.824L79.329 104.23L82.4455 98.6381L84.0765 95.7565C84.4204 95.2309 84.9411 94.8556 85.538 94.7032C86.1348 94.5508 86.7653 94.6322 87.3073 94.9317L108.749 107.39L113.569 110.197L115.865 111.546C116.261 111.754 116.643 111.99 117.007 112.253C117.37 112.572 117.627 112.999 117.745 113.475C117.87 113.93 117.87 114.412 117.745 114.867C117.579 115.273 117.381 115.663 117.153 116.035L115.937 118.177L113.673 122.173C110.774 127.229 108.427 131.332 106.785 134.213C106.445 134.861 106.056 135.481 105.622 136.067C105.235 136.457 104.728 136.696 104.188 136.741C103.862 136.766 103.534 136.711 103.233 136.581C103.111 136.537 102.995 136.475 102.89 136.399Z" fill="#E0E0E0"/>
<path d="M97.4047 114.439L100.023 119.227L94.6206 119.334L89.2187 119.43L92.0028 114.535L94.7869 109.64L97.4047 114.439Z" fill="#E0E0E0"/>
<path d="M449.704 318.656C449.704 318.817 350.34 318.945 227.809 318.945C105.279 318.945 5.88358 318.838 5.88358 318.656C5.88358 318.474 105.227 318.356 227.809 318.356C350.392 318.356 449.704 318.517 449.704 318.656Z" fill="#263238"/>
<path d="M115.73 250.623L84.3674 218.133L100.137 188.267C115.906 167.443 149.294 168.782 149.294 168.782C165.766 167.627 182.314 168.675 198.525 171.899C225.046 177.255 222.906 195.316 222.906 195.316L226.459 262.342L230.271 316.921L132.465 318.956L115.73 250.666" fill="#FF725E"/>
<path d="M168.419 315.764L80.8145 316.835C75.9886 316.893 71.2275 315.685 66.9786 313.324C62.7296 310.964 59.1322 307.529 56.5243 303.341C53.9163 299.153 52.3833 294.351 52.0694 289.385C51.7554 284.419 52.6708 279.452 54.7295 274.95L92.1898 203.318L126.315 227.099L103.035 276.878L173.946 278.185L168.419 315.764Z" fill="#FF725E"/>
<path d="M219.81 184.389L290.108 296.31L249.095 299.074C249.095 299.074 224.599 259.278 225.15 260.092C226.126 261.592 219.81 184.389 219.81 184.389Z" fill="#FF725E"/>
<path d="M124.549 233.537C124.552 233.34 124.583 233.145 124.643 232.958C124.747 232.53 124.861 231.994 125.017 231.33C125.339 229.927 125.817 227.891 126.305 225.363C126.793 222.835 127.344 219.793 127.687 216.408C128.109 212.739 128.109 209.032 127.687 205.364C127.123 201.726 125.893 198.232 124.061 195.069C122.589 192.465 120.848 190.034 118.867 187.817C117.532 186.302 116.11 184.871 114.608 183.532C114.035 183.07 113.487 182.577 112.966 182.054C113.135 182.141 113.296 182.245 113.444 182.365C113.735 182.59 114.203 182.9 114.743 183.361C116.305 184.633 117.777 186.018 119.147 187.506C121.195 189.707 122.993 192.14 124.508 194.759C126.404 197.97 127.674 201.533 128.248 205.246C128.659 208.96 128.631 212.712 128.165 216.419C127.814 219.435 127.314 222.431 126.669 225.396C126.128 227.934 125.63 229.959 125.204 231.352C125.017 232.048 124.851 232.583 124.736 232.948C124.693 233.15 124.63 233.347 124.549 233.537Z" fill="#263238"/>
<path d="M121.724 237.393C121.574 237.951 121.372 238.493 121.121 239.011C120.706 240.082 120.082 241.517 119.282 243.296C117.693 246.927 115.439 251.919 112.842 257.382C110.245 262.845 107.793 267.741 105.975 271.308C105.061 273.065 104.313 274.522 103.783 275.454C103.53 275.973 103.238 276.47 102.911 276.943C103.097 276.396 103.326 275.866 103.596 275.357C104.126 274.286 104.812 272.851 105.674 271.126L112.395 257.2C114.94 251.769 117.257 246.863 118.981 243.189C119.792 241.464 120.456 240.028 120.976 238.904C121.184 238.379 121.434 237.874 121.724 237.393Z" fill="#263238"/>
<path d="M168.419 315.764C168.419 315.764 168.419 315.699 168.419 315.582C168.419 315.464 168.419 315.249 168.419 315.025C168.471 314.51 168.544 313.793 168.627 312.882C168.835 310.975 169.126 308.265 169.489 304.848C170.258 297.917 171.359 288.169 172.606 276.675L172.855 276.953H146.978L101.778 276.878L88.0656 276.793L84.3362 276.739H83.3597H83.0273C83.1377 276.725 83.2493 276.725 83.3597 276.739H84.3362L88.0656 276.686L101.778 276.6L147.051 276.525H172.928H173.208V276.803C171.837 288.287 170.684 298.035 169.853 304.955C169.437 308.362 169.095 311.072 168.814 312.979C168.703 313.878 168.61 314.592 168.534 315.121L168.45 315.667C168.44 315.699 168.43 315.764 168.419 315.764Z" fill="#263238"/>
<path d="M103.648 277.671C103.021 276.956 102.438 276.202 101.903 275.411C99.1032 271.786 95.6363 268.768 91.7015 266.53C90.8612 266.111 90.0428 265.646 89.2499 265.138C90.172 265.361 91.0575 265.721 91.8781 266.209C95.9762 268.297 99.5201 271.381 102.204 275.197C102.794 275.949 103.28 276.781 103.648 277.671Z" fill="#263238"/>
<path d="M227.913 284.763C227.837 284.457 227.788 284.145 227.768 283.831C227.695 283.177 227.602 282.288 227.477 281.163C227.238 278.849 226.916 275.497 226.573 271.351C225.856 263.049 225.036 251.566 224.308 238.882C223.581 226.199 223.072 214.694 222.781 206.371C222.636 202.204 222.532 198.872 222.49 196.505C222.49 195.38 222.49 194.491 222.439 193.827C222.423 193.516 222.423 193.205 222.439 192.895C222.496 193.202 222.527 193.514 222.532 193.827C222.532 194.48 222.615 195.38 222.677 196.505C222.792 198.883 222.948 202.236 223.145 206.349C223.529 214.673 224.101 226.156 224.828 238.85C225.555 251.544 226.324 263.006 226.906 271.319C227.217 275.422 227.466 278.817 227.643 281.153C227.726 282.224 227.789 283.167 227.84 283.82C227.892 284.131 227.917 284.447 227.913 284.763Z" fill="#263238"/>
<path d="M149.71 223.864C149.714 223.372 149.753 222.882 149.824 222.396C149.949 221.379 150.105 220.018 150.302 218.347C150.759 214.812 151.341 209.97 152.11 204.357L152.504 204.614L145.783 209.467L138.948 214.373L138.459 214.726L138.542 214.116C139.374 208.556 140.08 203.757 140.62 200.19C140.89 198.551 141.098 197.201 141.264 196.194C141.32 195.711 141.417 195.234 141.555 194.769C141.556 195.258 141.514 195.745 141.43 196.226C141.306 197.233 141.15 198.583 140.942 200.243C140.475 203.757 139.82 208.567 139.072 214.169L138.677 213.912L145.503 208.984L152.234 204.153L152.723 203.8L152.639 204.41C151.84 210.002 151.143 214.844 150.645 218.336C150.385 219.997 150.177 221.357 150.022 222.364C149.961 222.873 149.857 223.374 149.71 223.864Z" fill="#FFC017"/>
<path d="M188.812 228.202C188.437 227.895 188.09 227.554 187.773 227.184C187.097 226.435 186.183 225.438 185.061 224.217L175.785 213.848L176.231 213.687C176.013 216.312 175.785 219.161 175.546 222.118C175.307 225.074 175.057 228.009 174.839 230.687L174.787 231.309L174.393 230.848L165.365 220.35L162.789 217.286C162.461 216.936 162.169 216.552 161.916 216.14C162.29 216.468 162.637 216.826 162.955 217.211L165.635 220.168L174.798 230.527L174.351 230.687C174.569 228.02 174.798 225.128 175.047 222.118C175.296 219.108 175.525 216.312 175.743 213.687L175.795 213.077L176.19 213.526L185.331 224.035L187.939 227.11C188.257 227.45 188.549 227.815 188.812 228.202Z" fill="#FFC017"/>
<path d="M208.487 226.767C208.294 227.218 208.057 227.649 207.781 228.052L205.703 231.502L198.286 243.371L198.036 242.964L206.098 241.528L214.304 240.103L214.897 239.996L214.616 240.457L207.033 252.09L204.747 255.454C204.493 255.866 204.209 256.256 203.895 256.622C204.1 256.183 204.337 255.761 204.602 255.358L206.679 251.93L214.107 240.146L214.367 240.553L206.16 242.021L198.068 243.435L197.475 243.531L197.808 243.028L205.381 231.244L207.604 227.87C207.877 227.484 208.172 227.116 208.487 226.767Z" fill="#FFC017"/>
<path d="M182.319 247.527C182.124 247.974 181.887 248.401 181.612 248.802L179.535 252.262L172.128 264.12L171.868 263.713L179.95 262.278L188.167 260.842L188.76 260.746L188.417 261.249L180.833 272.893L178.6 276.236C178.352 276.648 178.067 277.035 177.748 277.393C177.956 276.956 178.192 276.533 178.454 276.129C178.995 275.272 179.701 274.125 180.532 272.711L187.96 260.928L188.219 261.335L180.013 262.803L171.92 264.206L171.328 264.313L171.66 263.799L179.234 252.015C180.148 250.623 180.896 249.487 181.467 248.641C181.724 248.249 182.009 247.877 182.319 247.527Z" fill="#FFC017"/>
<path d="M238.862 226.531C238.656 226.973 238.42 227.399 238.156 227.806L236.078 231.266L228.672 243.124L228.412 242.717L236.494 241.282L244.711 239.846L245.303 239.75L244.971 240.253L237.377 251.898C236.463 253.269 235.715 254.394 235.143 255.229C234.898 255.646 234.612 256.037 234.292 256.397C234.501 255.958 234.741 255.536 235.008 255.133L237.086 251.715L244.514 239.932L244.773 240.339L236.567 241.796L228.474 243.21L227.892 243.317L228.214 242.803L235.788 231.019L238.021 227.645C238.266 227.246 238.547 226.873 238.862 226.531Z" fill="#FFC017"/>
<path d="M271.482 280.456C271.11 280.165 270.763 279.842 270.443 279.492L267.597 276.664L257.821 266.788L258.257 266.605C258.174 269.241 258.091 272.09 257.998 275.057C257.904 278.025 257.79 280.97 257.697 283.627V284.248L257.271 283.809L247.755 273.793L245.033 270.869C244.695 270.537 244.382 270.179 244.098 269.798C244.468 270.091 244.815 270.413 245.137 270.762L247.963 273.579L257.624 283.456L257.177 283.638C257.26 280.96 257.354 278.067 257.447 275.068C257.541 272.069 257.655 269.251 257.748 266.616V266.006L258.164 266.434L267.794 276.461L270.547 279.396C270.887 279.722 271.199 280.077 271.482 280.456Z" fill="#FFC017"/>
<path d="M106.463 209.327C106.26 209.77 106.024 210.197 105.757 210.602L103.679 214.062L96.2724 225.931L96.0127 225.524L104.095 224.078L112.312 222.653L112.904 222.546L112.572 223.06L104.978 234.694L102.755 238.036C102.502 238.445 102.217 238.832 101.903 239.193C102.102 238.754 102.338 238.335 102.609 237.94L104.687 234.512C106.567 231.544 109.143 227.474 112.115 222.728L112.374 223.135L104.167 224.603L96.075 226.017L95.4932 226.113L95.8153 225.61C98.8591 220.896 101.477 216.826 103.388 213.826L105.622 210.452C105.873 210.055 106.155 209.679 106.463 209.327Z" fill="#FFC017"/>
<path d="M65.3879 289.433C65.7379 289.759 66.0578 290.118 66.3436 290.504L68.8784 293.643L77.4903 304.602L77.0332 304.73C77.4072 302.127 77.8019 299.299 78.2279 296.353C78.6538 293.407 79.0693 290.504 79.4537 287.858L79.5368 287.248L79.9108 287.741L88.2838 298.796L90.6627 302.009C90.9649 302.381 91.236 302.779 91.473 303.198C91.1318 302.867 90.8158 302.508 90.5276 302.127L88.0344 298.999L79.568 288.062L80.025 287.944C79.6511 290.59 79.2459 293.461 78.82 296.439C78.3941 299.417 77.9889 302.202 77.6046 304.805L77.5215 305.416L77.1475 304.934L68.6706 293.857L66.2501 290.644C65.9367 290.261 65.6486 289.856 65.3879 289.433Z" fill="#FFC017"/>
<path d="M159.194 237.565C158.729 237.667 158.257 237.732 157.782 237.757L153.834 238.111L140.184 239.182L140.35 238.732L146.334 244.517L152.39 250.409L152.826 250.837H152.224L138.646 251.608L134.72 251.78C134.25 251.822 133.777 251.822 133.307 251.78C133.769 251.684 134.238 251.623 134.709 251.598L138.626 251.276L152.193 250.312L152.037 250.762L145.96 244.892L139.997 239.086L139.561 238.657H140.153L153.813 237.811L157.761 237.608C158.237 237.556 158.716 237.542 159.194 237.565Z" fill="#FFC017"/>
<path d="M136.174 291.554C136.521 291.89 136.847 292.248 137.15 292.625L139.737 295.71L148.578 306.487L148.121 306.615C148.443 304.002 148.796 301.174 149.159 298.228C149.523 295.282 149.897 292.358 150.198 289.712L150.281 289.09L150.655 289.572L159.257 300.445L161.698 303.659C162.001 304.032 162.278 304.425 162.529 304.837C162.179 304.508 161.856 304.15 161.563 303.766L159.007 300.692L150.281 289.979L150.728 289.84C150.406 292.497 150.053 295.368 149.689 298.356C149.326 301.345 148.962 304.141 148.65 306.755L148.567 307.365L148.193 306.894L139.498 295.989L137.026 292.775C136.704 292.398 136.418 291.989 136.174 291.554Z" fill="#FFC017"/>
<path d="M95.0258 251.962C94.5609 252.067 94.0883 252.132 93.613 252.155L89.6758 252.497L76.0255 253.569L76.1814 253.108L82.1754 258.903L88.2318 264.795L88.6681 265.224H88.0656L74.4881 265.995L70.5613 266.166C70.1016 266.206 69.6394 266.206 69.1796 266.166C69.6411 266.064 70.1103 266.003 70.582 265.984L74.4985 265.663L88.0656 264.688L87.9098 265.149L81.8326 259.278L75.8593 253.472L75.4334 253.044H76.0255L89.6862 252.187L93.6337 251.994C94.0963 251.947 94.5616 251.937 95.0258 251.962Z" fill="#FFC017"/>
<path d="M130.377 290.344C129.912 290.445 129.439 290.506 128.964 290.526L125.017 290.879L111.367 291.95L111.533 291.49L117.516 297.285L123.573 303.177L124.009 303.605H123.417L109.829 304.366L105.902 304.548C105.432 304.59 104.96 304.59 104.49 304.548C104.951 304.446 105.42 304.385 105.892 304.366L109.808 304.045L123.375 303.07L123.22 303.53L117.143 297.66L111.18 291.875L110.743 291.458H111.335L124.996 290.601L128.954 290.408C129.426 290.342 129.902 290.321 130.377 290.344Z" fill="#FFC017"/>
<path d="M210.17 192.691C209.705 192.794 209.232 192.858 208.757 192.884L204.81 193.227L191.17 194.298L191.326 193.848L197.309 199.633L203.366 205.524L203.802 205.953H203.21L189.622 206.724L185.695 206.896C185.225 206.938 184.752 206.938 184.282 206.896C184.744 206.793 185.213 206.732 185.685 206.713L189.601 206.392L203.179 205.428L203.012 205.878L196.956 200.018L190.993 194.212L190.557 193.784H191.149L204.81 192.927L208.767 192.734C209.233 192.684 209.702 192.669 210.17 192.691Z" fill="#FFC017"/>
<path d="M171.359 290.344C171.359 290.344 188.832 285.148 194.619 283.627C196.873 283.038 206.524 288.287 213.193 292.657C213.193 292.657 222.376 298.271 221.639 299.995C220.818 301.902 217.483 301.516 212.029 298.924C212.029 298.924 213.92 304.569 210.211 304.441C210.211 304.441 212.05 310.547 208.581 311.179C205.111 311.811 204.301 304.023 201.246 303.605C198.192 303.188 191.897 302.759 191.897 302.759C191.897 302.759 186.63 311.757 182.547 312.4C178.465 313.043 169.043 311.897 169.043 311.897L171.359 290.344Z" fill="#8B5421"/>
<path d="M201.184 291.586C202.895 292.372 204.529 293.322 206.067 294.425C207.698 295.376 209.235 296.488 210.658 297.746C207.312 296.017 204.139 293.954 201.184 291.586Z" fill="#945E26"/>
<path d="M200.156 295.089C202.151 295.737 204.091 296.558 205.952 297.542C207.877 298.349 209.732 299.32 211.5 300.445C209.503 299.805 207.563 298.987 205.703 298.003C203.775 297.201 201.919 296.226 200.156 295.089Z" fill="#945E26"/>
<path d="M202.026 303.455C204.665 303.445 207.293 303.806 209.838 304.527C207.199 304.534 204.571 304.174 202.026 303.455Z" fill="#945E26"/>
<path d="M148.619 104.412C148.825 105.106 148.828 105.847 148.628 106.543C148.427 107.239 148.033 107.859 147.493 108.325C146.954 108.791 146.293 109.083 145.593 109.164C144.894 109.246 144.187 109.113 143.56 108.782C141.192 107.551 140.89 104.176 141.358 101.487C141.825 98.7987 142.708 95.9171 141.617 93.4212C140.776 91.5144 138.958 90.3039 137.545 88.8042C136.298 87.5007 135.362 85.9169 134.808 84.1773C134.255 82.4376 134.1 80.5894 134.356 78.7776C134.655 76.9713 135.433 75.2852 136.602 73.9054C137.772 72.5256 139.288 71.5055 140.984 70.9577C144.464 69.9615 148.754 71.0648 151.372 68.4618C153.252 66.5764 153.367 63.502 154.821 61.2525C157.075 57.7603 161.843 57.2032 165.874 57.771C169.905 58.3387 173.998 59.6777 177.945 58.6601C181.238 57.8138 183.939 55.4464 187.035 53.9896C190.409 52.3992 194.181 51.9359 197.823 52.6645C201.464 53.3931 204.794 55.2772 207.347 58.0532C209.899 60.8292 211.547 64.3584 212.058 68.1472C212.57 71.936 211.921 75.7951 210.201 79.1847C209.055 81.6652 207.103 83.6545 204.685 84.8086" fill="black"/>
<path d="M168.669 192.905C171.318 192.9 173.939 192.353 176.382 191.295C178.824 190.237 181.039 188.689 182.897 186.742C184.755 184.795 186.22 182.487 187.207 179.952C188.193 177.417 188.682 174.705 188.645 171.974L188.386 152.285C188.386 152.285 204.425 150.624 205.485 134.235C206.544 117.845 205.786 80.0203 205.786 80.0203C196.961 75.5054 187.127 73.4996 177.299 74.2095C167.471 74.9193 158.005 78.3193 149.876 84.0588L147.424 85.8049L148.619 172.509C148.682 177.947 150.823 183.139 154.577 186.958C158.331 190.777 163.395 192.914 168.669 192.905Z" fill="#8B5421"/>
<path d="M201.589 109.768C201.009 109.699 200.474 109.413 200.085 108.963C199.697 108.514 199.482 107.933 199.482 107.331C199.482 106.729 199.697 106.148 200.085 105.699C200.474 105.249 201.009 104.963 201.589 104.894C201.715 104.862 201.847 104.862 201.974 104.894C202.554 104.963 203.089 105.249 203.477 105.699C203.866 106.148 204.081 106.729 204.081 107.331C204.081 107.933 203.866 108.514 203.477 108.963C203.089 109.413 202.554 109.699 201.974 109.768C201.846 109.789 201.717 109.789 201.589 109.768Z" fill="#263238"/>
<path d="M204.706 104.476C204.446 104.755 202.95 103.405 200.758 103.287C198.566 103.169 196.914 104.23 196.696 103.93C196.478 103.63 196.852 103.298 197.579 102.794C198.551 102.151 199.697 101.847 200.849 101.926C202.001 102.005 203.098 102.463 203.978 103.234C204.633 103.833 204.841 104.412 204.706 104.476Z" fill="#263238"/>
<path d="M179.369 105.033C179.745 105.302 180.036 105.681 180.205 106.12C180.373 106.56 180.411 107.041 180.314 107.503C180.217 107.965 179.989 108.387 179.659 108.716C179.33 109.044 178.913 109.264 178.462 109.348C178.011 109.432 177.545 109.376 177.125 109.188C176.705 108.999 176.348 108.686 176.101 108.288C175.853 107.89 175.725 107.426 175.734 106.953C175.742 106.481 175.886 106.021 176.148 105.633C176.499 105.114 177.034 104.759 177.638 104.647C178.242 104.534 178.864 104.673 179.369 105.033Z" fill="#263238"/>
<path d="M180.813 105.13C180.542 105.408 179.047 104.058 176.865 103.941C174.683 103.823 173.021 104.883 172.793 104.583C172.679 104.444 172.959 103.951 173.676 103.448C174.647 102.805 175.794 102.501 176.946 102.58C178.098 102.659 179.195 103.117 180.075 103.887C180.729 104.487 180.937 105.012 180.813 105.13Z" fill="#263238"/>
<path d="M188.645 124.262C188.645 124.09 190.006 123.876 192.229 123.683C192.801 123.683 193.268 123.544 193.32 123.233C193.362 122.643 193.251 122.051 192.998 121.519C192.51 119.987 192.022 118.445 191.502 116.827C189.424 110.154 188.064 104.658 188.386 104.551C188.708 104.444 190.64 109.768 192.686 116.442C193.164 118.07 193.632 119.655 194.078 121.155C194.408 121.935 194.474 122.807 194.265 123.63C194.173 123.852 194.03 124.048 193.85 124.203C193.669 124.357 193.456 124.466 193.227 124.519C192.903 124.593 192.57 124.619 192.24 124.594C189.996 124.551 188.645 124.444 188.645 124.262Z" fill="#263238"/>
<path d="M181.374 126.361C184.712 128.129 188.271 129.415 191.949 130.186C191.142 131.328 189.985 132.155 188.664 132.532C187.344 132.91 185.939 132.815 184.677 132.264C179.992 130.196 181.374 126.361 181.374 126.361Z" fill="white"/>
<path d="M188.448 152.049C181.094 151.779 173.985 149.258 168.025 144.808C168.025 144.808 172.304 156.88 188.251 156.302L188.448 152.049Z" fill="#945E26"/>
<path d="M205.921 84.1659C205.921 84.1659 196.312 89.2006 183.586 82.9661C175.276 78.874 165.542 76.978 163.443 78.7455C161.345 80.513 161.064 89.297 152.92 92.0286C152.92 92.0286 153.803 108.804 147.3 108.333C140.797 107.861 144.37 81.7985 144.37 81.7985L160.088 73.4858L177.343 69.7687L193.704 71.8147L206.399 75.1248L205.921 84.1659Z" fill="black"/>
<path d="M148.484 102.944C148.224 102.805 137.732 98.9915 137.493 110.229C137.254 121.466 148.235 119.398 148.256 119.077C148.276 118.756 148.484 102.944 148.484 102.944Z" fill="#8B5421"/>
<path d="M145.014 114.739C145.014 114.739 144.817 114.878 144.495 115.017C144.039 115.208 143.528 115.208 143.072 115.017C141.929 114.556 140.994 112.65 140.994 110.625C140.993 109.66 141.195 108.706 141.586 107.829C141.698 107.481 141.89 107.166 142.145 106.911C142.4 106.655 142.71 106.467 143.051 106.362C143.271 106.32 143.498 106.353 143.698 106.456C143.898 106.558 144.061 106.724 144.163 106.929C144.298 107.24 144.225 107.465 144.277 107.486C144.329 107.508 144.516 107.304 144.443 106.844C144.386 106.563 144.24 106.311 144.027 106.126C143.733 105.887 143.361 105.776 142.989 105.815C142.539 105.895 142.116 106.093 141.762 106.389C141.407 106.685 141.132 107.071 140.963 107.508C140.483 108.472 140.234 109.541 140.236 110.625C140.236 112.885 141.337 115.038 142.895 115.542C143.187 115.634 143.494 115.658 143.796 115.614C144.097 115.569 144.386 115.457 144.64 115.285C145.014 115.017 145.014 114.76 145.014 114.739Z" fill="#945E26"/>
<path d="M142.937 67.7762C144.18 67.4002 145.507 67.4495 146.721 67.9169C147.935 68.3842 148.969 69.2444 149.668 70.3685C148.7 69.6121 147.655 68.9656 146.552 68.4403C145.372 68.09 144.161 67.8674 142.937 67.7762Z" fill="#263238"/>
<path d="M149.492 61.049C149.689 61.049 149.388 63.4163 149.762 66.2229C150.085 67.9103 150.598 69.5531 151.289 71.1184C151.289 71.1184 150.832 70.7221 150.375 69.8865C149.788 68.7745 149.401 67.5624 149.232 66.3086C148.929 64.5579 149.018 62.759 149.492 61.049Z" fill="#263238"/>
<path d="M194.255 99.0558C194.193 98.9273 194.66 98.5309 195.543 98.1667C197.887 97.2319 200.49 97.2588 202.815 98.2417C203.688 98.6273 204.155 99.0237 204.093 99.1522C203.958 99.4522 201.859 98.6059 199.169 98.6059C196.478 98.6059 194.38 99.3879 194.255 99.0558Z" fill="#263238"/>
<path d="M169.946 96.7206C169.884 96.592 170.352 96.2064 171.235 95.8315C172.397 95.3681 173.635 95.139 174.881 95.1566C176.132 95.1563 177.371 95.4111 178.527 95.9064C179.4 96.2921 179.857 96.6884 179.805 96.8277C179.753 96.9669 177.571 96.2814 174.87 96.2706C172.169 96.2599 170.092 97.0205 169.946 96.7206Z" fill="#263238"/>
<path d="M192.375 100.855C192.398 101.076 192.398 101.299 192.375 101.52C192.375 101.991 192.375 102.591 192.427 103.33C192.479 104.069 192.427 105.065 192.489 106.137C192.45 107.373 192.626 108.606 193.008 109.779C193.509 111.299 194.376 112.664 195.528 113.745C196.68 114.826 198.079 115.588 199.595 115.96C200.464 116.179 201.361 116.258 202.254 116.195C203.183 116.152 204.099 115.953 204.965 115.606C206.813 114.892 208.388 113.581 209.453 111.868C210.462 110.232 210.968 108.32 210.908 106.383C210.908 104.465 210.908 102.623 210.908 100.855L211.157 101.113L197.652 100.984L193.736 100.909H192.697H192.312C192.757 100.858 193.205 100.837 193.653 100.845L197.507 100.77L211.157 100.641H211.5V100.909C211.5 102.677 211.5 104.519 211.5 106.437C211.569 108.48 211.037 110.496 209.973 112.221C208.843 114.035 207.174 115.422 205.215 116.174C204.294 116.538 203.322 116.745 202.337 116.785C201.398 116.842 200.456 116.752 199.543 116.517C197.954 116.121 196.49 115.31 195.293 114.161C194.096 113.013 193.205 111.567 192.707 109.961C192.334 108.736 192.179 107.451 192.25 106.169C192.25 105.098 192.25 104.101 192.302 103.287C192.354 102.473 192.302 101.97 192.354 101.498C192.344 101.284 192.351 101.069 192.375 100.855Z" fill="#263238"/>
<path d="M166.913 100.298C166.913 100.298 166.913 100.545 166.913 100.963V102.773C166.913 103.566 166.913 104.508 166.965 105.59C166.938 106.826 167.113 108.057 167.484 109.232C167.963 110.643 168.748 111.922 169.78 112.971C170.972 114.165 172.454 115.005 174.071 115.403C175.858 115.847 177.733 115.723 179.452 115.049C181.294 114.336 182.865 113.029 183.929 111.321C184.941 109.687 185.452 107.775 185.394 105.837C185.394 103.919 185.394 102.066 185.394 100.298L185.643 100.556L172.138 100.427L168.232 100.363H167.193H166.809C167.251 100.312 167.695 100.291 168.139 100.298L171.993 100.234L185.643 100.106H185.892V100.363C185.892 102.13 185.892 103.983 185.892 105.901C185.955 107.945 185.419 109.96 184.355 111.685C183.226 113.493 181.561 114.876 179.607 115.628C178.687 115.991 177.715 116.197 176.73 116.238C175.787 116.295 174.842 116.205 173.925 115.97C172.228 115.539 170.676 114.639 169.437 113.367C168.366 112.257 167.562 110.903 167.09 109.414C166.716 108.189 166.562 106.905 166.632 105.622C166.632 104.551 166.632 103.555 166.695 102.741C166.757 101.927 166.695 101.423 166.695 100.952C166.733 100.723 166.806 100.503 166.913 100.298Z" fill="#263238"/>
<path d="M192.603 101.638C190.228 102.009 187.811 102.009 185.435 101.638C187.81 101.252 190.229 101.252 192.603 101.638Z" fill="#263238"/>
<path d="M147.092 101.777C150.395 101.493 153.71 101.389 157.023 101.466C160.339 101.369 163.657 101.451 166.965 101.712C163.663 102.01 160.347 102.113 157.034 102.023C153.718 102.132 150.399 102.05 147.092 101.777Z" fill="#263238"/>
<path d="M253.957 303.927C256.291 308.394 259.827 312.072 264.139 314.518C268.451 316.963 273.356 318.073 278.265 317.713C284.065 317.295 289.553 314.849 293.823 310.781C298.093 306.713 300.891 301.264 301.753 295.336L307.779 224.217L283.647 218.068L273.788 273.772C273.788 273.772 268.635 297.114 253.957 303.927Z" fill="#8B5421"/>
<path d="M283.428 223.221L284.228 210.741C284.228 210.741 287.646 182.74 287.646 179.997C287.646 176.848 289.111 176.077 290.243 176.162C291.999 176.28 293.245 178.519 293.36 181.229C293.36 182.161 293.277 196.965 293.277 196.965C294.107 195.566 295.034 194.231 296.05 192.97C298.128 190.195 303.156 188.61 308.277 188.781C313.399 188.953 314.801 189.467 314.832 191.513C314.814 191.904 314.712 192.286 314.532 192.63C314.352 192.975 314.1 193.274 313.793 193.505C312.848 194.318 311.647 194.745 310.417 194.705C302.221 194.555 300.029 199.065 300.029 199.065L299.925 200.704C299.925 200.704 304.901 197.03 308.869 198.562C309.456 198.785 309.993 199.128 310.448 199.568C311.566 199.573 312.663 199.879 313.63 200.455C314.597 201.032 315.402 201.859 315.964 202.855C316.525 203.851 316.825 204.981 316.832 206.134C316.84 207.286 316.555 208.42 316.006 209.424C315.793 209.939 315.431 210.374 314.971 210.671C314.51 210.967 313.972 211.112 313.43 211.084C312.88 210.914 312.383 210.6 311.986 210.174C311.753 209.97 311.507 209.784 311.248 209.617L310.334 214.148C310.334 214.148 307.747 224.217 307.103 228.738" fill="#8B5421"/>
<path d="M285.787 222.246C287.282 222.675 288.83 221.539 289.641 220.168C290.451 218.797 290.794 217.179 291.5 215.744C293.64 211.459 298.772 209.424 300.735 205.032C301.005 204.421 301.151 203.586 300.631 203.178C300.112 202.771 299.468 203.103 298.938 203.403L285.433 211.116" fill="#8B5421"/>
<path d="M285.423 211.095C285.843 210.71 286.307 210.379 286.805 210.109C287.719 209.52 289.059 208.706 290.721 207.71L296.59 204.25L298.284 203.264C298.915 202.75 299.718 202.515 300.517 202.611C300.764 202.693 300.981 202.851 301.138 203.063C301.296 203.276 301.387 203.533 301.4 203.8C301.427 204.24 301.352 204.681 301.182 205.085C300.87 205.8 300.479 206.476 300.019 207.099C298.149 209.606 295.728 211.18 293.983 213.012C293.134 213.841 292.413 214.798 291.843 215.851C291.334 216.837 291.012 217.865 290.617 218.797C290.375 219.575 289.97 220.288 289.432 220.888C288.893 221.488 288.234 221.958 287.501 222.268C286.389 222.61 285.766 222.268 285.807 222.203C286.346 222.22 286.882 222.129 287.386 221.936C288.036 221.593 288.61 221.116 289.071 220.533C289.533 219.951 289.872 219.275 290.067 218.55C290.399 217.513 290.784 216.494 291.22 215.498C291.793 214.357 292.54 213.319 293.432 212.423C295.219 210.495 297.588 208.877 299.333 206.553C299.744 205.992 300.093 205.384 300.372 204.742C300.631 204.132 300.59 203.521 300.257 203.457C299.925 203.393 299.271 203.682 298.699 204.014L296.975 204.978L291.022 208.32C289.319 209.252 287.906 209.981 286.971 210.463C286.486 210.748 285.965 210.96 285.423 211.095Z" fill="#945E26"/>
<path d="M299.738 200.822C299.83 199.808 300.154 198.832 300.683 197.972C301.299 197.091 302.173 196.437 303.177 196.108C304.434 195.682 305.749 195.465 307.072 195.466C308.431 195.48 309.788 195.358 311.124 195.101C312.243 194.866 313.282 194.33 314.136 193.548C314.42 193.278 314.641 192.945 314.781 192.573C314.921 192.202 314.978 191.803 314.947 191.406C314.932 191.114 314.838 190.832 314.676 190.592C314.625 190.592 314.676 190.902 314.728 191.416C314.724 191.775 314.643 192.129 314.492 192.453C314.342 192.777 314.124 193.063 313.856 193.291C313.025 193.965 312.049 194.421 311.009 194.619C309.701 194.841 308.377 194.941 307.051 194.919C305.679 194.904 304.313 195.125 303.01 195.573C301.921 195.964 300.989 196.718 300.361 197.715C299.955 198.387 299.719 199.153 299.676 199.943C299.617 200.236 299.638 200.541 299.738 200.822Z" fill="#945E26"/>
<path d="M293.287 180.179C293.199 181.159 293.199 182.145 293.287 183.125C293.287 185.139 293.287 187.549 293.36 190.206C293.432 192.863 293.36 195.273 293.36 197.287C293.297 198.269 293.318 199.254 293.422 200.233C293.649 199.272 293.764 198.286 293.765 197.297C293.889 195.487 293.973 193.013 293.962 190.206C293.952 187.399 293.848 184.914 293.723 183.104C293.68 182.116 293.534 181.135 293.287 180.179Z" fill="#945E26"/>
<path d="M302.979 204.11C303.269 204.039 303.549 203.927 303.81 203.778C304.149 203.6 304.52 203.498 304.9 203.479C305.28 203.461 305.659 203.526 306.013 203.671C306.23 203.793 306.412 203.97 306.544 204.186C306.675 204.402 306.749 204.649 306.761 204.903C306.794 205.542 306.748 206.183 306.625 206.81C306.454 207.598 306.576 208.424 306.968 209.124C307.217 209.483 307.543 209.777 307.922 209.982C308.301 210.187 308.722 210.296 309.15 210.302C309.57 210.299 309.986 210.208 310.372 210.035C310.757 209.862 311.105 209.61 311.394 209.295C311.935 208.735 312.298 208.017 312.433 207.238C312.595 205.979 312.578 204.701 312.381 203.446C312.273 202.598 312.024 201.775 311.643 201.015C311.352 200.479 311.082 200.276 311.061 200.297C311.041 200.318 311.228 200.586 311.446 201.111C311.731 201.881 311.909 202.689 311.975 203.511C312.112 204.718 312.095 205.939 311.924 207.142C311.791 207.823 311.449 208.442 310.947 208.906C310.445 209.369 309.811 209.652 309.139 209.713C308.802 209.711 308.469 209.627 308.168 209.469C307.866 209.311 307.605 209.083 307.405 208.802C307.091 208.215 306.991 207.531 307.124 206.874C307.24 206.199 307.268 205.511 307.207 204.828C307.177 204.502 307.066 204.19 306.884 203.921C306.702 203.653 306.455 203.437 306.168 203.296C305.764 203.138 305.329 203.08 304.9 203.129C304.47 203.177 304.057 203.33 303.696 203.575C303.208 203.875 302.917 204.035 302.979 204.11Z" fill="#945E26"/>
<path d="M311.155 208.845C311.082 209.125 311.112 209.422 311.238 209.681C311.384 210.048 311.61 210.376 311.898 210.64C312.186 210.904 312.529 211.096 312.9 211.202C313.46 211.326 314.041 211.298 314.587 211.122C315.133 210.945 315.626 210.626 316.017 210.195C316.953 209.134 317.456 207.741 317.419 206.306C317.419 204.889 316.99 203.508 316.193 202.354C315.542 201.412 314.655 200.672 313.627 200.211C312.953 199.897 312.226 199.719 311.487 199.686C310.968 199.686 310.687 199.686 310.687 199.772C311.646 199.9 312.581 200.174 313.461 200.586C314.384 201.059 315.176 201.762 315.767 202.632C316.458 203.712 316.82 204.981 316.806 206.274C316.841 207.559 316.411 208.811 315.601 209.788C315.272 210.172 314.853 210.464 314.384 210.634C313.915 210.805 313.411 210.849 312.921 210.763C312.594 210.687 312.286 210.54 312.019 210.331C311.752 210.122 311.532 209.857 311.373 209.552C311.228 209.145 311.228 208.845 311.155 208.845Z" fill="#945E26"/>
<path d="M301.286 218.743C300.84 218.598 300.361 218.598 299.915 218.743C298.745 219.007 297.693 219.662 296.923 220.607L297.401 220.757C297.338 220.094 297.233 219.436 297.089 218.786C296.676 216.483 295.651 214.343 294.128 212.605C295.146 214.615 295.954 216.73 296.538 218.915C296.684 219.579 296.788 220.222 296.861 220.821L296.944 221.486L297.349 220.961C298.038 220.085 298.958 219.434 299.998 219.086C300.777 218.84 301.286 218.818 301.286 218.743Z" fill="#945E26"/>
<path d="M301.546 193.559C301.411 193.623 301.961 194.63 303.229 195.241C304.496 195.851 305.618 195.498 305.566 195.348C305.514 195.198 304.527 195.209 303.488 194.705C302.449 194.202 301.681 193.452 301.546 193.559Z" fill="#945E26"/>
<path d="M279.273 231.298L309.597 233.537C309.597 233.537 304.932 288.865 304.028 297.446C303.125 306.026 297.795 318.967 279.273 318.967C260.751 318.967 257.302 312.464 249.064 299.074C258.777 292.133 274.204 271.404 274.204 271.404L279.273 231.298Z" fill="#FF725E"/>
<path d="M293.567 238.743C293.411 239.209 293.224 239.664 293.006 240.103L291.313 243.788L285.329 256.525L285.028 256.15L292.892 253.74L300.881 251.319L301.463 251.148L301.182 251.694L294.949 264.174L293.11 267.762C292.907 268.201 292.667 268.62 292.394 269.016C292.552 268.557 292.74 268.11 292.954 267.677C293.391 266.755 293.993 265.534 294.658 264.024L300.694 251.458L300.995 251.833L293.017 254.276L285.142 256.654L284.571 256.825L284.841 256.279L291.043 243.671C291.801 242.182 292.414 240.96 292.871 240.05C293.067 239.595 293.3 239.158 293.567 238.743Z" fill="#E0E0E0"/>
<path d="M290.7 291.961C290.235 292.064 289.763 292.129 289.287 292.154L285.34 292.508L271.69 293.579L271.856 293.118L277.839 298.903L283.896 304.794L284.332 305.223H283.73L270.152 305.994L266.225 306.166C265.755 306.208 265.283 306.208 264.813 306.166C265.275 306.071 265.744 306.014 266.215 305.994L270.131 305.662L283.698 304.698L283.543 305.159L277.466 299.278L271.503 293.472L271.066 293.054H271.658L285.319 292.208L289.277 292.004C289.75 291.953 290.225 291.938 290.7 291.961Z" fill="#E0E0E0"/>
<path d="M258.58 226.777L224.101 314.703H161.927V318.677H347.119L385.005 226.777H258.58Z" fill="#263238"/>
<path d="M311.29 278.689C310.043 283.113 306.407 285.909 303.166 284.945C299.925 283.981 298.315 279.589 299.561 275.164C300.808 270.74 304.454 267.944 307.696 268.909C310.937 269.873 312.547 274.265 311.29 278.689Z" fill="#FAFAFA"/>
</svg>
