<svg width="562" height="459" viewBox="0 0 562 459" fill="none" xmlns="http://www.w3.org/2000/svg">
<path d="M561.528 385.377H0V385.658H561.528V385.377Z" fill="#EBEBEB"/>
<path d="M82.7356 396.068H58.9155V396.349H82.7356V396.068Z" fill="#EBEBEB"/>
<path d="M287.626 393.025H192.2V393.306H287.626V393.025Z" fill="#EBEBEB"/>
<path d="M118.797 406.501H75.9973V406.782H118.797V406.501Z" fill="#EBEBEB"/>
<path d="M505.263 404.615H456.758V404.896H505.263V404.615Z" fill="#EBEBEB"/>
<path d="M453.086 404.615H439.643V404.896H453.086V404.615Z" fill="#EBEBEB"/>
<path d="M416.53 399.875H390.7V400.156H416.53V399.875Z" fill="#EBEBEB"/>
<path d="M377.718 399.875H323.317V400.156H377.718V399.875Z" fill="#EBEBEB"/>
<path d="M266.164 335.289H49.3134C47.6146 335.286 45.9864 334.609 44.7862 333.406C43.5861 332.204 42.912 330.575 42.912 328.876V24.0446C42.9268 22.3556 43.6074 20.7406 44.806 19.5504C46.0045 18.3602 47.6243 17.691 49.3134 17.6881H266.164C267.865 17.6881 269.496 18.3637 270.699 19.5663C271.901 20.7689 272.577 22.4 272.577 24.1008V328.876C272.577 330.577 271.901 332.208 270.699 333.41C269.496 334.613 267.865 335.289 266.164 335.289ZM49.3134 17.9127C47.6891 17.9157 46.1323 18.563 44.9848 19.7127C43.8372 20.8623 43.1927 22.4203 43.1928 24.0446V328.876C43.1927 330.5 43.8372 332.058 44.9848 333.208C46.1323 334.357 47.6891 335.005 49.3134 335.008H266.164C267.79 335.005 269.348 334.358 270.497 333.208C271.646 332.059 272.293 330.501 272.296 328.876V24.0446C272.293 22.4192 271.646 20.8613 270.497 19.712C269.348 18.5627 267.79 17.9157 266.164 17.9127H49.3134Z" fill="#EBEBEB"/>
<path d="M509.093 335.289H292.231C290.531 335.286 288.901 334.609 287.699 333.407C286.497 332.205 285.821 330.576 285.818 328.876V24.0446C285.836 22.3545 286.519 20.7395 287.719 19.5497C288.919 18.3598 290.54 17.691 292.231 17.6881H509.093C510.78 17.694 512.397 18.3645 513.593 19.5543C514.789 20.7442 515.468 22.3575 515.483 24.0446V328.876C515.483 330.573 514.81 332.2 513.613 333.402C512.415 334.604 510.79 335.283 509.093 335.289ZM292.231 17.9127C290.605 17.9157 289.047 18.5627 287.898 19.712C286.749 20.8613 286.102 22.4192 286.099 24.0446V328.876C286.102 330.501 286.749 332.059 287.898 333.208C289.047 334.358 290.605 335.005 292.231 335.008H509.093C510.718 335.005 512.276 334.358 513.425 333.208C514.575 332.059 515.222 330.501 515.225 328.876V24.0446C515.222 22.4192 514.575 20.8613 513.425 19.712C512.276 18.5627 510.718 17.9157 509.093 17.9127H292.231Z" fill="#EBEBEB"/>
<path d="M483.476 377.257H517.336V369.474H483.476V377.257Z" fill="#F0F0F0"/>
<path d="M466.551 369.486H500.412V361.703H466.551V369.486Z" fill="#E6E6E6"/>
<path d="M256.843 31.6252H222.983V39.408H256.843V31.6252Z" fill="#F5F5F5"/>
<path d="M135.721 369.474H101.861V377.257H135.721V369.474Z" fill="#F5F5F5"/>
<path d="M294.499 373.36H328.359V365.577H294.499V373.36Z" fill="#E6E6E6"/>
<path d="M525.804 87.2278H491.944V95.0106H525.804V87.2278Z" fill="#F0F0F0"/>
<path d="M105.635 32.4114H71.7745V40.1942H105.635V32.4114Z" fill="#F5F5F5"/>
<path d="M398.921 0H365.061V7.78278H398.921V0Z" fill="#F5F5F5"/>
<path d="M88.699 24.6285H54.8389V32.4113H88.699V24.6285Z" fill="#F0F0F0"/>
<path d="M66.4737 344.183H237.313V57.3433C237.313 38.0828 66.4737 38.0828 66.4737 57.3433V344.183Z" fill="#E0E0E0"/>
<path d="M70.3932 344.183H241.244V57.3433C241.244 38.0828 70.3932 38.0828 70.3932 57.3433V344.183Z" fill="#E6E6E6"/>
<path d="M232.765 332.054V62.1162C232.765 61.3616 232.532 60.6253 232.098 60.0081C231.664 59.3909 231.049 58.923 230.339 58.6684C220.86 55.2992 195.03 51.3798 155.824 51.3798C116.618 51.3798 90.7879 55.2655 81.2981 58.6684C80.5877 58.923 79.9734 59.3909 79.5391 60.0081C79.1049 60.6253 78.872 61.3616 78.8723 62.1162V332.054C78.8752 333.023 79.2623 333.951 79.9485 334.636C80.6348 335.32 81.5644 335.704 82.5334 335.704H229.104C230.073 335.704 231.002 335.32 231.688 334.636C232.375 333.951 232.762 333.023 232.765 332.054Z" fill="#FAFAFA"/>
<path d="M196.647 53.0082L223.286 335.704H184.372L157.554 51.3798C172.67 51.3798 185.765 52.0536 196.647 53.0082Z" fill="white"/>
<path d="M146.334 51.4584L173.153 335.704H151.613L124.918 52.267C131.398 51.8739 138.585 51.5931 146.334 51.4584Z" fill="white"/>
<path d="M130.376 338.849L130.376 47.7299H122.919L122.919 338.849H130.376Z" fill="#E6E6E6"/>
<path d="M190.47 338.849L190.47 47.7299H183.013L183.013 338.849H190.47Z" fill="#E6E6E6"/>
<path d="M76.132 147.626L237.246 147.626V140.169L76.132 140.169V147.626Z" fill="#E6E6E6"/>
<path d="M76.132 246.994L237.246 246.994V239.537L76.132 239.537V246.994Z" fill="#E6E6E6"/>
<path d="M74.7282 350.147H249.027V341.903H74.7282V350.147Z" fill="#F5F5F5"/>
<path d="M74.7282 341.915H66.4737V350.158H74.7282V341.915Z" fill="#E0E0E0"/>
<path d="M309.391 344.183H480.23V57.3433C480.23 38.0828 309.391 38.0828 309.391 57.3433V344.183Z" fill="#E0E0E0"/>
<path d="M313.333 344.183H484.161V57.3433C484.161 38.0828 313.31 38.0828 313.31 57.3433L313.333 344.183Z" fill="#E6E6E6"/>
<path d="M475.682 332.054V62.1162C475.682 61.3616 475.449 60.6253 475.015 60.0081C474.581 59.3909 473.966 58.923 473.256 58.6684C463.822 55.2655 437.992 51.3798 398.685 51.3798C359.378 51.3798 333.649 55.2655 324.17 58.6684C323.46 58.923 322.846 59.3909 322.411 60.0081C321.977 60.6253 321.744 61.3616 321.745 62.1162V332.054C321.747 333.023 322.135 333.951 322.821 334.636C323.507 335.32 324.437 335.704 325.406 335.704H472.021C472.99 335.704 473.919 335.32 474.606 334.636C475.292 333.951 475.679 333.023 475.682 332.054Z" fill="#FAFAFA"/>
<path d="M439.553 53.0082L466.192 335.704H427.289L400.471 51.3798C415.587 51.3798 428.671 52.0536 439.553 53.0082Z" fill="white"/>
<path d="M389.24 51.4584L416.07 335.704H394.575L367.835 52.267C374.348 51.8739 381.502 51.5931 389.24 51.4584Z" fill="white"/>
<path d="M373.293 338.849V47.7299H365.836V338.849H373.293Z" fill="#E6E6E6"/>
<path d="M433.388 338.849V47.7299H425.93V338.849H433.388Z" fill="#E6E6E6"/>
<path d="M319.049 147.626L480.163 147.626V140.169L319.049 140.169V147.626Z" fill="#E6E6E6"/>
<path d="M319.049 246.994L480.163 246.994V239.537L319.049 239.537V246.994Z" fill="#E6E6E6"/>
<path d="M317.634 350.147H491.932V341.903H317.634V350.147Z" fill="#F5F5F5"/>
<path d="M317.645 341.915H309.391V350.158H317.645V341.915Z" fill="#E0E0E0"/>
<path d="M280.764 458.555C401.024 458.555 498.514 452.863 498.514 445.842C498.514 438.821 401.024 433.129 280.764 433.129C160.504 433.129 63.0147 438.821 63.0147 445.842C63.0147 452.863 160.504 458.555 280.764 458.555Z" fill="#F5F5F5"/>
<path d="M167.717 147.008L174.882 171.715C175.489 173.759 176.11 175.788 176.747 177.802C177.383 179.816 178.012 181.823 178.633 183.822C179.97 187.741 181.284 191.683 182.733 195.187L181.913 193.772C182.527 195.131 183.345 196.388 184.338 197.501C185.629 198.922 187.097 200.172 188.707 201.218C190.601 202.48 192.596 203.585 194.671 204.52C195.794 205.014 196.917 205.519 198.04 205.968L199.769 206.642L200.623 206.968C200.871 207.043 201.109 207.148 201.33 207.282L204.879 211.775C205.82 212.963 206.251 214.477 206.076 215.983C205.901 217.489 205.135 218.863 203.947 219.805C203.217 220.372 202.363 220.758 201.454 220.928L200.039 221.186L198.781 221.399C197.95 221.523 197.13 221.613 196.299 221.703C194.637 221.826 192.93 221.905 191.29 221.871C189.588 221.833 187.89 221.702 186.203 221.478C184.456 221.234 182.724 220.897 181.014 220.467C177.341 219.51 173.826 218.023 170.581 216.054C166.993 213.856 163.841 211.016 161.282 207.676L161.058 207.339L160.462 206.216C158.107 201.976 155.974 197.616 154.072 193.154C152.174 188.831 150.523 184.529 148.962 180.194L147.839 176.949L146.716 173.692C146.02 171.524 145.279 169.357 144.65 167.167C144.021 164.977 143.336 162.798 142.752 160.597C142.168 158.396 141.629 156.228 141.045 153.859C140.193 150.348 140.754 146.642 142.608 143.541C144.461 140.44 147.459 138.19 150.954 137.278C154.45 136.365 158.164 136.861 161.298 138.66C164.431 140.459 166.732 143.417 167.706 146.896L167.717 147.008Z" fill="#B65B52"/>
<path d="M154.51 129.41C165.842 135.351 174.276 157.104 174.276 157.104C172.692 164.382 158.722 179.408 149.917 181.812C144.841 176.056 141.466 169.003 140.169 161.439C138.136 148.221 148.12 130.376 154.51 129.41Z" fill="#FFC017"/>
<path d="M196.366 206.766L193.098 214.021C192.582 222.365 203.419 221.164 203.419 221.164L208.866 222.702C209.845 222.909 210.865 222.762 211.745 222.287C212.626 221.812 213.309 221.04 213.673 220.108L215.997 215.054C216.538 214.045 216.665 212.865 216.35 211.765C216.036 210.664 215.305 209.729 214.313 209.158L209.821 207.069C208.519 206.462 207.088 206.185 205.654 206.261L196.366 206.766Z" fill="#B55B52"/>
<path d="M208.664 228.52L198.343 226.678L200.488 200.645L215.638 203.341L208.664 228.52Z" fill="#FFC017"/>
<path d="M216.48 200.971L200.522 198.13L199.59 200.488L216.548 203.509L216.48 200.971Z" fill="#263238"/>
<path d="M215.762 199.578L201.678 197.074L200.814 199.444L215.762 202.105V199.578Z" fill="#263238"/>
<path opacity="0.8" d="M204.845 222.612L198.77 221.534L200.241 203.745L207.956 205.126L204.845 222.612Z" fill="white"/>
<path d="M185.776 412.33L169.705 416.598L174.478 438.385L187.921 434.836L185.776 412.33Z" fill="#B55B52"/>
<path d="M184.067 243.107L175.745 241.163C174.694 240.917 173.643 241.57 173.397 242.621L169.245 260.392C169 261.443 169.653 262.494 170.704 262.74L179.026 264.684C180.077 264.93 181.128 264.277 181.374 263.226L185.525 245.455C185.771 244.404 185.118 243.353 184.067 243.107Z" fill="#263238"/>
<path d="M142.224 333.435C130.757 306.482 114.821 271.241 126.827 243.995L179.363 241.457C179.363 241.457 182.733 300.451 183.552 326.899C184.294 350.214 191.414 400.752 192.301 415.003C192.388 416.294 192.129 417.584 191.55 418.741C190.972 419.898 190.095 420.879 189.01 421.584C185.641 423.74 175.365 425.302 171.536 426.009C169.883 426.3 168.181 426.013 166.716 425.194C165.251 424.376 164.113 423.077 163.495 421.517C157.419 406.097 143.089 359.097 142.224 333.435Z" fill="#FFC017"/>
<path opacity="0.2" d="M122.716 261.189C121.402 279.765 128.41 300.171 135.89 318.465C137.611 304.114 138.44 289.67 138.372 275.216C138.373 273.233 137.955 271.271 137.147 269.46C136.338 267.648 135.156 266.028 133.679 264.704C132.202 263.38 130.462 262.383 128.573 261.777C126.684 261.172 124.688 260.971 122.716 261.189Z" fill="black"/>
<path d="M100.727 416.452L84.0945 416.643L83.3645 438.924L97.2567 438.789L100.727 416.452Z" fill="#B55B52"/>
<path d="M81.3542 329.684C79.8269 301.091 76.9743 258.303 86.5652 245.152L146.188 243.827C146.188 243.827 129.825 306.448 123.727 332.84C118.213 356.649 107.892 408.793 104.635 422.123C104.164 424.1 100.457 425.492 98.4584 425.829C94.1002 426.646 89.6358 426.726 85.2512 426.065C83.0051 425.695 78.1535 424.044 77.9064 421.719C76.4465 407.804 74.7843 357.592 81.3542 329.684Z" fill="#FFC017"/>
<path d="M80.86 445.82H84.9592L86.0823 444.158L88.2385 445.842H110.475C110.667 444.043 110.328 442.228 109.498 440.62C109.498 440.62 101.996 439.497 99.1434 435.791C99.0413 435.651 98.9021 435.541 98.7414 435.476C98.5806 435.411 98.4048 435.391 98.2337 435.42C95.763 435.937 88.5081 437.79 83.1174 435.847C82.9841 435.797 82.8408 435.78 82.6994 435.796C82.5579 435.812 82.4224 435.862 82.304 435.941C82.1855 436.02 82.0875 436.126 82.0181 436.25C81.9486 436.374 81.9097 436.513 81.9045 436.656C81.7925 439.733 81.4433 442.796 80.86 445.82Z" fill="#263238"/>
<path d="M82.5109 430.075L80.86 422.112C84.6922 421.377 88.5963 421.087 92.4949 421.247C100.255 421.348 102.917 422.471 102.917 422.471L99.3568 430.973C99.3568 430.973 94.3367 429.85 82.5109 430.075Z" fill="#263238"/>
<path d="M173.748 445.685L177.724 444.674L178.398 442.788L180.902 443.911L202.453 438.441C202.196 436.649 201.414 434.973 200.207 433.623C200.207 433.623 192.66 434.365 188.977 431.49C188.843 431.377 188.681 431.304 188.508 431.28C188.335 431.257 188.159 431.282 188 431.355C185.754 432.478 179.161 436.049 173.4 435.488C173.254 435.47 173.106 435.488 172.969 435.541C172.832 435.593 172.71 435.679 172.613 435.79C172.517 435.901 172.449 436.033 172.416 436.177C172.383 436.32 172.385 436.469 172.423 436.611C173.097 439.597 173.54 442.631 173.748 445.685Z" fill="#263238"/>
<path d="M171.479 430.018L167.908 422.707C171.444 421.048 175.16 419.805 178.981 419.001C186.528 417.193 189.381 417.62 189.381 417.62L188.022 426.739C188.022 426.739 182.811 426.874 171.479 430.018Z" fill="#263238"/>
<path d="M146.458 127.029C128.98 125.367 111.372 125.646 93.9549 127.86C91.5717 128.215 89.286 129.053 87.2374 130.321C85.1888 131.589 83.4204 133.262 82.0402 135.237C80.6601 137.212 79.6972 139.448 79.2104 141.808C78.7237 144.168 78.7232 146.602 79.2091 148.962C87.3738 190.077 81.2756 235.965 86.5652 245.152C115.585 253.788 171.603 253.171 178.734 243.827C197.826 225.937 169.75 171.895 160.563 137.047C158.991 131.117 152.59 127.669 146.458 127.029Z" fill="#263238"/>
<path d="M97.0321 160.563L94.0223 165.426C93.0115 167.144 91.9671 168.795 90.99 170.581C88.991 174.029 87.1492 177.522 85.4534 180.969C84.5998 182.699 83.8249 184.428 83.1062 186.147C82.3874 187.865 81.7136 189.516 81.1521 191.2C80.1101 194.103 79.4128 197.119 79.0744 200.185L78.9172 198.556C79.1539 201.195 79.5288 203.819 80.0402 206.418C80.613 209.203 81.2419 212.089 82.0168 214.987C82.3986 216.447 82.7805 217.918 83.2185 219.389C83.6565 220.86 84.0271 222.365 84.4763 223.881L85.8015 228.374C86.217 229.867 86.7112 231.439 87.0706 232.866L87.2166 233.45C87.5903 234.945 87.4584 236.521 86.8415 237.933C86.2246 239.346 85.1573 240.514 83.8065 241.255C82.4556 241.996 80.8972 242.27 79.3747 242.032C77.8522 241.794 76.4513 241.059 75.3908 239.941C74.088 238.571 72.9987 237.313 71.8756 235.965C70.7525 234.618 69.7193 233.27 68.6973 231.877C66.6422 229.092 64.7442 226.184 62.9473 223.174C61.1495 220.07 59.5188 216.872 58.062 213.594C56.5374 210.054 55.3164 206.391 54.4121 202.644C54.3665 202.437 54.3364 202.227 54.3222 202.015L54.2548 201.016C53.9252 195.351 54.4669 189.67 55.8608 184.17C57.0273 179.285 58.6014 174.507 60.5664 169.885C62.3764 165.454 64.4464 161.134 66.7657 156.947C67.8888 154.881 69.0904 152.837 70.3595 150.838C70.9884 149.838 71.6285 148.827 72.2911 147.839L73.3131 146.345C73.6837 145.818 73.9869 145.402 74.4362 144.739C76.5457 141.895 79.6694 139.972 83.159 139.369C86.6487 138.767 90.2364 139.53 93.1778 141.503C96.1192 143.475 98.1885 146.503 98.9564 149.96C99.7242 153.417 99.1316 157.037 97.3016 160.069L97.0321 160.563Z" fill="#B65B52"/>
<path d="M89.4177 129.208C77.3786 133.52 66.0132 153.915 66.0132 153.915C66.5748 161.35 78.3669 178.15 86.7112 181.789C92.5439 176.787 96.8651 170.257 99.1883 162.933C103.007 150.108 95.617 131.049 89.4177 129.208Z" fill="#FFC017"/>
<path d="M115.237 136.103C115.139 136.104 115.043 136.08 114.956 136.036C110.868 133.969 108.397 130.903 108.656 128.23C108.782 127.375 109.176 126.581 109.781 125.964C110.386 125.346 111.172 124.937 112.025 124.794C112.102 124.772 112.183 124.765 112.263 124.775C112.343 124.784 112.421 124.81 112.491 124.85C112.561 124.889 112.622 124.943 112.671 125.006C112.721 125.07 112.757 125.143 112.777 125.221C112.799 125.298 112.806 125.379 112.796 125.459C112.787 125.539 112.761 125.616 112.722 125.686C112.682 125.756 112.629 125.818 112.565 125.867C112.501 125.916 112.428 125.952 112.351 125.973C110.879 126.377 110.037 127.209 109.925 128.354C109.756 130.128 111.43 132.846 115.54 134.946C115.612 134.982 115.676 135.032 115.729 135.092C115.781 135.153 115.821 135.224 115.846 135.3C115.871 135.376 115.881 135.457 115.875 135.537C115.868 135.617 115.846 135.695 115.81 135.766C115.758 135.873 115.677 135.962 115.575 136.022C115.473 136.082 115.355 136.11 115.237 136.103Z" fill="#FFC017"/>
<path d="M138.664 135.71C138.542 135.712 138.423 135.676 138.321 135.609C138.22 135.542 138.141 135.446 138.095 135.333C138.049 135.22 138.038 135.097 138.063 134.978C138.089 134.859 138.149 134.75 138.237 134.666C140.483 132.42 141.314 129.803 140.315 127.736C139.394 125.861 137.215 124.906 134.61 125.243C134.449 125.264 134.286 125.22 134.158 125.121C134.029 125.022 133.945 124.876 133.925 124.715C133.904 124.555 133.948 124.392 134.047 124.264C134.146 124.135 134.292 124.051 134.452 124.03C137.597 123.626 140.259 124.839 141.415 127.197C142.639 129.724 141.752 132.925 139.091 135.542C138.975 135.651 138.822 135.711 138.664 135.71Z" fill="#FFC017"/>
<path d="M140.685 130.061C139.527 127.844 137.661 126.077 135.384 125.041C134.529 122.828 134.466 120.388 135.205 118.134L109.374 109.902C111.16 117.168 112.609 123.143 111.048 127.321C110.821 127.97 110.83 128.679 111.075 129.322C111.319 129.965 111.783 130.501 112.384 130.836C117.719 133.947 125.794 138.001 134.497 137.754C144.605 137.462 142.336 133.644 140.685 130.061Z" fill="#B55B52"/>
<path d="M140.517 148.502C144.47 148.973 148.176 145.133 148.794 139.944C149.411 134.756 146.716 130.151 142.763 129.679C138.81 129.208 135.115 133.048 134.486 138.237C133.857 143.426 136.564 148.03 140.517 148.502Z" fill="white"/>
<path d="M137.282 146.84C140.416 147.21 143.403 143.863 143.942 139.349C144.481 134.834 142.37 130.881 139.225 130.51C136.081 130.14 133.116 133.486 132.577 137.99C132.038 142.493 134.138 146.469 137.282 146.84Z" fill="#FFC017"/>
<path opacity="0.2" d="M135.003 118.943L115.585 117.82C121.661 124.311 130.859 126.804 135.059 124.109C134.596 122.42 134.577 120.641 135.003 118.943Z" fill="black"/>
<path d="M104.287 96.8074C107.375 107.937 109.734 115.439 117.764 119.021C133.734 126.13 140.865 118.595 141.438 106.836C141.943 96.2571 136.811 79.883 123.985 77.4347C111.362 75.0763 101.21 85.6779 104.287 96.8074Z" fill="#B55B52"/>
<path d="M110.385 87.8006C113.552 92.6522 112.227 101.536 110.385 104.804C101.805 102.558 100.278 96.5829 100.278 96.5829C99.1546 96.5829 96.7962 91.2259 98.4359 84.3303C100.076 77.4347 114.552 72.6393 122.941 73.841C131.33 75.0426 135.003 77.9738 135.609 82.9826C131.112 85.8155 126.121 87.774 120.897 88.7552C123.115 87.1374 125.018 85.1277 126.512 82.8254C121.043 84.1619 115.657 85.8233 110.385 87.8006Z" fill="#263238"/>
<path d="M110.947 71.4825C88.7215 73.6725 85.0154 90.1365 90.7991 94.5613C96.5829 98.9862 99.514 97.1444 99.514 97.1444L132.083 77.109C130.275 73.257 122.087 70.3819 110.947 71.4825Z" fill="#FFC017"/>
<path d="M130.275 107.252C130.783 107.292 131.294 107.292 131.802 107.252C131.871 107.243 131.935 107.208 131.979 107.154C132.023 107.099 132.044 107.03 132.038 106.96C132.027 106.886 131.988 106.82 131.929 106.774C131.871 106.728 131.797 106.706 131.723 106.713C130.571 106.802 129.413 106.63 128.336 106.21C127.258 105.79 126.29 105.133 125.502 104.287C125.45 104.239 125.381 104.212 125.311 104.212C125.24 104.212 125.172 104.239 125.12 104.287C125.095 104.311 125.075 104.34 125.062 104.372C125.048 104.403 125.041 104.438 125.041 104.472C125.041 104.507 125.048 104.541 125.062 104.573C125.075 104.605 125.095 104.633 125.12 104.658C126.458 106.129 128.295 107.054 130.275 107.252Z" fill="#263238"/>
<path d="M101.996 109.846C103.044 110.978 104.307 111.89 105.71 112.53C107.114 113.17 108.63 113.525 110.172 113.575C114.305 113.676 115.394 109.723 113.44 106.353C111.665 103.31 107.387 99.615 103.636 101.097C99.8846 102.58 99.4354 107.027 101.996 109.846Z" fill="#B55B52"/>
<path d="M97.0545 95.6507C94.3816 99.1771 97.8743 102.389 101.625 103.142C105.242 100.177 108.701 90.406 120.953 86.4641C133.206 82.5222 136.07 84.6223 136.743 82.7805C137.09 81.5081 136.955 80.1527 136.364 78.9736C135.774 77.7946 134.769 76.8747 133.543 76.3903C130.454 75.0202 112.44 75.4357 97.0545 95.6507Z" fill="#FFC017"/>
<path opacity="0.2" d="M97.0545 95.6507C94.3816 99.1771 97.8743 102.389 101.625 103.142C105.242 100.177 108.701 90.406 120.953 86.4641C133.206 82.5222 136.07 84.6223 136.743 82.7805C137.09 81.5081 136.955 80.1527 136.364 78.9736C135.774 77.7946 134.769 76.8747 133.543 76.3903C130.454 75.0202 112.44 75.4357 97.0545 95.6507Z" fill="white"/>
<path d="M125.996 95.3362C126.175 96.3245 126.849 97.032 127.501 96.8972C128.152 96.7625 128.523 95.864 128.343 94.8757C128.163 93.8875 127.478 93.1799 126.827 93.3147C126.175 93.4495 125.782 94.3479 125.996 95.3362Z" fill="#263238"/>
<path d="M136.294 93.6853C136.474 94.6736 137.148 95.3699 137.799 95.2463C138.45 95.1228 138.821 94.2131 138.641 93.2248C138.462 92.2365 137.777 91.529 137.125 91.6526C136.474 91.7761 136.103 92.6858 136.294 93.6853Z" fill="#263238"/>
<path d="M133.026 95.1117L134.52 103.456C135.517 103.477 136.51 103.337 137.462 103.04C137.648 102.968 137.812 102.847 137.936 102.69C138.06 102.533 138.14 102.346 138.167 102.148C138.195 101.95 138.169 101.748 138.092 101.564C138.016 101.379 137.891 101.218 137.732 101.098C135.182 99.3232 133.026 95.1117 133.026 95.1117Z" fill="#A02724"/>
<path d="M120.167 93.4945C120.071 93.5166 119.971 93.5166 119.875 93.4945C119.734 93.4245 119.626 93.3011 119.575 93.1516C119.525 93.0021 119.536 92.8386 119.606 92.6971C120.001 91.8347 120.597 91.0792 121.343 90.4932C122.089 89.9073 122.964 89.5078 123.896 89.3279C124.051 89.3118 124.207 89.3566 124.331 89.4529C124.454 89.5492 124.536 89.6895 124.558 89.8445C124.574 90.002 124.528 90.1595 124.429 90.2833C124.331 90.4071 124.187 90.4874 124.03 90.5071C123.299 90.658 122.613 90.9784 122.028 91.4426C121.443 91.9068 120.974 92.5019 120.661 93.18C120.611 93.2692 120.54 93.3446 120.454 93.3995C120.368 93.4544 120.269 93.487 120.167 93.4945Z" fill="#263238"/>
<path d="M139.742 90.2376C139.647 90.2554 139.549 90.2494 139.457 90.22C139.365 90.1906 139.281 90.1387 139.214 90.0691C138.724 89.5114 138.107 89.0796 137.415 88.8099C136.723 88.5402 135.977 88.4406 135.238 88.5193C135.111 88.5051 134.991 88.4502 134.898 88.3626C134.804 88.275 134.741 88.1594 134.718 88.0332C134.696 87.907 134.714 87.7768 134.772 87.662C134.829 87.5472 134.922 87.454 135.036 87.3963C135.968 87.2826 136.912 87.3958 137.791 87.7263C138.669 88.0568 139.454 88.5947 140.079 89.2942C140.134 89.3495 140.178 89.4152 140.208 89.4874C140.238 89.5597 140.253 89.6372 140.253 89.7154C140.253 89.7936 140.238 89.8711 140.208 89.9433C140.178 90.0156 140.134 90.0812 140.079 90.1365C139.981 90.2062 139.862 90.2417 139.742 90.2376Z" fill="#263238"/>
<path d="M84.7908 230.361L77.7492 234.067C72.2013 240.323 81.4777 246.062 81.4777 246.062L84.8469 250.621C85.4928 251.385 86.3879 251.897 87.3742 252.065C88.3605 252.234 89.3746 252.049 90.2376 251.542L95.179 248.993C96.2161 248.521 97.0296 247.664 97.4485 246.605C97.8674 245.545 97.859 244.364 97.4251 243.31L95.179 238.897C94.5289 237.616 93.5721 236.517 92.3938 235.696L84.7908 230.361Z" fill="#B55B52"/>
<path d="M123.604 147.693C120.369 149.322 116.09 147.356 114.046 143.302C112.002 139.248 112.923 134.632 116.203 133.004C119.482 131.375 123.716 133.34 125.76 137.395C127.804 141.449 126.838 146.053 123.604 147.693Z" fill="#FFC017"/>
<path d="M121.314 150.241C125.041 148.362 126.151 143.049 123.794 138.375C121.437 133.701 116.505 131.435 112.778 133.315C109.051 135.194 107.94 140.507 110.297 145.181C112.654 149.855 117.586 152.121 121.314 150.241Z" fill="white"/>
<path d="M183.429 243.243H183.361C183.282 243.224 183.212 243.175 183.168 243.105C183.124 243.036 183.109 242.952 183.126 242.872C183.238 242.333 183.384 241.749 183.519 241.266C184.732 236.459 185.765 232.282 172.063 228.823C161.686 226.184 158.025 209.383 154.802 194.558C153.174 187.067 151.635 179.959 149.411 176.05C146.155 170.244 140.741 165.291 135.497 160.507C130.252 155.723 125.322 151.208 122.986 146.256C122.968 146.184 122.976 146.109 123.007 146.043C123.039 145.977 123.093 145.924 123.16 145.894C123.226 145.863 123.301 145.856 123.372 145.875C123.443 145.894 123.505 145.937 123.547 145.997C125.794 150.849 130.724 155.319 135.901 160.058C141.078 164.797 146.637 169.862 149.939 175.781C152.185 179.813 153.746 186.933 155.386 194.457C158.576 209.057 162.192 225.723 172.232 228.261C186.528 231.9 185.36 236.538 184.114 241.446C183.99 241.974 183.856 242.502 183.732 243.041C183.71 243.103 183.669 243.156 183.614 243.192C183.56 243.229 183.494 243.246 183.429 243.243Z" fill="#FFC017"/>
<path d="M147.12 172.322C147.065 172.319 147.011 172.302 146.964 172.273C146.916 172.243 146.878 172.202 146.851 172.153C141.494 161.698 142.673 154.903 143.482 149.928C143.74 148.677 143.897 147.408 143.953 146.132C143.953 146.052 143.985 145.975 144.042 145.918C144.099 145.861 144.176 145.829 144.257 145.829C144.337 145.829 144.414 145.861 144.471 145.918C144.528 145.975 144.56 146.052 144.56 146.132C144.506 147.445 144.348 148.752 144.088 150.04C143.235 154.914 142.067 161.597 147.345 171.873C147.381 171.946 147.387 172.03 147.362 172.108C147.336 172.185 147.282 172.25 147.21 172.288C147.182 172.304 147.152 172.315 147.12 172.322Z" fill="#FFC017"/>
<path d="M253.654 106.308C249.161 111.43 248.038 117.539 248.319 132.521C248.6 147.502 239.211 155.442 245.949 161.563C252.688 167.684 281.977 164.584 288.839 160.159C295.701 155.734 281.472 133.329 284.201 124.221C286.93 115.113 286.447 106.252 278.282 102.883C271.465 100.109 260.605 98.3123 253.654 106.308Z" fill="#263238"/>
<path d="M249.319 166.302C238.279 173.355 223.297 207.934 231.35 216.424C239.402 224.914 261.571 223.881 269.096 215.885C276.62 207.889 261.582 158.463 249.319 166.302Z" fill="#263238"/>
<path d="M245.612 410.926L233.629 411.813C235.28 421.348 236.841 436.408 236.841 436.408H246.342C246.342 436.408 245.253 417.496 245.612 410.926Z" fill="#FFC3BD"/>
<path d="M308.492 410.926L296.599 411.813C299.272 421.348 302.439 436.408 302.439 436.408H311.929C311.929 436.408 308.841 417.496 308.492 410.926Z" fill="#FFC3BD"/>
<path d="M256.63 445.831C248.375 445.831 248.959 445.696 244.276 445.55C240.3 445.404 239.38 445.898 236.179 445.831C233.517 445.775 233.427 443.214 234.034 440.283C234.27 439.16 234.618 437.835 234.943 436.218C235.033 435.764 235.278 435.356 235.637 435.064C235.997 434.773 236.446 434.617 236.909 434.623H246.567C246.922 434.622 247.271 434.705 247.587 434.865C247.904 435.025 248.177 435.258 248.386 435.544C249.536 437.049 250.98 438.303 252.631 439.23C254.282 440.157 256.105 440.737 257.989 440.934C262.503 441.53 259.92 445.831 256.63 445.831Z" fill="#FFC017"/>
<path d="M326.282 442.102C318.319 443.472 317.421 443.102 312.884 443.731C308.998 444.259 308.683 445.157 304.798 445.831C302.226 446.28 300.743 443.517 300.856 441.238C300.912 439.868 301.193 438.262 301.181 436.577C301.166 436.143 301.31 435.719 301.588 435.385C301.866 435.052 302.257 434.832 302.686 434.769L310.963 433.331C311.29 433.279 311.623 433.293 311.944 433.375C312.265 433.456 312.565 433.601 312.827 433.803C314.667 435.263 316.78 436.34 319.043 436.969C321.306 437.598 323.672 437.766 326.001 437.464C330.437 437.037 329.46 441.552 326.282 442.102Z" fill="#FFC017"/>
<path d="M295.577 224.645C295.577 224.645 303.091 283.044 302.428 320.105C305.28 354.92 309.851 421.483 309.851 421.483C309.717 423.269 300.328 422.606 298.621 421.483C298.621 421.483 277.125 376.561 280.652 320.105C256.776 261.223 258.191 224.645 258.191 224.645H295.577Z" fill="#263238"/>
<path opacity="0.2" d="M264.862 271.791C266.715 279.394 269.096 287.828 272.139 297.004C273.026 278.518 278.024 253.777 278.192 252.935L264.862 271.791Z" fill="black"/>
<path d="M285.414 224.645C285.414 224.645 268.332 290.591 261.571 322.901C254.473 356.885 244.512 398.91 246.488 421.483C244.591 422.606 237.796 422.685 233.944 421.483C233.944 421.483 219.344 357.121 237.92 324.406C231.181 243.905 252.519 224.645 252.519 224.645H285.414Z" fill="#263238"/>
<path d="M247.308 416.789C247.385 418.346 247.572 419.896 247.87 421.427C247.897 421.552 247.899 421.681 247.874 421.807C247.85 421.933 247.8 422.052 247.727 422.157C247.654 422.263 247.56 422.352 247.452 422.419C247.343 422.487 247.222 422.531 247.095 422.55C242.524 423.291 235.864 422.224 233.731 421.842C233.532 421.807 233.349 421.711 233.207 421.569C233.064 421.426 232.969 421.243 232.933 421.045L232.125 416.71C232.093 416.572 232.094 416.428 232.128 416.29C232.161 416.152 232.226 416.023 232.318 415.915C232.409 415.806 232.524 415.72 232.654 415.663C232.785 415.606 232.926 415.58 233.068 415.587L246.331 415.834C246.585 415.84 246.827 415.941 247.008 416.118C247.19 416.296 247.297 416.535 247.308 416.789Z" fill="#263238"/>
<path opacity="0.1" d="M247.308 416.789C247.385 418.346 247.572 419.896 247.87 421.427C247.897 421.552 247.899 421.681 247.874 421.807C247.85 421.933 247.8 422.052 247.727 422.157C247.654 422.263 247.56 422.352 247.452 422.419C247.343 422.487 247.222 422.531 247.095 422.55C242.524 423.291 235.864 422.224 233.731 421.842C233.532 421.807 233.349 421.711 233.207 421.569C233.064 421.426 232.969 421.243 232.933 421.045L232.125 416.71C232.093 416.572 232.094 416.428 232.128 416.29C232.161 416.152 232.226 416.023 232.318 415.915C232.409 415.806 232.524 415.72 232.654 415.663C232.785 415.606 232.926 415.58 233.068 415.587L246.331 415.834C246.585 415.84 246.827 415.941 247.008 416.118C247.19 416.296 247.297 416.535 247.308 416.789Z" fill="white"/>
<path d="M310.761 416.587C310.885 417.788 311.12 419.956 311.356 421.539C311.375 421.663 311.369 421.789 311.339 421.91C311.308 422.031 311.253 422.144 311.178 422.244C311.102 422.343 311.008 422.427 310.899 422.489C310.791 422.551 310.672 422.591 310.548 422.606C306.434 422.938 302.299 422.889 298.194 422.46C297.991 422.445 297.799 422.366 297.644 422.235C297.488 422.104 297.378 421.927 297.329 421.73L296.206 417.395C296.167 417.259 296.159 417.115 296.184 416.975C296.208 416.836 296.264 416.703 296.348 416.589C296.431 416.474 296.539 416.379 296.665 416.313C296.79 416.246 296.929 416.209 297.071 416.205L309.773 415.699C310.019 415.695 310.258 415.785 310.441 415.949C310.624 416.114 310.738 416.341 310.761 416.587Z" fill="#263238"/>
<path opacity="0.1" d="M310.761 416.587C310.885 417.788 311.12 419.956 311.356 421.539C311.375 421.663 311.369 421.789 311.339 421.91C311.308 422.031 311.253 422.144 311.178 422.244C311.102 422.343 311.008 422.427 310.899 422.489C310.791 422.551 310.672 422.591 310.548 422.606C306.434 422.938 302.299 422.889 298.194 422.46C297.991 422.445 297.799 422.366 297.644 422.235C297.488 422.104 297.378 421.927 297.329 421.73L296.206 417.395C296.167 417.259 296.159 417.115 296.184 416.975C296.208 416.836 296.264 416.703 296.348 416.589C296.431 416.474 296.539 416.379 296.665 416.313C296.79 416.246 296.929 416.209 297.071 416.205L309.773 415.699C310.019 415.695 310.258 415.785 310.441 415.949C310.624 416.114 310.738 416.341 310.761 416.587Z" fill="white"/>
<path d="M295.622 165.235C298.587 170.053 301.451 174.983 304.281 179.902C307.111 184.821 309.896 189.808 312.625 194.772L314.68 198.5L315.186 199.444C315.186 199.5 315.107 199.444 314.984 199.286C314.769 199.098 314.536 198.932 314.287 198.792C313.921 198.587 313.522 198.447 313.108 198.377C312.638 198.255 312.14 198.307 311.704 198.523C311.626 198.613 311.85 198.59 312.154 198.467C313.031 198.065 313.856 197.56 314.613 196.962C318.364 194.098 322.239 189.83 325.945 185.877L326.08 185.742C326.709 185.069 327.554 184.637 328.468 184.52C329.383 184.404 330.309 184.611 331.087 185.105C331.865 185.6 332.446 186.35 332.729 187.227C333.012 188.104 332.98 189.053 332.638 189.909C331.519 192.735 330.194 195.475 328.674 198.107C327.921 199.432 327.101 200.735 326.203 202.038C325.29 203.39 324.288 204.681 323.204 205.901C321.954 207.354 320.524 208.64 318.948 209.731C317.908 210.459 316.775 211.045 315.579 211.472C313.775 212.097 311.836 212.229 309.964 211.853C308.857 211.62 307.798 211.202 306.83 210.618C305.978 210.1 305.2 209.469 304.517 208.742C303.972 208.162 303.479 207.535 303.046 206.867L302.45 205.969L300.058 202.408C296.906 197.639 293.814 192.825 290.782 187.966C287.772 183.092 284.818 178.218 282.022 173.198C280.963 171.396 280.663 169.247 281.189 167.224C281.714 165.201 283.022 163.47 284.824 162.411C286.626 161.352 288.775 161.052 290.798 161.578C292.821 162.103 294.552 163.411 295.611 165.213L295.622 165.235Z" fill="#8B5421"/>
<path d="M286.537 156.61C294.769 158.16 299.126 165.134 307.235 179.723C305.348 185.158 292.579 190.358 292.579 190.358C292.579 190.358 272.981 167.234 286.537 156.61Z" fill="#FFC017"/>
<path d="M254.799 214.369C254.584 217.817 254.16 221.248 253.53 224.645H295.139L295.577 214.055C295.577 214.055 263.514 212.235 254.799 214.369Z" fill="#FFC3BD"/>
<path d="M299.575 171.165C299.822 177.56 299.725 183.963 299.283 190.347C298.946 198.68 300.53 200.724 299.283 214.369C294.724 217.042 264.716 216.941 249.959 215.032C250.857 203.228 251.958 195.255 243.95 168.683C242.097 162.529 246.196 156.61 252.845 155.981C254.608 155.813 256.484 155.667 258.404 155.577C265.135 155.128 271.888 155.128 278.619 155.577C280.865 155.768 283.111 156.026 285.279 156.318C293.118 157.34 299.34 163.787 299.575 171.165Z" fill="#FFC017"/>
<path d="M250.228 215.043C248.76 215.048 247.292 214.95 245.837 214.751C245.69 214.723 245.559 214.641 245.471 214.519C245.384 214.398 245.346 214.248 245.365 214.1C245.39 213.953 245.471 213.822 245.59 213.734C245.71 213.647 245.859 213.608 246.006 213.628C251.688 214.481 262.245 213.706 268.062 208.102C271.14 205.138 272.42 201.196 271.881 196.389C270.084 180.442 256.034 156.801 253.912 155.802C253.763 155.811 253.617 155.76 253.505 155.661C253.393 155.562 253.326 155.423 253.317 155.274C253.308 155.125 253.358 154.979 253.457 154.867C253.556 154.755 253.696 154.688 253.845 154.679C254 154.667 254.156 154.688 254.303 154.74C254.45 154.793 254.585 154.875 254.698 154.982C258.067 157.565 271.241 180.924 272.97 196.265C273.554 201.431 272.15 205.688 268.804 208.911C264.042 213.549 256.214 215.043 250.228 215.043Z" fill="#263238"/>
<path d="M259.785 132.813C261.549 139.326 263.716 151.253 259.482 155.599C259.482 155.599 256.237 161.709 275.43 160.721C288.906 160.024 279.72 155.599 279.72 155.599C272.33 153.87 272.117 148.479 272.981 143.426L259.785 132.813Z" fill="#8B5421"/>
<path opacity="0.2" d="M265.176 137.148L273.038 143.414C272.812 144.599 272.695 145.802 272.689 147.008C269.882 146.604 265.839 143.56 265.333 140.663C265.063 139.511 265.01 138.319 265.176 137.148Z" fill="black"/>
<path d="M254.226 119.74C256.203 130.263 256.821 134.744 262.818 139.787C271.802 147.367 284.246 143.358 285.425 132.633C286.492 122.986 283.078 107.42 272.251 103.939C269.949 103.111 267.468 102.915 265.064 103.37C262.661 103.826 260.423 104.917 258.584 106.529C256.744 108.142 255.37 110.217 254.604 112.541C253.837 114.864 253.707 117.35 254.226 119.74Z" fill="#8B5421"/>
<path d="M276.205 122.009C276.128 122.01 276.051 121.996 275.98 121.967C275.908 121.938 275.843 121.895 275.789 121.84C275.734 121.785 275.69 121.719 275.66 121.647C275.63 121.575 275.614 121.497 275.614 121.419C275.614 121.341 275.63 121.264 275.66 121.191C275.69 121.119 275.734 121.053 275.789 120.998C276.487 120.448 277.323 120.103 278.205 120C279.088 119.897 279.981 120.04 280.787 120.414C280.906 120.504 280.988 120.637 281.014 120.784C281.04 120.932 281.01 121.084 280.929 121.21C280.849 121.337 280.723 121.428 280.578 121.465C280.433 121.503 280.279 121.485 280.146 121.414C279.569 121.191 278.945 121.113 278.33 121.188C277.715 121.262 277.128 121.486 276.62 121.84C276.509 121.949 276.36 122.009 276.205 122.009Z" fill="#263238"/>
<path d="M270.881 121.492C271.016 122.391 271.578 123.076 272.15 123.031C272.723 122.986 273.071 122.233 272.948 121.346C272.824 120.459 272.251 119.763 271.679 119.808C271.106 119.853 270.758 120.605 270.881 121.492Z" fill="#263238"/>
<path d="M281.618 120.863C281.752 121.75 282.314 122.436 282.887 122.402C283.459 122.368 283.808 121.605 283.684 120.717C283.561 119.83 282.988 119.134 282.426 119.179C281.865 119.224 281.494 119.976 281.618 120.863Z" fill="#263238"/>
<path d="M282.179 119.246L284.178 118.471C284.178 118.471 283.347 120.223 282.179 119.246Z" fill="#263238"/>
<path d="M278.844 122.548C279.916 124.521 281.232 126.351 282.763 127.995C282.355 128.352 281.871 128.611 281.347 128.753C280.824 128.895 280.275 128.916 279.742 128.815L278.844 122.548Z" fill="#724113"/>
<path d="M275.205 132.476C275.698 132.516 276.194 132.516 276.687 132.476C276.721 132.473 276.753 132.464 276.782 132.448C276.811 132.432 276.837 132.41 276.857 132.383C276.877 132.357 276.892 132.326 276.899 132.294C276.907 132.261 276.907 132.228 276.901 132.195C276.892 132.125 276.858 132.06 276.803 132.014C276.749 131.968 276.68 131.945 276.609 131.948C275.495 132.033 274.376 131.867 273.334 131.463C272.292 131.059 271.354 130.426 270.589 129.612C270.569 129.583 270.543 129.559 270.514 129.54C270.484 129.522 270.451 129.51 270.416 129.504C270.381 129.499 270.346 129.501 270.312 129.51C270.278 129.519 270.246 129.534 270.219 129.556C270.174 129.607 270.149 129.673 270.149 129.741C270.149 129.809 270.174 129.875 270.219 129.926C271.515 131.355 273.288 132.262 275.205 132.476Z" fill="#263238"/>
<path d="M252.688 126.422C252.929 127.411 253.373 128.339 253.991 129.147C254.61 129.955 255.39 130.626 256.282 131.117C258.528 132.24 260.156 129.702 259.909 126.793C259.684 124.176 258.247 120.437 255.776 120.56C253.305 120.684 251.958 123.772 252.688 126.422Z" fill="#6F431A"/>
<path d="M267.883 116.719C268.022 116.718 268.155 116.661 268.253 116.562C268.664 116.084 269.187 115.714 269.774 115.485C270.362 115.256 270.996 115.175 271.622 115.248C271.687 115.263 271.754 115.264 271.819 115.251C271.883 115.238 271.945 115.212 271.999 115.173C272.053 115.135 272.098 115.086 272.132 115.029C272.166 114.973 272.187 114.909 272.195 114.844C272.209 114.704 272.171 114.563 272.089 114.449C272.006 114.335 271.884 114.256 271.746 114.226C270.949 114.107 270.136 114.191 269.38 114.47C268.624 114.749 267.951 115.213 267.422 115.821C267.333 115.928 267.29 116.066 267.303 116.205C267.316 116.344 267.383 116.472 267.49 116.562C267.541 116.614 267.602 116.655 267.67 116.682C267.737 116.709 267.81 116.722 267.883 116.719Z" fill="#263238"/>
<path d="M283.662 113.945C283.726 113.953 283.791 113.947 283.853 113.927C283.915 113.908 283.972 113.876 284.021 113.833C284.118 113.734 284.173 113.601 284.173 113.462C284.173 113.324 284.118 113.19 284.021 113.092C283.476 112.438 282.786 111.919 282.007 111.576C281.228 111.233 280.379 111.075 279.529 111.115C279.463 111.123 279.399 111.145 279.342 111.178C279.285 111.212 279.235 111.257 279.196 111.311C279.157 111.365 279.13 111.426 279.115 111.491C279.101 111.556 279.1 111.623 279.113 111.688C279.14 111.826 279.217 111.949 279.329 112.033C279.441 112.118 279.58 112.159 279.72 112.148C280.389 112.129 281.055 112.264 281.664 112.543C282.273 112.821 282.811 113.236 283.235 113.754C283.289 113.814 283.354 113.862 283.428 113.895C283.501 113.928 283.581 113.945 283.662 113.945Z" fill="#263238"/>
<path d="M271.443 119.886L273.442 119.123C273.442 119.123 272.611 120.852 271.443 119.886Z" fill="#263238"/>
<path d="M272.835 189.797L269.534 189.516C268.92 189.455 268.301 189.543 267.728 189.772C267.156 190.001 266.646 190.363 266.243 190.83L262.402 195.232C261.65 196.104 261.115 197.142 260.841 198.26C260.568 199.379 260.564 200.547 260.83 201.667L261.178 203.071C266.625 203.981 273.184 200.937 273.184 200.937L275.16 200.286C275.567 200.16 275.945 199.956 276.272 199.684C276.6 199.412 276.87 199.078 277.069 198.702C277.267 198.325 277.389 197.913 277.427 197.489C277.466 197.065 277.421 196.638 277.294 196.232L276.036 192.323C275.812 191.633 275.388 191.025 274.819 190.575C274.249 190.125 273.559 189.854 272.835 189.797Z" fill="#8B5421"/>
<path d="M342.532 185.652L340.893 188.539C340.589 189.075 340.161 189.531 339.645 189.869C339.13 190.207 338.541 190.417 337.928 190.482L332.11 191.077C330.966 191.196 329.81 191.039 328.739 190.619C327.668 190.199 326.714 189.528 325.956 188.662L325.001 187.539C327.393 182.564 333.649 178.937 333.649 178.937L335.322 177.712C335.996 177.196 336.847 176.968 337.689 177.078C338.531 177.187 339.295 177.625 339.814 178.296L342.296 181.564C342.73 182.149 342.984 182.847 343.026 183.573C343.068 184.3 342.896 185.022 342.532 185.652Z" fill="#8B5421"/>
<path d="M253.991 174.006L253.395 175.567L252.755 177.297C252.351 178.42 251.924 179.644 251.542 180.823C250.745 183.204 250.071 185.608 249.431 188.011C248.791 190.414 248.308 192.829 247.847 195.232C247.387 197.635 247.162 200.039 246.96 202.442L246.803 200.937C246.653 200.53 246.437 200.151 246.163 199.814C245.825 199.387 245.379 199.057 244.871 198.86C244.13 198.624 244.287 198.86 244.77 198.961C245.457 199.037 246.15 199.037 246.837 198.961C247.668 198.893 248.566 198.747 249.51 198.579C251.385 198.242 253.362 197.737 255.372 197.186C257.382 196.636 259.437 195.996 261.403 195.434L261.627 195.367C262.501 195.116 263.434 195.173 264.271 195.528C265.107 195.883 265.797 196.515 266.223 197.318C266.649 198.12 266.787 199.045 266.613 199.937C266.439 200.829 265.963 201.634 265.266 202.218C263.46 203.736 261.554 205.131 259.561 206.395C257.527 207.697 255.402 208.853 253.204 209.854C252.01 210.382 250.788 210.843 249.543 211.236C248.103 211.702 246.615 212.004 245.107 212.134C242.881 212.364 240.633 212 238.593 211.078C237.107 210.375 235.813 209.323 234.82 208.012C233.898 206.791 233.24 205.391 232.888 203.902C232.801 203.557 232.752 203.203 232.742 202.846V202.408C232.603 199.383 232.667 196.351 232.933 193.334C233.046 191.829 233.248 190.358 233.439 188.842C233.629 187.326 233.91 185.911 234.213 184.462C234.808 181.571 235.558 178.715 236.46 175.904C236.909 174.5 237.358 173.108 237.897 171.727C238.167 171.03 238.425 170.334 238.717 169.638C239.009 168.941 239.29 168.301 239.694 167.392C240.501 165.466 242.04 163.94 243.973 163.149C245.905 162.358 248.072 162.367 249.998 163.174C251.924 163.982 253.45 165.521 254.241 167.453C255.031 169.385 255.022 171.553 254.215 173.479L253.991 174.006Z" fill="#8B5421"/>
<path d="M252.396 156.071C245.141 157.194 242.232 159.44 236.302 173.984C238.998 179.42 251.587 184.63 251.587 184.63C251.587 184.63 259.931 165.741 252.396 156.071Z" fill="#FFC017"/>
<path d="M272.15 102.277C275.104 105.915 264.289 122.997 251.711 128.107C247.32 117.292 255.922 99.4691 272.15 102.277Z" fill="#263238"/>
<path d="M263.054 101.715C261.122 100.053 259.258 93.7191 266.344 93.0677C273.431 92.4163 280.944 95.1903 275.856 102.636C264.525 102.041 263.054 101.715 263.054 101.715Z" fill="#263238"/>
<path d="M276.182 102.703H276.002C271.58 101.453 266.953 101.095 262.391 101.648C262.317 101.658 262.242 101.654 262.17 101.635C262.098 101.616 262.03 101.584 261.971 101.539C261.911 101.494 261.861 101.438 261.824 101.374C261.786 101.31 261.761 101.239 261.751 101.165C261.741 101.091 261.745 101.016 261.763 100.944C261.782 100.872 261.815 100.804 261.86 100.745C261.905 100.685 261.961 100.635 262.025 100.598C262.089 100.56 262.16 100.535 262.234 100.525C266.967 99.9378 271.77 100.32 276.351 101.648C276.492 101.694 276.609 101.795 276.677 101.927C276.744 102.06 276.756 102.214 276.71 102.355C276.67 102.462 276.597 102.552 276.502 102.615C276.408 102.677 276.296 102.708 276.182 102.703Z" fill="#FFC017"/>
<path d="M295.656 227.823C280.785 229.467 265.777 229.437 250.913 227.733C250.759 227.711 250.611 227.652 250.483 227.563C250.355 227.474 250.249 227.356 250.173 227.219C250.098 227.082 250.056 226.929 250.05 226.773C250.044 226.616 250.074 226.461 250.138 226.318L251.261 223.735C251.338 223.546 251.472 223.386 251.646 223.279C251.82 223.172 252.024 223.123 252.227 223.14C266.525 224.724 280.954 224.724 295.252 223.14C295.509 223.121 295.763 223.206 295.959 223.374C296.155 223.542 296.276 223.781 296.296 224.039C296.386 224.937 296.476 225.824 296.554 226.711C296.571 226.844 296.562 226.979 296.525 227.107C296.489 227.236 296.427 227.356 296.343 227.459C296.259 227.563 296.155 227.649 296.037 227.712C295.919 227.774 295.789 227.812 295.656 227.823Z" fill="#FFC017"/>
<path d="M277.047 121.751C277.084 122.677 276.846 123.593 276.362 124.384C275.878 125.174 275.17 125.803 274.328 126.191C273.486 126.579 272.548 126.709 271.633 126.564C270.718 126.418 269.866 126.004 269.186 125.375C268.506 124.745 268.028 123.927 267.812 123.026C267.597 122.124 267.654 121.179 267.976 120.31C268.299 119.441 268.872 118.687 269.623 118.144C270.374 117.601 271.269 117.292 272.195 117.258C272.809 117.234 273.421 117.331 273.997 117.544C274.573 117.757 275.102 118.081 275.552 118.499C276.003 118.916 276.367 119.418 276.623 119.976C276.88 120.534 277.024 121.137 277.047 121.751Z" fill="#263238"/>
<g opacity="0.5">
<path opacity="0.5" d="M272.802 117.27L267.714 122.357C267.773 123.164 268.048 123.94 268.512 124.603L275.003 118.101C274.358 117.63 273.597 117.343 272.802 117.27Z" fill="white"/>
<path opacity="0.5" d="M275.767 118.763L269.152 125.367C269.938 126.102 270.953 126.546 272.027 126.625L277.036 121.616C276.955 120.547 276.506 119.539 275.767 118.763Z" fill="white"/>
</g>
<path d="M289.277 120.515C289.314 121.441 289.076 122.358 288.592 123.148C288.108 123.939 287.4 124.568 286.558 124.956C285.716 125.344 284.778 125.473 283.863 125.328C282.948 125.183 282.096 124.769 281.416 124.139C280.736 123.509 280.258 122.692 280.042 121.791C279.827 120.889 279.884 119.944 280.207 119.075C280.529 118.206 281.102 117.452 281.853 116.908C282.604 116.365 283.499 116.057 284.425 116.023C285.664 115.977 286.87 116.425 287.779 117.267C288.689 118.109 289.227 119.277 289.277 120.515Z" fill="#263238"/>
<g opacity="0.5">
<path opacity="0.5" d="M285.032 116.034L279.944 121.122C280 121.931 280.28 122.709 280.753 123.368L287.244 116.876C286.595 116.403 285.831 116.112 285.032 116.034Z" fill="white"/>
<path opacity="0.5" d="M287.997 117.483L281.393 124.075C282.171 124.817 283.185 125.262 284.257 125.333L289.266 120.324C289.19 119.257 288.741 118.251 287.997 117.483Z" fill="white"/>
</g>
<path d="M438.834 123.255C448.863 125.378 449.369 129.466 447.336 131.555C445.09 133.801 438.161 131.555 438.161 131.555L438.834 123.255Z" fill="#263238"/>
<path d="M408.793 319.116C416.553 287.121 428.513 256.293 430.355 220.366L406.771 219.984L388.645 219.692C388.645 219.692 383.344 275.957 381.12 321.969C380.503 334.704 373.416 370.698 371.395 398.674C370.665 408.781 366.184 413.644 367.06 420.349L388.858 431.501C397.034 427.671 393.833 416.373 394.867 410.837C399.92 383.805 409.725 354.38 408.793 319.116Z" fill="#263238"/>
<path opacity="0.2" d="M412.162 306.37C418.226 283.987 425.425 261.773 428.772 237.526C402.054 249.375 402.885 286.716 412.162 306.37Z" fill="black"/>
<path d="M389.577 441.563L388.14 440.957L346.351 434.342C344.879 435.521 345.598 440.115 351.202 440.878C356.806 441.642 365.465 442.619 371.238 443.405C377.01 444.191 381.873 445.079 387.297 445.82C388.858 446.056 390.206 443.888 389.577 441.563Z" fill="#263238"/>
<path d="M391.475 425.212C392.138 430.389 391.644 438.453 389.869 441.44C389.802 442.563 388.858 442.451 387.758 442.305C381.783 441.485 374.977 440.35 369.205 439.463C362.467 438.43 358.12 438.475 350.214 437.273C345.441 436.532 345.463 433.107 347.474 432.343C352.786 430.344 361.141 430.254 367.037 425.122C367.037 425.122 362.983 420.023 366.161 417.957C369.34 415.89 377.864 416.497 377.931 419.495C377.936 421.395 377.526 423.273 376.729 424.998C376.729 424.998 389.353 421.551 391.475 425.212Z" fill="#FFC017"/>
<path d="M406.423 146.199C405.704 147.615 404.896 149.265 404.177 150.838C403.458 152.41 402.683 154.016 401.931 155.622C400.482 158.823 399.101 162.046 397.82 165.269C396.54 168.492 395.361 171.704 394.373 174.849C393.42 177.708 392.706 180.642 392.239 183.62L392.081 180.745C392.385 182.766 392.722 184.799 393.092 186.798C393.463 188.797 393.878 190.796 394.35 192.75C394.822 194.704 395.305 196.658 395.855 198.545C396.136 199.477 396.417 200.409 396.72 201.297L397.169 202.599L397.382 203.195C397.382 203.352 397.562 203.633 397.517 203.576C398.076 204.648 398.417 205.819 398.519 207.023C398.621 208.227 398.483 209.439 398.113 210.59C397.743 211.74 397.147 212.805 396.362 213.723C395.576 214.641 394.616 215.394 393.537 215.938C392.459 216.482 391.282 216.806 390.077 216.891C388.872 216.977 387.662 216.822 386.517 216.436C385.372 216.049 384.315 215.439 383.408 214.641C382.501 213.843 381.762 212.872 381.233 211.786L380.682 210.663L380.244 209.764L379.47 208.046C378.975 206.923 378.515 205.8 378.077 204.677C377.201 202.431 376.415 200.252 375.685 198.029C374.955 195.805 374.281 193.536 373.641 191.369C373.001 189.201 372.439 186.877 371.889 184.687C371.702 183.954 371.634 183.195 371.687 182.441V181.834C372.055 177.527 372.807 173.261 373.933 169.087C374.921 165.19 376.055 161.451 377.302 157.789C378.549 154.128 379.829 150.523 381.199 146.963C381.873 145.189 382.58 143.414 383.299 141.651C384.018 139.888 384.725 138.17 385.545 136.283C386.124 134.849 386.985 133.547 388.077 132.452C389.168 131.357 390.469 130.492 391.9 129.909C393.332 129.326 394.867 129.036 396.413 129.056C397.959 129.076 399.485 129.407 400.901 130.027C402.317 130.648 403.594 131.547 404.656 132.67C405.718 133.793 406.545 135.118 407.086 136.567C407.627 138.015 407.872 139.557 407.806 141.102C407.741 142.646 407.366 144.162 406.704 145.559C406.625 145.784 406.546 146.009 406.423 146.199Z" fill="#FFC017"/>
<path opacity="0.2" d="M406.423 146.199C405.704 147.615 404.896 149.265 404.177 150.838C403.458 152.41 402.683 154.016 401.931 155.622C400.482 158.823 399.101 162.046 397.82 165.269C396.54 168.492 395.361 171.704 394.373 174.849C393.42 177.708 392.706 180.642 392.239 183.62L392.081 180.745C392.385 182.766 392.722 184.799 393.092 186.798C393.463 188.797 393.878 190.796 394.35 192.75C394.822 194.704 395.305 196.658 395.855 198.545C396.136 199.477 396.417 200.409 396.72 201.297L397.169 202.599L397.382 203.195C397.382 203.352 397.562 203.633 397.517 203.576C398.076 204.648 398.417 205.819 398.519 207.023C398.621 208.227 398.483 209.439 398.113 210.59C397.743 211.74 397.147 212.805 396.362 213.723C395.576 214.641 394.616 215.394 393.537 215.938C392.459 216.482 391.282 216.806 390.077 216.891C388.872 216.977 387.662 216.822 386.517 216.436C385.372 216.049 384.315 215.439 383.408 214.641C382.501 213.843 381.762 212.872 381.233 211.786L380.682 210.663L380.244 209.764L379.47 208.046C378.975 206.923 378.515 205.8 378.077 204.677C377.201 202.431 376.415 200.252 375.685 198.029C374.955 195.805 374.281 193.536 373.641 191.369C373.001 189.201 372.439 186.877 371.889 184.687C371.702 183.954 371.634 183.195 371.687 182.441V181.834C372.055 177.527 372.807 173.261 373.933 169.087C374.921 165.19 376.055 161.451 377.302 157.789C378.549 154.128 379.829 150.523 381.199 146.963C381.873 145.189 382.58 143.414 383.299 141.651C384.018 139.888 384.725 138.17 385.545 136.283C386.124 134.849 386.985 133.547 388.077 132.452C389.168 131.357 390.469 130.492 391.9 129.909C393.332 129.326 394.867 129.036 396.413 129.056C397.959 129.076 399.485 129.407 400.901 130.027C402.317 130.648 403.594 131.547 404.656 132.67C405.718 133.793 406.545 135.118 407.086 136.567C407.627 138.015 407.872 139.557 407.806 141.102C407.741 142.646 407.366 144.162 406.704 145.559C406.625 145.784 406.546 146.009 406.423 146.199Z" fill="black"/>
<path d="M462.699 410.309C458.533 382.962 458.117 339.253 449.537 318.218C447.763 286.346 453.648 249.206 445.685 220.4L401.998 219.726C401.998 219.726 408.95 277.092 419.125 323.047C421 331.549 428.48 373.675 435.892 401.515C438.576 411.623 435.892 416.991 438.947 423.482L463.822 431.49C470.471 426.615 463.598 415.902 462.699 410.309Z" fill="#263238"/>
<path d="M466.731 441.316L465.136 440.912L422.46 440.047C421.337 441.406 423.46 445.842 429.142 445.842C434.825 445.842 443.551 445.629 449.357 445.629C455.164 445.629 460.206 445.842 465.709 445.842C467.371 445.842 468.034 443.529 466.731 441.316Z" fill="#263238"/>
<path d="M463.822 424.942C466.069 429.962 467.967 437.97 467.192 441.159C467.45 442.282 466.507 442.282 465.395 442.282C459.33 442.282 452.356 442.069 446.482 441.979C439.621 441.878 435.398 442.507 427.39 442.372C422.516 442.305 421.528 439.003 423.235 437.88C428.222 434.589 435.903 433.983 440.081 428.12C440.081 428.12 434.612 423.628 437.082 421.18C439.553 418.732 450.773 417.552 451.682 420.506C452.267 422.317 452.432 424.237 452.165 426.121C452.165 426.121 460.633 421.618 463.822 424.942Z" fill="#FFC017"/>
<path d="M437.431 128.938C424.97 127.587 412.403 127.534 399.932 128.781C395.745 129.217 391.846 131.114 388.919 134.139C385.992 137.165 384.225 141.125 383.928 145.324C382.558 166.134 388.645 186.764 388.623 219.692C394.069 225.892 422.606 228.317 446.258 220.557C449.773 205.957 446.258 181.014 451.446 147.278C451.786 145.146 451.689 142.967 451.161 140.874C450.632 138.78 449.684 136.816 448.373 135.101C447.062 133.386 445.416 131.955 443.535 130.895C441.654 129.836 439.577 129.17 437.431 128.938Z" fill="white"/>
<path d="M429.345 103.141L413.487 115.765C415.542 121.38 416.182 127.388 406.591 129.758C404.065 133.026 405.468 137.732 411.814 141.247C422.168 138.754 428.031 135.879 431.782 130.297C430.411 126.041 428.042 110.902 429.345 103.141Z" fill="#8B5421"/>
<path opacity="0.2" d="M422.887 108.285L413.498 115.753C414.013 117.043 414.389 118.383 414.621 119.752C418.339 120.01 423.46 116.304 423.606 113.013C423.656 111.407 423.413 109.804 422.887 108.285Z" fill="black"/>
<path d="M407.95 80.0402C399.303 87.8005 404.379 92.4724 403.683 96.886C408.647 94.2693 413.217 86.318 407.95 80.0402Z" fill="#263238"/>
<path d="M431.591 94.3817C430.164 104.208 429.827 110.026 424.414 114.597C416.272 121.526 404.458 115.877 402.908 105.803C401.526 96.7289 404.098 82.219 414.138 79.153C416.354 78.4864 418.703 78.3929 420.965 78.8813C423.227 79.3697 425.328 80.4239 427.072 81.9454C428.816 83.4669 430.145 85.4058 430.935 87.5808C431.725 89.7558 431.951 92.0958 431.591 94.3817Z" fill="#8B5421"/>
<path d="M428.907 101.401C422.494 100.727 424.785 97.6722 425.695 95.1453C426.604 92.6184 423.078 89.2493 423.628 87.093C420.192 85.9699 417.766 85.195 417.159 83.5778C413.981 85.195 404.39 88.6428 400.808 83.5778C397.225 78.5128 399.224 69.461 409.32 71.5499C415.8 72.8976 421.438 75.8961 423.92 73.7286C426.402 71.5611 432.107 72.92 433.68 77.6369C435.252 82.3537 443.136 81.2082 441.44 85.8689C439.744 90.5296 435.701 89.7209 435.701 89.7209C435.701 89.7209 436.06 99.5814 428.907 101.401Z" fill="#263238"/>
<path d="M437.655 82.2415C437.59 82.2439 437.525 82.2241 437.472 82.1854C437.419 82.1467 437.381 82.0913 437.363 82.0281C436.24 78.2771 433.646 76.7048 427.694 73.7511C426.769 73.2243 425.711 72.9797 424.649 73.0476C423.587 73.1155 422.569 73.4928 421.719 74.133C420.136 75.0202 418.485 75.9411 415.834 74.0319C411.971 71.2355 407.67 69.8541 405.143 70.6627C404.626 70.8117 404.153 71.0821 403.762 71.4513C403.371 71.8206 403.075 72.278 402.897 72.7853C402.883 72.8231 402.862 72.8577 402.834 72.8869C402.807 72.9161 402.774 72.9394 402.737 72.9552C402.7 72.971 402.66 72.979 402.62 72.9788C402.58 72.9785 402.54 72.97 402.504 72.9538C402.466 72.94 402.431 72.9189 402.402 72.8916C402.372 72.8643 402.348 72.8314 402.331 72.7949C402.315 72.7583 402.305 72.7187 402.304 72.6785C402.303 72.6383 402.31 72.5983 402.324 72.5607C402.542 71.9639 402.9 71.4275 403.367 70.996C403.833 70.5645 404.396 70.2501 405.008 70.0788C407.748 69.2702 412.162 70.6515 416.239 73.5939C418.574 75.2785 419.911 74.5261 421.472 73.5939C422.409 72.9076 423.524 72.5065 424.684 72.4388C425.843 72.3711 426.998 72.6396 428.008 73.2121C434.129 76.2443 436.746 77.8728 437.981 81.8484C438.006 81.9243 438 82.0071 437.964 82.0786C437.928 82.1501 437.866 82.2046 437.79 82.2302L437.655 82.2415Z" fill="#263238"/>
<path d="M407.456 106.241C407.456 106.241 410.926 105.118 420.663 104.343C419.54 107.476 417.429 110.138 412.443 110.497C411.826 110.601 411.195 110.568 410.593 110.401C409.991 110.234 409.432 109.938 408.957 109.532C408.482 109.126 408.101 108.621 407.842 108.053C407.582 107.484 407.451 106.866 407.456 106.241Z" fill="#263238"/>
<path d="M414.734 107.914C412.773 107.972 410.879 108.644 409.32 109.835C410.258 110.399 411.357 110.632 412.443 110.497C414.4 110.442 416.291 109.77 417.844 108.577C416.912 108.011 415.816 107.778 414.734 107.914Z" fill="#FF5652"/>
<path d="M407.905 106.118C408.186 106.746 408.467 107.375 409.444 107.51C412.348 107.268 415.226 106.779 418.047 106.05C418.519 105.966 418.963 105.77 419.344 105.479C419.725 105.188 420.031 104.81 420.237 104.377C416.087 104.633 411.964 105.215 407.905 106.118Z" fill="white"/>
<path d="M434.365 100.424C434.03 101.499 433.486 102.498 432.763 103.361C432.04 104.225 431.153 104.937 430.153 105.455C427.458 106.825 425.492 104.568 425.717 101.715C425.919 99.1547 427.57 95.3475 430.524 95.1566C431.17 95.1243 431.813 95.2533 432.397 95.5319C432.981 95.8106 433.486 96.2301 433.867 96.7526C434.248 97.2752 434.493 97.8844 434.58 98.5253C434.667 99.1661 434.593 99.8186 434.365 100.424Z" fill="#8B5421"/>
<path d="M416.587 94.7411C416.519 95.5497 416.036 96.1561 415.464 96.1112C414.891 96.0663 414.565 95.37 414.633 94.5726C414.7 93.7752 415.183 93.1463 415.756 93.2025C416.328 93.2586 416.654 93.9437 416.587 94.7411Z" fill="#263238"/>
<path d="M406.973 94.5052C406.906 95.3139 406.423 95.9315 405.85 95.8754C405.277 95.8192 404.952 95.1342 405.019 94.3368C405.087 93.5394 405.569 92.9217 406.142 92.9667C406.715 93.0116 407.041 93.7079 406.973 94.5052Z" fill="#263238"/>
<path d="M410.14 95.5946C408.972 97.9626 407.483 100.158 405.715 102.12C407.029 103.58 409.5 103.186 409.5 103.186L410.14 95.5946Z" fill="#724113"/>
<path d="M419.293 92.1804C419.37 92.202 419.452 92.202 419.529 92.1804C419.587 92.157 419.639 92.1224 419.683 92.0786C419.728 92.0349 419.763 91.9828 419.787 91.9253C419.811 91.8679 419.823 91.8063 419.823 91.7441C419.823 91.6819 419.811 91.6202 419.787 91.5627C419.521 90.8556 419.091 90.2215 418.533 89.7122C417.975 89.2028 417.304 88.8325 416.575 88.6315C416.453 88.6084 416.327 88.6344 416.224 88.7037C416.121 88.7731 416.05 88.8804 416.025 89.0022C416.012 89.0634 416.011 89.1266 416.023 89.1882C416.035 89.2497 416.058 89.3083 416.093 89.3606C416.127 89.4129 416.172 89.4578 416.224 89.4926C416.276 89.5275 416.334 89.5516 416.396 89.5637C416.968 89.734 417.493 90.0345 417.929 90.4418C418.366 90.849 418.702 91.3519 418.911 91.9109C418.947 91.9844 419.001 92.0478 419.068 92.0949C419.134 92.1421 419.212 92.1715 419.293 92.1804Z" fill="#263238"/>
<path d="M402.616 90.9114C402.694 90.9063 402.77 90.8834 402.838 90.8444C402.906 90.8055 402.965 90.7516 403.009 90.6868C403.3 90.1678 403.713 89.7272 404.212 89.4025C404.71 89.0778 405.28 88.8788 405.873 88.8225C405.998 88.8225 406.118 88.7728 406.206 88.6844C406.295 88.5959 406.344 88.4759 406.344 88.3508C406.344 88.2257 406.295 88.1058 406.206 88.0173C406.118 87.9288 405.998 87.8792 405.873 87.8792C405.129 87.9333 404.409 88.1657 403.774 88.5566C403.138 88.9475 402.606 89.4855 402.223 90.1253C402.191 90.1789 402.169 90.2385 402.16 90.3005C402.151 90.3625 402.155 90.4256 402.17 90.4863C402.186 90.5469 402.214 90.6038 402.252 90.6537C402.29 90.7035 402.337 90.7453 402.391 90.7766C402.451 90.8434 402.529 90.8904 402.616 90.9114Z" fill="#263238"/>
<path d="M432.893 126.726C431.377 126.557 430.254 125.389 427.828 127.849C425.403 130.308 420.338 137.024 418.372 147.895C416.239 161.412 415.112 175.068 415.003 188.752C415.138 198.86 413.768 217.862 417.698 227.924C417.975 228.287 418.334 228.579 418.747 228.774C419.159 228.97 419.612 229.063 420.068 229.047C420.068 229.047 418.574 192.716 420.675 171.951C422.775 151.186 432.893 126.726 432.893 126.726Z" fill="#263238"/>
<path d="M433.163 126.175C428.165 126.175 422.078 135.778 419.686 149.76C417.294 163.742 416.553 184.271 416.575 192.975C416.598 201.678 415.98 213.37 417.193 217.963C418.406 222.556 418.485 229.822 420.562 230.496C422.64 231.17 443.978 228.767 450.458 217.963C449.515 209.866 452.053 192.514 451.233 185.214C450.413 177.915 454.108 157.453 453.838 147.031C453.569 136.609 449.908 126.175 433.163 126.175Z" fill="#FFC017"/>
<path opacity="0.2" d="M452.592 165.067L441.956 152.59C441.575 161.866 449.818 185.001 451.413 189.28C451.436 187.919 451.383 186.558 451.255 185.203C450.772 181.194 451.682 173.187 452.592 165.067Z" fill="black"/>
<path d="M420.933 138.978C420.495 133.442 425.728 123.154 430.793 121.313C435.858 119.471 442.383 120.897 441.889 127.377C431.13 132.24 424.392 138.911 420.933 138.978Z" fill="#263238"/>
<path d="M403.919 227.958C406.243 227.958 406.165 226.543 405.188 220.097C404.211 213.65 402.706 192.537 402.773 186.865C402.84 181.194 403.537 142.145 405.311 136.822C407.557 130.084 408.68 128.961 406.928 128.837C406.023 128.756 405.115 128.952 404.323 129.399C404.323 129.399 398.708 157.891 399.258 187.472C399.808 217.053 403.919 227.958 403.919 227.958Z" fill="#263238"/>
<path d="M403.896 127.916C404.238 127.907 404.576 127.984 404.881 128.14C405.185 128.296 405.445 128.527 405.636 128.81C405.827 129.093 405.944 129.42 405.976 129.761C406.007 130.101 405.953 130.444 405.817 130.758C402.054 139.192 400.74 156.857 401.324 182.71C401.953 212.022 404.783 224.847 404.817 229.238C398.629 230.126 388.634 226.341 386.612 221.377C384.591 216.413 381.266 189.179 381.839 180.531C382.412 171.884 380.346 151.242 383.883 141.471C387.207 132.296 386.657 128.332 403.896 127.916Z" fill="#FFC017"/>
<path d="M406.659 132.947C407.703 129.163 414.06 128.534 414.52 123.289C404.469 120.841 402.762 125.12 399.921 128.096C401.324 133.857 404.413 142.359 404.413 142.359C404.413 142.359 405.502 137.148 406.659 132.947Z" fill="#263238"/>
<path d="M424.246 254.496L420.023 256.54C419.534 256.779 419.002 256.92 418.458 256.954C417.914 256.987 417.369 256.913 416.853 256.736C416.338 256.559 415.863 256.281 415.455 255.92C415.047 255.559 414.714 255.121 414.475 254.631C413.995 253.641 413.926 252.502 414.284 251.462C414.641 250.422 415.397 249.567 416.385 249.083L420.562 247.039C421.053 246.799 421.585 246.658 422.13 246.624C422.675 246.59 423.221 246.664 423.737 246.842C424.254 247.019 424.73 247.296 425.139 247.658C425.548 248.019 425.882 248.457 426.121 248.948C426.605 249.933 426.679 251.069 426.327 252.108C425.976 253.148 425.228 254.006 424.246 254.496Z" fill="#FFC017"/>
<path d="M492.876 216.357L488.687 218.401C488.197 218.64 487.665 218.781 487.122 218.815C486.578 218.848 486.032 218.774 485.517 218.597C485.002 218.42 484.526 218.142 484.118 217.781C483.71 217.42 483.378 216.982 483.139 216.492C482.658 215.502 482.589 214.363 482.947 213.323C483.305 212.283 484.061 211.428 485.048 210.944L489.226 208.9C489.716 208.66 490.249 208.519 490.794 208.485C491.339 208.451 491.885 208.525 492.401 208.703C492.917 208.88 493.394 209.157 493.803 209.519C494.212 209.88 494.546 210.318 494.785 210.809C495.266 211.798 495.335 212.937 494.977 213.977C494.619 215.017 493.864 215.873 492.876 216.357Z" fill="#FFC017"/>
<path d="M406.064 215.649C393.452 222.118 387.601 232.989 384.928 240.604C384.51 241.804 384.335 243.075 384.411 244.343C384.486 245.612 384.812 246.853 385.37 247.995C385.927 249.136 386.705 250.157 387.658 250.997C388.612 251.837 389.722 252.48 390.925 252.89C398.573 255.473 410.747 257.539 423.606 251.576C440.182 243.894 480.489 220.355 494.257 211.887C496.139 210.728 497.625 209.026 498.519 207.005C499.413 204.983 499.674 202.739 499.266 200.567L498.457 196.277C498.056 194.191 497.102 192.252 495.695 190.661L492.797 187.393C491.339 185.731 489.41 184.551 487.265 184.012C485.121 183.472 482.863 183.598 480.792 184.372C465.653 189.976 422.269 207.305 406.064 215.649Z" fill="#FFC017"/>
<path opacity="0.7" d="M406.064 215.649C393.452 222.118 387.601 232.989 384.928 240.604C384.51 241.804 384.335 243.075 384.411 244.343C384.486 245.612 384.812 246.853 385.37 247.995C385.927 249.136 386.705 250.157 387.658 250.997C388.612 251.837 389.722 252.48 390.925 252.89C398.573 255.473 410.747 257.539 423.606 251.576C440.182 243.894 480.489 220.355 494.257 211.887C496.139 210.728 497.625 209.026 498.519 207.005C499.413 204.983 499.674 202.739 499.266 200.567L498.457 196.277C498.056 194.191 497.102 192.252 495.695 190.661L492.797 187.393C491.339 185.731 489.41 184.551 487.265 184.012C485.121 183.472 482.863 183.598 480.792 184.372C465.653 189.976 422.269 207.305 406.064 215.649Z" fill="white"/>
<path d="M451.267 134.486L453.03 137.125L454.681 139.686C455.766 141.4 456.833 143.13 457.881 144.874C459.982 148.356 462.003 151.893 463.924 155.566C465.844 159.238 467.675 163.012 469.314 167.066C470.134 169.11 470.909 171.221 471.56 173.501C472.327 175.976 472.861 178.518 473.155 181.093V181.463C473.166 181.669 473.166 181.875 473.155 182.081C473.135 186.358 472.729 190.624 471.942 194.828C471.203 198.829 470.209 202.779 468.966 206.654C467.753 210.472 466.349 214.167 464.799 217.783C464.051 219.587 463.231 221.381 462.34 223.163C461.913 224.05 461.475 224.937 461.015 225.824L460.453 227.138L459.656 228.598C458.522 230.674 456.626 232.227 454.368 232.929C452.109 233.632 449.666 233.428 447.556 232.362C445.445 231.295 443.831 229.45 443.057 227.215C442.282 224.981 442.407 222.533 443.405 220.389L443.607 219.838L444.584 217.749C444.921 216.986 445.247 216.222 445.573 215.503C446.224 213.953 446.842 212.381 447.426 210.798C448.584 207.664 449.585 204.474 450.424 201.24C451.253 198.106 451.88 194.921 452.3 191.706C452.704 188.695 452.828 185.654 452.67 182.62L452.749 183.62C452.502 182.357 452.149 181.117 451.693 179.914C451.177 178.499 450.57 176.994 449.829 175.478C448.403 172.423 446.685 169.301 444.843 166.201C443.001 163.101 441.002 160.013 438.935 156.958C437.902 155.461 436.85 153.963 435.78 152.466L434.163 150.22L432.579 148.097L432.411 147.873C431.457 146.662 430.756 145.272 430.348 143.786C429.94 142.3 429.833 140.748 430.034 139.22C430.235 137.692 430.739 136.22 431.518 134.889C432.296 133.559 433.332 132.398 434.566 131.475C435.8 130.551 437.206 129.884 438.701 129.512C440.197 129.14 441.751 129.07 443.274 129.308C444.797 129.546 446.256 130.085 447.567 130.896C448.878 131.706 450.014 132.77 450.907 134.026L451.267 134.486Z" fill="#FFC017"/>
<path d="M443.473 223.679C442.854 225.117 442.526 226.663 442.507 228.228C442.491 228.621 442.589 229.012 442.788 229.352C442.987 229.692 443.279 229.968 443.63 230.148C445.73 231.17 450.267 233.236 453.322 233.697C453.668 233.744 454.021 233.701 454.346 233.571C454.671 233.441 454.957 233.229 455.175 232.956C456.111 231.777 456.816 230.432 457.253 228.991C457.337 228.705 457.36 228.404 457.322 228.108C457.283 227.813 457.183 227.528 457.028 227.273C454.232 222.612 447.808 222.388 445.191 222.5C444.825 222.524 444.473 222.647 444.17 222.854C443.868 223.062 443.627 223.347 443.473 223.679Z" fill="#263238"/>
<path d="M443.529 229.193L441.507 236.549L453.715 236.347C453.917 234.76 453.943 233.156 453.794 231.563C453.695 230.745 453.43 229.955 453.015 229.243C452.6 228.531 452.043 227.912 451.378 227.423C450.714 226.935 449.957 226.588 449.154 226.404C448.35 226.219 447.518 226.202 446.707 226.352C445.96 226.47 445.263 226.8 444.699 227.304C444.136 227.808 443.729 228.464 443.529 229.193Z" fill="#8B5421"/>
<path d="M446.651 245.736L450.896 244.95C451.716 244.798 452.454 244.36 452.981 243.715C453.508 243.069 453.788 242.257 453.771 241.424L453.659 236.347L441.507 236.549L442.552 242.85C442.626 243.311 442.792 243.752 443.04 244.149C443.287 244.545 443.612 244.887 443.994 245.156C444.376 245.425 444.807 245.615 445.264 245.714C445.72 245.814 446.192 245.821 446.651 245.736Z" fill="#8B5421"/>
<path d="M433.5 158.239C433.253 162.113 430.378 165.291 427.054 165.336C423.729 165.381 421.259 162.27 421.494 158.396C421.73 154.521 424.628 151.343 427.941 151.298C431.254 151.253 433.769 154.364 433.5 158.239Z" fill="white"/>
</svg>
